  0
SECTION
  2
HEADER
  9
$ACADVER
  1
AC1032
  9
$ACADMAINTVER
 90
      228
  9
$DWGCODEPAGE
  3
ANSI_1252
  9
$REQUIREDVERSIONS
160
                 0
  9
$INSBASE
 10
0.0
 20
0.0
 30
0.0
  9
$EXTMIN
 10
1.000000000000000E+20
 20
1.000000000000000E+20
 30
1.000000000000000E+20
  9
$EXTMAX
 10
-1.000000000000000E+20
 20
-1.000000000000000E+20
 30
-1.000000000000000E+20
  9
$LIMMIN
 10
0.0
 20
0.0
  9
$LIMMAX
 10
12.0
 20
9.0
  9
$ORTHOMODE
 70
     0
  9
$REGENMODE
 70
     1
  9
$FILLMODE
 70
     1
  9
$QTEXTMODE
 70
     0
  9
$MIRRTEXT
 70
     0
  9
$LTSCALE
 40
1.0
  9
$ATTMODE
 70
     1
  9
$TEXTSIZE
 40
0.2
  9
$TRACEWID
 40
0.05
  9
$TEXTSTYLE
  7
Standard
  9
$CLAYER
  8
0
  9
$CELTYPE
  6
ByLayer
  9
$CECOLOR
 62
   256
  9
$CELTSCALE
 40
1.0
  9
$DISPSILH
 70
     0
  9
$DIMSCALE
 40
1.0
  9
$DIMASZ
 40
0.18
  9
$DIMEXO
 40
0.0625
  9
$DIMDLI
 40
0.38
  9
$DIMRND
 40
0.0
  9
$DIMDLE
 40
0.0
  9
$DIMEXE
 40
0.18
  9
$DIMTP
 40
0.0
  9
$DIMTM
 40
0.0
  9
$DIMTXT
 40
0.18
  9
$DIMCEN
 40
0.09
  9
$DIMTSZ
 40
0.0
  9
$DIMTOL
 70
     0
  9
$DIMLIM
 70
     0
  9
$DIMTIH
 70
     1
  9
$DIMTOH
 70
     1
  9
$DIMSE1
 70
     0
  9
$DIMSE2
 70
     0
  9
$DIMTAD
 70
     0
  9
$DIMZIN
 70
     0
  9
$DIMBLK
  1

  9
$DIMASO
 70
     1
  9
$DIMSHO
 70
     1
  9
$DIMPOST
  1

  9
$DIMAPOST
  1

  9
$DIMALT
 70
     0
  9
$DIMALTD
 70
     2
  9
$DIMALTF
 40
25.4
  9
$DIMLFAC
 40
1.0
  9
$DIMTOFL
 70
     0
  9
$DIMTVP
 40
0.0
  9
$DIMTIX
 70
     0
  9
$DIMSOXD
 70
     0
  9
$DIMSAH
 70
     0
  9
$DIMBLK1
  1

  9
$DIMBLK2
  1

  9
$DIMSTYLE
  2
Standard
  9
$DIMCLRD
 70
     0
  9
$DIMCLRE
 70
     0
  9
$DIMCLRT
 70
     0
  9
$DIMTFAC
 40
1.0
  9
$DIMGAP
 40
0.09
  9
$DIMJUST
 70
     0
  9
$DIMSD1
 70
     0
  9
$DIMSD2
 70
     0
  9
$DIMTOLJ
 70
     1
  9
$DIMTZIN
 70
     0
  9
$DIMALTZ
 70
     0
  9
$DIMALTTZ
 70
     0
  9
$DIMUPT
 70
     0
  9
$DIMDEC
 70
     4
  9
$DIMTDEC
 70
     4
  9
$DIMALTU
 70
     2
  9
$DIMALTTD
 70
     2
  9
$DIMTXSTY
  7
Standard
  9
$DIMAUNIT
 70
     0
  9
$DIMADEC
 70
     0
  9
$DIMALTRND
 40
0.0
  9
$DIMAZIN
 70
     0
  9
$DIMDSEP
 70
    46
  9
$DIMATFIT
 70
     3
  9
$DIMFRAC
 70
     0
  9
$DIMLDRBLK
  1

  9
$DIMLUNIT
 70
     2
  9
$DIMLWD
 70
    -2
  9
$DIMLWE
 70
    -2
  9
$DIMTMOVE
 70
     0
  9
$DIMFXL
 40
1.0
  9
$DIMFXLON
 70
     0
  9
$DIMJOGANG
 40
0.7853981633974483
  9
$DIMTFILL
 70
     0
  9
$DIMTFILLCLR
 70
     0
  9
$DIMARCSYM
 70
     0
  9
$DIMLTYPE
  6

  9
$DIMLTEX1
  6

  9
$DIMLTEX2
  6

  9
$DIMTXTDIRECTION
 70
     0
  9
$LUNITS
 70
     2
  9
$LUPREC
 70
     4
  9
$SKETCHINC
 40
0.1
  9
$FILLETRAD
 40
0.0
  9
$AUNITS
 70
     0
  9
$AUPREC
 70
     0
  9
$MENU
  1
.
  9
$ELEVATION
 40
0.0
  9
$PELEVATION
 40
0.0
  9
$THICKNESS
 40
0.0
  9
$LIMCHECK
 70
     0
  9
$CHAMFERA
 40
0.0
  9
$CHAMFERB
 40
0.0
  9
$CHAMFERC
 40
0.0
  9
$CHAMFERD
 40
0.0
  9
$SKPOLY
 70
     0
  9
$TDCREATE
 40
2460546.581493056
  9
$TDUCREATE
 40
2460546.789826389
  9
$TDUPDATE
 40
2460546.581493056
  9
$TDUUPDATE
 40
2460546.789826389
  9
$TDINDWG
 40
0.0000000000
  9
$TDUSRTIMER
 40
0.0000000000
  9
$USRTIMER
 70
     1
  9
$ANGBASE
 50
0.0
  9
$ANGDIR
 70
     0
  9
$PDMODE
 70
     0
  9
$PDSIZE
 40
0.0
  9
$PLINEWID
 40
0.0
  9
$SPLFRAME
 70
     0
  9
$SPLINETYPE
 70
     6
  9
$SPLINESEGS
 70
     8
  9
$HANDSEED
  5
A1
  9
$SURFTAB1
 70
     6
  9
$SURFTAB2
 70
     6
  9
$SURFTYPE
 70
     6
  9
$SURFU
 70
     6
  9
$SURFV
 70
     6
  9
$UCSBASE
  2

  9
$UCSNAME
  2

  9
$UCSORG
 10
0.0
 20
0.0
 30
0.0
  9
$UCSXDIR
 10
1.0
 20
0.0
 30
0.0
  9
$UCSYDIR
 10
0.0
 20
1.0
 30
0.0
  9
$UCSORTHOREF
  2

  9
$UCSORTHOVIEW
 70
     0
  9
$UCSORGTOP
 10
0.0
 20
0.0
 30
0.0
  9
$UCSORGBOTTOM
 10
0.0
 20
0.0
 30
0.0
  9
$UCSORGLEFT
 10
0.0
 20
0.0
 30
0.0
  9
$UCSORGRIGHT
 10
0.0
 20
0.0
 30
0.0
  9
$UCSORGFRONT
 10
0.0
 20
0.0
 30
0.0
  9
$UCSORGBACK
 10
0.0
 20
0.0
 30
0.0
  9
$PUCSBASE
  2

  9
$PUCSNAME
  2

  9
$PUCSORG
 10
0.0
 20
0.0
 30
0.0
  9
$PUCSXDIR
 10
1.0
 20
0.0
 30
0.0
  9
$PUCSYDIR
 10
0.0
 20
1.0
 30
0.0
  9
$PUCSORTHOREF
  2

  9
$PUCSORTHOVIEW
 70
     0
  9
$PUCSORGTOP
 10
0.0
 20
0.0
 30
0.0
  9
$PUCSORGBOTTOM
 10
0.0
 20
0.0
 30
0.0
  9
$PUCSORGLEFT
 10
0.0
 20
0.0
 30
0.0
  9
$PUCSORGRIGHT
 10
0.0
 20
0.0
 30
0.0
  9
$PUCSORGFRONT
 10
0.0
 20
0.0
 30
0.0
  9
$PUCSORGBACK
 10
0.0
 20
0.0
 30
0.0
  9
$USERI1
 70
     0
  9
$USERI2
 70
     0
  9
$USERI3
 70
     0
  9
$USERI4
 70
     0
  9
$USERI5
 70
     0
  9
$USERR1
 40
0.0
  9
$USERR2
 40
0.0
  9
$USERR3
 40
0.0
  9
$USERR4
 40
0.0
  9
$USERR5
 40
0.0
  9
$WORLDVIEW
 70
     1
  9
$SHADEDGE
 70
     3
  9
$SHADEDIF
 70
    70
  9
$TILEMODE
 70
     1
  9
$MAXACTVP
 70
    64
  9
$PINSBASE
 10
0.0
 20
0.0
 30
0.0
  9
$PLIMCHECK
 70
     0
  9
$PEXTMIN
 10
1.000000000000000E+20
 20
1.000000000000000E+20
 30
1.000000000000000E+20
  9
$PEXTMAX
 10
-1.000000000000000E+20
 20
-1.000000000000000E+20
 30
-1.000000000000000E+20
  9
$PLIMMIN
 10
0.0
 20
0.0
  9
$PLIMMAX
 10
12.0
 20
9.0
  9
$UNITMODE
 70
     0
  9
$VISRETAIN
 70
     1
  9
$PLINEGEN
 70
     0
  9
$PSLTSCALE
 70
     1
  9
$TREEDEPTH
 70
  3020
  9
$CMLSTYLE
  2
Standard
  9
$CMLJUST
 70
     0
  9
$CMLSCALE
 40
1.0
  9
$PROXYGRAPHICS
 70
     1
  9
$MEASUREMENT
 70
     0
  9
$CELWEIGHT
370
    -1
  9
$ENDCAPS
280
     0
  9
$JOINSTYLE
280
     0
  9
$LWDISPLAY
290
     1
  9
$INSUNITS
 70
     0
  9
$HYPERLINKBASE
  1

  9
$STYLESHEET
  1

  9
$XEDIT
290
     1
  9
$CEPSNTYPE
380
     0
  9
$PSTYLEMODE
290
     1
  9
$FINGERPRINTGUID
  2
{0A5B5304-519B-734D-BF26-268671EDFCEC}
  9
$VERSIONGUID
  2
{1F653786-D70E-8C4E-9B5E-36B659178E9B}
  9
$EXTNAMES
290
     1
  9
$PSVPSCALE
 40
0.0
  9
$OLESTARTUP
290
     0
  9
$SORTENTS
280
   127
  9
$INDEXCTL
280
     0
  9
$HIDETEXT
280
     1
  9
$XCLIPFRAME
280
     2
  9
$HALOGAP
280
     0
  9
$OBSCOLOR
 70
   257
  9
$OBSLTYPE
280
     0
  9
$INTERSECTIONDISPLAY
280
     0
  9
$INTERSECTIONCOLOR
 70
   257
  9
$DIMASSOC
280
     2
  9
$PROJECTNAME
  1

  9
$CAMERADISPLAY
290
     0
  9
$LENSLENGTH
 40
50.0
  9
$CAMERAHEIGHT
 40
0.0
  9
$STEPSPERSEC
 40
2.0
  9
$STEPSIZE
 40
6.0
  9
$3DDWFPREC
 40
2.0
  9
$PSOLWIDTH
 40
0.25
  9
$PSOLHEIGHT
 40
4.0
  9
$LOFTANG1
 40
1.570796326794896
  9
$LOFTANG2
 40
1.570796326794896
  9
$LOFTMAG1
 40
0.0
  9
$LOFTMAG2
 40
0.0
  9
$LOFTPARAM
 70
     7
  9
$LOFTNORMALS
280
     1
  9
$LATITUDE
 40
37.795
  9
$LONGITUDE
 40
-122.394
  9
$NORTHDIRECTION
 40
0.0
  9
$TIMEZONE
 70
 -8000
  9
$LIGHTGLYPHDISPLAY
280
     1
  9
$TILEMODELIGHTSYNCH
280
     1
  9
$CMATERIAL
347
11
  9
$SOLIDHIST
280
     0
  9
$SHOWHIST
280
     1
  9
$DWFFRAME
280
     2
  9
$DGNFRAME
280
     0
  9
$REALWORLDSCALE
290
     1
  9
$INTERFERECOLOR
 62
     1
  9
$INTERFEREOBJVS
345
33
  9
$INTERFEREVPVS
346
30
  9
$CSHADOW
280
     0
  9
$SHADOWPLANELOCATION
 40
0.0
  0
ENDSEC
  0
SECTION
  2
CLASSES
  0
CLASS
  1
ACDBDICTIONARYWDFLT
  2
AcDbDictionaryWithDefault
  3
ObjectDBX Classes
 90
        0
 91
        1
280
     0
281
     0
  0
CLASS
  1
MATERIAL
  2
AcDbMaterial
  3
ObjectDBX Classes
 90
     1153
 91
        3
280
     0
281
     0
  0
CLASS
  1
VISUALSTYLE
  2
AcDbVisualStyle
  3
ObjectDBX Classes
 90
     4095
 91
       24
280
     0
281
     0
  0
CLASS
  1
SCALE
  2
AcDbScale
  3
ObjectDBX Classes
 90
     1153
 91
       17
280
     0
281
     0
  0
CLASS
  1
TABLESTYLE
  2
AcDbTableStyle
  3
ObjectDBX Classes
 90
     4095
 91
        1
280
     0
281
     0
  0
CLASS
  1
MLEADERSTYLE
  2
AcDbMLeaderStyle
  3
ACDB_MLEADERSTYLE_CLASS
 90
     4095
 91
        1
280
     0
281
     0
  0
CLASS
  1
ACDBSECTIONVIEWSTYLE
  2
AcDbSectionViewStyle
  3
ObjectDBX Classes
 90
     1025
 91
        1
280
     0
281
     0
  0
CLASS
  1
ACDBDETAILVIEWSTYLE
  2
AcDbDetailViewStyle
  3
ObjectDBX Classes
 90
     1025
 91
        1
280
     0
281
     0
  0
CLASS
  1
DICTIONARYVAR
  2
AcDbDictionaryVar
  3
ObjectDBX Classes
 90
        0
 91
        5
280
     0
281
     0
  0
CLASS
  1
CELLSTYLEMAP
  2
AcDbCellStyleMap
  3
ObjectDBX Classes
 90
     1152
 91
        1
280
     0
281
     0
  0
ENDSEC
  0
SECTION
  2
TABLES
  0
TABLE
  2
VPORT
  5
8
330
0
100
AcDbSymbolTable
 70
     1
  0
VPORT
  5
57
330
8
100
AcDbSymbolTableRecord
100
AcDbViewportTableRecord
  2
*Active
 70
     0
 10
0.0
 20
0.0
 11
1.0
 21
1.0
 12
0.0
 22
0.0
 13
0.0
 23
0.0
 14
1.0
 24
1.0
 15
0.0
 25
0.0
 16
0.0
 26
0.0
 36
1.0
 17
960.0
 27
540.0
 37
0.0
 40
1101.6
 41
1.777777777777777
 42
50.0
 43
0.0
 44
0.0
 50
0.0
 51
0.0
 71
     0
 72
   100
 73
     1
 74
     1
 75
     0
 76
     0
 77
     0
 78
     0
281
     0
 65
     1
110
0.0
120
0.0
130
0.0
111
1.0
121
0.0
131
0.0
112
0.0
122
1.0
132
0.0
 79
     0
146
0.0
 60
     3
 61
     5
292
     1
282
     1
141
0.0
142
0.0
 63
   250
421
  3355443
  0
ENDTAB
  0
TABLE
  2
LTYPE
  5
5
330
0
100
AcDbSymbolTable
 70
     1
  0
LTYPE
  5
5B
330
5
100
AcDbSymbolTableRecord
100
AcDbLinetypeTableRecord
  2
ByBlock
 70
     0
  3

 72
    65
 73
     0
 40
0.0
  0
LTYPE
  5
5C
330
5
100
AcDbSymbolTableRecord
100
AcDbLinetypeTableRecord
  2
ByLayer
 70
     0
  3

 72
    65
 73
     0
 40
0.0
  0
LTYPE
  5
5D
330
5
100
AcDbSymbolTableRecord
100
AcDbLinetypeTableRecord
  2
Continuous
 70
     0
  3
Solid line
 72
    65
 73
     0
 40
0.0
  0
ENDTAB
  0
TABLE
  2
LAYER
  5
2
330
0
100
AcDbSymbolTable
 70
     2
  0
LAYER
  5
54
330
2
100
AcDbSymbolTableRecord
100
AcDbLayerTableRecord
  2
0
 70
     0
 62
     7
  6
Continuous
370
    -3
390
F
347
21
348
0
  0
LAYER
  5
78
330
2
100
AcDbSymbolTableRecord
100
AcDbLayerTableRecord
  2
Layer 1
 70
     0
 62
     7
  6
Continuous
370
     0
390
F
347
21
348
0
  0
ENDTAB
  0
TABLE
  2
STYLE
  5
3
330
0
100
AcDbSymbolTable
 70
     2
  0
STYLE
  5
55
330
3
100
AcDbSymbolTableRecord
100
AcDbTextStyleTableRecord
  2
Standard
 70
     0
 40
0.0
 41
1.0
 50
0.0
 71
     0
 42
0.2
  3
txt
  4

  0
STYLE
  5
5A
330
3
100
AcDbSymbolTableRecord
100
AcDbTextStyleTableRecord
  2
Annotative
 70
     0
 40
0.0
 41
1.0
 50
0.0
 71
     0
 42
0.2
  3
txt
  4

1001
AcadAnnotative
1000
AnnotativeData
1002
{
1070
     1
1070
     1
1002
}
  0
ENDTAB
  0
TABLE
  2
VIEW
  5
6
330
0
100
AcDbSymbolTable
 70
     0
  0
ENDTAB
  0
TABLE
  2
UCS
  5
7
330
0
100
AcDbSymbolTable
 70
     0
  0
ENDTAB
  0
TABLE
  2
APPID
  5
9
330
0
100
AcDbSymbolTable
 70
     2
  0
APPID
  5
56
330
9
100
AcDbSymbolTableRecord
100
AcDbRegAppTableRecord
  2
ACAD
 70
     0
  0
APPID
  5
5E
330
9
100
AcDbSymbolTableRecord
100
AcDbRegAppTableRecord
  2
AcadAnnotative
 70
     0
  0
ENDTAB
  0
TABLE
  2
DIMSTYLE
  5
A
330
0
100
AcDbSymbolTable
 70
     2
100
AcDbDimStyleTable
 71
     0
  0
DIMSTYLE
105
58
330
A
100
AcDbSymbolTableRecord
100
AcDbDimStyleTableRecord
  2
Standard
 70
     0
340
55
  0
DIMSTYLE
105
59
330
A
100
AcDbSymbolTableRecord
100
AcDbDimStyleTableRecord
  2
Annotative
 70
     0
340
55
1001
AcadAnnotative
1000
AnnotativeData
1002
{
1070
     1
1070
     1
1002
}
  0
ENDTAB
  0
TABLE
  2
BLOCK_RECORD
  5
1
330
0
100
AcDbSymbolTable
 70
     3
  0
BLOCK_RECORD
  5
70
330
1
100
AcDbSymbolTableRecord
100
AcDbBlockTableRecord
  2
*Model_Space
340
73
 70
     0
280
     1
281
     0
  0
BLOCK_RECORD
  5
6C
330
1
100
AcDbSymbolTableRecord
100
AcDbBlockTableRecord
  2
*Paper_Space
340
6F
 70
     0
280
     1
281
     0
  0
BLOCK_RECORD
  5
74
330
1
100
AcDbSymbolTableRecord
100
AcDbBlockTableRecord
  2
*Paper_Space0
340
77
 70
     0
280
     1
281
     0
  0
BLOCK_RECORD
  5
79
330
1
100
AcDbSymbolTableRecord
100
AcDbBlockTableRecord
  2
Block_0
340
0
102
{BLKREFS
331
7A
102
}
 70
     0
280
     1
281
     0
  0
BLOCK_RECORD
  5
7D
330
1
100
AcDbSymbolTableRecord
100
AcDbBlockTableRecord
  2
Block_1
340
0
102
{BLKREFS
331
7E
102
}
 70
     0
280
     1
281
     0
  0
ENDTAB
  0
ENDSEC
  0
SECTION
  2
BLOCKS
  0
BLOCK
  5
71
330
70
100
AcDbEntity
  8
0
100
AcDbBlockBegin
  2
*Model_Space
 70
     0
 10
0.0
 20
0.0
 30
0.0
  3
*Model_Space
  1

  0
ENDBLK
  5
72
330
70
100
AcDbEntity
  8
0
100
AcDbBlockEnd
  0
BLOCK
  5
6D
330
6C
100
AcDbEntity
 67
     1
  8
0
100
AcDbBlockBegin
  2
*Paper_Space
 70
     0
 10
0.0
 20
0.0
 30
0.0
  3
*Paper_Space
  1

  0
ENDBLK
  5
6E
330
6C
100
AcDbEntity
 67
     1
  8
0
100
AcDbBlockEnd
  0
BLOCK
  5
75
330
74
100
AcDbEntity
 67
     1
  8
0
100
AcDbBlockBegin
  2
*Paper_Space0
 70
     0
 10
0.0
 20
0.0
 30
0.0
  3
*Paper_Space0
  1

  0
ENDBLK
  5
76
330
74
100
AcDbEntity
 67
     1
  8
0
100
AcDbBlockEnd
  0
BLOCK
  5
7B
330
79
100
AcDbEntity
  8
0
100
AcDbBlockBegin
  2
Block_0
 70
     0
 10
0.0
 20
0.0
 30
0.0
  3
Block_0
  1

  0
INSERT
  5
7E
330
79
100
AcDbEntity
  8
Layer 1
100
AcDbBlockReference
  2
Block_1
 10
0.0
 20
0.0
 30
0.0
  0
ENDBLK
  5
7C
330
79
100
AcDbEntity
  8
0
100
AcDbBlockEnd
  0
BLOCK
  5
7F
330
7D
100
AcDbEntity
  8
0
100
AcDbBlockBegin
  2
Block_1
 70
     0
 10
0.0
 20
0.0
 30
0.0
  3
Block_1
  1

  0
SPLINE
  5
81
330
7D
100
AcDbEntity
  8
Layer 1
100
AcDbSpline
210
0.0
220
0.0
230
1.0
 70
     9
 71
     3
 72
    50
 73
    46
 74
     0
 42
0.0000000001
 43
0.0000000001
 40
0.0
 40
0.0
 40
0.0
 40
0.0
 40
1.0
 40
1.0
 40
1.0
 40
2.0
 40
2.0
 40
2.0
 40
3.0
 40
3.0
 40
3.0
 40
4.0
 40
4.0
 40
4.0
 40
5.0
 40
5.0
 40
5.0
 40
6.0
 40
6.0
 40
6.0
 40
7.0
 40
7.0
 40
7.0
 40
8.0
 40
8.0
 40
8.0
 40
9.0
 40
9.0
 40
9.0
 40
10.0
 40
10.0
 40
10.0
 40
11.0
 40
11.0
 40
11.0
 40
12.0
 40
12.0
 40
12.0
 40
13.0
 40
13.0
 40
13.0
 40
14.0
 40
14.0
 40
14.0
 40
15.0
 40
15.0
 40
15.0
 40
15.0
 10
1061.885115124094
 20
511.3220671307662
 30
0.0
 10
1052.919294540828
 20
511.3220671307662
 30
0.0
 10
1043.864316850378
 20
511.3981474529027
 30
0.0
 10
1034.813260668838
 20
511.243255485393
 30
0.0
 10
1033.391233038001
 20
511.2189177168802
 30
0.0
 10
1031.501233591276
 20
510.5421599055317
 30
0.0
 10
1030.651624190617
 20
509.4971312207889
 30
0.0
 10
1023.883282921763
 20
501.1718748873099
 30
0.0
 10
1014.929303159168
 20
496.7835387131417
 30
0.0
 10
1005.017742801248
 20
493.1260832750358
 30
0.0
 10
998.0735897595058
 20
490.5636290557668
 30
0.0
 10
992.8688471706847
 20
490.8216856959516
 30
0.0
 10
987.1910515890595
 20
495.4353026314548
 30
0.0
 10
982.7083549204798
 20
499.0778044563048
 30
0.0
 10
977.5498464639131
 20
501.8885649495659
 30
0.0
 10
972.6914783972715
 20
505.0687254666118
 30
0.0
 10
972.6750904573236
 20
502.0193480303987
 30
0.0
 10
973.2361408893048
 20
499.7526549190243
 30
0.0
 10
974.2519032490836
 20
497.7123564605845
 30
0.0
 10
976.2509267469523
 20
493.6971434547267
 30
0.0
 10
975.3374135357717
 20
490.8085783961687
 30
0.0
 10
972.2598682768149
 20
487.495101839313
 30
0.0
 10
965.6473345077829
 20
480.3755950154991
 30
0.0
 10
958.3034469568975
 20
474.7892607964968
 30
0.0
 10
948.7264050416969
 20
472.3673705418332
 30
0.0
 10
945.6787517514166
 20
471.5966491075978
 30
0.0
 10
942.7960459758834
 20
470.1791381236835
 30
0.0
 10
939.8301797974481
 20
469.0782775298557
 30
0.0
 10
931.3579581670783
 20
465.9335784385311
 30
0.0
 10
931.3513892581886
 20
465.9434966514054
 30
0.0
 10
927.5341665476943
 20
474.1863860416652
 30
0.0
 10
927.4373876751432
 20
474.3953856750977
 30
0.0
 10
926.9906637236635
 20
474.4423217101739
 30
0.0
 10
926.222887211219
 20
474.7740935601941
 30
0.0
 10
912.078752262586
 20
457.8229522316396
 30
0.0
 10
894.8052989821444
 20
446.225296001392
 30
0.0
 10
871.362331812992
 20
446.4298858447928
 30
0.0
 10
883.1121528770617
 20
440.0109100256468
 30
0.0
 10
895.4277813007484
 20
436.7668151825382
 30
0.0
 10
908.3753601219369
 20
436.1474456767573
 30
0.0
 10
951.9426984737892
 20
434.0632629410484
 30
0.0
 10
990.1343805353699
 20
448.7358550791468
 30
0.0
 10
1024.696332262723
 20
474.1393279362764
 30
0.0
 10
1039.261365661567
 20
484.8448332891384
 30
0.0
 10
1051.739637522782
 20
497.7528990630544
 30
0.0
 10
1061.885115124094
 20
511.3220671307662
 30
0.0
  0
SPLINE
  5
82
330
7D
100
AcDbEntity
  8
Layer 1
100
AcDbSpline
210
0.0
220
0.0
230
1.0
 70
     9
 71
     3
 72
   110
 73
   106
 74
     0
 42
0.0000000001
 43
0.0000000001
 40
0.0
 40
0.0
 40
0.0
 40
0.0
 40
1.0
 40
1.0
 40
1.0
 40
2.0
 40
2.0
 40
2.0
 40
3.0
 40
3.0
 40
3.0
 40
4.0
 40
4.0
 40
4.0
 40
5.0
 40
5.0
 40
5.0
 40
6.0
 40
6.0
 40
6.0
 40
7.0
 40
7.0
 40
7.0
 40
8.0
 40
8.0
 40
8.0
 40
9.0
 40
9.0
 40
9.0
 40
10.0
 40
10.0
 40
10.0
 40
11.0
 40
11.0
 40
11.0
 40
12.0
 40
12.0
 40
12.0
 40
13.0
 40
13.0
 40
13.0
 40
14.0
 40
14.0
 40
14.0
 40
15.0
 40
15.0
 40
15.0
 40
16.0
 40
16.0
 40
16.0
 40
17.0
 40
17.0
 40
17.0
 40
18.0
 40
18.0
 40
18.0
 40
19.0
 40
19.0
 40
19.0
 40
20.0
 40
20.0
 40
20.0
 40
21.0
 40
21.0
 40
21.0
 40
22.0
 40
22.0
 40
22.0
 40
23.0
 40
23.0
 40
23.0
 40
24.0
 40
24.0
 40
24.0
 40
25.0
 40
25.0
 40
25.0
 40
26.0
 40
26.0
 40
26.0
 40
27.0
 40
27.0
 40
27.0
 40
28.0
 40
28.0
 40
28.0
 40
29.0
 40
29.0
 40
29.0
 40
30.0
 40
30.0
 40
30.0
 40
31.0
 40
31.0
 40
31.0
 40
32.0
 40
32.0
 40
32.0
 40
33.0
 40
33.0
 40
33.0
 40
34.0
 40
34.0
 40
34.0
 40
35.0
 40
35.0
 40
35.0
 40
35.0
 10
1029.433957527868
 20
517.3522337464746
 30
0.0
 10
1051.721189646248
 20
511.0463560716652
 30
0.0
 10
1070.963713420726
 20
517.5804594540932
 30
0.0
 10
1086.859252230844
 20
534.4549787734995
 30
0.0
 10
1103.889526182653
 20
552.5341184521839
 30
0.0
 10
1111.040496857595
 20
573.2818524866752
 30
0.0
 10
1101.870788328719
 20
597.6927449316763
 30
0.0
 10
1089.979308477412
 20
629.3493401078676
 30
0.0
 10
1055.235288873466
 20
642.1822599220576
 30
0.0
 10
1027.57699336046
 20
625.0833050351766
 30
0.0
 10
1017.106091554984
 20
618.60996596539
 30
0.0
 10
1008.352124005461
 20
610.2375370856052
 30
0.0
 10
1001.459011614673
 20
599.9825093320732
 30
0.0
 10
1000.65760473012
 20
598.7902638507057
 30
0.0
 10
999.7949032880514
 20
597.6392209144332
 30
0.0
 10
998.6465725648958
 20
596.0286442875376
 30
0.0
 10
996.5223964753549
 20
601.4664914157283
 30
0.0
 10
994.6143916569926
 20
606.3509633007206
 30
0.0
 10
992.5475580984803
 20
611.642017063682
 30
0.0
 10
980.0467337463505
 20
606.4669644296728
 30
0.0
 10
966.2659563526359
 20
604.5664708110835
 30
0.0
 10
957.986750780341
 20
592.6217457948041
 30
0.0
 10
956.9867354913522
 20
591.1789777003377
 30
0.0
 10
956.390650878624
 20
588.7118298773903
 30
0.0
 10
956.8825484764866
 20
587.1114041599012
 30
0.0
 10
958.7646896466084
 20
580.987891902263
 30
0.0
 10
961.1677201146868
 20
575.0244824885903
 30
0.0
 10
963.8483537405628
 20
567.7138898496732
 30
0.0
 10
954.0040236092828
 20
574.1100156322373
 30
0.0
 10
945.2011058629686
 20
579.4706189556282
 30
0.0
 10
936.824823871726
 20
585.4308011354196
 30
0.0
 10
932.9290107657925
 20
588.2028920425637
 30
0.0
 10
929.6906302358657
 20
588.3816525708234
 30
0.0
 10
925.4032384437905
 20
586.6437260906296
 30
0.0
 10
915.5340364855874
 20
582.6431920398245
 30
0.0
 10
905.576501394834
 20
578.7870557243705
 30
0.0
 10
895.4404995018158
 20
575.5416257372217
 30
0.0
 10
887.4135980142883
 20
572.9715039764614
 30
0.0
 10
880.8152625489073
 20
568.8112790689956
 30
0.0
 10
875.2270742087594
 20
562.5397489283086
 30
0.0
 10
872.9722790662027
 20
560.0092389838883
 30
0.0
 10
872.1606945690364
 20
558.2003553199765
 30
0.0
 10
873.4803853132362
 20
554.8170545444881
 30
0.0
 10
879.71164770845
 20
538.8418348451304
 30
0.0
 10
885.6248558948392
 20
522.7421720917864
 30
0.0
 10
891.5959177817066
 20
506.6662443847889
 30
0.0
 10
892.5199824458431
 20
504.1783903851191
 30
0.0
 10
893.4173213401299
 20
501.6293791589923
 30
0.0
 10
893.8737575111408
 20
499.029083142912
 30
0.0
 10
895.0434734278132
 20
492.3653105712528
 30
0.0
 10
892.4959422229495
 20
490.0161284463465
 30
0.0
 10
885.8396386161693
 20
491.4829710952163
 30
0.0
 10
878.6775900600341
 20
493.0612791979966
 30
0.0
 10
875.1003423323735
 20
498.345443617709
 30
0.0
 10
872.7095723016773
 20
504.6700590854543
 30
0.0
 10
866.4696314699222
 20
521.1773909054864
 30
0.0
 10
860.3069764071024
 20
537.7139356771294
 30
0.0
 10
854.0980185474746
 20
554.2330015059315
 30
0.0
 10
853.4809569138497
 20
555.8747098771591
 30
0.0
 10
852.7575949230104
 20
557.4764554799003
 30
0.0
 10
852.0351484595421
 20
559.2131421834856
 30
0.0
 10
846.2065769639412
 20
557.0459592648131
 30
0.0
 10
841.0392298535434
 20
554.5567090859467
 30
0.0
 10
835.5889027693892
 20
553.2298734558826
 30
0.0
 10
827.2042475173957
 20
551.1887205052572
 30
0.0
 10
822.0342234431109
 20
545.1317136796342
 30
0.0
 10
816.5412113257771
 20
539.3955686698718
 30
0.0
 10
815.7672116113936
 20
538.5873029852136
 30
0.0
 10
815.4216586796628
 20
536.6226423440275
 30
0.0
 10
815.8231336444851
 20
535.5456464962517
 30
0.0
 10
822.9751271351615
 20
516.3597105548051
 30
0.0
 10
829.7714911709753
 20
497.0172118084483
 30
0.0
 10
837.7044137738284
 20
478.1542357663529
 30
0.0
 10
843.6791263260893
 20
463.9475249751158
 30
0.0
 10
853.8413885958771
 20
453.4443053885115
 30
0.0
 10
870.2678951344333
 20
451.9594268510009
 30
0.0
 10
886.011261851333
 20
450.5363158915097
 30
0.0
 10
899.7762006215216
 20
455.6752013808054
 30
0.0
 10
911.4699647075804
 20
466.3423613968189
 30
0.0
 10
917.4936312713288
 20
471.8372039167588
 30
0.0
 10
923.5725651707307
 20
477.2714537854335
 30
0.0
 10
929.471895488049
 20
482.5935973310588
 30
0.0
 10
930.5081504021563
 20
479.9412383267863
 30
0.0
 10
932.0522559785731
 20
475.9890288608603
 30
0.0
 10
933.7299675160556
 20
471.6948546738367
 30
0.0
 10
945.8960216554396
 20
477.140518116712
 30
0.0
 10
959.3133652002871
 20
478.7002562732359
 30
0.0
 10
968.0224871674017
 20
489.8634490032472
 30
0.0
 10
970.2004352312215
 20
492.6550902338458
 30
0.0
 10
970.7267719170395
 20
494.4950865686023
 30
0.0
 10
969.4231982692727
 20
497.6412810212514
 30
0.0
 10
966.855830638029
 20
503.8376158495666
 30
0.0
 10
964.7144121163274
 20
510.2104338318786
 30
0.0
 10
961.9030564406038
 20
517.8524473686684
 30
0.0
 10
973.1747242614746
 20
510.4050596860397
 30
0.0
 10
983.1222343275113
 20
503.7607420704007
 30
0.0
 10
993.1728175167773
 20
497.276168717186
 30
0.0
 10
994.5442927779222
 20
496.3912810233814
 30
0.0
 10
996.6845821491988
 20
495.5270842475092
 30
0.0
 10
998.0375790162307
 20
495.9702452574966
 30
0.0
 10
1008.588177479387
 20
499.4258269166512
 30
0.0
 10
1019.575558792647
 20
502.2794798658924
 30
0.0
 10
1026.464597086631
 20
512.1677092191694
 30
0.0
 10
1027.550549878217
 20
513.7264250368279
 30
0.0
 10
1028.367597022032
 20
515.4724730074867
 30
0.0
 10
1029.433957527868
 20
517.3522337464746
 30
0.0
  0
SPLINE
  5
83
330
7D
100
AcDbEntity
  8
Layer 1
100
AcDbSpline
210
0.0
220
0.0
230
1.0
 70
     9
 71
     3
 72
    92
 73
    88
 74
     0
 42
0.0000000001
 43
0.0000000001
 40
0.0
 40
0.0
 40
0.0
 40
0.0
 40
1.0
 40
1.0
 40
1.0
 40
2.0
 40
2.0
 40
2.0
 40
3.0
 40
3.0
 40
3.0
 40
4.0
 40
4.0
 40
4.0
 40
5.0
 40
5.0
 40
5.0
 40
6.0
 40
6.0
 40
6.0
 40
7.0
 40
7.0
 40
7.0
 40
8.0
 40
8.0
 40
8.0
 40
9.0
 40
9.0
 40
9.0
 40
10.0
 40
10.0
 40
10.0
 40
11.0
 40
11.0
 40
11.0
 40
12.0
 40
12.0
 40
12.0
 40
13.0
 40
13.0
 40
13.0
 40
14.0
 40
14.0
 40
14.0
 40
15.0
 40
15.0
 40
15.0
 40
16.0
 40
16.0
 40
16.0
 40
17.0
 40
17.0
 40
17.0
 40
18.0
 40
18.0
 40
18.0
 40
19.0
 40
19.0
 40
19.0
 40
20.0
 40
20.0
 40
20.0
 40
21.0
 40
21.0
 40
21.0
 40
22.0
 40
22.0
 40
22.0
 40
23.0
 40
23.0
 40
23.0
 40
24.0
 40
24.0
 40
24.0
 40
25.0
 40
25.0
 40
25.0
 40
26.0
 40
26.0
 40
26.0
 40
27.0
 40
27.0
 40
27.0
 40
28.0
 40
28.0
 40
28.0
 40
29.0
 40
29.0
 40
29.0
 40
29.0
 10
1008.999996949831
 20
645.0
 30
0.0
 10
1042.666669719485
 20
644.9999996423721
 30
0.0
 10
1076.333342489137
 20
644.9999996423721
 30
0.0
 10
1110.0
 20
644.9999996423721
 30
0.0
 10
1110.0
 20
575.0000073909759
 30
0.0
 10
1110.0
 20
505.0000151395797
 30
0.0
 10
1110.0
 20
435.0
 30
0.0
 10
1010.000012238821
 20
435.0
 30
0.0
 10
910.0000168482464
 20
435.0
 30
0.0
 10
810.0000183582315
 20
435.0
 30
0.0
 10
810.0000091791153
 20
504.9999846220016
 30
0.0
 10
810.0000091791153
 20
574.9999692440033
 30
0.0
 10
810.0
 20
644.9999750852584
 30
0.0
 10
869.9999927520748
 20
644.9999996423721
 30
0.0
 10
929.9999945640566
 20
644.9999996423721
 30
0.0
 10
989.9999963760382
 20
644.9999994039536
 30
0.0
 10
986.4042321072902
 20
644.4528623828664
 30
0.0
 10
982.8128013347669
 20
643.875114323624
 30
0.0
 10
979.2120016654772
 20
643.3633798388691
 30
0.0
 10
947.3853863244412
 20
638.8402787551877
 30
0.0
 10
919.6107043943456
 20
625.0094963652582
 30
0.0
 10
894.1954051648972
 20
605.9940030046973
 30
0.0
 10
878.4879919708119
 20
594.2418706089393
 30
0.0
 10
865.0429155760058
 20
580.2460858732529
 30
0.0
 10
854.5507926090003
 20
564.2730252925448
 30
0.0
 10
855.8436622159151
 20
561.5615995159124
 30
0.0
 10
857.0681610016745
 20
559.4073026445812
 30
0.0
 10
857.9313888719816
 20
557.1168592280709
 30
0.0
 10
864.0949289445934
 20
540.762862979067
 30
0.0
 10
870.1063922914208
 20
524.3510206608243
 30
0.0
 10
876.3653570190145
 20
508.0339659400778
 30
0.0
 10
877.5938955692991
 20
504.8311766388906
 30
0.0
 10
879.2496344498685
 20
501.5588072596983
 30
0.0
 10
881.5282981539366
 20
499.0688933235087
 30
0.0
 10
883.2362907592287
 20
497.202575577663
 30
0.0
 10
886.2602624081691
 20
496.5405882741033
 30
0.0
 10
888.6983117982035
 20
495.3423766062224
 30
0.0
 10
889.0299234415188
 20
495.8138274110824
 30
0.0
 10
889.3615274554395
 20
496.2852782159443
 30
0.0
 10
889.6931390987546
 20
496.7567137620171
 30
0.0
 10
888.8890695554291
 20
499.4394530152603
 30
0.0
 10
888.2279519817529
 20
502.1750944900941
 30
0.0
 10
887.2576760735446
 20
504.7962950471537
 30
0.0
 10
881.0743491656184
 20
521.5004881339409
 30
0.0
 10
874.777908850956
 20
538.1630094678694
 30
0.0
 10
868.6554072927675
 20
554.8892896517863
 30
0.0
 10
867.9542620994743
 20
556.8047712159077
 30
0.0
 10
867.0977442818594
 20
559.9911496894846
 30
0.0
 10
868.0194362042257
 20
560.9525373221249
 30
0.0
 10
873.1360402100635
 20
566.2895352988762
 30
0.0
 10
877.9992071660117
 20
572.7977521457033
 30
0.0
 10
884.4042137681325
 20
575.7803418623034
 30
0.0
 10
898.240983290003
 20
582.2236630793577
 30
0.0
 10
912.9963090529917
 20
586.6782223979434
 30
0.0
 10
927.2953283446804
 20
592.1565968698151
 30
0.0
 10
930.8232520352076
 20
593.5082471055502
 30
0.0
 10
933.5842308173187
 20
593.0316273859025
 30
0.0
 10
936.592813977024
 20
590.9485547270969
 30
0.0
 10
942.0463053526555
 20
587.1726796419743
 30
0.0
 10
947.6936443903914
 20
583.6767613740021
 30
0.0
 10
954.4005690314143
 20
579.3237454817572
 30
0.0
 10
953.2018232676737
 20
582.810203300527
 30
0.0
 10
951.9628400759602
 20
585.0611951179826
 30
0.0
 10
951.757197369554
 20
587.4029347685355
 30
0.0
 10
951.5626478031318
 20
589.6186063040686
 30
0.0
 10
951.6989545699434
 20
592.5732419191545
 30
0.0
 10
952.9936628609966
 20
594.0893971594923
 30
0.0
 10
959.2834274552425
 20
601.4549214389408
 30
0.0
 10
966.0690416738379
 20
608.290282908013
 30
0.0
 10
976.1704518910065
 20
610.4486271731366
 30
0.0
 10
979.0678823984308
 20
611.0677182060181
 30
0.0
 10
981.7939566995065
 20
612.4881665068214
 30
0.0
 10
984.5991325654722
 20
613.5397602855483
 30
0.0
 10
993.5417750474517
 20
616.8921524764946
 30
0.0
 10
995.2309535652602
 20
619.0813519203985
 30
0.0
 10
999.3574643099965
 20
607.1591336179472
 30
0.0
 10
999.4272122369075
 20
606.9576527528124
 30
0.0
 10
999.8720669866706
 20
606.886001294194
 30
0.0
 10
1000.313244368159
 20
606.6697766241523
 30
0.0
 10
1011.917569059425
 20
620.6643406567163
 30
0.0
 10
1025.301663701903
 20
632.2406698682634
 30
0.0
 10
1043.774991896509
 20
636.8339067836595
 30
0.0
 10
1040.963819326262
 20
638.1301642773324
 30
0.0
 10
1038.210141874937
 20
639.2407966950267
 30
0.0
 10
1035.349271427212
 20
639.8373614637558
 30
0.0
 10
1026.588284834508
 20
641.6642524060789
 30
0.0
 10
1017.786130027671
 20
643.2937403946371
 30
0.0
 10
1008.999996949831
 20
645.0
 30
0.0
  0
SPLINE
  5
84
330
7D
100
AcDbEntity
  8
Layer 1
100
AcDbSpline
210
0.0
220
0.0
230
1.0
 70
     9
 71
     3
 72
    80
 73
    76
 74
     0
 42
0.0000000001
 43
0.0000000001
 40
0.0
 40
0.0
 40
0.0
 40
0.0
 40
1.0
 40
1.0
 40
1.0
 40
2.0
 40
2.0
 40
2.0
 40
3.0
 40
3.0
 40
3.0
 40
4.0
 40
4.0
 40
4.0
 40
5.0
 40
5.0
 40
5.0
 40
6.0
 40
6.0
 40
6.0
 40
7.0
 40
7.0
 40
7.0
 40
8.0
 40
8.0
 40
8.0
 40
9.0
 40
9.0
 40
9.0
 40
10.0
 40
10.0
 40
10.0
 40
11.0
 40
11.0
 40
11.0
 40
12.0
 40
12.0
 40
12.0
 40
13.0
 40
13.0
 40
13.0
 40
14.0
 40
14.0
 40
14.0
 40
15.0
 40
15.0
 40
15.0
 40
16.0
 40
16.0
 40
16.0
 40
17.0
 40
17.0
 40
17.0
 40
18.0
 40
18.0
 40
18.0
 40
19.0
 40
19.0
 40
19.0
 40
20.0
 40
20.0
 40
20.0
 40
21.0
 40
21.0
 40
21.0
 40
22.0
 40
22.0
 40
22.0
 40
23.0
 40
23.0
 40
23.0
 40
24.0
 40
24.0
 40
24.0
 40
25.0
 40
25.0
 40
25.0
 40
25.0
 10
1008.999996949831
 20
645.0
 30
0.0
 10
1017.786130027671
 20
643.2937403946371
 30
0.0
 10
1026.588284834508
 20
641.6642524060789
 30
0.0
 10
1035.349271427212
 20
639.8373614637558
 30
0.0
 10
1038.210141874937
 20
639.2407966950267
 30
0.0
 10
1040.963819326262
 20
638.1301642773324
 30
0.0
 10
1043.774991896509
 20
636.8339067836595
 30
0.0
 10
1025.301663701903
 20
632.2406698682634
 30
0.0
 10
1011.917569059425
 20
620.6643406567163
 30
0.0
 10
1000.313244368159
 20
606.6697766241523
 30
0.0
 10
999.8720669866706
 20
606.886001294194
 30
0.0
 10
999.4272122369075
 20
606.9576527528124
 30
0.0
 10
999.3574643099965
 20
607.1591336179472
 30
0.0
 10
995.2309535652602
 20
619.0813519203985
 30
0.0
 10
993.5417750474517
 20
616.8921524764946
 30
0.0
 10
984.5991325654722
 20
613.5397602855483
 30
0.0
 10
981.7939566995065
 20
612.4881665068214
 30
0.0
 10
979.0678823984308
 20
611.0677182060181
 30
0.0
 10
976.1704518910065
 20
610.4486271731366
 30
0.0
 10
966.0690416738379
 20
608.290282908013
 30
0.0
 10
959.2834274552425
 20
601.4549214389408
 30
0.0
 10
952.9936628609966
 20
594.0893971594923
 30
0.0
 10
951.6989545699434
 20
592.5732419191545
 30
0.0
 10
951.5626478031318
 20
589.6186063040686
 30
0.0
 10
951.757197369554
 20
587.4029347685355
 30
0.0
 10
951.9628400759602
 20
585.0611951179826
 30
0.0
 10
953.2018232676737
 20
582.810203300527
 30
0.0
 10
954.4005690314143
 20
579.3237454817572
 30
0.0
 10
947.6936443903914
 20
583.6767613740021
 30
0.0
 10
942.0463053526555
 20
587.1726796419743
 30
0.0
 10
936.592813977024
 20
590.9485547270969
 30
0.0
 10
933.5842308173187
 20
593.0316273859025
 30
0.0
 10
930.8232520352076
 20
593.5082471055502
 30
0.0
 10
927.2953283446804
 20
592.1565968698151
 30
0.0
 10
912.9963090529917
 20
586.6782223979434
 30
0.0
 10
898.240983290003
 20
582.2236630793577
 30
0.0
 10
884.4042137681325
 20
575.7803418623034
 30
0.0
 10
877.9992071660117
 20
572.7977521457033
 30
0.0
 10
873.1360402100635
 20
566.2895352988762
 30
0.0
 10
868.0194362042257
 20
560.9525373221249
 30
0.0
 10
867.0977442818594
 20
559.9911496894846
 30
0.0
 10
867.9542620994743
 20
556.8047712159077
 30
0.0
 10
868.6554072927675
 20
554.8892896517863
 30
0.0
 10
874.777908850956
 20
538.1630094678694
 30
0.0
 10
881.0743491656184
 20
521.5004881339409
 30
0.0
 10
887.2576760735446
 20
504.7962950471537
 30
0.0
 10
888.2279519817529
 20
502.1750944900941
 30
0.0
 10
888.8890695554291
 20
499.4394530152603
 30
0.0
 10
889.6931390987546
 20
496.7567137620171
 30
0.0
 10
889.3615274554395
 20
496.2852782159443
 30
0.0
 10
889.0299234415188
 20
495.8138274110824
 30
0.0
 10
888.6983117982035
 20
495.3423766062224
 30
0.0
 10
886.2602624081691
 20
496.5405882741033
 30
0.0
 10
883.2362907592287
 20
497.202575577663
 30
0.0
 10
881.5282981539366
 20
499.0688933235087
 30
0.0
 10
879.2496344498685
 20
501.5588072596983
 30
0.0
 10
877.5938955692991
 20
504.8311766388906
 30
0.0
 10
876.3653570190145
 20
508.0339659400778
 30
0.0
 10
870.1063922914208
 20
524.3510206608243
 30
0.0
 10
864.0949289445934
 20
540.762862979067
 30
0.0
 10
857.9313888719816
 20
557.1168592280709
 30
0.0
 10
857.0681610016745
 20
559.4073026445812
 30
0.0
 10
855.8436622159151
 20
561.5615995159124
 30
0.0
 10
854.5507926090003
 20
564.2730252925448
 30
0.0
 10
865.0429155760058
 20
580.2460858732529
 30
0.0
 10
878.4879919708119
 20
594.2418706089393
 30
0.0
 10
894.1954051648972
 20
605.9940030046973
 30
0.0
 10
919.6107043943456
 20
625.0094963652582
 30
0.0
 10
947.3853863244412
 20
638.8402787551877
 30
0.0
 10
979.2120016654772
 20
643.3633798388691
 30
0.0
 10
982.8128013347669
 20
643.875114323624
 30
0.0
 10
986.4042321072902
 20
644.4528623828664
 30
0.0
 10
989.9999963760382
 20
644.9999994039536
 30
0.0
 10
996.3333248143717
 20
644.9999996423721
 30
0.0
 10
1002.666668511496
 20
644.9999996423721
 30
0.0
 10
1008.999996949831
 20
645.0
 30
0.0
  0
HATCH
  5
85
330
7D
100
AcDbEntity
  8
Layer 1
 62
     7
440
 33554687
100
AcDbHatch
 10
0.0
 20
0.0
 30
0.0
210
0.0
220
0.0
230
1.0
  2
SOLID
 70
     1
 71
     1
 91
        1
 92
        1
 93
        1
 72
     4
 94
        3
 73
     0
 74
     0
 95
       80
 96
       76
 40
0.0
 40
0.0
 40
0.0
 40
0.0
 40
1.0
 40
1.0
 40
1.0
 40
2.0
 40
2.0
 40
2.0
 40
3.0
 40
3.0
 40
3.0
 40
4.0
 40
4.0
 40
4.0
 40
5.0
 40
5.0
 40
5.0
 40
6.0
 40
6.0
 40
6.0
 40
7.0
 40
7.0
 40
7.0
 40
8.0
 40
8.0
 40
8.0
 40
9.0
 40
9.0
 40
9.0
 40
10.0
 40
10.0
 40
10.0
 40
11.0
 40
11.0
 40
11.0
 40
12.0
 40
12.0
 40
12.0
 40
13.0
 40
13.0
 40
13.0
 40
14.0
 40
14.0
 40
14.0
 40
15.0
 40
15.0
 40
15.0
 40
16.0
 40
16.0
 40
16.0
 40
17.0
 40
17.0
 40
17.0
 40
18.0
 40
18.0
 40
18.0
 40
19.0
 40
19.0
 40
19.0
 40
20.0
 40
20.0
 40
20.0
 40
21.0
 40
21.0
 40
21.0
 40
22.0
 40
22.0
 40
22.0
 40
23.0
 40
23.0
 40
23.0
 40
24.0
 40
24.0
 40
24.0
 40
25.0
 40
25.0
 40
25.0
 40
25.0
 10
1008.999996949831
 20
645.0
 10
1017.786130027671
 20
643.2937403946371
 10
1026.588284834508
 20
641.6642524060789
 10
1035.349271427212
 20
639.8373614637558
 10
1038.210141874937
 20
639.2407966950267
 10
1040.963819326262
 20
638.1301642773324
 10
1043.774991896509
 20
636.8339067836595
 10
1025.301663701903
 20
632.2406698682634
 10
1011.917569059425
 20
620.6643406567163
 10
1000.313244368159
 20
606.6697766241523
 10
999.8720669866706
 20
606.886001294194
 10
999.4272122369075
 20
606.9576527528124
 10
999.3574643099965
 20
607.1591336179472
 10
995.2309535652602
 20
619.0813519203985
 10
993.5417750474517
 20
616.8921524764946
 10
984.5991325654722
 20
613.5397602855483
 10
981.7939566995065
 20
612.4881665068214
 10
979.0678823984308
 20
611.0677182060181
 10
976.1704518910065
 20
610.4486271731366
 10
966.0690416738379
 20
608.290282908013
 10
959.2834274552425
 20
601.4549214389408
 10
952.9936628609966
 20
594.0893971594923
 10
951.6989545699434
 20
592.5732419191545
 10
951.5626478031318
 20
589.6186063040686
 10
951.757197369554
 20
587.4029347685355
 10
951.9628400759602
 20
585.0611951179826
 10
953.2018232676737
 20
582.810203300527
 10
954.4005690314143
 20
579.3237454817572
 10
947.6936443903914
 20
583.6767613740021
 10
942.0463053526555
 20
587.1726796419743
 10
936.592813977024
 20
590.9485547270969
 10
933.5842308173187
 20
593.0316273859025
 10
930.8232520352076
 20
593.5082471055502
 10
927.2953283446804
 20
592.1565968698151
 10
912.9963090529917
 20
586.6782223979434
 10
898.240983290003
 20
582.2236630793577
 10
884.4042137681325
 20
575.7803418623034
 10
877.9992071660117
 20
572.7977521457033
 10
873.1360402100635
 20
566.2895352988762
 10
868.0194362042257
 20
560.9525373221249
 10
867.0977442818594
 20
559.9911496894846
 10
867.9542620994743
 20
556.8047712159077
 10
868.6554072927675
 20
554.8892896517863
 10
874.777908850956
 20
538.1630094678694
 10
881.0743491656184
 20
521.5004881339409
 10
887.2576760735446
 20
504.7962950471537
 10
888.2279519817529
 20
502.1750944900941
 10
888.8890695554291
 20
499.4394530152603
 10
889.6931390987546
 20
496.7567137620171
 10
889.3615274554395
 20
496.2852782159443
 10
889.0299234415188
 20
495.8138274110824
 10
888.6983117982035
 20
495.3423766062224
 10
886.2602624081691
 20
496.5405882741033
 10
883.2362907592287
 20
497.202575577663
 10
881.5282981539366
 20
499.0688933235087
 10
879.2496344498685
 20
501.5588072596983
 10
877.5938955692991
 20
504.8311766388906
 10
876.3653570190145
 20
508.0339659400778
 10
870.1063922914208
 20
524.3510206608243
 10
864.0949289445934
 20
540.762862979067
 10
857.9313888719816
 20
557.1168592280709
 10
857.0681610016745
 20
559.4073026445812
 10
855.8436622159151
 20
561.5615995159124
 10
854.5507926090003
 20
564.2730252925448
 10
865.0429155760058
 20
580.2460858732529
 10
878.4879919708119
 20
594.2418706089393
 10
894.1954051648972
 20
605.9940030046973
 10
919.6107043943456
 20
625.0094963652582
 10
947.3853863244412
 20
638.8402787551877
 10
979.2120016654772
 20
643.3633798388691
 10
982.8128013347669
 20
643.875114323624
 10
986.4042321072902
 20
644.4528623828664
 10
989.9999963760382
 20
644.9999994039536
 10
996.3333248143717
 20
644.9999996423721
 10
1002.666668511496
 20
644.9999996423721
 10
1008.999996949831
 20
645.0
 97
        0
 97
        1
330
84
 75
     2
 76
     1
 98
        1
 10
0.0
 20
0.0
450
        0
451
        0
460
0.0
461
0.0
452
        0
462
0.0
453
        0
470

  0
SPLINE
  5
86
330
7D
100
AcDbEntity
  8
Layer 1
100
AcDbSpline
210
0.0
220
0.0
230
1.0
 70
     9
 71
     3
 72
    56
 73
    52
 74
     0
 42
0.0000000001
 43
0.0000000001
 40
0.0
 40
0.0
 40
0.0
 40
0.0
 40
1.0
 40
1.0
 40
1.0
 40
2.0
 40
2.0
 40
2.0
 40
3.0
 40
3.0
 40
3.0
 40
4.0
 40
4.0
 40
4.0
 40
5.0
 40
5.0
 40
5.0
 40
6.0
 40
6.0
 40
6.0
 40
7.0
 40
7.0
 40
7.0
 40
8.0
 40
8.0
 40
8.0
 40
9.0
 40
9.0
 40
9.0
 40
10.0
 40
10.0
 40
10.0
 40
11.0
 40
11.0
 40
11.0
 40
12.0
 40
12.0
 40
12.0
 40
13.0
 40
13.0
 40
13.0
 40
14.0
 40
14.0
 40
14.0
 40
15.0
 40
15.0
 40
15.0
 40
16.0
 40
16.0
 40
16.0
 40
17.0
 40
17.0
 40
17.0
 40
17.0
 10
888.1177072274468
 20
568.8286664591032
 30
0.0
 10
888.9960489287769
 20
566.4033506062996
 30
0.0
 10
889.7085352173835
 20
564.3805997552517
 30
0.0
 10
890.4591989973779
 20
562.372108242559
 30
0.0
 10
896.1678631102076
 20
547.0979383466956
 30
0.0
 10
902.0587629463143
 20
531.8890150327534
 30
0.0
 10
907.5445495499716
 20
516.5353086990362
 30
0.0
 10
912.2515656833328
 20
503.3612669734248
 30
0.0
 10
907.3323684522547
 20
492.6822203607517
 30
0.0
 10
895.2522060390984
 20
488.7863158263717
 30
0.0
 10
884.421990257927
 20
485.2935027219682
 30
0.0
 10
874.7493443969688
 20
490.279540921485
 30
0.0
 10
869.982811355072
 20
502.3012694166372
 30
0.0
 10
865.077846759922
 20
514.6721647813119
 30
0.0
 10
860.5819321649178
 20
527.2051618913155
 30
0.0
 10
855.897586778091
 20
539.6636808520325
 30
0.0
 10
854.0426939913613
 20
544.5969770472438
 30
0.0
 10
852.1623609877979
 20
549.5207059817302
 30
0.0
 10
850.1440274917868
 20
554.8432386264749
 30
0.0
 10
843.5000033958749
 20
552.3529279617705
 30
0.0
 10
837.3327573447586
 20
550.0413206048669
 30
0.0
 10
830.7328902783792
 20
547.5675580968727
 30
0.0
 10
838.1730321809254
 20
528.2190397582417
 30
0.0
 10
845.2441059265739
 20
509.2097014117079
 30
0.0
 10
852.8739393784281
 20
490.4273528108806
 30
0.0
 10
854.7678603340619
 20
485.7650603383517
 30
0.0
 10
858.1037559731349
 20
481.5232237977252
 30
0.0
 10
861.4263345036516
 20
477.6445159185877
 30
0.0
 10
866.6919291450922
 20
471.497543272806
 30
0.0
 10
873.605888857066
 20
467.7287444510985
 30
0.0
 10
881.7454459876435
 20
467.0376738956347
 30
0.0
 10
896.2561657251789
 20
465.8056640100385
 30
0.0
 10
909.0185562473179
 20
470.381103455371
 30
0.0
 10
919.9876041249662
 20
479.7999571990967
 30
0.0
 10
926.0300084822501
 20
484.988403235182
 30
0.0
 10
929.3587057873656
 20
491.7443694102002
 30
0.0
 10
930.3245337584275
 20
499.7120970577652
 30
0.0
 10
931.3987830584474
 20
508.5742491422824
 30
0.0
 10
929.4161017241567
 20
516.9241484200538
 30
0.0
 10
926.3867437225153
 20
525.108779753773
 30
0.0
 10
920.5541248329927
 20
540.8671110257637
 30
0.0
 10
914.6524141445096
 20
556.5998914555138
 30
0.0
 10
908.7549453995134
 20
572.3341290996176
 30
0.0
 10
908.3082214480336
 20
573.5259549642869
 30
0.0
 10
907.6678710868982
 20
574.645202398904
 30
0.0
 10
907.0140548440095
 20
576.0149533731346
 30
0.0
 10
901.9248060330893
 20
574.1296994700952
 30
0.0
 10
897.108330973082
 20
572.3562924906928
 30
0.0
 10
892.3013926565273
 20
570.557380445417
 30
0.0
 10
891.0682917281746
 20
570.0959241473746
 30
0.0
 10
889.8653345385255
 20
569.5539395901923
 30
0.0
 10
888.1177072274468
 20
568.8286664591032
 30
0.0
  0
SPLINE
  5
87
330
7D
100
AcDbEntity
  8
Layer 1
100
AcDbSpline
210
0.0
220
0.0
230
1.0
 70
     9
 71
     3
 72
    20
 73
    16
 74
     0
 42
0.0000000001
 43
0.0000000001
 40
0.0
 40
0.0
 40
0.0
 40
0.0
 40
1.0
 40
1.0
 40
1.0
 40
2.0
 40
2.0
 40
2.0
 40
3.0
 40
3.0
 40
3.0
 40
4.0
 40
4.0
 40
4.0
 40
5.0
 40
5.0
 40
5.0
 40
5.0
 10
1102.265380625791
 20
580.4995419885435
 30
0.0
 10
1102.147521735514
 20
591.2636029443338
 30
0.0
 10
1097.235931011013
 20
604.0288617116575
 30
0.0
 10
1087.187499311069
 20
614.6582485954113
 30
0.0
 10
1069.012663557117
 20
633.8838774155138
 30
0.0
 10
1039.237592467489
 20
634.0744520611861
 30
0.0
 10
1020.702695057156
 20
615.2021996290304
 30
0.0
 10
1003.233486765919
 20
597.4150082683308
 30
0.0
 10
1003.768383632658
 20
566.2997281699526
 30
0.0
 10
1021.890408716072
 20
546.1115110412465
 30
0.0
 10
1035.15696490285
 20
531.3323515205174
 30
0.0
 10
1054.559080356952
 20
526.4452741972964
 30
0.0
 10
1072.77728159073
 20
533.2939451451056
 30
0.0
 10
1090.935424228943
 20
540.1200407145361
 30
0.0
 10
1102.158538581549
 20
556.6281125858368
 30
0.0
 10
1102.265380625791
 20
580.4995419885435
 30
0.0
  0
SPLINE
  5
88
330
7D
100
AcDbEntity
  8
Layer 1
100
AcDbSpline
210
0.0
220
0.0
230
1.0
 70
     9
 71
     3
 72
    47
 73
    43
 74
     0
 42
0.0000000001
 43
0.0000000001
 40
0.0
 40
0.0
 40
0.0
 40
0.0
 40
1.0
 40
1.0
 40
1.0
 40
2.0
 40
2.0
 40
2.0
 40
3.0
 40
3.0
 40
3.0
 40
4.0
 40
4.0
 40
4.0
 40
5.0
 40
5.0
 40
5.0
 40
6.0
 40
6.0
 40
6.0
 40
7.0
 40
7.0
 40
7.0
 40
8.0
 40
8.0
 40
8.0
 40
9.0
 40
9.0
 40
9.0
 40
10.0
 40
10.0
 40
10.0
 40
11.0
 40
11.0
 40
11.0
 40
12.0
 40
12.0
 40
12.0
 40
13.0
 40
13.0
 40
13.0
 40
14.0
 40
14.0
 40
14.0
 40
14.0
 10
913.3881166209766
 20
578.408088439859
 30
0.0
 10
924.7815038058734
 20
547.9920270902903
 30
0.0
 10
936.0105919745784
 20
518.0145643727865
 30
0.0
 10
947.3259533392475
 20
487.8067626053835
 30
0.0
 10
954.123530448829
 20
490.3838957797051
 30
0.0
 10
960.26044774842
 20
492.7105559319934
 30
0.0
 10
966.5812792381348
 20
495.1069487501772
 30
0.0
 10
959.4776260695061
 20
514.2301939568678
 30
0.0
 10
952.6348982017243
 20
532.6510236984468
 30
0.0
 10
945.3466289386524
 20
552.271232405269
 30
0.0
 10
947.7101696594445
 20
550.7492368634266
 30
0.0
 10
948.8299664461919
 20
550.044486803592
 30
0.0
 10
949.9334821045177
 20
549.3150937994633
 30
0.0
 10
968.2772784348617
 20
537.1903989958918
 30
0.0
 10
986.6041222500461
 20
525.039840544905
 30
0.0
 10
1004.990582155897
 20
512.9802092177869
 30
0.0
 10
1006.408337325665
 20
512.0503080963226
 30
0.0
 10
1008.480740342353
 20
510.9249113697241
 30
0.0
 10
1009.840542629512
 20
511.3146971356618
 30
0.0
 10
1014.73588274317
 20
512.7180784809279
 30
0.0
 10
1019.456128247049
 20
514.7321165634348
 30
0.0
 10
1024.679562853036
 20
516.6782835523081
 30
0.0
 10
1013.233776984916
 20
547.1225049970444
 30
0.0
 10
1001.971233920181
 20
577.0793225729812
 30
0.0
 10
990.6298029136124
 20
607.2459942745381
 30
0.0
 10
983.9252281261742
 20
604.7293889016263
 30
0.0
 10
977.9110983058782
 20
602.4719464311056
 30
0.0
 10
971.5853992623051
 20
600.0975606014089
 30
0.0
 10
978.3519552527851
 20
581.8979184510062
 30
0.0
 10
984.9117546452253
 20
564.254318017186
 30
0.0
 10
991.9589045162501
 20
545.2999723463399
 30
0.0
 10
989.2734338540959
 20
547.0273969649806
 30
0.0
 10
987.8876763659572
 20
547.908988760354
 30
0.0
 10
986.5115929503755
 20
548.8054349868543
 30
0.0
 10
969.2046618857203
 20
560.0799482122829
 30
0.0
 10
951.9142560901181
 20
571.380012279953
 30
0.0
 10
934.5651649900091
 20
582.5892674793695
 30
0.0
 10
933.1437629695438
 20
583.5076329563216
 30
0.0
 10
931.0787604657752
 20
584.6487424209308
 30
0.0
 10
929.7344000736138
 20
584.2532613119856
 30
0.0
 10
924.35252582661
 20
582.6700284350427
 30
0.0
 10
919.1370410499629
 20
580.5211789513978
 30
0.0
 10
913.3881166209766
 20
578.408088439859
 30
0.0
  0
SPLINE
  5
89
330
7D
100
AcDbEntity
  8
Layer 1
100
AcDbSpline
210
0.0
220
0.0
230
1.0
 70
     9
 71
     3
 72
   110
 73
   106
 74
     0
 42
0.0000000001
 43
0.0000000001
 40
0.0
 40
0.0
 40
0.0
 40
0.0
 40
1.0
 40
1.0
 40
1.0
 40
2.0
 40
2.0
 40
2.0
 40
3.0
 40
3.0
 40
3.0
 40
4.0
 40
4.0
 40
4.0
 40
5.0
 40
5.0
 40
5.0
 40
6.0
 40
6.0
 40
6.0
 40
7.0
 40
7.0
 40
7.0
 40
8.0
 40
8.0
 40
8.0
 40
9.0
 40
9.0
 40
9.0
 40
10.0
 40
10.0
 40
10.0
 40
11.0
 40
11.0
 40
11.0
 40
12.0
 40
12.0
 40
12.0
 40
13.0
 40
13.0
 40
13.0
 40
14.0
 40
14.0
 40
14.0
 40
15.0
 40
15.0
 40
15.0
 40
16.0
 40
16.0
 40
16.0
 40
17.0
 40
17.0
 40
17.0
 40
18.0
 40
18.0
 40
18.0
 40
19.0
 40
19.0
 40
19.0
 40
20.0
 40
20.0
 40
20.0
 40
21.0
 40
21.0
 40
21.0
 40
22.0
 40
22.0
 40
22.0
 40
23.0
 40
23.0
 40
23.0
 40
24.0
 40
24.0
 40
24.0
 40
25.0
 40
25.0
 40
25.0
 40
26.0
 40
26.0
 40
26.0
 40
27.0
 40
27.0
 40
27.0
 40
28.0
 40
28.0
 40
28.0
 40
29.0
 40
29.0
 40
29.0
 40
30.0
 40
30.0
 40
30.0
 40
31.0
 40
31.0
 40
31.0
 40
32.0
 40
32.0
 40
32.0
 40
33.0
 40
33.0
 40
33.0
 40
34.0
 40
34.0
 40
34.0
 40
35.0
 40
35.0
 40
35.0
 40
35.0
 10
1029.433957527868
 20
517.3522337464746
 30
0.0
 10
1028.367597022032
 20
515.4724730074867
 30
0.0
 10
1027.550549878217
 20
513.7264250368279
 30
0.0
 10
1026.464597086631
 20
512.1677092191694
 30
0.0
 10
1019.575558792647
 20
502.2794798658924
 30
0.0
 10
1008.588177479387
 20
499.4258269166512
 30
0.0
 10
998.0375790162307
 20
495.9702452574966
 30
0.0
 10
996.6845821491988
 20
495.5270842475092
 30
0.0
 10
994.5442927779222
 20
496.3912810233814
 30
0.0
 10
993.1728175167773
 20
497.276168717186
 30
0.0
 10
983.1222343275113
 20
503.7607420704007
 30
0.0
 10
973.1747242614746
 20
510.4050596860397
 30
0.0
 10
961.9030564406038
 20
517.8524473686684
 30
0.0
 10
964.7144121163274
 20
510.2104338318786
 30
0.0
 10
966.855830638029
 20
503.8376158495666
 30
0.0
 10
969.4231982692727
 20
497.6412810212514
 30
0.0
 10
970.7267719170395
 20
494.4950865686023
 30
0.0
 10
970.2004352312215
 20
492.6550902338458
 30
0.0
 10
968.0224871674017
 20
489.8634490032472
 30
0.0
 10
959.3133652002871
 20
478.7002562732359
 30
0.0
 10
945.8960216554396
 20
477.140518116712
 30
0.0
 10
933.7299675160556
 20
471.6948546738367
 30
0.0
 10
932.0522559785731
 20
475.9890288608603
 30
0.0
 10
930.5081504021563
 20
479.9412383267863
 30
0.0
 10
929.471895488049
 20
482.5935973310588
 30
0.0
 10
923.5725651707307
 20
477.2714537854335
 30
0.0
 10
917.4936312713288
 20
471.8372039167588
 30
0.0
 10
911.4699647075804
 20
466.3423613968189
 30
0.0
 10
899.7762006215216
 20
455.6752013808054
 30
0.0
 10
886.011261851333
 20
450.5363158915097
 30
0.0
 10
870.2678951344333
 20
451.9594268510009
 30
0.0
 10
853.8413885958771
 20
453.4443053885115
 30
0.0
 10
843.6791263260893
 20
463.9475249751158
 30
0.0
 10
837.7044137738284
 20
478.1542357663529
 30
0.0
 10
829.7714911709753
 20
497.0172118084483
 30
0.0
 10
822.9751271351615
 20
516.3597105548051
 30
0.0
 10
815.8231336444851
 20
535.5456464962517
 30
0.0
 10
815.4216586796628
 20
536.6226423440275
 30
0.0
 10
815.7672116113936
 20
538.5873029852136
 30
0.0
 10
816.5412113257771
 20
539.3955686698718
 30
0.0
 10
822.0342234431109
 20
545.1317136796342
 30
0.0
 10
827.2042475173957
 20
551.1887205052572
 30
0.0
 10
835.5889027693892
 20
553.2298734558826
 30
0.0
 10
841.0392298535434
 20
554.5567090859467
 30
0.0
 10
846.2065769639412
 20
557.0459592648131
 30
0.0
 10
852.0351484595421
 20
559.2131421834856
 30
0.0
 10
852.7575949230104
 20
557.4764554799003
 30
0.0
 10
853.4809569138497
 20
555.8747098771591
 30
0.0
 10
854.0980185474746
 20
554.2330015059315
 30
0.0
 10
860.3069764071024
 20
537.7139356771294
 30
0.0
 10
866.4696314699222
 20
521.1773909054864
 30
0.0
 10
872.7095723016773
 20
504.6700590854543
 30
0.0
 10
875.1003423323735
 20
498.345443617709
 30
0.0
 10
878.6775900600341
 20
493.0612791979966
 30
0.0
 10
885.8396386161693
 20
491.4829710952163
 30
0.0
 10
892.4959422229495
 20
490.0161284463465
 30
0.0
 10
895.0434734278132
 20
492.3653105712528
 30
0.0
 10
893.8737575111408
 20
499.029083142912
 30
0.0
 10
893.4173213401299
 20
501.6293791589923
 30
0.0
 10
892.5199824458431
 20
504.1783903851191
 30
0.0
 10
891.5959177817066
 20
506.6662443847889
 30
0.0
 10
885.6248558948392
 20
522.7421720917864
 30
0.0
 10
879.71164770845
 20
538.8418348451304
 30
0.0
 10
873.4803853132362
 20
554.8170545444881
 30
0.0
 10
872.1606945690364
 20
558.2003553199765
 30
0.0
 10
872.9722790662027
 20
560.0092389838883
 30
0.0
 10
875.2270742087594
 20
562.5397489283086
 30
0.0
 10
880.8152625489073
 20
568.8112790689956
 30
0.0
 10
887.4135980142883
 20
572.9715039764614
 30
0.0
 10
895.4404995018158
 20
575.5416257372217
 30
0.0
 10
905.576501394834
 20
578.7870557243705
 30
0.0
 10
915.5340364855874
 20
582.6431920398245
 30
0.0
 10
925.4032384437905
 20
586.6437260906296
 30
0.0
 10
929.6906302358657
 20
588.3816525708234
 30
0.0
 10
932.9290107657925
 20
588.2028920425637
 30
0.0
 10
936.824823871726
 20
585.4308011354196
 30
0.0
 10
945.2011058629686
 20
579.4706189556282
 30
0.0
 10
954.0040236092828
 20
574.1100156322373
 30
0.0
 10
963.8483537405628
 20
567.7138898496732
 30
0.0
 10
961.1677201146868
 20
575.0244824885903
 30
0.0
 10
958.7646896466084
 20
580.987891902263
 30
0.0
 10
956.8825484764866
 20
587.1114041599012
 30
0.0
 10
956.390650878624
 20
588.7118298773903
 30
0.0
 10
956.9867354913522
 20
591.1789777003377
 30
0.0
 10
957.986750780341
 20
592.6217457948041
 30
0.0
 10
966.2659563526359
 20
604.5664708110835
 30
0.0
 10
980.0467337463505
 20
606.4669644296728
 30
0.0
 10
992.5475580984803
 20
611.642017063682
 30
0.0
 10
994.6143916569926
 20
606.3509633007206
 30
0.0
 10
996.5223964753549
 20
601.4664914157283
 30
0.0
 10
998.6465725648958
 20
596.0286442875376
 30
0.0
 10
999.7949032880514
 20
597.6392209144332
 30
0.0
 10
1000.65760473012
 20
598.7902638507057
 30
0.0
 10
1001.459011614673
 20
599.9825093320732
 30
0.0
 10
1008.352124005461
 20
610.2375370856052
 30
0.0
 10
1017.106091554984
 20
618.60996596539
 30
0.0
 10
1027.57699336046
 20
625.0833050351766
 30
0.0
 10
1055.235288873466
 20
642.1822599220576
 30
0.0
 10
1089.979308477412
 20
629.3493401078676
 30
0.0
 10
1101.870788328719
 20
597.6927449316763
 30
0.0
 10
1111.040496857595
 20
573.2818524866752
 30
0.0
 10
1103.889526182653
 20
552.5341184521839
 30
0.0
 10
1086.859252230844
 20
534.4549787734995
 30
0.0
 10
1070.963713420726
 20
517.5804594540932
 30
0.0
 10
1051.721189646248
 20
511.0463560716652
 30
0.0
 10
1029.433957527868
 20
517.3522337464746
 30
0.0
  0
HATCH
  5
8A
330
7D
100
AcDbEntity
  8
Layer 1
 62
     7
440
 33554687
100
AcDbHatch
 10
0.0
 20
0.0
 30
0.0
210
0.0
220
0.0
230
1.0
  2
SOLID
 70
     1
 71
     1
 91
        4
 92
        1
 93
        1
 72
     4
 94
        3
 73
     0
 74
     0
 95
       56
 96
       52
 40
0.0
 40
0.0
 40
0.0
 40
0.0
 40
1.0
 40
1.0
 40
1.0
 40
2.0
 40
2.0
 40
2.0
 40
3.0
 40
3.0
 40
3.0
 40
4.0
 40
4.0
 40
4.0
 40
5.0
 40
5.0
 40
5.0
 40
6.0
 40
6.0
 40
6.0
 40
7.0
 40
7.0
 40
7.0
 40
8.0
 40
8.0
 40
8.0
 40
9.0
 40
9.0
 40
9.0
 40
10.0
 40
10.0
 40
10.0
 40
11.0
 40
11.0
 40
11.0
 40
12.0
 40
12.0
 40
12.0
 40
13.0
 40
13.0
 40
13.0
 40
14.0
 40
14.0
 40
14.0
 40
15.0
 40
15.0
 40
15.0
 40
16.0
 40
16.0
 40
16.0
 40
17.0
 40
17.0
 40
17.0
 40
17.0
 10
888.1177072274468
 20
568.8286664591032
 10
888.9960489287769
 20
566.4033506062996
 10
889.7085352173835
 20
564.3805997552517
 10
890.4591989973779
 20
562.372108242559
 10
896.1678631102076
 20
547.0979383466956
 10
902.0587629463143
 20
531.8890150327534
 10
907.5445495499716
 20
516.5353086990362
 10
912.2515656833328
 20
503.3612669734248
 10
907.3323684522547
 20
492.6822203607517
 10
895.2522060390984
 20
488.7863158263717
 10
884.421990257927
 20
485.2935027219682
 10
874.7493443969688
 20
490.279540921485
 10
869.982811355072
 20
502.3012694166372
 10
865.077846759922
 20
514.6721647813119
 10
860.5819321649178
 20
527.2051618913155
 10
855.897586778091
 20
539.6636808520325
 10
854.0426939913613
 20
544.5969770472438
 10
852.1623609877979
 20
549.5207059817302
 10
850.1440274917868
 20
554.8432386264749
 10
843.5000033958749
 20
552.3529279617705
 10
837.3327573447586
 20
550.0413206048669
 10
830.7328902783792
 20
547.5675580968727
 10
838.1730321809254
 20
528.2190397582417
 10
845.2441059265739
 20
509.2097014117079
 10
852.8739393784281
 20
490.4273528108806
 10
854.7678603340619
 20
485.7650603383517
 10
858.1037559731349
 20
481.5232237977252
 10
861.4263345036516
 20
477.6445159185877
 10
866.6919291450922
 20
471.497543272806
 10
873.605888857066
 20
467.7287444510985
 10
881.7454459876435
 20
467.0376738956347
 10
896.2561657251789
 20
465.8056640100385
 10
909.0185562473179
 20
470.381103455371
 10
919.9876041249662
 20
479.7999571990967
 10
926.0300084822501
 20
484.988403235182
 10
929.3587057873656
 20
491.7443694102002
 10
930.3245337584275
 20
499.7120970577652
 10
931.3987830584474
 20
508.5742491422824
 10
929.4161017241567
 20
516.9241484200538
 10
926.3867437225153
 20
525.108779753773
 10
920.5541248329927
 20
540.8671110257637
 10
914.6524141445096
 20
556.5998914555138
 10
908.7549453995134
 20
572.3341290996176
 10
908.3082214480336
 20
573.5259549642869
 10
907.6678710868982
 20
574.645202398904
 10
907.0140548440095
 20
576.0149533731346
 10
901.9248060330893
 20
574.1296994700952
 10
897.108330973082
 20
572.3562924906928
 10
892.3013926565273
 20
570.557380445417
 10
891.0682917281746
 20
570.0959241473746
 10
889.8653345385255
 20
569.5539395901923
 10
888.1177072274468
 20
568.8286664591032
 97
        0
 97
        1
330
86
 92
        1
 93
        1
 72
     4
 94
        3
 73
     0
 74
     0
 95
       20
 96
       16
 40
0.0
 40
0.0
 40
0.0
 40
0.0
 40
1.0
 40
1.0
 40
1.0
 40
2.0
 40
2.0
 40
2.0
 40
3.0
 40
3.0
 40
3.0
 40
4.0
 40
4.0
 40
4.0
 40
5.0
 40
5.0
 40
5.0
 40
5.0
 10
1102.265380625791
 20
580.4995419885435
 10
1102.147521735514
 20
591.2636029443338
 10
1097.235931011013
 20
604.0288617116575
 10
1087.187499311069
 20
614.6582485954113
 10
1069.012663557117
 20
633.8838774155138
 10
1039.237592467489
 20
634.0744520611861
 10
1020.702695057156
 20
615.2021996290304
 10
1003.233486765919
 20
597.4150082683308
 10
1003.768383632658
 20
566.2997281699526
 10
1021.890408716072
 20
546.1115110412465
 10
1035.15696490285
 20
531.3323515205174
 10
1054.559080356952
 20
526.4452741972964
 10
1072.77728159073
 20
533.2939451451056
 10
1090.935424228943
 20
540.1200407145361
 10
1102.158538581549
 20
556.6281125858368
 10
1102.265380625791
 20
580.4995419885435
 97
        0
 97
        1
330
87
 92
        1
 93
        1
 72
     4
 94
        3
 73
     0
 74
     0
 95
       47
 96
       43
 40
0.0
 40
0.0
 40
0.0
 40
0.0
 40
1.0
 40
1.0
 40
1.0
 40
2.0
 40
2.0
 40
2.0
 40
3.0
 40
3.0
 40
3.0
 40
4.0
 40
4.0
 40
4.0
 40
5.0
 40
5.0
 40
5.0
 40
6.0
 40
6.0
 40
6.0
 40
7.0
 40
7.0
 40
7.0
 40
8.0
 40
8.0
 40
8.0
 40
9.0
 40
9.0
 40
9.0
 40
10.0
 40
10.0
 40
10.0
 40
11.0
 40
11.0
 40
11.0
 40
12.0
 40
12.0
 40
12.0
 40
13.0
 40
13.0
 40
13.0
 40
14.0
 40
14.0
 40
14.0
 40
14.0
 10
913.3881166209766
 20
578.408088439859
 10
924.7815038058734
 20
547.9920270902903
 10
936.0105919745784
 20
518.0145643727865
 10
947.3259533392475
 20
487.8067626053835
 10
954.123530448829
 20
490.3838957797051
 10
960.26044774842
 20
492.7105559319934
 10
966.5812792381348
 20
495.1069487501772
 10
959.4776260695061
 20
514.2301939568678
 10
952.6348982017243
 20
532.6510236984468
 10
945.3466289386524
 20
552.271232405269
 10
947.7101696594445
 20
550.7492368634266
 10
948.8299664461919
 20
550.044486803592
 10
949.9334821045177
 20
549.3150937994633
 10
968.2772784348617
 20
537.1903989958918
 10
986.6041222500461
 20
525.039840544905
 10
1004.990582155897
 20
512.9802092177869
 10
1006.408337325665
 20
512.0503080963226
 10
1008.480740342353
 20
510.9249113697241
 10
1009.840542629512
 20
511.3146971356618
 10
1014.73588274317
 20
512.7180784809279
 10
1019.456128247049
 20
514.7321165634348
 10
1024.679562853036
 20
516.6782835523081
 10
1013.233776984916
 20
547.1225049970444
 10
1001.971233920181
 20
577.0793225729812
 10
990.6298029136124
 20
607.2459942745381
 10
983.9252281261742
 20
604.7293889016263
 10
977.9110983058782
 20
602.4719464311056
 10
971.5853992623051
 20
600.0975606014089
 10
978.3519552527851
 20
581.8979184510062
 10
984.9117546452253
 20
564.254318017186
 10
991.9589045162501
 20
545.2999723463399
 10
989.2734338540959
 20
547.0273969649806
 10
987.8876763659572
 20
547.908988760354
 10
986.5115929503755
 20
548.8054349868543
 10
969.2046618857203
 20
560.0799482122829
 10
951.9142560901181
 20
571.380012279953
 10
934.5651649900091
 20
582.5892674793695
 10
933.1437629695438
 20
583.5076329563216
 10
931.0787604657752
 20
584.6487424209308
 10
929.7344000736138
 20
584.2532613119856
 10
924.35252582661
 20
582.6700284350427
 10
919.1370410499629
 20
580.5211789513978
 10
913.3881166209766
 20
578.408088439859
 97
        0
 97
        1
330
88
 92
        1
 93
        1
 72
     4
 94
        3
 73
     0
 74
     0
 95
      110
 96
      106
 40
0.0
 40
0.0
 40
0.0
 40
0.0
 40
1.0
 40
1.0
 40
1.0
 40
2.0
 40
2.0
 40
2.0
 40
3.0
 40
3.0
 40
3.0
 40
4.0
 40
4.0
 40
4.0
 40
5.0
 40
5.0
 40
5.0
 40
6.0
 40
6.0
 40
6.0
 40
7.0
 40
7.0
 40
7.0
 40
8.0
 40
8.0
 40
8.0
 40
9.0
 40
9.0
 40
9.0
 40
10.0
 40
10.0
 40
10.0
 40
11.0
 40
11.0
 40
11.0
 40
12.0
 40
12.0
 40
12.0
 40
13.0
 40
13.0
 40
13.0
 40
14.0
 40
14.0
 40
14.0
 40
15.0
 40
15.0
 40
15.0
 40
16.0
 40
16.0
 40
16.0
 40
17.0
 40
17.0
 40
17.0
 40
18.0
 40
18.0
 40
18.0
 40
19.0
 40
19.0
 40
19.0
 40
20.0
 40
20.0
 40
20.0
 40
21.0
 40
21.0
 40
21.0
 40
22.0
 40
22.0
 40
22.0
 40
23.0
 40
23.0
 40
23.0
 40
24.0
 40
24.0
 40
24.0
 40
25.0
 40
25.0
 40
25.0
 40
26.0
 40
26.0
 40
26.0
 40
27.0
 40
27.0
 40
27.0
 40
28.0
 40
28.0
 40
28.0
 40
29.0
 40
29.0
 40
29.0
 40
30.0
 40
30.0
 40
30.0
 40
31.0
 40
31.0
 40
31.0
 40
32.0
 40
32.0
 40
32.0
 40
33.0
 40
33.0
 40
33.0
 40
34.0
 40
34.0
 40
34.0
 40
35.0
 40
35.0
 40
35.0
 40
35.0
 10
1029.433957527868
 20
517.3522337464746
 10
1028.367597022032
 20
515.4724730074867
 10
1027.550549878217
 20
513.7264250368279
 10
1026.464597086631
 20
512.1677092191694
 10
1019.575558792647
 20
502.2794798658924
 10
1008.588177479387
 20
499.4258269166512
 10
998.0375790162307
 20
495.9702452574966
 10
996.6845821491988
 20
495.5270842475092
 10
994.5442927779222
 20
496.3912810233814
 10
993.1728175167773
 20
497.276168717186
 10
983.1222343275113
 20
503.7607420704007
 10
973.1747242614746
 20
510.4050596860397
 10
961.9030564406038
 20
517.8524473686684
 10
964.7144121163274
 20
510.2104338318786
 10
966.855830638029
 20
503.8376158495666
 10
969.4231982692727
 20
497.6412810212514
 10
970.7267719170395
 20
494.4950865686023
 10
970.2004352312215
 20
492.6550902338458
 10
968.0224871674017
 20
489.8634490032472
 10
959.3133652002871
 20
478.7002562732359
 10
945.8960216554396
 20
477.140518116712
 10
933.7299675160556
 20
471.6948546738367
 10
932.0522559785731
 20
475.9890288608603
 10
930.5081504021563
 20
479.9412383267863
 10
929.471895488049
 20
482.5935973310588
 10
923.5725651707307
 20
477.2714537854335
 10
917.4936312713288
 20
471.8372039167588
 10
911.4699647075804
 20
466.3423613968189
 10
899.7762006215216
 20
455.6752013808054
 10
886.011261851333
 20
450.5363158915097
 10
870.2678951344333
 20
451.9594268510009
 10
853.8413885958771
 20
453.4443053885115
 10
843.6791263260893
 20
463.9475249751158
 10
837.7044137738284
 20
478.1542357663529
 10
829.7714911709753
 20
497.0172118084483
 10
822.9751271351615
 20
516.3597105548051
 10
815.8231336444851
 20
535.5456464962517
 10
815.4216586796628
 20
536.6226423440275
 10
815.7672116113936
 20
538.5873029852136
 10
816.5412113257771
 20
539.3955686698718
 10
822.0342234431109
 20
545.1317136796342
 10
827.2042475173957
 20
551.1887205052572
 10
835.5889027693892
 20
553.2298734558826
 10
841.0392298535434
 20
554.5567090859467
 10
846.2065769639412
 20
557.0459592648131
 10
852.0351484595421
 20
559.2131421834856
 10
852.7575949230104
 20
557.4764554799003
 10
853.4809569138497
 20
555.8747098771591
 10
854.0980185474746
 20
554.2330015059315
 10
860.3069764071024
 20
537.7139356771294
 10
866.4696314699222
 20
521.1773909054864
 10
872.7095723016773
 20
504.6700590854543
 10
875.1003423323735
 20
498.345443617709
 10
878.6775900600341
 20
493.0612791979966
 10
885.8396386161693
 20
491.4829710952163
 10
892.4959422229495
 20
490.0161284463465
 10
895.0434734278132
 20
492.3653105712528
 10
893.8737575111408
 20
499.029083142912
 10
893.4173213401299
 20
501.6293791589923
 10
892.5199824458431
 20
504.1783903851191
 10
891.5959177817066
 20
506.6662443847889
 10
885.6248558948392
 20
522.7421720917864
 10
879.71164770845
 20
538.8418348451304
 10
873.4803853132362
 20
554.8170545444881
 10
872.1606945690364
 20
558.2003553199765
 10
872.9722790662027
 20
560.0092389838883
 10
875.2270742087594
 20
562.5397489283086
 10
880.8152625489073
 20
568.8112790689956
 10
887.4135980142883
 20
572.9715039764614
 10
895.4404995018158
 20
575.5416257372217
 10
905.576501394834
 20
578.7870557243705
 10
915.5340364855874
 20
582.6431920398245
 10
925.4032384437905
 20
586.6437260906296
 10
929.6906302358657
 20
588.3816525708234
 10
932.9290107657925
 20
588.2028920425637
 10
936.824823871726
 20
585.4308011354196
 10
945.2011058629686
 20
579.4706189556282
 10
954.0040236092828
 20
574.1100156322373
 10
963.8483537405628
 20
567.7138898496732
 10
961.1677201146868
 20
575.0244824885903
 10
958.7646896466084
 20
580.987891902263
 10
956.8825484764866
 20
587.1114041599012
 10
956.390650878624
 20
588.7118298773903
 10
956.9867354913522
 20
591.1789777003377
 10
957.986750780341
 20
592.6217457948041
 10
966.2659563526359
 20
604.5664708110835
 10
980.0467337463505
 20
606.4669644296728
 10
992.5475580984803
 20
611.642017063682
 10
994.6143916569926
 20
606.3509633007206
 10
996.5223964753549
 20
601.4664914157283
 10
998.6465725648958
 20
596.0286442875376
 10
999.7949032880514
 20
597.6392209144332
 10
1000.65760473012
 20
598.7902638507057
 10
1001.459011614673
 20
599.9825093320732
 10
1008.352124005461
 20
610.2375370856052
 10
1017.106091554984
 20
618.60996596539
 10
1027.57699336046
 20
625.0833050351766
 10
1055.235288873466
 20
642.1822599220576
 10
1089.979308477412
 20
629.3493401078676
 10
1101.870788328719
 20
597.6927449316763
 10
1111.040496857595
 20
573.2818524866752
 10
1103.889526182653
 20
552.5341184521839
 10
1086.859252230844
 20
534.4549787734995
 10
1070.963713420726
 20
517.5804594540932
 10
1051.721189646248
 20
511.0463560716652
 10
1029.433957527868
 20
517.3522337464746
 97
        0
 97
        1
330
89
 75
     2
 76
     1
 98
        1
 10
0.0
 20
0.0
450
        0
451
        0
460
0.0
461
0.0
452
        0
462
0.0
453
        0
470

  0
SPLINE
  5
8B
330
7D
100
AcDbEntity
  8
Layer 1
100
AcDbSpline
210
0.0
220
0.0
230
1.0
 70
     9
 71
     3
 72
    50
 73
    46
 74
     0
 42
0.0000000001
 43
0.0000000001
 40
0.0
 40
0.0
 40
0.0
 40
0.0
 40
1.0
 40
1.0
 40
1.0
 40
2.0
 40
2.0
 40
2.0
 40
3.0
 40
3.0
 40
3.0
 40
4.0
 40
4.0
 40
4.0
 40
5.0
 40
5.0
 40
5.0
 40
6.0
 40
6.0
 40
6.0
 40
7.0
 40
7.0
 40
7.0
 40
8.0
 40
8.0
 40
8.0
 40
9.0
 40
9.0
 40
9.0
 40
10.0
 40
10.0
 40
10.0
 40
11.0
 40
11.0
 40
11.0
 40
12.0
 40
12.0
 40
12.0
 40
13.0
 40
13.0
 40
13.0
 40
14.0
 40
14.0
 40
14.0
 40
15.0
 40
15.0
 40
15.0
 40
15.0
 10
1061.885115124094
 20
511.3220671307662
 30
0.0
 10
1051.739637522782
 20
497.7528990630544
 30
0.0
 10
1039.261365661567
 20
484.8448332891384
 30
0.0
 10
1024.696332262723
 20
474.1393279362764
 30
0.0
 10
990.1343805353699
 20
448.7358550791468
 30
0.0
 10
951.9426984737892
 20
434.0632629410484
 30
0.0
 10
908.3753601219369
 20
436.1474456767573
 30
0.0
 10
895.4277813007484
 20
436.7668151825382
 30
0.0
 10
883.1121528770617
 20
440.0109100256468
 30
0.0
 10
871.362331812992
 20
446.4298858447928
 30
0.0
 10
894.8052989821444
 20
446.225296001392
 30
0.0
 10
912.078752262586
 20
457.8229522316396
 30
0.0
 10
926.222887211219
 20
474.7740935601941
 30
0.0
 10
926.9906637236635
 20
474.4423217101739
 30
0.0
 10
927.4373876751432
 20
474.3953856750977
 30
0.0
 10
927.5341665476943
 20
474.1863860416652
 30
0.0
 10
931.3513892581886
 20
465.9434966514054
 30
0.0
 10
931.3579581670783
 20
465.9335784385311
 30
0.0
 10
939.8301797974481
 20
469.0782775298557
 30
0.0
 10
942.7960459758834
 20
470.1791381236835
 30
0.0
 10
945.6787517514166
 20
471.5966491075978
 30
0.0
 10
948.7264050416969
 20
472.3673705418332
 30
0.0
 10
958.3034469568975
 20
474.7892607964968
 30
0.0
 10
965.6473345077829
 20
480.3755950154991
 30
0.0
 10
972.2598682768149
 20
487.495101839313
 30
0.0
 10
975.3374135357717
 20
490.8085783961687
 30
0.0
 10
976.2509267469523
 20
493.6971434547267
 30
0.0
 10
974.2519032490836
 20
497.7123564605845
 30
0.0
 10
973.2361408893048
 20
499.7526549190243
 30
0.0
 10
972.6750904573236
 20
502.0193480303987
 30
0.0
 10
972.6914783972715
 20
505.0687254666118
 30
0.0
 10
977.5498464639131
 20
501.8885649495659
 30
0.0
 10
982.7083549204798
 20
499.0778044563048
 30
0.0
 10
987.1910515890595
 20
495.4353026314548
 30
0.0
 10
992.8688471706847
 20
490.8216856959516
 30
0.0
 10
998.0735897595058
 20
490.5636290557668
 30
0.0
 10
1005.017742801248
 20
493.1260832750358
 30
0.0
 10
1014.929303159168
 20
496.7835387131417
 30
0.0
 10
1023.883282921763
 20
501.1718748873099
 30
0.0
 10
1030.651624190617
 20
509.4971312207889
 30
0.0
 10
1031.501233591276
 20
510.5421599055317
 30
0.0
 10
1033.391233038001
 20
511.2189177168802
 30
0.0
 10
1034.813260668838
 20
511.243255485393
 30
0.0
 10
1043.864316850378
 20
511.3981474529027
 30
0.0
 10
1052.919294540828
 20
511.3220671307662
 30
0.0
 10
1061.885115124094
 20
511.3220671307662
 30
0.0
  0
HATCH
  5
8C
330
7D
100
AcDbEntity
  8
Layer 1
 62
     7
440
 33554687
100
AcDbHatch
 10
0.0
 20
0.0
 30
0.0
210
0.0
220
0.0
230
1.0
  2
SOLID
 70
     1
 71
     1
 91
        1
 92
        1
 93
        1
 72
     4
 94
        3
 73
     0
 74
     0
 95
       50
 96
       46
 40
0.0
 40
0.0
 40
0.0
 40
0.0
 40
1.0
 40
1.0
 40
1.0
 40
2.0
 40
2.0
 40
2.0
 40
3.0
 40
3.0
 40
3.0
 40
4.0
 40
4.0
 40
4.0
 40
5.0
 40
5.0
 40
5.0
 40
6.0
 40
6.0
 40
6.0
 40
7.0
 40
7.0
 40
7.0
 40
8.0
 40
8.0
 40
8.0
 40
9.0
 40
9.0
 40
9.0
 40
10.0
 40
10.0
 40
10.0
 40
11.0
 40
11.0
 40
11.0
 40
12.0
 40
12.0
 40
12.0
 40
13.0
 40
13.0
 40
13.0
 40
14.0
 40
14.0
 40
14.0
 40
15.0
 40
15.0
 40
15.0
 40
15.0
 10
1061.885115124094
 20
511.3220671307662
 10
1051.739637522782
 20
497.7528990630544
 10
1039.261365661567
 20
484.8448332891384
 10
1024.696332262723
 20
474.1393279362764
 10
990.1343805353699
 20
448.7358550791468
 10
951.9426984737892
 20
434.0632629410484
 10
908.3753601219369
 20
436.1474456767573
 10
895.4277813007484
 20
436.7668151825382
 10
883.1121528770617
 20
440.0109100256468
 10
871.362331812992
 20
446.4298858447928
 10
894.8052989821444
 20
446.225296001392
 10
912.078752262586
 20
457.8229522316396
 10
926.222887211219
 20
474.7740935601941
 10
926.9906637236635
 20
474.4423217101739
 10
927.4373876751432
 20
474.3953856750977
 10
927.5341665476943
 20
474.1863860416652
 10
931.3513892581886
 20
465.9434966514054
 10
931.3579581670783
 20
465.9335784385311
 10
939.8301797974481
 20
469.0782775298557
 10
942.7960459758834
 20
470.1791381236835
 10
945.6787517514166
 20
471.5966491075978
 10
948.7264050416969
 20
472.3673705418332
 10
958.3034469568975
 20
474.7892607964968
 10
965.6473345077829
 20
480.3755950154991
 10
972.2598682768149
 20
487.495101839313
 10
975.3374135357717
 20
490.8085783961687
 10
976.2509267469523
 20
493.6971434547267
 10
974.2519032490836
 20
497.7123564605845
 10
973.2361408893048
 20
499.7526549190243
 10
972.6750904573236
 20
502.0193480303987
 10
972.6914783972715
 20
505.0687254666118
 10
977.5498464639131
 20
501.8885649495659
 10
982.7083549204798
 20
499.0778044563048
 10
987.1910515890595
 20
495.4353026314548
 10
992.8688471706847
 20
490.8216856959516
 10
998.0735897595058
 20
490.5636290557668
 10
1005.017742801248
 20
493.1260832750358
 10
1014.929303159168
 20
496.7835387131417
 10
1023.883282921763
 20
501.1718748873099
 10
1030.651624190617
 20
509.4971312207889
 10
1031.501233591276
 20
510.5421599055317
 10
1033.391233038001
 20
511.2189177168802
 10
1034.813260668838
 20
511.243255485393
 10
1043.864316850378
 20
511.3981474529027
 10
1052.919294540828
 20
511.3220671307662
 10
1061.885115124094
 20
511.3220671307662
 97
        0
 97
        1
330
8B
 75
     2
 76
     1
 98
        1
 10
0.0
 20
0.0
450
        0
451
        0
460
0.0
461
0.0
452
        0
462
0.0
453
        0
470

  0
SPLINE
  5
8D
330
7D
100
AcDbEntity
  8
Layer 1
100
AcDbSpline
210
0.0
220
0.0
230
1.0
 70
     9
 71
     3
 72
    47
 73
    43
 74
     0
 42
0.0000000001
 43
0.0000000001
 40
0.0
 40
0.0
 40
0.0
 40
0.0
 40
1.0
 40
1.0
 40
1.0
 40
2.0
 40
2.0
 40
2.0
 40
3.0
 40
3.0
 40
3.0
 40
4.0
 40
4.0
 40
4.0
 40
5.0
 40
5.0
 40
5.0
 40
6.0
 40
6.0
 40
6.0
 40
7.0
 40
7.0
 40
7.0
 40
8.0
 40
8.0
 40
8.0
 40
9.0
 40
9.0
 40
9.0
 40
10.0
 40
10.0
 40
10.0
 40
11.0
 40
11.0
 40
11.0
 40
12.0
 40
12.0
 40
12.0
 40
13.0
 40
13.0
 40
13.0
 40
14.0
 40
14.0
 40
14.0
 40
14.0
 10
913.3881166209766
 20
578.408088439859
 30
0.0
 10
919.1370410499629
 20
580.5211789513978
 30
0.0
 10
924.35252582661
 20
582.6700284350427
 30
0.0
 10
929.7344000736138
 20
584.2532613119856
 30
0.0
 10
931.0787604657752
 20
584.6487424209308
 30
0.0
 10
933.1437629695438
 20
583.5076329563216
 30
0.0
 10
934.5651649900091
 20
582.5892674793695
 30
0.0
 10
951.9142560901181
 20
571.380012279953
 30
0.0
 10
969.2046618857203
 20
560.0799482122829
 30
0.0
 10
986.5115929503755
 20
548.8054349868543
 30
0.0
 10
987.8876763659572
 20
547.908988760354
 30
0.0
 10
989.2734338540959
 20
547.0273969649806
 30
0.0
 10
991.9589045162501
 20
545.2999723463399
 30
0.0
 10
984.9117546452253
 20
564.254318017186
 30
0.0
 10
978.3519552527851
 20
581.8979184510062
 30
0.0
 10
971.5853992623051
 20
600.0975606014089
 30
0.0
 10
977.9110983058782
 20
602.4719464311056
 30
0.0
 10
983.9252281261742
 20
604.7293889016263
 30
0.0
 10
990.6298029136124
 20
607.2459942745381
 30
0.0
 10
1001.971233920181
 20
577.0793225729812
 30
0.0
 10
1013.233776984916
 20
547.1225049970444
 30
0.0
 10
1024.679562853036
 20
516.6782835523081
 30
0.0
 10
1019.456128247049
 20
514.7321165634348
 30
0.0
 10
1014.73588274317
 20
512.7180784809279
 30
0.0
 10
1009.840542629512
 20
511.3146971356618
 30
0.0
 10
1008.480740342353
 20
510.9249113697241
 30
0.0
 10
1006.408337325665
 20
512.0503080963226
 30
0.0
 10
1004.990582155897
 20
512.9802092177869
 30
0.0
 10
986.6041222500461
 20
525.039840544905
 30
0.0
 10
968.2772784348617
 20
537.1903989958918
 30
0.0
 10
949.9334821045177
 20
549.3150937994633
 30
0.0
 10
948.8299664461919
 20
550.044486803592
 30
0.0
 10
947.7101696594445
 20
550.7492368634266
 30
0.0
 10
945.3466289386524
 20
552.271232405269
 30
0.0
 10
952.6348982017243
 20
532.6510236984468
 30
0.0
 10
959.4776260695061
 20
514.2301939568678
 30
0.0
 10
966.5812792381348
 20
495.1069487501772
 30
0.0
 10
960.26044774842
 20
492.7105559319934
 30
0.0
 10
954.123530448829
 20
490.3838957797051
 30
0.0
 10
947.3259533392475
 20
487.8067626053835
 30
0.0
 10
936.0105919745784
 20
518.0145643727865
 30
0.0
 10
924.7815038058734
 20
547.9920270902903
 30
0.0
 10
913.3881166209766
 20
578.408088439859
 30
0.0
  0
SPLINE
  5
8E
330
7D
100
AcDbEntity
  8
Layer 1
100
AcDbSpline
210
0.0
220
0.0
230
1.0
 70
     9
 71
     3
 72
    23
 73
    19
 74
     0
 42
0.0000000001
 43
0.0000000001
 40
0.0
 40
0.0
 40
0.0
 40
0.0
 40
1.0
 40
1.0
 40
1.0
 40
2.0
 40
2.0
 40
2.0
 40
3.0
 40
3.0
 40
3.0
 40
4.0
 40
4.0
 40
4.0
 40
5.0
 40
5.0
 40
5.0
 40
6.0
 40
6.0
 40
6.0
 40
6.0
 10
1081.200408065808
 20
576.2221677282505
 30
0.0
 10
1081.205077255403
 20
584.941219074486
 30
0.0
 10
1077.855193121033
 20
593.9246060525947
 30
0.0
 10
1072.139830399603
 20
600.5198742908751
 30
0.0
 10
1065.070799424402
 20
608.6771962069151
 30
0.0
 10
1055.422575256076
 20
611.435546574532
 30
0.0
 10
1045.561307868425
 20
608.1184460552785
 30
0.0
 10
1035.231000549616
 20
604.6435658426908
 30
0.0
 10
1029.209012452715
 20
596.7865407095869
 30
0.0
 10
1028.705701280289
 20
585.7408253963658
 30
0.0
 10
1028.252332125972
 20
575.7912671552531
 30
0.0
 10
1031.522733225714
 20
567.0235669748726
 30
0.0
 10
1038.067136499525
 20
559.5980527663268
 30
0.0
 10
1045.40942187751
 20
551.2672422336382
 30
0.0
 10
1055.249128595564
 20
548.8897932020427
 30
0.0
 10
1065.239653189266
 20
552.692138471446
 30
0.0
 10
1075.630919372221
 20
556.6470105960588
 30
0.0
 10
1081.194304549999
 20
564.8488004380488
 30
0.0
 10
1081.200408065808
 20
576.2221677282505
 30
0.0
  0
SPLINE
  5
8F
330
7D
100
AcDbEntity
  8
Layer 1
100
AcDbSpline
210
0.0
220
0.0
230
1.0
 70
     9
 71
     3
 72
    20
 73
    16
 74
     0
 42
0.0000000001
 43
0.0000000001
 40
0.0
 40
0.0
 40
0.0
 40
0.0
 40
1.0
 40
1.0
 40
1.0
 40
2.0
 40
2.0
 40
2.0
 40
3.0
 40
3.0
 40
3.0
 40
4.0
 40
4.0
 40
4.0
 40
5.0
 40
5.0
 40
5.0
 40
5.0
 10
1102.265380625791
 20
580.4995419885435
 30
0.0
 10
1102.158538581549
 20
556.6281125858368
 30
0.0
 10
1090.935424228943
 20
540.1200407145361
 30
0.0
 10
1072.77728159073
 20
533.2939451451056
 30
0.0
 10
1054.559080356952
 20
526.4452741972964
 30
0.0
 10
1035.15696490285
 20
531.3323515205174
 30
0.0
 10
1021.890408716072
 20
546.1115110412465
 30
0.0
 10
1003.768383632658
 20
566.2997281699526
 30
0.0
 10
1003.233486765919
 20
597.4150082683308
 30
0.0
 10
1020.702695057156
 20
615.2021996290304
 30
0.0
 10
1039.237592467489
 20
634.0744520611861
 30
0.0
 10
1069.012663557117
 20
633.8838774155138
 30
0.0
 10
1087.187499311069
 20
614.6582485954113
 30
0.0
 10
1097.235931011013
 20
604.0288617116575
 30
0.0
 10
1102.147521735514
 20
591.2636029443338
 30
0.0
 10
1102.265380625791
 20
580.4995419885435
 30
0.0
  0
SPLINE
  5
90
330
7D
100
AcDbEntity
  8
Layer 1
100
AcDbSpline
210
0.0
220
0.0
230
1.0
 70
     9
 71
     3
 72
    56
 73
    52
 74
     0
 42
0.0000000001
 43
0.0000000001
 40
0.0
 40
0.0
 40
0.0
 40
0.0
 40
1.0
 40
1.0
 40
1.0
 40
2.0
 40
2.0
 40
2.0
 40
3.0
 40
3.0
 40
3.0
 40
4.0
 40
4.0
 40
4.0
 40
5.0
 40
5.0
 40
5.0
 40
6.0
 40
6.0
 40
6.0
 40
7.0
 40
7.0
 40
7.0
 40
8.0
 40
8.0
 40
8.0
 40
9.0
 40
9.0
 40
9.0
 40
10.0
 40
10.0
 40
10.0
 40
11.0
 40
11.0
 40
11.0
 40
12.0
 40
12.0
 40
12.0
 40
13.0
 40
13.0
 40
13.0
 40
14.0
 40
14.0
 40
14.0
 40
15.0
 40
15.0
 40
15.0
 40
16.0
 40
16.0
 40
16.0
 40
17.0
 40
17.0
 40
17.0
 40
17.0
 10
888.1177072274468
 20
568.8286664591032
 30
0.0
 10
889.8653345385255
 20
569.5539395901923
 30
0.0
 10
891.0682917281746
 20
570.0959241473746
 30
0.0
 10
892.3013926565273
 20
570.557380445417
 30
0.0
 10
897.108330973082
 20
572.3562924906928
 30
0.0
 10
901.9248060330893
 20
574.1296994700952
 30
0.0
 10
907.0140548440095
 20
576.0149533731346
 30
0.0
 10
907.6678710868982
 20
574.645202398904
 30
0.0
 10
908.3082214480336
 20
573.5259549642869
 30
0.0
 10
908.7549453995134
 20
572.3341290996176
 30
0.0
 10
914.6524141445096
 20
556.5998914555138
 30
0.0
 10
920.5541248329927
 20
540.8671110257637
 30
0.0
 10
926.3867437225153
 20
525.108779753773
 30
0.0
 10
929.4161017241567
 20
516.9241484200538
 30
0.0
 10
931.3987830584474
 20
508.5742491422824
 30
0.0
 10
930.3245337584275
 20
499.7120970577652
 30
0.0
 10
929.3587057873656
 20
491.7443694102002
 30
0.0
 10
926.0300084822501
 20
484.988403235182
 30
0.0
 10
919.9876041249662
 20
479.7999571990967
 30
0.0
 10
909.0185562473179
 20
470.381103455371
 30
0.0
 10
896.2561657251789
 20
465.8056640100385
 30
0.0
 10
881.7454459876435
 20
467.0376738956347
 30
0.0
 10
873.605888857066
 20
467.7287444510985
 30
0.0
 10
866.6919291450922
 20
471.497543272806
 30
0.0
 10
861.4263345036516
 20
477.6445159185877
 30
0.0
 10
858.1037559731349
 20
481.5232237977252
 30
0.0
 10
854.7678603340619
 20
485.7650603383517
 30
0.0
 10
852.8739393784281
 20
490.4273528108806
 30
0.0
 10
845.2441059265739
 20
509.2097014117079
 30
0.0
 10
838.1730321809254
 20
528.2190397582417
 30
0.0
 10
830.7328902783792
 20
547.5675580968727
 30
0.0
 10
837.3327573447586
 20
550.0413206048669
 30
0.0
 10
843.5000033958749
 20
552.3529279617705
 30
0.0
 10
850.1440274917868
 20
554.8432386264749
 30
0.0
 10
852.1623609877979
 20
549.5207059817302
 30
0.0
 10
854.0426939913613
 20
544.5969770472438
 30
0.0
 10
855.897586778091
 20
539.6636808520325
 30
0.0
 10
860.5819321649178
 20
527.2051618913155
 30
0.0
 10
865.077846759922
 20
514.6721647813119
 30
0.0
 10
869.982811355072
 20
502.3012694166372
 30
0.0
 10
874.7493443969688
 20
490.279540921485
 30
0.0
 10
884.421990257927
 20
485.2935027219682
 30
0.0
 10
895.2522060390984
 20
488.7863158263717
 30
0.0
 10
907.3323684522547
 20
492.6822203607517
 30
0.0
 10
912.2515656833328
 20
503.3612669734248
 30
0.0
 10
907.5445495499716
 20
516.5353086990362
 30
0.0
 10
902.0587629463143
 20
531.8890150327534
 30
0.0
 10
896.1678631102076
 20
547.0979383466956
 30
0.0
 10
890.4591989973779
 20
562.372108242559
 30
0.0
 10
889.7085352173835
 20
564.3805997552517
 30
0.0
 10
888.9960489287769
 20
566.4033506062996
 30
0.0
 10
888.1177072274468
 20
568.8286664591032
 30
0.0
  0
SPLINE
  5
91
330
7D
100
AcDbEntity
  8
Layer 1
100
AcDbSpline
210
0.0
220
0.0
230
1.0
 70
     9
 71
     3
 72
    23
 73
    19
 74
     0
 42
0.0000000001
 43
0.0000000001
 40
0.0
 40
0.0
 40
0.0
 40
0.0
 40
1.0
 40
1.0
 40
1.0
 40
2.0
 40
2.0
 40
2.0
 40
3.0
 40
3.0
 40
3.0
 40
4.0
 40
4.0
 40
4.0
 40
5.0
 40
5.0
 40
5.0
 40
6.0
 40
6.0
 40
6.0
 40
6.0
 10
1066.186491596767
 20
566.2299878746616
 30
0.0
 10
1065.732390020554
 20
573.8623578567803
 30
0.0
 10
1062.776487831677
 20
581.6451947575887
 30
0.0
 10
1056.594175633254
 20
588.0152356402959
 30
0.0
 10
1052.177671593628
 20
592.5658642946554
 30
0.0
 10
1046.729230877328
 20
594.7307431361832
 30
0.0
 10
1040.354657930911
 20
594.1597706945286
 30
0.0
 10
1035.217328674203
 20
593.6996190229492
 30
0.0
 10
1032.190946136519
 20
590.5077855322907
 30
0.0
 10
1032.080853970108
 20
585.3196904483529
 30
0.0
 10
1031.880795980669
 20
575.8904416545965
 30
0.0
 10
1034.717389694262
 20
567.2773435247327
 30
0.0
 10
1041.738538587939
 20
561.0550763844503
 30
0.0
 10
1045.341367676235
 20
557.8621824079545
 30
0.0
 10
1050.552976720344
 20
555.6831434102004
 30
0.0
 10
1055.353849668063
 20
554.8338315830333
 30
0.0
 10
1062.333189478446
 20
553.5991437799602
 30
0.0
 10
1066.201201069867
 20
557.8939664655172
 30
0.0
 10
1066.186491596767
 20
566.2299878746616
 30
0.0
  0
SPLINE
  5
92
330
7D
100
AcDbEntity
  8
Layer 1
100
AcDbSpline
210
0.0
220
0.0
230
1.0
 70
     9
 71
     3
 72
    23
 73
    19
 74
     0
 42
0.0000000001
 43
0.0000000001
 40
0.0
 40
0.0
 40
0.0
 40
0.0
 40
1.0
 40
1.0
 40
1.0
 40
2.0
 40
2.0
 40
2.0
 40
3.0
 40
3.0
 40
3.0
 40
4.0
 40
4.0
 40
4.0
 40
5.0
 40
5.0
 40
5.0
 40
6.0
 40
6.0
 40
6.0
 40
6.0
 10
1081.200408065808
 20
576.2221677282505
 30
0.0
 10
1081.194304549999
 20
564.8488004380488
 30
0.0
 10
1075.630919372221
 20
556.6470105960588
 30
0.0
 10
1065.239653189266
 20
552.692138471446
 30
0.0
 10
1055.249128595564
 20
548.8897932020427
 30
0.0
 10
1045.40942187751
 20
551.2672422336382
 30
0.0
 10
1038.067136499525
 20
559.5980527663268
 30
0.0
 10
1031.522733225714
 20
567.0235669748726
 30
0.0
 10
1028.252332125972
 20
575.7912671552531
 30
0.0
 10
1028.705701280289
 20
585.7408253963658
 30
0.0
 10
1029.209012452715
 20
596.7865407095869
 30
0.0
 10
1035.231000549616
 20
604.6435658426908
 30
0.0
 10
1045.561307868425
 20
608.1184460552785
 30
0.0
 10
1055.422575256076
 20
611.435546574532
 30
0.0
 10
1065.070799424402
 20
608.6771962069151
 30
0.0
 10
1072.139830399603
 20
600.5198742908751
 30
0.0
 10
1077.855193121033
 20
593.9246060525947
 30
0.0
 10
1081.205077255403
 20
584.941219074486
 30
0.0
 10
1081.200408065808
 20
576.2221677282505
 30
0.0
  0
HATCH
  5
93
330
7D
100
AcDbEntity
  8
Layer 1
 62
     7
440
 33554687
100
AcDbHatch
 10
0.0
 20
0.0
 30
0.0
210
0.0
220
0.0
230
1.0
  2
SOLID
 70
     1
 71
     1
 91
        2
 92
        1
 93
        1
 72
     4
 94
        3
 73
     0
 74
     0
 95
       23
 96
       19
 40
0.0
 40
0.0
 40
0.0
 40
0.0
 40
1.0
 40
1.0
 40
1.0
 40
2.0
 40
2.0
 40
2.0
 40
3.0
 40
3.0
 40
3.0
 40
4.0
 40
4.0
 40
4.0
 40
5.0
 40
5.0
 40
5.0
 40
6.0
 40
6.0
 40
6.0
 40
6.0
 10
1066.186491596767
 20
566.2299878746616
 10
1065.732390020554
 20
573.8623578567803
 10
1062.776487831677
 20
581.6451947575887
 10
1056.594175633254
 20
588.0152356402959
 10
1052.177671593628
 20
592.5658642946554
 10
1046.729230877328
 20
594.7307431361832
 10
1040.354657930911
 20
594.1597706945286
 10
1035.217328674203
 20
593.6996190229492
 10
1032.190946136519
 20
590.5077855322907
 10
1032.080853970108
 20
585.3196904483529
 10
1031.880795980669
 20
575.8904416545965
 10
1034.717389694262
 20
567.2773435247327
 10
1041.738538587939
 20
561.0550763844503
 10
1045.341367676235
 20
557.8621824079545
 10
1050.552976720344
 20
555.6831434102004
 10
1055.353849668063
 20
554.8338315830333
 10
1062.333189478446
 20
553.5991437799602
 10
1066.201201069867
 20
557.8939664655172
 10
1066.186491596767
 20
566.2299878746616
 97
        0
 97
        1
330
91
 92
        1
 93
        1
 72
     4
 94
        3
 73
     0
 74
     0
 95
       23
 96
       19
 40
0.0
 40
0.0
 40
0.0
 40
0.0
 40
1.0
 40
1.0
 40
1.0
 40
2.0
 40
2.0
 40
2.0
 40
3.0
 40
3.0
 40
3.0
 40
4.0
 40
4.0
 40
4.0
 40
5.0
 40
5.0
 40
5.0
 40
6.0
 40
6.0
 40
6.0
 40
6.0
 10
1081.200408065808
 20
576.2221677282505
 10
1081.194304549999
 20
564.8488004380488
 10
1075.630919372221
 20
556.6470105960588
 10
1065.239653189266
 20
552.692138471446
 10
1055.249128595564
 20
548.8897932020427
 10
1045.40942187751
 20
551.2672422336382
 10
1038.067136499525
 20
559.5980527663268
 10
1031.522733225714
 20
567.0235669748726
 10
1028.252332125972
 20
575.7912671552531
 10
1028.705701280289
 20
585.7408253963658
 10
1029.209012452715
 20
596.7865407095869
 10
1035.231000549616
 20
604.6435658426908
 10
1045.561307868425
 20
608.1184460552785
 10
1055.422575256076
 20
611.435546574532
 10
1065.070799424402
 20
608.6771962069151
 10
1072.139830399603
 20
600.5198742908751
 10
1077.855193121033
 20
593.9246060525947
 10
1081.205077255403
 20
584.941219074486
 10
1081.200408065808
 20
576.2221677282505
 97
        0
 97
        1
330
92
 75
     2
 76
     1
 98
        1
 10
0.0
 20
0.0
450
        0
451
        0
460
0.0
461
0.0
452
        0
462
0.0
453
        0
470

  0
SPLINE
  5
94
330
7D
100
AcDbEntity
  8
Layer 1
100
AcDbSpline
210
0.0
220
0.0
230
1.0
 70
     9
 71
     3
 72
    23
 73
    19
 74
     0
 42
0.0000000001
 43
0.0000000001
 40
0.0
 40
0.0
 40
0.0
 40
0.0
 40
1.0
 40
1.0
 40
1.0
 40
2.0
 40
2.0
 40
2.0
 40
3.0
 40
3.0
 40
3.0
 40
4.0
 40
4.0
 40
4.0
 40
5.0
 40
5.0
 40
5.0
 40
6.0
 40
6.0
 40
6.0
 40
6.0
 10
1036.610105205523
 20
583.2882840492239
 30
0.0
 10
1037.089872065715
 20
576.2481839635575
 30
0.0
 10
1039.276731262616
 20
569.2400205233434
 30
0.0
 10
1044.954191150871
 20
564.1552198117879
 30
0.0
 10
1047.620161080016
 20
561.7675550209323
 30
0.0
 10
1051.436765809534
 20
560.1643674626274
 30
0.0
 10
1054.989912279143
 20
559.3912961748819
 30
0.0
 10
1059.671919256474
 20
558.3725965306203
 30
0.0
 10
1062.500563140727
 20
560.8967740775915
 30
0.0
 10
1061.366911373092
 20
565.5039212865422
 30
0.0
 10
1059.860121166455
 20
571.6274488029694
 30
0.0
 10
1057.766416879593
 20
577.9645612189352
 30
0.0
 10
1054.30016921632
 20
583.1168782572803
 30
0.0
 10
1052.136945884389
 20
586.3323819444312
 30
0.0
 10
1047.186216364762
 20
588.2386662734598
 30
0.0
 10
1043.105802423175
 20
589.4430653802955
 30
0.0
 10
1038.809690232887
 20
590.7111355990837
 30
0.0
 10
1036.63163535754
 20
588.2683827651089
 30
0.0
 10
1036.610105205523
 20
583.2882840492239
 30
0.0
  0
SPLINE
  5
95
330
7D
100
AcDbEntity
  8
Layer 1
100
AcDbSpline
210
0.0
220
0.0
230
1.0
 70
     9
 71
     3
 72
    23
 73
    19
 74
     0
 42
0.0000000001
 43
0.0000000001
 40
0.0
 40
0.0
 40
0.0
 40
0.0
 40
1.0
 40
1.0
 40
1.0
 40
2.0
 40
2.0
 40
2.0
 40
3.0
 40
3.0
 40
3.0
 40
4.0
 40
4.0
 40
4.0
 40
5.0
 40
5.0
 40
5.0
 40
6.0
 40
6.0
 40
6.0
 40
6.0
 10
1066.186491596767
 20
566.2299878746616
 30
0.0
 10
1066.201201069867
 20
557.8939664655172
 30
0.0
 10
1062.333189478446
 20
553.5991437799602
 30
0.0
 10
1055.353849668063
 20
554.8338315830333
 30
0.0
 10
1050.552976720344
 20
555.6831434102004
 30
0.0
 10
1045.341367676235
 20
557.8621824079545
 30
0.0
 10
1041.738538587939
 20
561.0550763844503
 30
0.0
 10
1034.717389694262
 20
567.2773435247327
 30
0.0
 10
1031.880795980669
 20
575.8904416545965
 30
0.0
 10
1032.080853970108
 20
585.3196904483529
 30
0.0
 10
1032.190946136519
 20
590.5077855322907
 30
0.0
 10
1035.217328674203
 20
593.6996190229492
 30
0.0
 10
1040.354657930911
 20
594.1597706945286
 30
0.0
 10
1046.729230877328
 20
594.7307431361832
 30
0.0
 10
1052.177671593628
 20
592.5658642946554
 30
0.0
 10
1056.594175633254
 20
588.0152356402959
 30
0.0
 10
1062.776487831677
 20
581.6451947575887
 30
0.0
 10
1065.732390020554
 20
573.8623578567803
 30
0.0
 10
1066.186491596767
 20
566.2299878746616
 30
0.0
  0
SPLINE
  5
96
330
7D
100
AcDbEntity
  8
Layer 1
100
AcDbSpline
210
0.0
220
0.0
230
1.0
 70
     9
 71
     3
 72
    23
 73
    19
 74
     0
 42
0.0000000001
 43
0.0000000001
 40
0.0
 40
0.0
 40
0.0
 40
0.0
 40
1.0
 40
1.0
 40
1.0
 40
2.0
 40
2.0
 40
2.0
 40
3.0
 40
3.0
 40
3.0
 40
4.0
 40
4.0
 40
4.0
 40
5.0
 40
5.0
 40
5.0
 40
6.0
 40
6.0
 40
6.0
 40
6.0
 10
1036.610105205523
 20
583.2882840492239
 30
0.0
 10
1036.63163535754
 20
588.2683827651089
 30
0.0
 10
1038.809690232887
 20
590.7111355990837
 30
0.0
 10
1043.105802423175
 20
589.4430653802955
 30
0.0
 10
1047.186216364762
 20
588.2386662734598
 30
0.0
 10
1052.136945884389
 20
586.3323819444312
 30
0.0
 10
1054.30016921632
 20
583.1168782572803
 30
0.0
 10
1057.766416879593
 20
577.9645612189352
 30
0.0
 10
1059.860121166455
 20
571.6274488029694
 30
0.0
 10
1061.366911373092
 20
565.5039212865422
 30
0.0
 10
1062.500563140727
 20
560.8967740775915
 30
0.0
 10
1059.671919256474
 20
558.3725965306203
 30
0.0
 10
1054.989912279143
 20
559.3912961748819
 30
0.0
 10
1051.436765809534
 20
560.1643674626274
 30
0.0
 10
1047.620161080016
 20
561.7675550209323
 30
0.0
 10
1044.954191150871
 20
564.1552198117879
 30
0.0
 10
1039.276731262616
 20
569.2400205233434
 30
0.0
 10
1037.089872065715
 20
576.2481839635575
 30
0.0
 10
1036.610105205523
 20
583.2882840492239
 30
0.0
  0
HATCH
  5
97
330
7D
100
AcDbEntity
  8
Layer 1
 62
     7
440
 33554687
100
AcDbHatch
 10
0.0
 20
0.0
 30
0.0
210
0.0
220
0.0
230
1.0
  2
SOLID
 70
     1
 71
     1
 91
        1
 92
        1
 93
        1
 72
     4
 94
        3
 73
     0
 74
     0
 95
       23
 96
       19
 40
0.0
 40
0.0
 40
0.0
 40
0.0
 40
1.0
 40
1.0
 40
1.0
 40
2.0
 40
2.0
 40
2.0
 40
3.0
 40
3.0
 40
3.0
 40
4.0
 40
4.0
 40
4.0
 40
5.0
 40
5.0
 40
5.0
 40
6.0
 40
6.0
 40
6.0
 40
6.0
 10
1036.610105205523
 20
583.2882840492239
 10
1036.63163535754
 20
588.2683827651089
 10
1038.809690232887
 20
590.7111355990837
 10
1043.105802423175
 20
589.4430653802955
 10
1047.186216364762
 20
588.2386662734598
 10
1052.136945884389
 20
586.3323819444312
 10
1054.30016921632
 20
583.1168782572803
 10
1057.766416879593
 20
577.9645612189352
 10
1059.860121166455
 20
571.6274488029694
 10
1061.366911373092
 20
565.5039212865422
 10
1062.500563140727
 20
560.8967740775915
 10
1059.671919256474
 20
558.3725965306203
 10
1054.989912279143
 20
559.3912961748819
 10
1051.436765809534
 20
560.1643674626274
 10
1047.620161080016
 20
561.7675550209323
 10
1044.954191150871
 20
564.1552198117879
 10
1039.276731262616
 20
569.2400205233434
 10
1037.089872065715
 20
576.2481839635575
 10
1036.610105205523
 20
583.2882840492239
 97
        0
 97
        1
330
96
 75
     2
 76
     1
 98
        1
 10
0.0
 20
0.0
450
        0
451
        0
460
0.0
461
0.0
452
        0
462
0.0
453
        0
470

  0
ENDBLK
  5
80
330
7D
100
AcDbEntity
  8
0
100
AcDbBlockEnd
  0
ENDSEC
  0
SECTION
  2
ENTITIES
  0
INSERT
  5
7A
330
70
100
AcDbEntity
  8
Layer 1
100
AcDbBlockReference
  2
Block_0
 10
0.0
 20
0.0
 30
0.0
  0
ENDSEC
  0
SECTION
  2
OBJECTS
  0
DICTIONARY
  5
C
330
0
100
AcDbDictionary
281
     1
  3
ACAD_COLOR
350
63
  3
ACAD_DETAILVIEWSTYLE
350
6A
  3
ACAD_GROUP
350
D
  3
ACAD_LAYOUT
350
62
  3
ACAD_MATERIAL
350
10
  3
ACAD_MLEADERSTYLE
350
66
  3
ACAD_MLINESTYLE
350
5F
  3
ACAD_PLOTSETTINGS
350
61
  3
ACAD_PLOTSTYLENAME
350
E
  3
ACAD_SCALELIST
350
42
  3
ACAD_SECTIONVIEWSTYLE
350
68
  3
ACAD_TABLESTYLE
350
64
  3
ACAD_VISUALSTYLE
350
29
  3
ACDB_RECOMPOSE_DATA
350
A0
  3
AcDbVariableDictionary
350
98
  0
DICTIONARY
  5
63
102
{ACAD_REACTORS
330
C
102
}
330
C
100
AcDbDictionary
281
     1
  0
DICTIONARY
  5
6A
102
{ACAD_REACTORS
330
C
102
}
330
C
100
AcDbDictionary
281
     1
  3
Imperial24
350
6B
  0
DICTIONARY
  5
D
102
{ACAD_REACTORS
330
C
102
}
330
C
100
AcDbDictionary
281
     1
  0
DICTIONARY
  5
62
102
{ACAD_REACTORS
330
C
102
}
330
C
100
AcDbDictionary
281
     1
  3
Layout1
350
6F
  3
Layout2
350
77
  3
Model
350
73
  0
DICTIONARY
  5
10
102
{ACAD_REACTORS
330
C
102
}
330
C
100
AcDbDictionary
281
     1
  3
ByBlock
350
19
  3
ByLayer
350
11
  3
Global
350
21
  0
DICTIONARY
  5
66
102
{ACAD_REACTORS
330
C
102
}
330
C
100
AcDbDictionary
281
     1
  3
Standard
350
67
  0
DICTIONARY
  5
5F
102
{ACAD_REACTORS
330
C
102
}
330
C
100
AcDbDictionary
281
     1
  3
Standard
350
60
  0
DICTIONARY
  5
61
102
{ACAD_REACTORS
330
C
102
}
330
C
100
AcDbDictionary
281
     1
  0
ACDBDICTIONARYWDFLT
  5
E
102
{ACAD_REACTORS
330
C
102
}
330
C
100
AcDbDictionary
281
     1
  3
Normal
350
F
100
AcDbDictionaryWithDefault
340
F
  0
DICTIONARY
  5
42
102
{ACAD_REACTORS
330
C
102
}
330
C
100
AcDbDictionary
281
     1
  3
A0
350
43
  3
A1
350
44
  3
A2
350
45
  3
A3
350
46
  3
A4
350
47
  3
A5
350
48
  3
A6
350
49
  3
A7
350
4A
  3
A8
350
4B
  3
A9
350
4C
  3
B0
350
4D
  3
B1
350
4E
  3
B2
350
4F
  3
B3
350
50
  3
B4
350
51
  3
B5
350
52
  3
B6
350
53
  0
DICTIONARY
  5
68
102
{ACAD_REACTORS
330
C
102
}
330
C
100
AcDbDictionary
281
     1
  3
Imperial24
350
69
  0
DICTIONARY
  5
64
102
{ACAD_REACTORS
330
C
102
}
330
C
100
AcDbDictionary
281
     1
  3
Standard
350
65
  0
DICTIONARY
  5
29
102
{ACAD_REACTORS
330
C
102
}
330
C
100
AcDbDictionary
281
     1
  3
2dWireframe
350
2F
  3
Basic
350
2E
  3
Brighten
350
35
  3
ColorChange
350
39
  3
Conceptual
350
32
  3
Dim
350
34
  3
EdgeColorOff
350
41
  3
Facepattern
350
38
  3
Flat
350
2A
  3
FlatWithEdges
350
2B
  3
Gouraud
350
2C
  3
GouraudWithEdges
350
2D
  3
Hidden
350
31
  3
JitterOff
350
3F
  3
Linepattern
350
37
  3
OverhangOff
350
40
  3
Realistic
350
33
  3
Shaded
350
3E
  3
Shaded with edges
350
3D
  3
Shades of Gray
350
3A
  3
Sketchy
350
3B
  3
Thicken
350
36
  3
Wireframe
350
30
  3
X-Ray
350
3C
  0
XRECORD
  5
A0
102
{ACAD_REACTORS
330
C
102
}
330
C
100
AcDbXrecord
280
     1
 90
        1
330
65
  0
DICTIONARY
  5
98
102
{ACAD_REACTORS
330
C
102
}
330
C
100
AcDbDictionary
281
     1
  3
CANNOSCALE
350
9D
  3
CMLEADERSTYLE
350
9A
  3
CTABLESTYLE
350
99
  3
CVIEWDETAILSTYLE
350
9B
  3
CVIEWSECTIONSTYLE
350
9C
  0
ACDBDETAILVIEWSTYLE
  5
6B
102
{ACAD_REACTORS
330
6A
102
}
330
6A
100
AcDbModelDocViewStyle
 70
     0
  3
Imperial24
290
     1
300
Imperial24
 90
        0
100
AcDbDetailViewStyle
 70
     0
 71
     0
 90
        3
 71
     1
340
55
 62
   256
 40
0.24
340
0
 62
   256
 40
0.24
300

 40
0.36
280
     3
 71
     2
340
5D
 90
       25
 62
   256
 71
     3
340
55
 62
   256
 40
0.24
 90
        1
 40
0.75
 90
        1
300
%<\AcVar ViewType \f "%tc1">% %<\AcVar ViewDetailId>%\PSCALE %<\AcVar ViewScale \f "%sn">%
 71
     4
340
5D
 90
       25
 62
   256
340
5D
 90
       25
 62
   256
280
     0
  0
LAYOUT
  5
6F
102
{ACAD_REACTORS
330
62
102
}
330
62
100
AcDbPlotSettings
  1

  2

  4

  6

 40
0.0
 41
0.0
 42
0.0
 43
0.0
 44
0.0
 45
0.0
 46
0.0
 47
0.0
 48
0.0
 49
0.0
140
0.0
141
0.0
142
1.0
143
1.0
 70
   688
 72
     0
 73
     0
 74
     5
  7

 75
    16
147
1.0
 76
     0
 77
     2
 78
   300
148
0.0
149
0.0
100
AcDbLayout
  1
Layout1
 70
     1
 71
     1
 10
0.0
 20
0.0
 11
12.0
 21
9.0
 12
0.0
 22
0.0
 32
0.0
 14
0.0
 24
0.0
 34
0.0
 15
0.0
 25
0.0
 35
0.0
146
0.0
 13
0.0
 23
0.0
 33
0.0
 16
1.0
 26
0.0
 36
0.0
 17
0.0
 27
1.0
 37
0.0
 76
     0
330
6C
  0
LAYOUT
  5
77
102
{ACAD_REACTORS
330
62
102
}
330
62
100
AcDbPlotSettings
  1

  2

  4

  6

 40
0.0
 41
0.0
 42
0.0
 43
0.0
 44
0.0
 45
0.0
 46
0.0
 47
0.0
 48
0.0
 49
0.0
140
0.0
141
0.0
142
1.0
143
1.0
 70
   688
 72
     0
 73
     0
 74
     5
  7

 75
    16
147
1.0
 76
     0
 77
     2
 78
   300
148
0.0
149
0.0
100
AcDbLayout
  1
Layout2
 70
     1
 71
     2
 10
0.0
 20
0.0
 11
12.0
 21
9.0
 12
0.0
 22
0.0
 32
0.0
 14
0.0
 24
0.0
 34
0.0
 15
0.0
 25
0.0
 35
0.0
146
0.0
 13
0.0
 23
0.0
 33
0.0
 16
1.0
 26
0.0
 36
0.0
 17
0.0
 27
1.0
 37
0.0
 76
     0
330
74
  0
LAYOUT
  5
73
102
{ACAD_REACTORS
330
62
102
}
330
62
100
AcDbPlotSettings
  1

  2

  4

  6

 40
0.0
 41
0.0
 42
0.0
 43
0.0
 44
0.0
 45
0.0
 46
0.0
 47
0.0
 48
0.0
 49
0.0
140
0.0
141
0.0
142
1.0
143
1.0
 70
  1712
 72
     0
 73
     0
 74
     0
  7

 75
     0
147
1.0
 76
     0
 77
     2
 78
   300
148
0.0
149
0.0
100
AcDbLayout
  1
Model
 70
     1
 71
     0
 10
0.0
 20
0.0
 11
12.0
 21
9.0
 12
0.0
 22
0.0
 32
0.0
 14
0.0
 24
0.0
 34
0.0
 15
0.0
 25
0.0
 35
0.0
146
0.0
 13
0.0
 23
0.0
 33
0.0
 16
1.0
 26
0.0
 36
0.0
 17
0.0
 27
1.0
 37
0.0
 76
     0
330
70
  0
MATERIAL
  5
19
102
{ACAD_XDICTIONARY
360
1A
102
}
102
{ACAD_REACTORS
330
10
102
}
330
10
100
AcDbMaterial
  1
ByBlock
 72
     0
 43
0.0208333333333333
 43
0.0
 43
0.0
 43
0.0
 43
0.0
 43
0.0208333333333333
 43
0.0
 43
0.0
 43
0.0
 43
0.0
 43
1.0
 43
0.0
 43
0.0
 43
0.0
 43
0.0
 43
1.0
 77
     0
 47
0.0208333333333333
 47
0.0
 47
0.0
 47
0.0
 47
0.0
 47
0.0208333333333333
 47
0.0
 47
0.0
 47
0.0
 47
0.0
 47
1.0
 47
0.0
 47
0.0
 47
0.0
 47
0.0
 47
1.0
171
     0
 49
0.0208333333333333
 49
0.0
 49
0.0
 49
0.0
 49
0.0
 49
0.0208333333333333
 49
0.0
 49
0.0
 49
0.0
 49
0.0
 49
1.0
 49
0.0
 49
0.0
 49
0.0
 49
0.0
 49
1.0
175
     0
142
0.0208333333333333
142
0.0
142
0.0
142
0.0
142
0.0
142
0.0208333333333333
142
0.0
142
0.0
142
0.0
142
0.0
142
1.0
142
0.0
142
0.0
142
0.0
142
0.0
142
1.0
179
     0
144
0.0208333333333333
144
0.0
144
0.0
144
0.0
144
0.0
144
0.0208333333333333
144
0.0
144
0.0
144
0.0
144
0.0
144
1.0
144
0.0
144
0.0
144
0.0
144
0.0
144
1.0
147
0.0208333333333333
147
0.0
147
0.0
147
0.0
147
0.0
147
0.0208333333333333
147
0.0
147
0.0
147
0.0
147
0.0
147
1.0
147
0.0
147
0.0
147
0.0
147
0.0
147
1.0
  0
MATERIAL
  5
11
102
{ACAD_XDICTIONARY
360
12
102
}
102
{ACAD_REACTORS
330
10
102
}
330
10
100
AcDbMaterial
  1
ByLayer
 72
     0
 43
0.0208333333333333
 43
0.0
 43
0.0
 43
0.0
 43
0.0
 43
0.0208333333333333
 43
0.0
 43
0.0
 43
0.0
 43
0.0
 43
1.0
 43
0.0
 43
0.0
 43
0.0
 43
0.0
 43
1.0
 77
     0
 47
0.0208333333333333
 47
0.0
 47
0.0
 47
0.0
 47
0.0
 47
0.0208333333333333
 47
0.0
 47
0.0
 47
0.0
 47
0.0
 47
1.0
 47
0.0
 47
0.0
 47
0.0
 47
0.0
 47
1.0
171
     0
 49
0.0208333333333333
 49
0.0
 49
0.0
 49
0.0
 49
0.0
 49
0.0208333333333333
 49
0.0
 49
0.0
 49
0.0
 49
0.0
 49
1.0
 49
0.0
 49
0.0
 49
0.0
 49
0.0
 49
1.0
175
     0
142
0.0208333333333333
142
0.0
142
0.0
142
0.0
142
0.0
142
0.0208333333333333
142
0.0
142
0.0
142
0.0
142
0.0
142
1.0
142
0.0
142
0.0
142
0.0
142
0.0
142
1.0
179
     0
144
0.0208333333333333
144
0.0
144
0.0
144
0.0
144
0.0
144
0.0208333333333333
144
0.0
144
0.0
144
0.0
144
0.0
144
1.0
144
0.0
144
0.0
144
0.0
144
0.0
144
1.0
147
0.0208333333333333
147
0.0
147
0.0
147
0.0
147
0.0
147
0.0208333333333333
147
0.0
147
0.0
147
0.0
147
0.0
147
1.0
147
0.0
147
0.0
147
0.0
147
0.0
147
1.0
  0
MATERIAL
  5
21
102
{ACAD_XDICTIONARY
360
22
102
}
102
{ACAD_REACTORS
330
10
102
}
330
10
100
AcDbMaterial
  1
Global
 72
     0
 43
0.0208333333333333
 43
0.0
 43
0.0
 43
0.0
 43
0.0
 43
0.0208333333333333
 43
0.0
 43
0.0
 43
0.0
 43
0.0
 43
1.0
 43
0.0
 43
0.0
 43
0.0
 43
0.0
 43
1.0
 77
     0
 47
0.0208333333333333
 47
0.0
 47
0.0
 47
0.0
 47
0.0
 47
0.0208333333333333
 47
0.0
 47
0.0
 47
0.0
 47
0.0
 47
1.0
 47
0.0
 47
0.0
 47
0.0
 47
0.0
 47
1.0
171
     0
 49
0.0208333333333333
 49
0.0
 49
0.0
 49
0.0
 49
0.0
 49
0.0208333333333333
 49
0.0
 49
0.0
 49
0.0
 49
0.0
 49
1.0
 49
0.0
 49
0.0
 49
0.0
 49
0.0
 49
1.0
175
     0
142
0.0208333333333333
142
0.0
142
0.0
142
0.0
142
0.0
142
0.0208333333333333
142
0.0
142
0.0
142
0.0
142
0.0
142
1.0
142
0.0
142
0.0
142
0.0
142
0.0
142
1.0
179
     0
144
0.0208333333333333
144
0.0
144
0.0
144
0.0
144
0.0
144
0.0208333333333333
144
0.0
144
0.0
144
0.0
144
0.0
144
1.0
144
0.0
144
0.0
144
0.0
144
0.0
144
1.0
147
0.0208333333333333
147
0.0
147
0.0
147
0.0
147
0.0
147
0.0208333333333333
147
0.0
147
0.0
147
0.0
147
0.0
147
1.0
147
0.0
147
0.0
147
0.0
147
0.0
147
1.0
  0
MLEADERSTYLE
  5
67
102
{ACAD_REACTORS
330
66
102
}
330
66
100
AcDbMLeaderStyle
179
     2
170
     2
171
     1
172
     0
 90
        2
 40
0.0
 41
0.0
173
     1
 91
-1056964608
340
5B
 92
       -2
290
     1
 42
0.09
291
     1
 43
0.36
  3
Standard
 44
0.18
300

342
55
174
     1
178
     6
175
     1
176
     0
 93
-1056964608
 45
0.18
292
     0
297
     0
 46
0.18
 94
-1056964608
 47
1.0
 49
1.0
140
1.0
293
     1
141
0.0
294
     1
177
     0
142
1.0
295
     1
296
     0
143
0.125
271
     0
272
     9
273
     9
298
     1
  0
MLINESTYLE
  5
60
102
{ACAD_REACTORS
330
5F
102
}
330
5F
100
AcDbMlineStyle
  2
STANDARD
 70
     0
  3

 62
   256
 51
90.0
 52
90.0
 71
     2
 49
0.5
 62
   256
  6
BYLAYER
 49
-0.5
 62
   256
  6
BYLAYER
  0
ACDBPLACEHOLDER
  5
F
102
{ACAD_REACTORS
330
E
102
}
330
E
  0
SCALE
  5
43
102
{ACAD_REACTORS
330
42
102
}
330
42
100
AcDbScale
 70
     0
300
1:1
140
1.0
141
1.0
290
     1
  0
SCALE
  5
44
102
{ACAD_REACTORS
330
42
102
}
330
42
100
AcDbScale
 70
     0
300
1/128" = 1'-0"
140
0.0078125
141
12.0
290
     0
  0
SCALE
  5
45
102
{ACAD_REACTORS
330
42
102
}
330
42
100
AcDbScale
 70
     0
300
1/64" = 1'-0"
140
0.015625
141
12.0
290
     0
  0
SCALE
  5
46
102
{ACAD_REACTORS
330
42
102
}
330
42
100
AcDbScale
 70
     0
300
1/32" = 1'-0"
140
0.03125
141
12.0
290
     0
  0
SCALE
  5
47
102
{ACAD_REACTORS
330
42
102
}
330
42
100
AcDbScale
 70
     0
300
1/16" = 1'-0"
140
0.0625
141
12.0
290
     0
  0
SCALE
  5
48
102
{ACAD_REACTORS
330
42
102
}
330
42
100
AcDbScale
 70
     0
300
3/32" = 1'-0"
140
0.09375
141
12.0
290
     0
  0
SCALE
  5
49
102
{ACAD_REACTORS
330
42
102
}
330
42
100
AcDbScale
 70
     0
300
1/8" = 1'-0"
140
0.125
141
12.0
290
     0
  0
SCALE
  5
4A
102
{ACAD_REACTORS
330
42
102
}
330
42
100
AcDbScale
 70
     0
300
3/16" = 1'-0"
140
0.1875
141
12.0
290
     0
  0
SCALE
  5
4B
102
{ACAD_REACTORS
330
42
102
}
330
42
100
AcDbScale
 70
     0
300
1/4" = 1'-0"
140
0.25
141
12.0
290
     0
  0
SCALE
  5
4C
102
{ACAD_REACTORS
330
42
102
}
330
42
100
AcDbScale
 70
     0
300
3/8" = 1'-0"
140
0.375
141
12.0
290
     0
  0
SCALE
  5
4D
102
{ACAD_REACTORS
330
42
102
}
330
42
100
AcDbScale
 70
     0
300
1/2" = 1'-0"
140
0.5
141
12.0
290
     0
  0
SCALE
  5
4E
102
{ACAD_REACTORS
330
42
102
}
330
42
100
AcDbScale
 70
     0
300
3/4" = 1'-0"
140
0.75
141
12.0
290
     0
  0
SCALE
  5
4F
102
{ACAD_REACTORS
330
42
102
}
330
42
100
AcDbScale
 70
     0
300
1" = 1'-0"
140
1.0
141
12.0
290
     0
  0
SCALE
  5
50
102
{ACAD_REACTORS
330
42
102
}
330
42
100
AcDbScale
 70
     0
300
1-1/2" = 1'-0"
140
1.5
141
12.0
290
     0
  0
SCALE
  5
51
102
{ACAD_REACTORS
330
42
102
}
330
42
100
AcDbScale
 70
     0
300
3" = 1'-0"
140
3.0
141
12.0
290
     0
  0
SCALE
  5
52
102
{ACAD_REACTORS
330
42
102
}
330
42
100
AcDbScale
 70
     0
300
6" = 1'-0"
140
6.0
141
12.0
290
     0
  0
SCALE
  5
53
102
{ACAD_REACTORS
330
42
102
}
330
42
100
AcDbScale
 70
     0
300
1'-0" = 1'-0"
140
12.0
141
12.0
290
     0
  0
ACDBSECTIONVIEWSTYLE
  5
69
102
{ACAD_REACTORS
330
68
102
}
330
68
100
AcDbModelDocViewStyle
 70
     0
  3
Imperial24
290
     1
300
Imperial24
 90
        0
100
AcDbSectionViewStyle
 70
     0
 71
     0
 90
       78
 71
     1
340
55
 62
   256
 40
0.24
340
0
340
0
 62
   256
 40
0.24
300
I, O, Q, S, X, Z
 40
0.48
 90
        3
 40
0.18
 90
        1
 71
     2
340
5D
 90
       25
 62
   256
340
5D
 90
       50
 62
   256
 40
0.24
 40
0.0
 40
0.24
 71
     3
340
55
 62
   256
 40
0.24
 90
        1
 40
0.75
 90
        1
300
%<\AcVar ViewType \f "%tc1">% %<\AcVar ViewSectionStartId>%-%<\AcVar ViewSectionEndId>%\PSCALE %<\AcVar ViewScale \f "%sn">%
 71
     4
 62
   256
 62
   257
300
ANSI31
 40
1.0
 90
        0
290
     0
290
     0
 90
        6
 40
0.0
 40
1.570796326794896
 40
0.2617993877991494
 40
1.308996938995747
 40
-0.2617993877991494
 40
1.832595714594046
  0
TABLESTYLE
  5
65
102
{ACAD_XDICTIONARY
360
9E
102
}
102
{ACAD_REACTORS
330
64
102
}
330
64
100
AcDbTableStyle
280
     0
  3
Standard
 70
     0
 71
     0
 40
0.06
 41
0.06
280
     0
281
     0
  7
Standard
140
0.18
170
     2
 62
     0
 63
     7
283
     0
 90
      512
 91
        0
  1

274
    -2
284
     1
 64
     0
275
    -2
285
     1
 65
     0
276
    -2
286
     1
 66
     0
277
    -2
287
     1
 67
     0
278
    -2
288
     1
 68
     0
279
    -2
289
     1
 69
     0
  7
Standard
140
0.25
170
     5
 62
     0
 63
     7
283
     0
 90
      512
 91
        0
  1

274
    -2
284
     1
 64
     0
275
    -2
285
     1
 65
     0
276
    -2
286
     1
 66
     0
277
    -2
287
     1
 67
     0
278
    -2
288
     1
 68
     0
279
    -2
289
     1
 69
     0
  7
Standard
140
0.18
170
     5
 62
     0
 63
     7
283
     0
 90
      512
 91
        0
  1

274
    -2
284
     1
 64
     0
275
    -2
285
     1
 65
     0
276
    -2
286
     1
 66
     0
277
    -2
287
     1
 67
     0
278
    -2
288
     1
 68
     0
279
    -2
289
     1
 69
     0
  0
VISUALSTYLE
  5
2F
102
{ACAD_REACTORS
330
29
102
}
330
29
100
AcDbVisualStyle
  2
2dWireframe
 70
     4
177
     3
291
     0
 70
    58
 90
        0
176
     1
 90
        2
176
     1
 90
        0
176
     1
 90
        0
176
     1
 40
0.6
176
     1
 40
30.0
176
     1
 62
     7
420
 16777215
176
     1
 90
        1
176
     1
 90
        4
176
     1
 62
     7
176
     1
 62
   257
176
     1
 90
        1
176
     1
 90
        1
176
     1
 40
1.0
176
     1
 90
        0
176
     1
 62
   257
176
     1
 40
1.0
176
     1
 90
        1
176
     1
 90
        6
176
     1
 90
        2
176
     1
 62
     7
176
     1
 90
        5
176
     1
 90
        0
176
     1
 90
        0
176
     1
290
     0
176
     1
 90
        1
176
     1
 40
0.0
176
     1
 90
        0
176
     1
290
     1
176
     1
290
     1
176
     1
290
     0
176
     1
290
     0
176
     1
290
     0
176
     1
290
     0
176
     1
290
     0
176
     1
290
     0
176
     1
290
     0
176
     1
 90
       50
176
     1
 40
0.0
176
     1
 40
1.0
176
     1
 90
        0
176
     1
 62
    18
420
        0
176
     1
 90
       50
176
     1
 90
        3
176
     1
 62
     5
420
      255
176
     1
290
     0
176
     1
 90
       50
176
     1
 90
       50
176
     1
 90
       50
176
     1
290
     0
176
     1
 90
       50
176
     1
 62
   256
176
     0
 40
1.0
176
     0
 90
        2
176
     1
  1
strokes_ogs.tif
176
     1
290
     0
176
     1
 40
1.0
176
     1
 40
1.0
176
     1
  0
VISUALSTYLE
  5
2E
102
{ACAD_REACTORS
330
29
102
}
330
29
100
AcDbVisualStyle
  2
Basic
 70
     7
177
     3
291
     1
 70
    58
 90
        1
176
     1
 90
        0
176
     1
 90
        1
176
     1
 90
        0
176
     1
 40
0.6
176
     1
 40
30.0
176
     1
 62
     7
420
 16777215
176
     1
 90
        0
176
     1
 90
        4
176
     1
 62
     7
176
     1
 62
   257
176
     1
 90
        1
176
     1
 90
        1
176
     1
 40
1.0
176
     1
 90
        8
176
     1
 62
     7
176
     1
 40
1.0
176
     1
 90
        1
176
     1
 90
        6
176
     1
 90
        2
176
     1
 62
     7
176
     1
 90
        5
176
     1
 90
        0
176
     1
 90
        0
176
     1
290
     0
176
     1
 90
        1
176
     1
 40
0.0
176
     1
 90
        0
176
     1
290
     0
176
     1
290
     1
176
     1
290
     1
176
     1
290
     0
176
     1
290
     0
176
     1
290
     0
176
     1
290
     0
176
     1
290
     0
176
     1
290
     0
176
     1
 90
       50
176
     1
 40
0.0
176
     1
 40
1.0
176
     1
 90
        0
176
     1
 62
    18
420
        0
176
     1
 90
       50
176
     1
 90
        3
176
     1
 62
     5
420
      255
176
     1
290
     0
176
     1
 90
       50
176
     1
 90
       50
176
     1
 90
       50
176
     1
290
     0
176
     1
 90
       50
176
     1
 62
   256
176
     0
 40
1.0
176
     0
 90
        2
176
     1
  1
strokes_ogs.tif
176
     1
290
     0
176
     1
 40
1.0
176
     1
 40
1.0
176
     1
  0
VISUALSTYLE
  5
35
102
{ACAD_REACTORS
330
29
102
}
330
29
100
AcDbVisualStyle
  2
Brighten
 70
    12
177
     3
291
     1
 70
    58
 90
        2
176
     1
 90
        2
176
     1
 90
        0
176
     1
 90
        0
176
     1
 40
0.6
176
     1
 40
30.0
176
     1
 62
     7
420
 16777215
176
     1
 90
        1
176
     1
 90
        4
176
     1
 62
     7
176
     1
 62
   257
176
     1
 90
        1
176
     1
 90
        1
176
     1
 40
1.0
176
     1
 90
        8
176
     1
 62
     7
176
     1
 40
1.0
176
     1
 90
        1
176
     1
 90
        6
176
     1
 90
        2
176
     1
 62
     7
176
     1
 90
        5
176
     1
 90
        0
176
     1
 90
        0
176
     1
290
     0
176
     1
 90
        1
176
     1
 40
50.0
176
     1
 90
        0
176
     1
290
     0
176
     1
290
     1
176
     1
290
     1
176
     1
290
     0
176
     1
290
     0
176
     1
290
     0
176
     1
290
     0
176
     1
290
     0
176
     1
290
     0
176
     1
 90
       50
176
     1
 40
0.0
176
     1
 40
1.0
176
     1
 90
        0
176
     1
 62
    18
420
        0
176
     1
 90
       50
176
     1
 90
        3
176
     1
 62
     5
420
      255
176
     1
290
     0
176
     1
 90
       50
176
     1
 90
       50
176
     1
 90
       50
176
     1
290
     0
176
     1
 90
       50
176
     1
 62
   256
176
     0
 40
1.0
176
     0
 90
        2
176
     1
  1
strokes_ogs.tif
176
     1
290
     0
176
     1
 40
1.0
176
     1
 40
1.0
176
     1
  0
VISUALSTYLE
  5
39
102
{ACAD_REACTORS
330
29
102
}
330
29
100
AcDbVisualStyle
  2
ColorChange
 70
    16
177
     3
291
     1
 70
    58
 90
        2
176
     1
 90
        2
176
     1
 90
        3
176
     1
 90
        0
176
     1
 40
0.6
176
     1
 40
30.0
176
     1
 62
     8
420
  8421504
176
     1
 90
        1
176
     1
 90
        4
176
     1
 62
     7
176
     1
 62
   257
176
     1
 90
        1
176
     1
 90
        1
176
     1
 40
1.0
176
     1
 90
        8
176
     1
 62
     8
420
  8421504
176
     1
 40
1.0
176
     1
 90
        1
176
     1
 90
        6
176
     1
 90
        2
176
     1
 62
     7
176
     1
 90
        5
176
     1
 90
        0
176
     1
 90
        0
176
     1
290
     0
176
     1
 90
        1
176
     1
 40
0.0
176
     1
 90
        0
176
     1
290
     0
176
     1
290
     1
176
     1
290
     1
176
     1
290
     0
176
     1
290
     0
176
     1
290
     0
176
     1
290
     0
176
     1
290
     0
176
     1
290
     0
176
     1
 90
       50
176
     1
 40
0.0
176
     1
 40
1.0
176
     1
 90
        0
176
     1
 62
    18
420
        0
176
     1
 90
       50
176
     1
 90
        3
176
     1
 62
     5
420
      255
176
     1
290
     0
176
     1
 90
       50
176
     1
 90
       50
176
     1
 90
       50
176
     1
290
     0
176
     1
 90
       50
176
     1
 62
   256
176
     0
 40
1.0
176
     0
 90
        2
176
     1
  1
strokes_ogs.tif
176
     1
290
     0
176
     1
 40
1.0
176
     1
 40
1.0
176
     1
  0
VISUALSTYLE
  5
32
102
{ACAD_REACTORS
330
29
102
}
330
29
100
AcDbVisualStyle
  2
Conceptual
 70
     9
177
     3
291
     0
 70
    58
 90
        3
176
     1
 90
        2
176
     1
 90
        0
176
     1
 90
        0
176
     1
 40
0.6
176
     1
 40
30.0
176
     1
 62
     7
420
 16777215
176
     1
 90
        2
176
     1
 90
        2
176
     1
 62
     7
176
     1
 62
   257
176
     1
 90
        1
176
     1
 90
        1
176
     1
 40
179.0
176
     1
 90
        8
176
     1
 62
     7
176
     1
 40
1.0
176
     1
 90
        1
176
     1
 90
        6
176
     1
 90
        2
176
     1
 62
     7
176
     1
 90
        3
176
     1
 90
        0
176
     1
 90
        0
176
     1
290
     0
176
     1
 90
        1
176
     1
 40
0.0
176
     1
 90
        0
176
     1
290
     0
176
     1
290
     1
176
     1
290
     1
176
     1
290
     0
176
     1
290
     0
176
     1
290
     0
176
     1
290
     0
176
     1
290
     0
176
     1
290
     0
176
     1
 90
       50
176
     1
 40
0.0
176
     1
 40
1.0
176
     1
 90
        0
176
     1
 62
    18
420
        0
176
     1
 90
       50
176
     1
 90
        3
176
     1
 62
     5
420
      255
176
     1
290
     0
176
     1
 90
       50
176
     1
 90
       50
176
     1
 90
       50
176
     1
290
     0
176
     1
 90
       50
176
     1
 62
   256
176
     0
 40
1.0
176
     0
 90
        2
176
     1
  1
strokes_ogs.tif
176
     1
290
     0
176
     1
 40
1.0
176
     1
 40
1.0
176
     1
  0
VISUALSTYLE
  5
34
102
{ACAD_REACTORS
330
29
102
}
330
29
100
AcDbVisualStyle
  2
Dim
 70
    11
177
     3
291
     1
 70
    58
 90
        2
176
     1
 90
        2
176
     1
 90
        0
176
     1
 90
        0
176
     1
 40
0.6
176
     1
 40
30.0
176
     1
 62
     7
420
 16777215
176
     1
 90
        1
176
     1
 90
        4
176
     1
 62
     7
176
     1
 62
   257
176
     1
 90
        1
176
     1
 90
        1
176
     1
 40
1.0
176
     1
 90
        8
176
     1
 62
     7
176
     1
 40
1.0
176
     1
 90
        1
176
     1
 90
        6
176
     1
 90
        2
176
     1
 62
     7
176
     1
 90
        5
176
     1
 90
        0
176
     1
 90
        0
176
     1
290
     0
176
     1
 90
        1
176
     1
 40
-50.0
176
     1
 90
        0
176
     1
290
     0
176
     1
290
     1
176
     1
290
     1
176
     1
290
     0
176
     1
290
     0
176
     1
290
     0
176
     1
290
     0
176
     1
290
     0
176
     1
290
     0
176
     1
 90
       50
176
     1
 40
0.0
176
     1
 40
1.0
176
     1
 90
        0
176
     1
 62
    18
420
        0
176
     1
 90
       50
176
     1
 90
        3
176
     1
 62
     5
420
      255
176
     1
290
     0
176
     1
 90
       50
176
     1
 90
       50
176
     1
 90
       50
176
     1
290
     0
176
     1
 90
       50
176
     1
 62
   256
176
     0
 40
1.0
176
     0
 90
        2
176
     1
  1
strokes_ogs.tif
176
     1
290
     0
176
     1
 40
1.0
176
     1
 40
1.0
176
     1
  0
VISUALSTYLE
  5
41
102
{ACAD_REACTORS
330
29
102
}
330
29
100
AcDbVisualStyle
  2
EdgeColorOff
 70
    22
177
     3
291
     1
 70
    58
 90
        2
176
     0
 90
        2
176
     0
 90
        0
176
     0
 90
        0
176
     0
 40
0.6
176
     0
 40
30.0
176
     0
 62
     7
420
 16777215
176
     0
 90
        1
176
     0
 90
        4
176
     0
 62
     7
176
     0
 62
   257
176
     0
 90
        1
176
     0
 90
        1
176
     0
 40
1.0
176
     0
 90
        8
176
     2
 62
     7
176
     0
 40
1.0
176
     0
 90
        1
176
     0
 90
        6
176
     0
 90
        2
176
     0
 62
     7
176
     0
 90
        5
176
     0
 90
        0
176
     0
 90
        0
176
     0
290
     0
176
     0
 90
        1
176
     0
 40
0.0
176
     0
 90
        0
176
     0
290
     0
176
     0
290
     1
176
     0
290
     1
176
     0
290
     0
176
     0
290
     0
176
     0
290
     0
176
     0
290
     0
176
     0
290
     0
176
     0
290
     0
176
     0
 90
       50
176
     0
 40
0.0
176
     0
 40
1.0
176
     0
 90
        0
176
     0
 62
    18
420
        0
176
     0
 90
       50
176
     0
 90
        3
176
     0
 62
     5
420
      255
176
     0
290
     0
176
     0
 90
       50
176
     0
 90
       50
176
     0
 90
       50
176
     0
290
     0
176
     0
 90
       50
176
     0
 62
   256
176
     0
 40
1.0
176
     0
 90
        2
176
     0
  1
strokes_ogs.tif
176
     0
290
     0
176
     0
 40
1.0
176
     0
 40
1.0
176
     0
  0
VISUALSTYLE
  5
38
102
{ACAD_REACTORS
330
29
102
}
330
29
100
AcDbVisualStyle
  2
Facepattern
 70
    15
177
     3
291
     1
 70
    58
 90
        2
176
     1
 90
        2
176
     1
 90
        0
176
     1
 90
        0
176
     1
 40
0.6
176
     1
 40
30.0
176
     1
 62
     7
420
 16777215
176
     1
 90
        1
176
     1
 90
        4
176
     1
 62
     7
176
     1
 62
   257
176
     1
 90
        1
176
     1
 90
        1
176
     1
 40
1.0
176
     1
 90
        8
176
     1
 62
     7
176
     1
 40
1.0
176
     1
 90
        1
176
     1
 90
        6
176
     1
 90
        2
176
     1
 62
     7
176
     1
 90
        5
176
     1
 90
        0
176
     1
 90
        0
176
     1
290
     0
176
     1
 90
        1
176
     1
 40
0.0
176
     1
 90
        0
176
     1
290
     0
176
     1
290
     1
176
     1
290
     1
176
     1
290
     0
176
     1
290
     0
176
     1
290
     0
176
     1
290
     0
176
     1
290
     0
176
     1
290
     0
176
     1
 90
       50
176
     1
 40
0.0
176
     1
 40
1.0
176
     1
 90
        0
176
     1
 62
    18
420
        0
176
     1
 90
       50
176
     1
 90
        3
176
     1
 62
     5
420
      255
176
     1
290
     0
176
     1
 90
       50
176
     1
 90
       50
176
     1
 90
       50
176
     1
290
     0
176
     1
 90
       50
176
     1
 62
   256
176
     0
 40
1.0
176
     0
 90
        2
176
     1
  1
strokes_ogs.tif
176
     1
290
     0
176
     1
 40
1.0
176
     1
 40
1.0
176
     1
  0
VISUALSTYLE
  5
2A
102
{ACAD_REACTORS
330
29
102
}
330
29
100
AcDbVisualStyle
  2
Flat
 70
     0
177
     3
291
     1
 70
    58
 90
        2
176
     1
 90
        1
176
     1
 90
        1
176
     1
 90
        2
176
     1
 40
0.6
176
     1
 40
30.0
176
     1
 62
     7
420
 16777215
176
     1
 90
        0
176
     1
 90
        0
176
     1
 62
     7
176
     1
 62
   257
176
     1
 90
        1
176
     1
 90
        1
176
     1
 40
1.0
176
     1
 90
        8
176
     1
 62
     7
176
     1
 40
1.0
176
     1
 90
        1
176
     1
 90
        6
176
     1
 90
        2
176
     1
 62
     7
176
     1
 90
        5
176
     1
 90
        0
176
     1
 90
        0
176
     1
290
     0
176
     1
 90
       13
176
     1
 40
0.0
176
     1
 90
        0
176
     1
290
     0
176
     1
290
     1
176
     1
290
     1
176
     1
290
     0
176
     1
290
     0
176
     1
290
     0
176
     1
290
     0
176
     1
290
     0
176
     1
290
     0
176
     1
 90
       50
176
     1
 40
0.0
176
     1
 40
1.0
176
     1
 90
        0
176
     1
 62
    18
420
        0
176
     1
 90
       50
176
     1
 90
        3
176
     1
 62
     5
420
      255
176
     1
290
     0
176
     1
 90
       50
176
     1
 90
       50
176
     1
 90
       50
176
     1
290
     0
176
     1
 90
       50
176
     1
 62
   256
176
     0
 40
1.0
176
     0
 90
        2
176
     1
  1
strokes_ogs.tif
176
     1
290
     0
176
     1
 40
1.0
176
     1
 40
1.0
176
     1
  0
VISUALSTYLE
  5
2B
102
{ACAD_REACTORS
330
29
102
}
330
29
100
AcDbVisualStyle
  2
FlatWithEdges
 70
     1
177
     3
291
     1
 70
    58
 90
        2
176
     1
 90
        1
176
     1
 90
        1
176
     1
 90
        2
176
     1
 40
0.6
176
     1
 40
30.0
176
     1
 62
     7
420
 16777215
176
     1
 90
        1
176
     1
 90
        0
176
     1
 62
     7
176
     1
 62
   257
176
     1
 90
        1
176
     1
 90
        1
176
     1
 40
1.0
176
     1
 90
        0
176
     1
 62
   257
176
     1
 40
1.0
176
     1
 90
        1
176
     1
 90
        6
176
     1
 90
        2
176
     1
 62
     7
176
     1
 90
        5
176
     1
 90
        0
176
     1
 90
        0
176
     1
290
     0
176
     1
 90
       13
176
     1
 40
0.0
176
     1
 90
        0
176
     1
290
     0
176
     1
290
     1
176
     1
290
     1
176
     1
290
     0
176
     1
290
     0
176
     1
290
     0
176
     1
290
     0
176
     1
290
     0
176
     1
290
     0
176
     1
 90
       50
176
     1
 40
0.0
176
     1
 40
1.0
176
     1
 90
        0
176
     1
 62
    18
420
        0
176
     1
 90
       50
176
     1
 90
        3
176
     1
 62
     5
420
      255
176
     1
290
     0
176
     1
 90
       50
176
     1
 90
       50
176
     1
 90
       50
176
     1
290
     0
176
     1
 90
       50
176
     1
 62
   256
176
     0
 40
1.0
176
     0
 90
        2
176
     1
  1
strokes_ogs.tif
176
     1
290
     0
176
     1
 40
1.0
176
     1
 40
1.0
176
     1
  0
VISUALSTYLE
  5
2C
102
{ACAD_REACTORS
330
29
102
}
330
29
100
AcDbVisualStyle
  2
Gouraud
 70
     2
177
     3
291
     1
 70
    58
 90
        2
176
     1
 90
        2
176
     1
 90
        1
176
     1
 90
        2
176
     1
 40
0.6
176
     1
 40
30.0
176
     1
 62
     7
420
 16777215
176
     1
 90
        0
176
     1
 90
        0
176
     1
 62
     7
176
     1
 62
   257
176
     1
 90
        1
176
     1
 90
        1
176
     1
 40
1.0
176
     1
 90
        0
176
     1
 62
     7
176
     1
 40
1.0
176
     1
 90
        1
176
     1
 90
        6
176
     1
 90
        2
176
     1
 62
     7
176
     1
 90
        5
176
     1
 90
        0
176
     1
 90
        0
176
     1
290
     0
176
     1
 90
       13
176
     1
 40
0.0
176
     1
 90
        0
176
     1
290
     0
176
     1
290
     1
176
     1
290
     1
176
     1
290
     0
176
     1
290
     0
176
     1
290
     0
176
     1
290
     0
176
     1
290
     0
176
     1
290
     0
176
     1
 90
       50
176
     1
 40
0.0
176
     1
 40
1.0
176
     1
 90
        0
176
     1
 62
    18
420
        0
176
     1
 90
       50
176
     1
 90
        3
176
     1
 62
     5
420
      255
176
     1
290
     0
176
     1
 90
       50
176
     1
 90
       50
176
     1
 90
       50
176
     1
290
     0
176
     1
 90
       50
176
     1
 62
   256
176
     0
 40
1.0
176
     0
 90
        2
176
     1
  1
strokes_ogs.tif
176
     1
290
     0
176
     1
 40
1.0
176
     1
 40
1.0
176
     1
  0
VISUALSTYLE
  5
2D
102
{ACAD_REACTORS
330
29
102
}
330
29
100
AcDbVisualStyle
  2
GouraudWithEdges
 70
     3
177
     3
291
     1
 70
    58
 90
        2
176
     1
 90
        2
176
     1
 90
        1
176
     1
 90
        2
176
     1
 40
0.6
176
     1
 40
30.0
176
     1
 62
     7
420
 16777215
176
     1
 90
        1
176
     1
 90
        0
176
     1
 62
     7
176
     1
 62
   257
176
     1
 90
        1
176
     1
 90
        1
176
     1
 40
1.0
176
     1
 90
        0
176
     1
 62
   257
176
     1
 40
1.0
176
     1
 90
        1
176
     1
 90
        6
176
     1
 90
        2
176
     1
 62
     7
176
     1
 90
        5
176
     1
 90
        0
176
     1
 90
        0
176
     1
290
     0
176
     1
 90
       13
176
     1
 40
0.0
176
     1
 90
        0
176
     1
290
     0
176
     1
290
     1
176
     1
290
     1
176
     1
290
     0
176
     1
290
     0
176
     1
290
     0
176
     1
290
     0
176
     1
290
     0
176
     1
290
     0
176
     1
 90
       50
176
     1
 40
0.0
176
     1
 40
1.0
176
     1
 90
        0
176
     1
 62
    18
420
        0
176
     1
 90
       50
176
     1
 90
        3
176
     1
 62
     5
420
      255
176
     1
290
     0
176
     1
 90
       50
176
     1
 90
       50
176
     1
 90
       50
176
     1
290
     0
176
     1
 90
       50
176
     1
 62
   256
176
     0
 40
1.0
176
     0
 90
        2
176
     1
  1
strokes_ogs.tif
176
     1
290
     0
176
     1
 40
1.0
176
     1
 40
1.0
176
     1
  0
VISUALSTYLE
  5
31
102
{ACAD_REACTORS
330
29
102
}
330
29
100
AcDbVisualStyle
  2
Hidden
 70
     6
177
     3
291
     0
 70
    58
 90
        1
176
     1
 90
        2
176
     1
 90
        2
176
     1
 90
        0
176
     1
 40
0.6
176
     1
 40
30.0
176
     1
 62
     7
420
 16777215
176
     1
 90
        2
176
     1
 90
        2
176
     1
 62
     7
176
     1
 62
   257
176
     1
 90
        2
176
     1
 90
        1
176
     1
 40
40.0
176
     1
 90
        0
176
     1
 62
   257
176
     1
 40
1.0
176
     1
 90
        1
176
     1
 90
        6
176
     1
 90
        2
176
     1
 62
     7
176
     1
 90
        3
176
     1
 90
        0
176
     1
 90
        0
176
     1
290
     0
176
     1
 90
        1
176
     1
 40
0.0
176
     1
 90
        0
176
     1
290
     0
176
     1
290
     1
176
     1
290
     1
176
     1
290
     0
176
     1
290
     0
176
     1
290
     0
176
     1
290
     0
176
     1
290
     0
176
     1
290
     0
176
     1
 90
       50
176
     1
 40
0.0
176
     1
 40
1.0
176
     1
 90
        0
176
     1
 62
    18
420
        0
176
     1
 90
       50
176
     1
 90
        3
176
     1
 62
     5
420
      255
176
     1
290
     0
176
     1
 90
       50
176
     1
 90
       50
176
     1
 90
       50
176
     1
290
     0
176
     1
 90
       50
176
     1
 62
   256
176
     0
 40
1.0
176
     0
 90
        2
176
     1
  1
strokes_ogs.tif
176
     1
290
     0
176
     1
 40
1.0
176
     1
 40
1.0
176
     1
  0
VISUALSTYLE
  5
3F
102
{ACAD_REACTORS
330
29
102
}
330
29
100
AcDbVisualStyle
  2
JitterOff
 70
    20
177
     3
291
     1
 70
    58
 90
        2
176
     0
 90
        2
176
     0
 90
        0
176
     0
 90
        0
176
     0
 40
0.6
176
     0
 40
30.0
176
     0
 62
     7
420
 16777215
176
     0
 90
        1
176
     0
 90
        4
176
     0
 62
     7
176
     0
 62
   257
176
     0
 90
        1
176
     0
 90
        1
176
     0
 40
1.0
176
     0
 90
       10
176
     2
 62
     7
176
     0
 40
1.0
176
     0
 90
        1
176
     0
 90
        6
176
     0
 90
        2
176
     0
 62
     7
176
     0
 90
        5
176
     0
 90
        0
176
     0
 90
        0
176
     0
290
     0
176
     0
 90
        1
176
     0
 40
0.0
176
     0
 90
        0
176
     0
290
     0
176
     0
290
     1
176
     0
290
     1
176
     0
290
     0
176
     0
290
     0
176
     0
290
     0
176
     0
290
     0
176
     0
290
     0
176
     0
290
     0
176
     0
 90
       50
176
     0
 40
0.0
176
     0
 40
1.0
176
     0
 90
        0
176
     0
 62
    18
420
        0
176
     0
 90
       50
176
     0
 90
        3
176
     0
 62
     5
420
      255
176
     0
290
     0
176
     0
 90
       50
176
     0
 90
       50
176
     0
 90
       50
176
     0
290
     0
176
     0
 90
       50
176
     0
 62
   256
176
     0
 40
1.0
176
     0
 90
        2
176
     0
  1
strokes_ogs.tif
176
     0
290
     0
176
     0
 40
1.0
176
     0
 40
1.0
176
     0
  0
VISUALSTYLE
  5
37
102
{ACAD_REACTORS
330
29
102
}
330
29
100
AcDbVisualStyle
  2
Linepattern
 70
    14
177
     3
291
     1
 70
    58
 90
        2
176
     1
 90
        2
176
     1
 90
        0
176
     1
 90
        0
176
     1
 40
0.6
176
     1
 40
30.0
176
     1
 62
     7
420
 16777215
176
     1
 90
        1
176
     1
 90
        4
176
     1
 62
     7
176
     1
 62
   257
176
     1
 90
        7
176
     1
 90
        7
176
     1
 40
1.0
176
     1
 90
        8
176
     1
 62
     7
176
     1
 40
1.0
176
     1
 90
        1
176
     1
 90
        6
176
     1
 90
        2
176
     1
 62
     7
176
     1
 90
        5
176
     1
 90
        0
176
     1
 90
        0
176
     1
290
     0
176
     1
 90
        1
176
     1
 40
0.0
176
     1
 90
        0
176
     1
290
     0
176
     1
290
     1
176
     1
290
     1
176
     1
290
     0
176
     1
290
     0
176
     1
290
     0
176
     1
290
     0
176
     1
290
     0
176
     1
290
     0
176
     1
 90
       50
176
     1
 40
0.0
176
     1
 40
1.0
176
     1
 90
        0
176
     1
 62
    18
420
        0
176
     1
 90
       50
176
     1
 90
        3
176
     1
 62
     5
420
      255
176
     1
290
     0
176
     1
 90
       50
176
     1
 90
       50
176
     1
 90
       50
176
     1
290
     0
176
     1
 90
       50
176
     1
 62
   256
176
     0
 40
1.0
176
     0
 90
        2
176
     1
  1
strokes_ogs.tif
176
     1
290
     0
176
     1
 40
1.0
176
     1
 40
1.0
176
     1
  0
VISUALSTYLE
  5
40
102
{ACAD_REACTORS
330
29
102
}
330
29
100
AcDbVisualStyle
  2
OverhangOff
 70
    21
177
     3
291
     1
 70
    58
 90
        2
176
     0
 90
        2
176
     0
 90
        0
176
     0
 90
        0
176
     0
 40
0.6
176
     0
 40
30.0
176
     0
 62
     7
420
 16777215
176
     0
 90
        1
176
     0
 90
        4
176
     0
 62
     7
176
     0
 62
   257
176
     0
 90
        1
176
     0
 90
        1
176
     0
 40
1.0
176
     0
 90
        9
176
     2
 62
     7
176
     0
 40
1.0
176
     0
 90
        1
176
     0
 90
        6
176
     0
 90
        2
176
     0
 62
     7
176
     0
 90
        5
176
     0
 90
        0
176
     0
 90
        0
176
     0
290
     0
176
     0
 90
        1
176
     0
 40
0.0
176
     0
 90
        0
176
     0
290
     0
176
     0
290
     1
176
     0
290
     1
176
     0
290
     0
176
     0
290
     0
176
     0
290
     0
176
     0
290
     0
176
     0
290
     0
176
     0
290
     0
176
     0
 90
       50
176
     0
 40
0.0
176
     0
 40
1.0
176
     0
 90
        0
176
     0
 62
    18
420
        0
176
     0
 90
       50
176
     0
 90
        3
176
     0
 62
     5
420
      255
176
     0
290
     0
176
     0
 90
       50
176
     0
 90
       50
176
     0
 90
       50
176
     0
290
     0
176
     0
 90
       50
176
     0
 62
   256
176
     0
 40
1.0
176
     0
 90
        2
176
     0
  1
strokes_ogs.tif
176
     0
290
     0
176
     0
 40
1.0
176
     0
 40
1.0
176
     0
  0
VISUALSTYLE
  5
33
102
{ACAD_REACTORS
330
29
102
}
330
29
100
AcDbVisualStyle
  2
Realistic
 70
     8
177
     3
291
     0
 70
    58
 90
        2
176
     1
 90
        3
176
     1
 90
        0
176
     1
 90
        2
176
     1
 40
0.6
176
     1
 40
30.0
176
     1
 62
     7
420
 16777215
176
     1
 90
        0
176
     1
 90
        0
176
     1
 62
     7
176
     1
 62
   257
176
     1
 90
        1
176
     1
 90
        1
176
     1
 40
1.0
176
     1
 90
        8
176
     1
 62
   257
176
     1
 40
1.0
176
     1
 90
        1
176
     1
 90
        6
176
     1
 90
        2
176
     1
 62
     7
176
     1
 90
        3
176
     1
 90
        0
176
     1
 90
        0
176
     1
290
     0
176
     1
 90
       13
176
     1
 40
0.0
176
     1
 90
        0
176
     1
290
     0
176
     1
290
     1
176
     1
290
     1
176
     1
290
     0
176
     1
290
     0
176
     1
290
     0
176
     1
290
     0
176
     1
290
     0
176
     1
290
     0
176
     1
 90
       50
176
     1
 40
0.0
176
     1
 40
1.0
176
     1
 90
        0
176
     1
 62
    18
420
        0
176
     1
 90
       50
176
     1
 90
        3
176
     1
 62
     5
420
      255
176
     1
290
     0
176
     1
 90
       50
176
     1
 90
       50
176
     1
 90
       50
176
     1
290
     0
176
     1
 90
       50
176
     1
 62
   256
176
     0
 40
1.0
176
     0
 90
        2
176
     1
  1
strokes_ogs.tif
176
     1
290
     0
176
     1
 40
1.0
176
     1
 40
1.0
176
     1
  0
VISUALSTYLE
  5
3E
102
{ACAD_REACTORS
330
29
102
}
330
29
100
AcDbVisualStyle
  2
Shaded
 70
    27
177
     3
291
     0
 70
    58
 90
        2
176
     1
 90
        2
176
     1
 90
        1
176
     1
 90
        2
176
     1
 40
0.6
176
     1
 40
30.0
176
     1
 62
     7
420
 16777215
176
     1
 90
        0
176
     1
 90
        4
176
     1
 62
     7
176
     1
 62
   257
176
     1
 90
        1
176
     1
 90
        1
176
     1
 40
1.0
176
     1
 90
        8
176
     1
 62
   257
176
     1
 40
1.0
176
     1
 90
        1
176
     1
 90
        6
176
     1
 90
        2
176
     1
 62
     8
420
  7895160
176
     1
 90
        3
176
     1
 90
        0
176
     1
 90
        0
176
     1
290
     0
176
     1
 90
        5
176
     1
 40
0.0
176
     1
 90
        0
176
     1
290
     0
176
     1
290
     1
176
     1
290
     1
176
     1
290
     0
176
     1
290
     0
176
     1
290
     0
176
     1
290
     0
176
     1
290
     0
176
     1
290
     0
176
     1
 90
       50
176
     1
 40
0.0
176
     1
 40
1.0
176
     1
 90
        0
176
     1
 62
    18
420
        0
176
     1
 90
       50
176
     1
 90
        3
176
     1
 62
     5
420
      255
176
     1
290
     0
176
     1
 90
       50
176
     1
 90
       50
176
     1
 90
       50
176
     1
290
     0
176
     1
 90
       50
176
     1
 62
   256
176
     0
 40
1.0
176
     0
 90
        2
176
     1
  1
strokes_ogs.tif
176
     1
290
     0
176
     1
 40
1.0
176
     1
 40
1.0
176
     1
  0
VISUALSTYLE
  5
3D
102
{ACAD_REACTORS
330
29
102
}
330
29
100
AcDbVisualStyle
  2
Shaded with edges
 70
    26
177
     3
291
     0
 70
    58
 90
        2
176
     1
 90
        2
176
     1
 90
        1
176
     1
 90
        2
176
     1
 40
0.6
176
     1
 40
30.0
176
     1
 62
     7
420
 16777215
176
     1
 90
        1
176
     1
 90
        2
176
     1
 62
     7
176
     1
 62
   257
176
     1
 90
        2
176
     1
 90
        1
176
     1
 40
1.0
176
     1
 90
        8
176
     1
 62
   257
176
     1
 40
1.0
176
     1
 90
        1
176
     1
 90
        6
176
     1
 90
        2
176
     1
 62
     7
176
     1
 90
        3
176
     1
 90
        0
176
     1
 90
        0
176
     1
290
     0
176
     1
 90
        5
176
     1
 40
0.0
176
     1
 90
        0
176
     1
290
     0
176
     1
290
     1
176
     1
290
     1
176
     1
290
     0
176
     1
290
     0
176
     1
290
     0
176
     1
290
     0
176
     1
290
     0
176
     1
290
     0
176
     1
 90
       50
176
     1
 40
0.0
176
     1
 40
1.0
176
     1
 90
        0
176
     1
 62
    18
420
        0
176
     1
 90
       50
176
     1
 90
        3
176
     1
 62
     5
420
      255
176
     1
290
     0
176
     1
 90
       50
176
     1
 90
       50
176
     1
 90
       50
176
     1
290
     0
176
     1
 90
       50
176
     1
 62
   256
176
     0
 40
1.0
176
     0
 90
        2
176
     1
  1
strokes_ogs.tif
176
     1
290
     0
176
     1
 40
1.0
176
     1
 40
1.0
176
     1
  0
VISUALSTYLE
  5
3A
102
{ACAD_REACTORS
330
29
102
}
330
29
100
AcDbVisualStyle
  2
Shades of Gray
 70
    23
177
     3
291
     0
 70
    58
 90
        2
176
     1
 90
        2
176
     1
 90
        3
176
     1
 90
        0
176
     1
 40
0.6
176
     1
 40
30.0
176
     1
 62
     7
420
 16777215
176
     1
 90
        2
176
     1
 90
        2
176
     1
 62
     7
176
     1
 62
     7
176
     1
 90
        1
176
     1
 90
        1
176
     1
 40
40.0
176
     1
 90
        8
176
     1
 62
     7
176
     1
 40
1.0
176
     1
 90
        1
176
     1
 90
        6
176
     1
 90
        2
176
     1
 62
     7
176
     1
 90
        3
176
     1
 90
        0
176
     1
 90
        0
176
     1
290
     0
176
     1
 90
        1
176
     1
 40
0.0
176
     1
 90
        0
176
     1
290
     0
176
     1
290
     1
176
     1
290
     1
176
     1
290
     0
176
     1
290
     0
176
     1
290
     0
176
     1
290
     0
176
     1
290
     0
176
     1
290
     0
176
     1
 90
       50
176
     1
 40
0.0
176
     1
 40
1.0
176
     1
 90
        0
176
     1
 62
    18
420
        0
176
     1
 90
       50
176
     1
 90
        3
176
     1
 62
     5
420
      255
176
     1
290
     0
176
     1
 90
       50
176
     1
 90
       50
176
     1
 90
       50
176
     1
290
     0
176
     1
 90
       50
176
     1
 62
   256
176
     0
 40
1.0
176
     0
 90
        2
176
     1
  1
strokes_ogs.tif
176
     1
290
     0
176
     1
 40
1.0
176
     1
 40
1.0
176
     1
  0
VISUALSTYLE
  5
3B
102
{ACAD_REACTORS
330
29
102
}
330
29
100
AcDbVisualStyle
  2
Sketchy
 70
    24
177
     3
291
     0
 70
    58
 90
        1
176
     1
 90
        2
176
     1
 90
        2
176
     1
 90
        0
176
     1
 40
0.6
176
     1
 40
30.0
176
     1
 62
     7
420
 16777215
176
     1
 90
        2
176
     1
 90
        2
176
     1
 62
     7
176
     1
 62
     7
176
     1
 90
        1
176
     1
 90
        1
176
     1
 40
40.0
176
     1
 90
       11
176
     1
 62
     7
176
     1
 40
1.0
176
     1
 90
        1
176
     1
 90
        6
176
     1
 90
        2
176
     1
 62
     7
176
     1
 90
        6
176
     1
 90
        0
176
     1
 90
        0
176
     1
290
     0
176
     1
 90
        1
176
     1
 40
0.0
176
     1
 90
        0
176
     1
290
     0
176
     1
290
     1
176
     1
290
     1
176
     1
290
     0
176
     1
290
     0
176
     1
290
     0
176
     1
290
     0
176
     1
290
     0
176
     1
290
     0
176
     1
 90
       50
176
     1
 40
0.0
176
     1
 40
1.0
176
     1
 90
        0
176
     1
 62
    18
420
        0
176
     1
 90
       50
176
     1
 90
        3
176
     1
 62
     5
420
      255
176
     1
290
     0
176
     1
 90
       50
176
     1
 90
       50
176
     1
 90
       50
176
     1
290
     0
176
     1
 90
       50
176
     1
 62
   256
176
     0
 40
1.0
176
     0
 90
        2
176
     1
  1
strokes_ogs.tif
176
     1
290
     0
176
     1
 40
1.0
176
     1
 40
1.0
176
     1
  0
VISUALSTYLE
  5
36
102
{ACAD_REACTORS
330
29
102
}
330
29
100
AcDbVisualStyle
  2
Thicken
 70
    13
177
     3
291
     1
 70
    58
 90
        2
176
     1
 90
        2
176
     1
 90
        0
176
     1
 90
        0
176
     1
 40
0.6
176
     1
 40
30.0
176
     1
 62
     7
420
 16777215
176
     1
 90
        1
176
     1
 90
        4
176
     1
 62
     7
176
     1
 62
   257
176
     1
 90
        1
176
     1
 90
        1
176
     1
 40
1.0
176
     1
 90
       12
176
     1
 62
     7
176
     1
 40
1.0
176
     1
 90
        1
176
     1
 90
        6
176
     1
 90
        2
176
     1
 62
     7
176
     1
 90
        5
176
     1
 90
        0
176
     1
 90
        0
176
     1
290
     0
176
     1
 90
        1
176
     1
 40
0.0
176
     1
 90
        0
176
     1
290
     0
176
     1
290
     1
176
     1
290
     1
176
     1
290
     0
176
     1
290
     0
176
     1
290
     0
176
     1
290
     0
176
     1
290
     0
176
     1
290
     0
176
     1
 90
       50
176
     1
 40
0.0
176
     1
 40
1.0
176
     1
 90
        0
176
     1
 62
    18
420
        0
176
     1
 90
       50
176
     1
 90
        3
176
     1
 62
     5
420
      255
176
     1
290
     0
176
     1
 90
       50
176
     1
 90
       50
176
     1
 90
       50
176
     1
290
     0
176
     1
 90
       50
176
     1
 62
   256
176
     0
 40
1.0
176
     0
 90
        2
176
     1
  1
strokes_ogs.tif
176
     1
290
     0
176
     1
 40
1.0
176
     1
 40
1.0
176
     1
  0
VISUALSTYLE
  5
30
102
{ACAD_REACTORS
330
29
102
}
330
29
100
AcDbVisualStyle
  2
Wireframe
 70
     5
177
     3
291
     0
 70
    58
 90
        0
176
     1
 90
        2
176
     1
 90
        0
176
     1
 90
        0
176
     1
 40
0.6
176
     1
 40
30.0
176
     1
 62
     7
420
 16777215
176
     1
 90
        1
176
     1
 90
        4
176
     1
 62
     7
176
     1
 62
   257
176
     1
 90
        1
176
     1
 90
        1
176
     1
 40
1.0
176
     1
 90
        0
176
     1
 62
   257
176
     1
 40
1.0
176
     1
 90
        1
176
     1
 90
        6
176
     1
 90
        2
176
     1
 62
     7
176
     1
 90
        3
176
     1
 90
        0
176
     1
 90
        0
176
     1
290
     0
176
     1
 90
        1
176
     1
 40
0.0
176
     1
 90
        0
176
     1
290
     0
176
     1
290
     1
176
     1
290
     1
176
     1
290
     0
176
     1
290
     0
176
     1
290
     0
176
     1
290
     0
176
     1
290
     0
176
     1
290
     0
176
     1
 90
       50
176
     1
 40
0.0
176
     1
 40
1.0
176
     1
 90
        0
176
     1
 62
    18
420
        0
176
     1
 90
       50
176
     1
 90
        3
176
     1
 62
     5
420
      255
176
     1
290
     0
176
     1
 90
       50
176
     1
 90
       50
176
     1
 90
       50
176
     1
290
     0
176
     1
 90
       50
176
     1
 62
   256
176
     0
 40
1.0
176
     0
 90
        2
176
     1
  1
strokes_ogs.tif
176
     1
290
     0
176
     1
 40
1.0
176
     1
 40
1.0
176
     1
  0
VISUALSTYLE
  5
3C
102
{ACAD_REACTORS
330
29
102
}
330
29
100
AcDbVisualStyle
  2
X-Ray
 70
    25
177
     3
291
     0
 70
    58
 90
        2
176
     1
 90
        2
176
     1
 90
        1
176
     1
 90
        1
176
     1
 40
0.5
176
     1
 40
30.0
176
     1
 62
     7
420
 16777215
176
     1
 90
        1
176
     1
 90
        0
176
     1
 62
     7
176
     1
 62
   257
176
     1
 90
        1
176
     1
 90
        1
176
     1
 40
1.0
176
     1
 90
        8
176
     1
 62
     7
176
     1
 40
1.0
176
     1
 90
        1
176
     1
 90
        6
176
     1
 90
        2
176
     1
 62
     7
176
     1
 90
        3
176
     1
 90
        0
176
     1
 90
        0
176
     1
290
     0
176
     1
 90
       13
176
     1
 40
0.0
176
     1
 90
        0
176
     1
290
     0
176
     1
290
     1
176
     1
290
     1
176
     1
290
     0
176
     1
290
     0
176
     1
290
     0
176
     1
290
     0
176
     1
290
     0
176
     1
290
     0
176
     1
 90
       50
176
     1
 40
0.0
176
     1
 40
1.0
176
     1
 90
        0
176
     1
 62
    18
420
        0
176
     1
 90
       50
176
     1
 90
        3
176
     1
 62
     5
420
      255
176
     1
290
     0
176
     1
 90
       50
176
     1
 90
       50
176
     1
 90
       50
176
     1
290
     0
176
     1
 90
       50
176
     1
 62
   256
176
     0
 40
1.0
176
     0
 90
        2
176
     1
  1
strokes_ogs.tif
176
     1
290
     0
176
     1
 40
1.0
176
     1
 40
1.0
176
     1
  0
DICTIONARYVAR
  5
9D
102
{ACAD_REACTORS
330
98
102
}
330
98
100
DictionaryVariables
280
     0
  1
1:1
  0
DICTIONARYVAR
  5
9A
102
{ACAD_REACTORS
330
98
102
}
330
98
100
DictionaryVariables
280
     0
  1
STANDARD
  0
DICTIONARYVAR
  5
99
102
{ACAD_REACTORS
330
98
102
}
330
98
100
DictionaryVariables
280
     0
  1
STANDARD
  0
DICTIONARYVAR
  5
9B
102
{ACAD_REACTORS
330
98
102
}
330
98
100
DictionaryVariables
280
     0
  1
Imperial24
  0
DICTIONARYVAR
  5
9C
102
{ACAD_REACTORS
330
98
102
}
330
98
100
DictionaryVariables
280
     0
  1
Imperial24
  0
DICTIONARY
  5
1A
330
19
100
AcDbDictionary
280
     1
281
     1
  3
BUMPTILE
360
1C
  3
DIFFUSETILE
360
1B
  3
OPACITYTILE
360
1F
  3
REFLECTIONTILE
360
1E
  3
REFRACTIONTILE
360
20
  3
SPECULARTILE
360
1D
  0
DICTIONARY
  5
12
330
11
100
AcDbDictionary
280
     1
281
     1
  3
BUMPTILE
360
14
  3
DIFFUSETILE
360
13
  3
OPACITYTILE
360
17
  3
REFLECTIONTILE
360
16
  3
REFRACTIONTILE
360
18
  3
SPECULARTILE
360
15
  0
DICTIONARY
  5
22
330
21
100
AcDbDictionary
280
     1
281
     1
  3
BUMPTILE
360
24
  3
DIFFUSETILE
360
23
  3
OPACITYTILE
360
27
  3
REFLECTIONTILE
360
26
  3
REFRACTIONTILE
360
28
  3
SPECULARTILE
360
25
  0
DICTIONARY
  5
9E
330
65
100
AcDbDictionary
280
     1
281
     1
  3
ACAD_ROUNDTRIP_2008_TABLESTYLE_CELLSTYLEMAP
360
9F
  0
XRECORD
  5
1C
102
{ACAD_REACTORS
330
1A
102
}
330
1A
100
AcDbXrecord
280
     1
270
     1
271
     1
  0
XRECORD
  5
1B
102
{ACAD_REACTORS
330
1A
102
}
330
1A
100
AcDbXrecord
280
     1
270
     1
271
     1
  0
XRECORD
  5
1F
102
{ACAD_REACTORS
330
1A
102
}
330
1A
100
AcDbXrecord
280
     1
270
     1
271
     1
  0
XRECORD
  5
1E
102
{ACAD_REACTORS
330
1A
102
}
330
1A
100
AcDbXrecord
280
     1
270
     1
271
     1
  0
XRECORD
  5
20
102
{ACAD_REACTORS
330
1A
102
}
330
1A
100
AcDbXrecord
280
     1
270
     1
271
     1
  0
XRECORD
  5
1D
102
{ACAD_REACTORS
330
1A
102
}
330
1A
100
AcDbXrecord
280
     1
270
     1
271
     1
  0
XRECORD
  5
14
102
{ACAD_REACTORS
330
12
102
}
330
12
100
AcDbXrecord
280
     1
270
     1
271
     1
  0
XRECORD
  5
13
102
{ACAD_REACTORS
330
12
102
}
330
12
100
AcDbXrecord
280
     1
270
     1
271
     1
  0
XRECORD
  5
17
102
{ACAD_REACTORS
330
12
102
}
330
12
100
AcDbXrecord
280
     1
270
     1
271
     1
  0
XRECORD
  5
16
102
{ACAD_REACTORS
330
12
102
}
330
12
100
AcDbXrecord
280
     1
270
     1
271
     1
  0
XRECORD
  5
18
102
{ACAD_REACTORS
330
12
102
}
330
12
100
AcDbXrecord
280
     1
270
     1
271
     1
  0
XRECORD
  5
15
102
{ACAD_REACTORS
330
12
102
}
330
12
100
AcDbXrecord
280
     1
270
     1
271
     1
  0
XRECORD
  5
24
102
{ACAD_REACTORS
330
22
102
}
330
22
100
AcDbXrecord
280
     1
270
     1
271
     1
  0
XRECORD
  5
23
102
{ACAD_REACTORS
330
22
102
}
330
22
100
AcDbXrecord
280
     1
270
     1
271
     1
  0
XRECORD
  5
27
102
{ACAD_REACTORS
330
22
102
}
330
22
100
AcDbXrecord
280
     1
270
     1
271
     1
  0
XRECORD
  5
26
102
{ACAD_REACTORS
330
22
102
}
330
22
100
AcDbXrecord
280
     1
270
     1
271
     1
  0
XRECORD
  5
28
102
{ACAD_REACTORS
330
22
102
}
330
22
100
AcDbXrecord
280
     1
270
     1
271
     1
  0
XRECORD
  5
25
102
{ACAD_REACTORS
330
22
102
}
330
22
100
AcDbXrecord
280
     1
270
     1
271
     1
  0
CELLSTYLEMAP
  5
9F
102
{ACAD_REACTORS
330
9E
102
}
330
9E
100
AcDbCellStyleMap
 90
        3
300
CELLSTYLE
  1
TABLEFORMAT_BEGIN
 90
        5
170
     1
 91
        0
 92
    32768
 62
   257
 93
        1
300
CONTENTFORMAT
  1
CONTENTFORMAT_BEGIN
 90
        0
 91
        0
 92
      512
 93
        0
300

 40
0.0
140
1.0
 94
        5
 62
     0
340
55
144
0.25
309
CONTENTFORMAT_END
171
     0
 94
        0
309
TABLEFORMAT_END
  1
CELLSTYLE_BEGIN
 90
        1
 91
        1
300
_TITLE
309
CELLSTYLE_END
300
CELLSTYLE
  1
TABLEFORMAT_BEGIN
 90
        5
170
     1
 91
        0
 92
        0
 62
   257
 93
        1
300
CONTENTFORMAT
  1
CONTENTFORMAT_BEGIN
 90
        0
 91
        0
 92
      512
 93
        0
300

 40
0.0
140
1.0
 94
        5
 62
     0
340
55
144
0.18
309
CONTENTFORMAT_END
171
     0
 94
        0
309
TABLEFORMAT_END
  1
CELLSTYLE_BEGIN
 90
        2
 91
        1
300
_HEADER
309
CELLSTYLE_END
300
CELLSTYLE
  1
TABLEFORMAT_BEGIN
 90
        5
170
     1
 91
        0
 92
        0
 62
   257
 93
        1
300
CONTENTFORMAT
  1
CONTENTFORMAT_BEGIN
 90
        0
 91
        0
 92
      512
 93
        0
300

 40
0.0
140
1.0
 94
        2
 62
     0
340
55
144
0.18
309
CONTENTFORMAT_END
171
     0
 94
        0
309
TABLEFORMAT_END
  1
CELLSTYLE_BEGIN
 90
        3
 91
        2
300
_DATA
309
CELLSTYLE_END
  0
ENDSEC
  0
EOF
