  0
SECTION
  2
HEADER
  9
$ACADVER
  1
AC1032
  9
$ACADMAINTVER
 90
      327
  9
$DWGCODEPAGE
  3
ANSI_1252
  9
$REQUIREDVERSIONS
160
                 0
  9
$INSBASE
 10
0.0
 20
0.0
 30
0.0
  9
$EXTMIN
 10
1.000000000000000E+20
 20
1.000000000000000E+20
 30
1.000000000000000E+20
  9
$EXTMAX
 10
-1.000000000000000E+20
 20
-1.000000000000000E+20
 30
-1.000000000000000E+20
  9
$LIMMIN
 10
0.0
 20
0.0
  9
$LIMMAX
 10
12.0
 20
9.0
  9
$ORTHOMODE
 70
     0
  9
$REGENMODE
 70
     1
  9
$FILLMODE
 70
     1
  9
$QTEXTMODE
 70
     0
  9
$MIRRTEXT
 70
     0
  9
$LTSCALE
 40
1.0
  9
$ATTMODE
 70
     1
  9
$TEXTSIZE
 40
0.2
  9
$TRACEWID
 40
0.05
  9
$TEXTSTYLE
  7
Standard
  9
$CLAYER
  8
0
  9
$CELTYPE
  6
ByLayer
  9
$CECOLOR
 62
   256
  9
$CELTSCALE
 40
1.0
  9
$DISPSILH
 70
     0
  9
$DIMSCALE
 40
1.0
  9
$DIMASZ
 40
0.18
  9
$DIMEXO
 40
0.0625
  9
$DIMDLI
 40
0.38
  9
$DIMRND
 40
0.0
  9
$DIMDLE
 40
0.0
  9
$DIMEXE
 40
0.18
  9
$DIMTP
 40
0.0
  9
$DIMTM
 40
0.0
  9
$DIMTXT
 40
0.18
  9
$DIMCEN
 40
0.09
  9
$DIMTSZ
 40
0.0
  9
$DIMTOL
 70
     0
  9
$DIMLIM
 70
     0
  9
$DIMTIH
 70
     1
  9
$DIMTOH
 70
     1
  9
$DIMSE1
 70
     0
  9
$DIMSE2
 70
     0
  9
$DIMTAD
 70
     0
  9
$DIMZIN
 70
     0
  9
$DIMBLK
  1

  9
$DIMASO
 70
     1
  9
$DIMSHO
 70
     1
  9
$DIMPOST
  1

  9
$DIMAPOST
  1

  9
$DIMALT
 70
     0
  9
$DIMALTD
 70
     2
  9
$DIMALTF
 40
25.4
  9
$DIMLFAC
 40
1.0
  9
$DIMTOFL
 70
     0
  9
$DIMTVP
 40
0.0
  9
$DIMTIX
 70
     0
  9
$DIMSOXD
 70
     0
  9
$DIMSAH
 70
     0
  9
$DIMBLK1
  1

  9
$DIMBLK2
  1

  9
$DIMSTYLE
  2
Standard
  9
$DIMCLRD
 70
     0
  9
$DIMCLRE
 70
     0
  9
$DIMCLRT
 70
     0
  9
$DIMTFAC
 40
1.0
  9
$DIMGAP
 40
0.09
  9
$DIMJUST
 70
     0
  9
$DIMSD1
 70
     0
  9
$DIMSD2
 70
     0
  9
$DIMTOLJ
 70
     1
  9
$DIMTZIN
 70
     0
  9
$DIMALTZ
 70
     0
  9
$DIMALTTZ
 70
     0
  9
$DIMUPT
 70
     0
  9
$DIMDEC
 70
     4
  9
$DIMTDEC
 70
     4
  9
$DIMALTU
 70
     2
  9
$DIMALTTD
 70
     2
  9
$DIMTXSTY
  7
Standard
  9
$DIMAUNIT
 70
     0
  9
$DIMADEC
 70
     0
  9
$DIMALTRND
 40
0.0
  9
$DIMAZIN
 70
     0
  9
$DIMDSEP
 70
    46
  9
$DIMATFIT
 70
     3
  9
$DIMFRAC
 70
     0
  9
$DIMLDRBLK
  1

  9
$DIMLUNIT
 70
     2
  9
$DIMLWD
 70
    -2
  9
$DIMLWE
 70
    -2
  9
$DIMTMOVE
 70
     0
  9
$DIMFXL
 40
1.0
  9
$DIMFXLON
 70
     0
  9
$DIMJOGANG
 40
0.7853981633974483
  9
$DIMTFILL
 70
     0
  9
$DIMTFILLCLR
 70
     0
  9
$DIMARCSYM
 70
     0
  9
$DIMLTYPE
  6

  9
$DIMLTEX1
  6

  9
$DIMLTEX2
  6

  9
$DIMTXTDIRECTION
 70
     0
  9
$LUNITS
 70
     2
  9
$LUPREC
 70
     4
  9
$SKETCHINC
 40
0.1
  9
$FILLETRAD
 40
0.0
  9
$AUNITS
 70
     0
  9
$AUPREC
 70
     0
  9
$MENU
  1
.
  9
$ELEVATION
 40
0.0
  9
$PELEVATION
 40
0.0
  9
$THICKNESS
 40
0.0
  9
$LIMCHECK
 70
     0
  9
$CHAMFERA
 40
0.0
  9
$CHAMFERB
 40
0.0
  9
$CHAMFERC
 40
0.0
  9
$CHAMFERD
 40
0.0
  9
$SKPOLY
 70
     0
  9
$TDCREATE
 40
2460648.753668982
  9
$TDUCREATE
 40
2460649.003668982
  9
$TDUPDATE
 40
2460648.753668982
  9
$TDUUPDATE
 40
2460649.003668982
  9
$TDINDWG
 40
0.0000000000
  9
$TDUSRTIMER
 40
0.0000000000
  9
$USRTIMER
 70
     1
  9
$ANGBASE
 50
0.0
  9
$ANGDIR
 70
     0
  9
$PDMODE
 70
     0
  9
$PDSIZE
 40
0.0
  9
$PLINEWID
 40
0.0
  9
$SPLFRAME
 70
     0
  9
$SPLINETYPE
 70
     6
  9
$SPLINESEGS
 70
     8
  9
$HANDSEED
  5
A1
  9
$SURFTAB1
 70
     6
  9
$SURFTAB2
 70
     6
  9
$SURFTYPE
 70
     6
  9
$SURFU
 70
     6
  9
$SURFV
 70
     6
  9
$UCSBASE
  2

  9
$UCSNAME
  2

  9
$UCSORG
 10
0.0
 20
0.0
 30
0.0
  9
$UCSXDIR
 10
1.0
 20
0.0
 30
0.0
  9
$UCSYDIR
 10
0.0
 20
1.0
 30
0.0
  9
$UCSORTHOREF
  2

  9
$UCSORTHOVIEW
 70
     0
  9
$UCSORGTOP
 10
0.0
 20
0.0
 30
0.0
  9
$UCSORGBOTTOM
 10
0.0
 20
0.0
 30
0.0
  9
$UCSORGLEFT
 10
0.0
 20
0.0
 30
0.0
  9
$UCSORGRIGHT
 10
0.0
 20
0.0
 30
0.0
  9
$UCSORGFRONT
 10
0.0
 20
0.0
 30
0.0
  9
$UCSORGBACK
 10
0.0
 20
0.0
 30
0.0
  9
$PUCSBASE
  2

  9
$PUCSNAME
  2

  9
$PUCSORG
 10
0.0
 20
0.0
 30
0.0
  9
$PUCSXDIR
 10
1.0
 20
0.0
 30
0.0
  9
$PUCSYDIR
 10
0.0
 20
1.0
 30
0.0
  9
$PUCSORTHOREF
  2

  9
$PUCSORTHOVIEW
 70
     0
  9
$PUCSORGTOP
 10
0.0
 20
0.0
 30
0.0
  9
$PUCSORGBOTTOM
 10
0.0
 20
0.0
 30
0.0
  9
$PUCSORGLEFT
 10
0.0
 20
0.0
 30
0.0
  9
$PUCSORGRIGHT
 10
0.0
 20
0.0
 30
0.0
  9
$PUCSORGFRONT
 10
0.0
 20
0.0
 30
0.0
  9
$PUCSORGBACK
 10
0.0
 20
0.0
 30
0.0
  9
$USERI1
 70
     0
  9
$USERI2
 70
     0
  9
$USERI3
 70
     0
  9
$USERI4
 70
     0
  9
$USERI5
 70
     0
  9
$USERR1
 40
0.0
  9
$USERR2
 40
0.0
  9
$USERR3
 40
0.0
  9
$USERR4
 40
0.0
  9
$USERR5
 40
0.0
  9
$WORLDVIEW
 70
     1
  9
$SHADEDGE
 70
     3
  9
$SHADEDIF
 70
    70
  9
$TILEMODE
 70
     1
  9
$MAXACTVP
 70
    64
  9
$PINSBASE
 10
0.0
 20
0.0
 30
0.0
  9
$PLIMCHECK
 70
     0
  9
$PEXTMIN
 10
1.000000000000000E+20
 20
1.000000000000000E+20
 30
1.000000000000000E+20
  9
$PEXTMAX
 10
-1.000000000000000E+20
 20
-1.000000000000000E+20
 30
-1.000000000000000E+20
  9
$PLIMMIN
 10
0.0
 20
0.0
  9
$PLIMMAX
 10
12.0
 20
9.0
  9
$UNITMODE
 70
     0
  9
$VISRETAIN
 70
     1
  9
$PLINEGEN
 70
     0
  9
$PSLTSCALE
 70
     1
  9
$TREEDEPTH
 70
  3020
  9
$CMLSTYLE
  2
Standard
  9
$CMLJUST
 70
     0
  9
$CMLSCALE
 40
1.0
  9
$PROXYGRAPHICS
 70
     1
  9
$MEASUREMENT
 70
     0
  9
$CELWEIGHT
370
    -1
  9
$ENDCAPS
280
     0
  9
$JOINSTYLE
280
     0
  9
$LWDISPLAY
290
     1
  9
$INSUNITS
 70
     0
  9
$HYPERLINKBASE
  1

  9
$STYLESHEET
  1

  9
$XEDIT
290
     1
  9
$CEPSNTYPE
380
     0
  9
$PSTYLEMODE
290
     1
  9
$FINGERPRINTGUID
  2
{3878AC1B-9157-884D-A3FE-CF2585D42477}
  9
$VERSIONGUID
  2
{5DF0679B-150F-8341-9508-0B2A658C4C68}
  9
$EXTNAMES
290
     1
  9
$PSVPSCALE
 40
0.0
  9
$OLESTARTUP
290
     0
  9
$SORTENTS
280
   127
  9
$INDEXCTL
280
     0
  9
$HIDETEXT
280
     1
  9
$XCLIPFRAME
280
     2
  9
$HALOGAP
280
     0
  9
$OBSCOLOR
 70
   257
  9
$OBSLTYPE
280
     0
  9
$INTERSECTIONDISPLAY
280
     0
  9
$INTERSECTIONCOLOR
 70
   257
  9
$DIMASSOC
280
     2
  9
$PROJECTNAME
  1

  9
$CAMERADISPLAY
290
     0
  9
$LENSLENGTH
 40
50.0
  9
$CAMERAHEIGHT
 40
0.0
  9
$STEPSPERSEC
 40
2.0
  9
$STEPSIZE
 40
6.0
  9
$3DDWFPREC
 40
2.0
  9
$PSOLWIDTH
 40
0.25
  9
$PSOLHEIGHT
 40
4.0
  9
$LOFTANG1
 40
1.570796326794896
  9
$LOFTANG2
 40
1.570796326794896
  9
$LOFTMAG1
 40
0.0
  9
$LOFTMAG2
 40
0.0
  9
$LOFTPARAM
 70
     7
  9
$LOFTNORMALS
280
     1
  9
$LATITUDE
 40
37.795
  9
$LONGITUDE
 40
-122.394
  9
$NORTHDIRECTION
 40
0.0
  9
$TIMEZONE
 70
 -8000
  9
$LIGHTGLYPHDISPLAY
280
     1
  9
$TILEMODELIGHTSYNCH
280
     1
  9
$CMATERIAL
347
11
  9
$SOLIDHIST
280
     0
  9
$SHOWHIST
280
     1
  9
$DWFFRAME
280
     2
  9
$DGNFRAME
280
     0
  9
$REALWORLDSCALE
290
     1
  9
$INTERFERECOLOR
 62
     1
  9
$INTERFEREOBJVS
345
33
  9
$INTERFEREVPVS
346
30
  9
$CSHADOW
280
     0
  9
$SHADOWPLANELOCATION
 40
0.0
  0
ENDSEC
  0
SECTION
  2
CLASSES
  0
CLASS
  1
ACDBDICTIONARYWDFLT
  2
AcDbDictionaryWithDefault
  3
ObjectDBX Classes
 90
        0
 91
        1
280
     0
281
     0
  0
CLASS
  1
MATERIAL
  2
AcDbMaterial
  3
ObjectDBX Classes
 90
     1153
 91
        3
280
     0
281
     0
  0
CLASS
  1
VISUALSTYLE
  2
AcDbVisualStyle
  3
ObjectDBX Classes
 90
     4095
 91
       24
280
     0
281
     0
  0
CLASS
  1
SCALE
  2
AcDbScale
  3
ObjectDBX Classes
 90
     1153
 91
       17
280
     0
281
     0
  0
CLASS
  1
TABLESTYLE
  2
AcDbTableStyle
  3
ObjectDBX Classes
 90
     4095
 91
        1
280
     0
281
     0
  0
CLASS
  1
MLEADERSTYLE
  2
AcDbMLeaderStyle
  3
ACDB_MLEADERSTYLE_CLASS
 90
     4095
 91
        1
280
     0
281
     0
  0
CLASS
  1
ACDBSECTIONVIEWSTYLE
  2
AcDbSectionViewStyle
  3
ObjectDBX Classes
 90
     1025
 91
        1
280
     0
281
     0
  0
CLASS
  1
ACDBDETAILVIEWSTYLE
  2
AcDbDetailViewStyle
  3
ObjectDBX Classes
 90
     1025
 91
        1
280
     0
281
     0
  0
CLASS
  1
DICTIONARYVAR
  2
AcDbDictionaryVar
  3
ObjectDBX Classes
 90
        0
 91
        5
280
     0
281
     0
  0
CLASS
  1
CELLSTYLEMAP
  2
AcDbCellStyleMap
  3
ObjectDBX Classes
 90
     1152
 91
        1
280
     0
281
     0
  0
ENDSEC
  0
SECTION
  2
TABLES
  0
TABLE
  2
VPORT
  5
8
330
0
100
AcDbSymbolTable
 70
     1
  0
VPORT
  5
57
330
8
100
AcDbSymbolTableRecord
100
AcDbViewportTableRecord
  2
*Active
 70
     0
 10
0.0
 20
0.0
 11
1.0
 21
1.0
 12
0.0
 22
0.0
 13
0.0
 23
0.0
 14
1.0
 24
1.0
 15
0.0
 25
0.0
 16
0.0
 26
0.0
 36
1.0
 17
960.0
 27
540.0
 37
0.0
 40
1101.6
 41
1.777777777777777
 42
50.0
 43
0.0
 44
0.0
 50
0.0
 51
0.0
 71
     0
 72
   100
 73
     1
 74
     1
 75
     0
 76
     0
 77
     0
 78
     0
281
     0
 65
     1
110
0.0
120
0.0
130
0.0
111
1.0
121
0.0
131
0.0
112
0.0
122
1.0
132
0.0
 79
     0
146
0.0
 60
     3
 61
     5
292
     1
282
     1
141
0.0
142
0.0
 63
   250
421
  3355443
  0
ENDTAB
  0
TABLE
  2
LTYPE
  5
5
330
0
100
AcDbSymbolTable
 70
     1
  0
LTYPE
  5
5B
330
5
100
AcDbSymbolTableRecord
100
AcDbLinetypeTableRecord
  2
ByBlock
 70
     0
  3

 72
    65
 73
     0
 40
0.0
  0
LTYPE
  5
5C
330
5
100
AcDbSymbolTableRecord
100
AcDbLinetypeTableRecord
  2
ByLayer
 70
     0
  3

 72
    65
 73
     0
 40
0.0
  0
LTYPE
  5
5D
330
5
100
AcDbSymbolTableRecord
100
AcDbLinetypeTableRecord
  2
Continuous
 70
     0
  3
Solid line
 72
    65
 73
     0
 40
0.0
  0
ENDTAB
  0
TABLE
  2
LAYER
  5
2
330
0
100
AcDbSymbolTable
 70
     2
  0
LAYER
  5
54
330
2
100
AcDbSymbolTableRecord
100
AcDbLayerTableRecord
  2
0
 70
     0
 62
     7
  6
Continuous
370
    -3
390
F
347
21
348
0
  0
LAYER
  5
78
330
2
100
AcDbSymbolTableRecord
100
AcDbLayerTableRecord
  2
Layer 1
 70
     0
 62
     7
  6
Continuous
370
     0
390
F
347
21
348
0
  0
ENDTAB
  0
TABLE
  2
STYLE
  5
3
330
0
100
AcDbSymbolTable
 70
     2
  0
STYLE
  5
55
330
3
100
AcDbSymbolTableRecord
100
AcDbTextStyleTableRecord
  2
Standard
 70
     0
 40
0.0
 41
1.0
 50
0.0
 71
     0
 42
0.2
  3
txt
  4

  0
STYLE
  5
5A
330
3
100
AcDbSymbolTableRecord
100
AcDbTextStyleTableRecord
  2
Annotative
 70
     0
 40
0.0
 41
1.0
 50
0.0
 71
     0
 42
0.2
  3
txt
  4

1001
AcadAnnotative
1000
AnnotativeData
1002
{
1070
     1
1070
     1
1002
}
  0
ENDTAB
  0
TABLE
  2
VIEW
  5
6
330
0
100
AcDbSymbolTable
 70
     0
  0
ENDTAB
  0
TABLE
  2
UCS
  5
7
330
0
100
AcDbSymbolTable
 70
     0
  0
ENDTAB
  0
TABLE
  2
APPID
  5
9
330
0
100
AcDbSymbolTable
 70
     2
  0
APPID
  5
56
330
9
100
AcDbSymbolTableRecord
100
AcDbRegAppTableRecord
  2
ACAD
 70
     0
  0
APPID
  5
5E
330
9
100
AcDbSymbolTableRecord
100
AcDbRegAppTableRecord
  2
AcadAnnotative
 70
     0
  0
ENDTAB
  0
TABLE
  2
DIMSTYLE
  5
A
330
0
100
AcDbSymbolTable
 70
     2
100
AcDbDimStyleTable
 71
     0
  0
DIMSTYLE
105
58
330
A
100
AcDbSymbolTableRecord
100
AcDbDimStyleTableRecord
  2
Standard
 70
     0
340
55
  0
DIMSTYLE
105
59
330
A
100
AcDbSymbolTableRecord
100
AcDbDimStyleTableRecord
  2
Annotative
 70
     0
340
55
1001
AcadAnnotative
1000
AnnotativeData
1002
{
1070
     1
1070
     1
1002
}
  0
ENDTAB
  0
TABLE
  2
BLOCK_RECORD
  5
1
330
0
100
AcDbSymbolTable
 70
     3
  0
BLOCK_RECORD
  5
70
330
1
100
AcDbSymbolTableRecord
100
AcDbBlockTableRecord
  2
*Model_Space
340
73
 70
     0
280
     1
281
     0
  0
BLOCK_RECORD
  5
6C
330
1
100
AcDbSymbolTableRecord
100
AcDbBlockTableRecord
  2
*Paper_Space
340
6F
 70
     0
280
     1
281
     0
  0
BLOCK_RECORD
  5
74
330
1
100
AcDbSymbolTableRecord
100
AcDbBlockTableRecord
  2
*Paper_Space0
340
77
 70
     0
280
     1
281
     0
  0
BLOCK_RECORD
  5
79
330
1
100
AcDbSymbolTableRecord
100
AcDbBlockTableRecord
  2
Block_0
340
0
102
{BLKREFS
331
7A
102
}
 70
     0
280
     1
281
     0
  0
BLOCK_RECORD
  5
7D
330
1
100
AcDbSymbolTableRecord
100
AcDbBlockTableRecord
  2
Block_1
340
0
102
{BLKREFS
331
7E
102
}
 70
     0
280
     1
281
     0
  0
ENDTAB
  0
ENDSEC
  0
SECTION
  2
BLOCKS
  0
BLOCK
  5
71
330
70
100
AcDbEntity
  8
0
100
AcDbBlockBegin
  2
*Model_Space
 70
     0
 10
0.0
 20
0.0
 30
0.0
  3
*Model_Space
  1

  0
ENDBLK
  5
72
330
70
100
AcDbEntity
  8
0
100
AcDbBlockEnd
  0
BLOCK
  5
6D
330
6C
100
AcDbEntity
 67
     1
  8
0
100
AcDbBlockBegin
  2
*Paper_Space
 70
     0
 10
0.0
 20
0.0
 30
0.0
  3
*Paper_Space
  1

  0
ENDBLK
  5
6E
330
6C
100
AcDbEntity
 67
     1
  8
0
100
AcDbBlockEnd
  0
BLOCK
  5
75
330
74
100
AcDbEntity
 67
     1
  8
0
100
AcDbBlockBegin
  2
*Paper_Space0
 70
     0
 10
0.0
 20
0.0
 30
0.0
  3
*Paper_Space0
  1

  0
ENDBLK
  5
76
330
74
100
AcDbEntity
 67
     1
  8
0
100
AcDbBlockEnd
  0
BLOCK
  5
7B
330
79
100
AcDbEntity
  8
0
100
AcDbBlockBegin
  2
Block_0
 70
     0
 10
0.0
 20
0.0
 30
0.0
  3
Block_0
  1

  0
INSERT
  5
7E
330
79
100
AcDbEntity
  8
Layer 1
100
AcDbBlockReference
  2
Block_1
 10
0.0
 20
0.0
 30
0.0
  0
ENDBLK
  5
7C
330
79
100
AcDbEntity
  8
0
100
AcDbBlockEnd
  0
BLOCK
  5
7F
330
7D
100
AcDbEntity
  8
0
100
AcDbBlockBegin
  2
Block_1
 70
     0
 10
0.0
 20
0.0
 30
0.0
  3
Block_1
  1

  0
SPLINE
  5
81
330
7D
100
AcDbEntity
  8
Layer 1
100
AcDbSpline
210
0.0
220
0.0
230
1.0
 70
     9
 71
     3
 72
    92
 73
    88
 74
     0
 42
0.0000000001
 43
0.0000000001
 40
0.0
 40
0.0
 40
0.0
 40
0.0
 40
1.0
 40
1.0
 40
1.0
 40
2.0
 40
2.0
 40
2.0
 40
3.0
 40
3.0
 40
3.0
 40
4.0
 40
4.0
 40
4.0
 40
5.0
 40
5.0
 40
5.0
 40
6.0
 40
6.0
 40
6.0
 40
7.0
 40
7.0
 40
7.0
 40
8.0
 40
8.0
 40
8.0
 40
9.0
 40
9.0
 40
9.0
 40
10.0
 40
10.0
 40
10.0
 40
11.0
 40
11.0
 40
11.0
 40
12.0
 40
12.0
 40
12.0
 40
13.0
 40
13.0
 40
13.0
 40
14.0
 40
14.0
 40
14.0
 40
15.0
 40
15.0
 40
15.0
 40
16.0
 40
16.0
 40
16.0
 40
17.0
 40
17.0
 40
17.0
 40
18.0
 40
18.0
 40
18.0
 40
19.0
 40
19.0
 40
19.0
 40
20.0
 40
20.0
 40
20.0
 40
21.0
 40
21.0
 40
21.0
 40
22.0
 40
22.0
 40
22.0
 40
23.0
 40
23.0
 40
23.0
 40
24.0
 40
24.0
 40
24.0
 40
25.0
 40
25.0
 40
25.0
 40
26.0
 40
26.0
 40
26.0
 40
27.0
 40
27.0
 40
27.0
 40
28.0
 40
28.0
 40
28.0
 40
29.0
 40
29.0
 40
29.0
 40
29.0
 10
769.0
 20
442.9999997019767
 30
0.0
 10
760.0
 20
442.9999997019767
 30
0.0
 10
751.0
 20
442.9999997019767
 30
0.0
 10
742.0
 20
442.9999997019767
 30
0.0
 10
741.8789672851562
 20
453.1460415720939
 30
0.0
 10
741.7555541992187
 20
463.292052924633
 30
0.0
 10
741.6375122070312
 20
473.4381405711173
 30
0.0
 10
741.5334777832031
 20
482.3813473582267
 30
0.0
 10
742.7642211914062
 20
481.5592495799064
 30
0.0
 10
733.7469482421875
 20
481.5633694529533
 30
0.0
 10
691.2759094238281
 20
481.5827786326408
 30
0.0
 10
648.8048706054687
 20
481.5720517039299
 30
0.0
 10
606.3338317871093
 20
481.5720669627189
 30
0.0
 10
604.2084503173827
 20
481.5720669627189
 30
0.0
 10
602.0830841064452
 20
481.5720669627189
 30
0.0
 10
599.5794982910156
 20
481.5720669627189
 30
0.0
 10
599.4299163818359
 20
483.7723538279533
 30
0.0
 10
599.2289581298828
 20
485.397750556469
 30
0.0
 10
599.2237701416016
 20
487.0237576365471
 30
0.0
 10
599.1934204101562
 20
496.5171963572502
 30
0.0
 10
599.4342346191406
 20
506.0184170603752
 30
0.0
 10
599.1116485595703
 20
515.5009762644767
 30
0.0
 10
598.9560089111328
 20
520.0755154490471
 30
0.0
 10
600.6762542724609
 20
521.0628735423088
 30
0.0
 10
604.9039916992187
 20
521.0197750926018
 30
0.0
 10
624.0556030273437
 20
520.8245388865471
 30
0.0
 10
643.2103576660156
 20
520.9347760081291
 30
0.0
 10
662.3639526367187
 20
520.9350354075431
 30
0.0
 10
664.8386535644531
 20
520.9350659251213
 30
0.0
 10
667.3133544921874
 20
520.9350430369377
 30
0.0
 10
670.1618957519531
 20
520.9350430369377
 30
0.0
 10
670.1618957519531
 20
533.8069073557853
 30
0.0
 10
670.1618957519531
 20
546.1929699778557
 30
0.0
 10
670.1618957519531
 20
559.0648800730705
 30
0.0
 10
667.8125
 20
559.0648800730705
 30
0.0
 10
665.8378601074218
 20
559.0648800730705
 30
0.0
 10
663.8632202148437
 20
559.064887702465
 30
0.0
 10
644.7095947265625
 20
559.0649411082267
 30
0.0
 10
625.5559997558593
 20
559.0630261301994
 30
0.0
 10
606.4023895263671
 20
559.0660626292228
 30
0.0
 10
599.2150268554687
 20
559.0672070384025
 30
0.0
 10
599.2123107910156
 20
559.0724484324455
 30
0.0
 10
599.2079925537109
 20
566.4940564036369
 30
0.0
 10
599.2041168212891
 20
573.156181037426
 30
0.0
 10
599.2071075439453
 20
579.8183018565177
 30
0.0
 10
599.2070770263672
 20
586.4804226756096
 30
0.0
 10
599.2070617675781
 20
590.2637440562248
 30
0.0
 10
599.2070922851562
 20
594.0470692515373
 30
0.0
 10
599.2070922851562
 20
598.4279438853263
 30
0.0
 10
602.0828857421875
 20
598.4279438853263
 30
0.0
 10
604.2082214355469
 20
598.4279477000236
 30
0.0
 10
606.3335571289062
 20
598.4279477000236
 30
0.0
 10
648.8045959472656
 20
598.42796677351
 30
0.0
 10
691.275634765625
 20
598.4172284007073
 30
0.0
 10
733.7466735839844
 20
598.4366375803947
 30
0.0
 10
742.7640075683593
 20
598.4407574534416
 30
0.0
 10
741.5335083007812
 20
597.6184307932854
 30
0.0
 10
741.6375122070312
 20
606.5616013407707
 30
0.0
 10
741.7555236816406
 20
616.7077652812004
 30
0.0
 10
741.8789367675781
 20
626.8538691401481
 30
0.0
 10
742.0
 20
636.9999997019768
 30
0.0
 10
751.0
 20
636.9999997019768
 30
0.0
 10
760.0
 20
636.9999997019768
 30
0.0
 10
769.0
 20
636.9999997019768
 30
0.0
 10
769.0
 20
598.4390789866447
 30
0.0
 10
769.0
 20
559.8781582713127
 30
0.0
 10
769.0
 20
520.9350659251213
 30
0.0
 10
772.2041625976562
 20
520.9350659251213
 30
0.0
 10
774.3560180664062
 20
520.9350735545158
 30
0.0
 10
776.5079040527344
 20
520.9350735545158
 30
0.0
 10
811.6584167480468
 20
520.9350659251213
 30
0.0
 10
846.8090515136719
 20
520.9775082468986
 30
0.0
 10
881.9594116210938
 20
520.9072338938713
 30
0.0
 10
891.5780639648437
 20
520.888000190258
 30
0.0
 10
901.1959838867188
 20
520.5305630564689
 30
0.0
 10
910.8142700195312
 20
520.3283230662345
 30
0.0
 10
911.0775146484375
 20
510.7268597483635
 30
0.0
 10
911.3613891601563
 20
501.1258847117423
 30
0.0
 10
911.5922851562499
 20
491.5236508250236
 30
0.0
 10
911.6672973632812
 20
488.4039761424064
 30
0.0
 10
911.60400390625
 20
485.2809597849845
 30
0.0
 10
911.60400390625
 20
481.5005947947502
 30
0.0
 10
863.8475036621093
 20
481.5005947947502
 30
0.0
 10
816.7940673828125
 20
481.5005947947502
 30
0.0
 10
769.0
 20
481.5005947947502
 30
0.0
 10
769.0
 20
468.2275387644767
 30
0.0
 10
769.0
 20
455.6137692332267
 30
0.0
 10
769.0
 20
442.9999997019767
 30
0.0
  0
SPLINE
  5
82
330
7D
100
AcDbEntity
  8
Layer 1
100
AcDbSpline
210
0.0
220
0.0
230
1.0
 70
     9
 71
     3
 72
    65
 73
    61
 74
     0
 42
0.0000000001
 43
0.0000000001
 40
0.0
 40
0.0
 40
0.0
 40
0.0
 40
1.0
 40
1.0
 40
1.0
 40
2.0
 40
2.0
 40
2.0
 40
3.0
 40
3.0
 40
3.0
 40
4.0
 40
4.0
 40
4.0
 40
5.0
 40
5.0
 40
5.0
 40
6.0
 40
6.0
 40
6.0
 40
7.0
 40
7.0
 40
7.0
 40
8.0
 40
8.0
 40
8.0
 40
9.0
 40
9.0
 40
9.0
 40
10.0
 40
10.0
 40
10.0
 40
11.0
 40
11.0
 40
11.0
 40
12.0
 40
12.0
 40
12.0
 40
13.0
 40
13.0
 40
13.0
 40
14.0
 40
14.0
 40
14.0
 40
15.0
 40
15.0
 40
15.0
 40
16.0
 40
16.0
 40
16.0
 40
17.0
 40
17.0
 40
17.0
 40
18.0
 40
18.0
 40
18.0
 40
19.0
 40
19.0
 40
19.0
 40
20.0
 40
20.0
 40
20.0
 40
20.0
 10
769.0
 20
442.9999997019767
 30
0.0
 10
769.0
 20
455.6137692332267
 30
0.0
 10
769.0
 20
468.2275387644767
 30
0.0
 10
769.0
 20
481.5005947947502
 30
0.0
 10
816.7940673828125
 20
481.5005947947502
 30
0.0
 10
863.8475036621093
 20
481.5005947947502
 30
0.0
 10
911.60400390625
 20
481.5005947947502
 30
0.0
 10
911.60400390625
 20
485.2809597849845
 30
0.0
 10
911.6672973632812
 20
488.4039761424064
 30
0.0
 10
911.5922851562499
 20
491.5236508250236
 30
0.0
 10
911.3613891601563
 20
501.1258847117423
 30
0.0
 10
911.0775146484375
 20
510.7268597483635
 30
0.0
 10
910.8142700195312
 20
520.3283230662345
 30
0.0
 10
901.1959838867188
 20
520.5305630564689
 30
0.0
 10
891.5780639648437
 20
520.888000190258
 30
0.0
 10
881.9594116210938
 20
520.9072338938713
 30
0.0
 10
846.8090515136719
 20
520.9775082468986
 30
0.0
 10
811.6584167480468
 20
520.9350659251213
 30
0.0
 10
776.5079040527344
 20
520.9350735545158
 30
0.0
 10
774.3560180664062
 20
520.9350735545158
 30
0.0
 10
772.2041625976562
 20
520.9350659251213
 30
0.0
 10
769.0
 20
520.9350659251213
 30
0.0
 10
769.0
 20
559.8781582713127
 30
0.0
 10
769.0
 20
598.4390789866447
 30
0.0
 10
769.0
 20
636.9999997019768
 30
0.0
 10
828.3333435058594
 20
636.9999997019768
 30
0.0
 10
887.6666870117187
 20
636.9999997019768
 30
0.0
 10
947.0
 20
636.9999995827675
 30
0.0
 10
946.8768310546876
 20
626.348807990551
 30
0.0
 10
946.728759765625
 20
615.6978241801262
 30
0.0
 10
946.6394653320312
 20
605.0463482737541
 30
0.0
 10
946.5841064453124
 20
598.4383770823479
 30
0.0
 10
946.6241455078124
 20
598.4297558665275
 30
0.0
 10
940.2179565429687
 20
598.4293515086173
 30
0.0
 10
896.7234497070313
 20
598.4266125559806
 30
0.0
 10
853.2287292480468
 20
598.3725087046622
 30
0.0
 10
809.7346801757812
 20
598.5142933726311
 30
0.0
 10
805.4695129394531
 20
598.5281979441642
 30
0.0
 10
803.8113708496094
 20
597.5384938120842
 30
0.0
 10
803.98828125
 20
592.9898907542228
 30
0.0
 10
804.3247680664062
 20
584.3374211192131
 30
0.0
 10
804.0835876464843
 20
575.6625401377678
 30
0.0
 10
804.0848388671875
 20
566.9969632029533
 30
0.0
 10
804.0859680175781
 20
559.069755256176
 30
0.0
 10
804.0874633789062
 20
559.0659024119377
 30
0.0
 10
811.785888671875
 20
559.0656582713127
 30
0.0
 10
854.2805480957031
 20
559.0643002390861
 30
0.0
 10
896.7752075195312
 20
559.0765530467033
 30
0.0
 10
939.2698364257812
 20
559.0548397898674
 30
0.0
 10
947.4533081054687
 20
559.0506588816642
 30
0.0
 10
946.6140747070312
 20
559.820113837719
 30
0.0
 10
946.6197509765624
 20
551.9438778758049
 30
0.0
 10
946.6445312499999
 20
517.6148831248283
 30
0.0
 10
946.6243286132812
 20
483.2858731150627
 30
0.0
 10
946.6462402343749
 20
448.9568783640861
 30
0.0
 10
946.6475219726563
 20
446.9711758494376
 30
0.0
 10
946.8768310546876
 20
444.9856259226798
 30
0.0
 10
947.0
 20
442.9999997019767
 30
0.0
 10
887.6666870117187
 20
442.9999997019767
 30
0.0
 10
828.3333435058594
 20
442.9999997019767
 30
0.0
 10
769.0
 20
442.9999997019767
 30
0.0
  0
HATCH
  5
83
330
7D
100
AcDbEntity
  8
Layer 1
 62
     7
440
 33554687
100
AcDbHatch
 10
0.0
 20
0.0
 30
0.0
210
0.0
220
0.0
230
1.0
  2
SOLID
 70
     1
 71
     1
 91
        1
 92
        1
 93
        1
 72
     4
 94
        3
 73
     0
 74
     0
 95
       65
 96
       61
 40
0.0
 40
0.0
 40
0.0
 40
0.0
 40
1.0
 40
1.0
 40
1.0
 40
2.0
 40
2.0
 40
2.0
 40
3.0
 40
3.0
 40
3.0
 40
4.0
 40
4.0
 40
4.0
 40
5.0
 40
5.0
 40
5.0
 40
6.0
 40
6.0
 40
6.0
 40
7.0
 40
7.0
 40
7.0
 40
8.0
 40
8.0
 40
8.0
 40
9.0
 40
9.0
 40
9.0
 40
10.0
 40
10.0
 40
10.0
 40
11.0
 40
11.0
 40
11.0
 40
12.0
 40
12.0
 40
12.0
 40
13.0
 40
13.0
 40
13.0
 40
14.0
 40
14.0
 40
14.0
 40
15.0
 40
15.0
 40
15.0
 40
16.0
 40
16.0
 40
16.0
 40
17.0
 40
17.0
 40
17.0
 40
18.0
 40
18.0
 40
18.0
 40
19.0
 40
19.0
 40
19.0
 40
20.0
 40
20.0
 40
20.0
 40
20.0
 10
769.0
 20
442.9999997019767
 10
769.0
 20
455.6137692332267
 10
769.0
 20
468.2275387644767
 10
769.0
 20
481.5005947947502
 10
816.7940673828125
 20
481.5005947947502
 10
863.8475036621093
 20
481.5005947947502
 10
911.60400390625
 20
481.5005947947502
 10
911.60400390625
 20
485.2809597849845
 10
911.6672973632812
 20
488.4039761424064
 10
911.5922851562499
 20
491.5236508250236
 10
911.3613891601563
 20
501.1258847117423
 10
911.0775146484375
 20
510.7268597483635
 10
910.8142700195312
 20
520.3283230662345
 10
901.1959838867188
 20
520.5305630564689
 10
891.5780639648437
 20
520.888000190258
 10
881.9594116210938
 20
520.9072338938713
 10
846.8090515136719
 20
520.9775082468986
 10
811.6584167480468
 20
520.9350659251213
 10
776.5079040527344
 20
520.9350735545158
 10
774.3560180664062
 20
520.9350735545158
 10
772.2041625976562
 20
520.9350659251213
 10
769.0
 20
520.9350659251213
 10
769.0
 20
559.8781582713127
 10
769.0
 20
598.4390789866447
 10
769.0
 20
636.9999997019768
 10
828.3333435058594
 20
636.9999997019768
 10
887.6666870117187
 20
636.9999997019768
 10
947.0
 20
636.9999995827675
 10
946.8768310546876
 20
626.348807990551
 10
946.728759765625
 20
615.6978241801262
 10
946.6394653320312
 20
605.0463482737541
 10
946.5841064453124
 20
598.4383770823479
 10
946.6241455078124
 20
598.4297558665275
 10
940.2179565429687
 20
598.4293515086173
 10
896.7234497070313
 20
598.4266125559806
 10
853.2287292480468
 20
598.3725087046622
 10
809.7346801757812
 20
598.5142933726311
 10
805.4695129394531
 20
598.5281979441642
 10
803.8113708496094
 20
597.5384938120842
 10
803.98828125
 20
592.9898907542228
 10
804.3247680664062
 20
584.3374211192131
 10
804.0835876464843
 20
575.6625401377678
 10
804.0848388671875
 20
566.9969632029533
 10
804.0859680175781
 20
559.069755256176
 10
804.0874633789062
 20
559.0659024119377
 10
811.785888671875
 20
559.0656582713127
 10
854.2805480957031
 20
559.0643002390861
 10
896.7752075195312
 20
559.0765530467033
 10
939.2698364257812
 20
559.0548397898674
 10
947.4533081054687
 20
559.0506588816642
 10
946.6140747070312
 20
559.820113837719
 10
946.6197509765624
 20
551.9438778758049
 10
946.6445312499999
 20
517.6148831248283
 10
946.6243286132812
 20
483.2858731150627
 10
946.6462402343749
 20
448.9568783640861
 10
946.6475219726563
 20
446.9711758494376
 10
946.8768310546876
 20
444.9856259226798
 10
947.0
 20
442.9999997019767
 10
887.6666870117187
 20
442.9999997019767
 10
828.3333435058594
 20
442.9999997019767
 10
769.0
 20
442.9999997019767
 97
        0
 97
        1
330
82
 75
     2
 76
     1
 98
        1
 10
0.0
 20
0.0
450
        0
451
        0
460
0.0
461
0.0
452
        0
462
0.0
453
        0
470

  0
SPLINE
  5
84
330
7D
100
AcDbEntity
  8
Layer 1
100
AcDbSpline
210
0.0
220
0.0
230
1.0
 70
     9
 71
     3
 72
    59
 73
    55
 74
     0
 42
0.0000000001
 43
0.0000000001
 40
0.0
 40
0.0
 40
0.0
 40
0.0
 40
1.0
 40
1.0
 40
1.0
 40
2.0
 40
2.0
 40
2.0
 40
3.0
 40
3.0
 40
3.0
 40
4.0
 40
4.0
 40
4.0
 40
5.0
 40
5.0
 40
5.0
 40
6.0
 40
6.0
 40
6.0
 40
7.0
 40
7.0
 40
7.0
 40
8.0
 40
8.0
 40
8.0
 40
9.0
 40
9.0
 40
9.0
 40
10.0
 40
10.0
 40
10.0
 40
11.0
 40
11.0
 40
11.0
 40
12.0
 40
12.0
 40
12.0
 40
13.0
 40
13.0
 40
13.0
 40
14.0
 40
14.0
 40
14.0
 40
15.0
 40
15.0
 40
15.0
 40
16.0
 40
16.0
 40
16.0
 40
17.0
 40
17.0
 40
17.0
 40
18.0
 40
18.0
 40
18.0
 40
18.0
 10
947.0
 20
442.9999997019767
 30
0.0
 10
946.8768310546876
 20
444.9856259226798
 30
0.0
 10
946.6475219726563
 20
446.9711758494376
 30
0.0
 10
946.6462402343749
 20
448.9568783640861
 30
0.0
 10
946.6243286132812
 20
483.2858731150627
 30
0.0
 10
946.6445312499999
 20
517.6148831248283
 30
0.0
 10
946.6197509765624
 20
551.9438778758049
 30
0.0
 10
946.6140747070312
 20
559.820113837719
 30
0.0
 10
947.4533081054687
 20
559.0506588816642
 30
0.0
 10
939.2698364257812
 20
559.0548397898674
 30
0.0
 10
896.7752075195312
 20
559.0765530467033
 30
0.0
 10
854.2805480957031
 20
559.0643002390861
 30
0.0
 10
811.785888671875
 20
559.0656582713127
 30
0.0
 10
804.0874633789062
 20
559.0659024119377
 30
0.0
 10
804.0859680175781
 20
559.069755256176
 30
0.0
 10
804.0848388671875
 20
566.9969632029533
 30
0.0
 10
804.0835876464843
 20
575.6625401377678
 30
0.0
 10
804.3247680664062
 20
584.3374211192131
 30
0.0
 10
803.98828125
 20
592.9898907542228
 30
0.0
 10
803.8113708496094
 20
597.5384938120842
 30
0.0
 10
805.4695129394531
 20
598.5281979441642
 30
0.0
 10
809.7346801757812
 20
598.5142933726311
 30
0.0
 10
853.2287292480468
 20
598.3725087046622
 30
0.0
 10
896.7234497070313
 20
598.4266125559806
 30
0.0
 10
940.2179565429687
 20
598.4293515086173
 30
0.0
 10
946.6241455078124
 20
598.4297558665275
 30
0.0
 10
946.5841064453124
 20
598.4383770823479
 30
0.0
 10
946.6394653320312
 20
605.0463482737541
 30
0.0
 10
946.728759765625
 20
615.6978241801262
 30
0.0
 10
946.8768310546876
 20
626.348807990551
 30
0.0
 10
947.0
 20
636.9999995827675
 30
0.0
 10
956.0
 20
636.9999997019768
 30
0.0
 10
965.0
 20
636.9999997019768
 30
0.0
 10
974.0
 20
636.9999997019768
 30
0.0
 10
974.0
 20
624.3918148875236
 30
0.0
 10
974.0
 20
611.7836300730705
 30
0.0
 10
974.0
 20
598.7320896983146
 30
0.0
 10
976.6221313476561
 20
598.6098400950432
 30
0.0
 10
978.5714721679687
 20
598.4419857859611
 30
0.0
 10
980.5208740234375
 20
598.4399906992912
 30
0.0
 10
999.8287963867188
 20
598.4202420115471
 30
0.0
 10
1019.136657714843
 20
598.4302136301994
 30
0.0
 10
1038.444580078125
 20
598.4266697764397
 30
0.0
 10
1045.263366699219
 20
598.4254147410393
 30
0.0
 10
1045.271911621094
 20
598.4190098643303
 30
0.0
 10
1045.272216796875
 20
591.7803646922111
 30
0.0
 10
1045.274780273437
 20
544.0099255442619
 30
0.0
 10
1045.276611328125
 20
496.2394863963127
 30
0.0
 10
1045.262023925781
 20
448.469054877758
 30
0.0
 10
1045.261413574219
 20
446.6460110545158
 30
0.0
 10
1045.091186523437
 20
444.8230130076408
 30
0.0
 10
1045.0
 20
442.9999997019767
 30
0.0
 10
1012.333312988281
 20
442.9999997019767
 30
0.0
 10
979.6666870117187
 20
442.9999997019767
 30
0.0
 10
947.0
 20
442.9999997019767
 30
0.0
  0
SPLINE
  5
85
330
7D
100
AcDbEntity
  8
Layer 1
100
AcDbSpline
210
0.0
220
0.0
230
1.0
 70
     9
 71
     3
 72
    77
 73
    73
 74
     0
 42
0.0000000001
 43
0.0000000001
 40
0.0
 40
0.0
 40
0.0
 40
0.0
 40
1.0
 40
1.0
 40
1.0
 40
2.0
 40
2.0
 40
2.0
 40
3.0
 40
3.0
 40
3.0
 40
4.0
 40
4.0
 40
4.0
 40
5.0
 40
5.0
 40
5.0
 40
6.0
 40
6.0
 40
6.0
 40
7.0
 40
7.0
 40
7.0
 40
8.0
 40
8.0
 40
8.0
 40
9.0
 40
9.0
 40
9.0
 40
10.0
 40
10.0
 40
10.0
 40
11.0
 40
11.0
 40
11.0
 40
12.0
 40
12.0
 40
12.0
 40
13.0
 40
13.0
 40
13.0
 40
14.0
 40
14.0
 40
14.0
 40
15.0
 40
15.0
 40
15.0
 40
16.0
 40
16.0
 40
16.0
 40
17.0
 40
17.0
 40
17.0
 40
18.0
 40
18.0
 40
18.0
 40
19.0
 40
19.0
 40
19.0
 40
20.0
 40
20.0
 40
20.0
 40
21.0
 40
21.0
 40
21.0
 40
22.0
 40
22.0
 40
22.0
 40
23.0
 40
23.0
 40
23.0
 40
24.0
 40
24.0
 40
24.0
 40
24.0
 10
742.0
 20
636.9999997019768
 30
0.0
 10
741.8789367675781
 20
626.8538691401481
 30
0.0
 10
741.7555236816406
 20
616.7077652812004
 30
0.0
 10
741.6375122070312
 20
606.5616013407707
 30
0.0
 10
741.5335083007812
 20
597.6184307932854
 30
0.0
 10
742.7640075683593
 20
598.4407574534416
 30
0.0
 10
733.7466735839844
 20
598.4366375803947
 30
0.0
 10
691.275634765625
 20
598.4172284007073
 30
0.0
 10
648.8045959472656
 20
598.42796677351
 30
0.0
 10
606.3335571289062
 20
598.4279477000236
 30
0.0
 10
604.2082214355469
 20
598.4279477000236
 30
0.0
 10
602.0828857421875
 20
598.4279438853263
 30
0.0
 10
599.2070922851562
 20
598.4279438853263
 30
0.0
 10
599.2070922851562
 20
594.0470692515373
 30
0.0
 10
599.2070617675781
 20
590.2637440562248
 30
0.0
 10
599.2070770263672
 20
586.4804226756096
 30
0.0
 10
599.2071075439453
 20
579.8183018565177
 30
0.0
 10
599.2041168212891
 20
573.156181037426
 30
0.0
 10
599.2079925537109
 20
566.4940564036369
 30
0.0
 10
599.2123107910156
 20
559.0724484324455
 30
0.0
 10
599.2150268554687
 20
559.0672070384025
 30
0.0
 10
606.4023895263671
 20
559.0660626292228
 30
0.0
 10
625.5559997558593
 20
559.0630261301994
 30
0.0
 10
644.7095947265625
 20
559.0649411082267
 30
0.0
 10
663.8632202148437
 20
559.064887702465
 30
0.0
 10
665.8378601074218
 20
559.0648800730705
 30
0.0
 10
667.8125
 20
559.0648800730705
 30
0.0
 10
670.1618957519531
 20
559.0648800730705
 30
0.0
 10
670.1618957519531
 20
546.1929699778557
 30
0.0
 10
670.1618957519531
 20
533.8069073557853
 30
0.0
 10
670.1618957519531
 20
520.9350430369377
 30
0.0
 10
667.3133544921874
 20
520.9350430369377
 30
0.0
 10
664.8386535644531
 20
520.9350659251213
 30
0.0
 10
662.3639526367187
 20
520.9350354075431
 30
0.0
 10
643.2103576660156
 20
520.9347760081291
 30
0.0
 10
624.0556030273437
 20
520.8245388865471
 30
0.0
 10
604.9039916992187
 20
521.0197750926018
 30
0.0
 10
600.6762542724609
 20
521.0628735423088
 30
0.0
 10
598.9560089111328
 20
520.0755154490471
 30
0.0
 10
599.1116485595703
 20
515.5009762644767
 30
0.0
 10
599.4342346191406
 20
506.0184170603752
 30
0.0
 10
599.1934204101562
 20
496.5171963572502
 30
0.0
 10
599.2237701416016
 20
487.0237576365471
 30
0.0
 10
599.2289581298828
 20
485.397750556469
 30
0.0
 10
599.4299163818359
 20
483.7723538279533
 30
0.0
 10
599.5794982910156
 20
481.5720669627189
 30
0.0
 10
602.0830841064452
 20
481.5720669627189
 30
0.0
 10
604.2084503173827
 20
481.5720669627189
 30
0.0
 10
606.3338317871093
 20
481.5720669627189
 30
0.0
 10
648.8048706054687
 20
481.5720517039299
 30
0.0
 10
691.2759094238281
 20
481.5827786326408
 30
0.0
 10
733.7469482421875
 20
481.5633694529533
 30
0.0
 10
742.7642211914062
 20
481.5592495799064
 30
0.0
 10
741.5334777832031
 20
482.3813473582267
 30
0.0
 10
741.6375122070312
 20
473.4381405711173
 30
0.0
 10
741.7555541992187
 20
463.292052924633
 30
0.0
 10
741.8789672851562
 20
453.1460415720939
 30
0.0
 10
742.0
 20
442.9999997019767
 30
0.0
 10
682.6666564941406
 20
442.9999997019767
 30
0.0
 10
623.3333435058593
 20
442.9999997019767
 30
0.0
 10
564.0
 20
442.9999997019767
 30
0.0
 10
564.0820617675781
 20
444.4901120066642
 30
0.0
 10
564.235610961914
 20
445.9802090525626
 30
0.0
 10
564.2359008789062
 20
447.4703366160392
 30
0.0
 10
564.2479248046875
 20
509.1567837595939
 30
0.0
 10
564.2479248046875
 20
570.8432232737541
 30
0.0
 10
564.2359008789062
 20
632.5296613574027
 30
0.0
 10
564.235610961914
 20
634.0197891592979
 30
0.0
 10
564.0820617675781
 20
635.5098873972893
 30
0.0
 10
564.0
 20
636.9999994635581
 30
0.0
 10
623.3333435058593
 20
636.9999997019768
 30
0.0
 10
682.6666564941406
 20
636.9999997019768
 30
0.0
 10
742.0
 20
636.9999997019768
 30
0.0
  0
HATCH
  5
86
330
7D
100
AcDbEntity
  8
Layer 1
 62
     7
440
 33554687
100
AcDbHatch
 10
0.0
 20
0.0
 30
0.0
210
0.0
220
0.0
230
1.0
  2
SOLID
 70
     1
 71
     1
 91
        1
 92
        1
 93
        1
 72
     4
 94
        3
 73
     0
 74
     0
 95
       77
 96
       73
 40
0.0
 40
0.0
 40
0.0
 40
0.0
 40
1.0
 40
1.0
 40
1.0
 40
2.0
 40
2.0
 40
2.0
 40
3.0
 40
3.0
 40
3.0
 40
4.0
 40
4.0
 40
4.0
 40
5.0
 40
5.0
 40
5.0
 40
6.0
 40
6.0
 40
6.0
 40
7.0
 40
7.0
 40
7.0
 40
8.0
 40
8.0
 40
8.0
 40
9.0
 40
9.0
 40
9.0
 40
10.0
 40
10.0
 40
10.0
 40
11.0
 40
11.0
 40
11.0
 40
12.0
 40
12.0
 40
12.0
 40
13.0
 40
13.0
 40
13.0
 40
14.0
 40
14.0
 40
14.0
 40
15.0
 40
15.0
 40
15.0
 40
16.0
 40
16.0
 40
16.0
 40
17.0
 40
17.0
 40
17.0
 40
18.0
 40
18.0
 40
18.0
 40
19.0
 40
19.0
 40
19.0
 40
20.0
 40
20.0
 40
20.0
 40
21.0
 40
21.0
 40
21.0
 40
22.0
 40
22.0
 40
22.0
 40
23.0
 40
23.0
 40
23.0
 40
24.0
 40
24.0
 40
24.0
 40
24.0
 10
742.0
 20
636.9999997019768
 10
741.8789367675781
 20
626.8538691401481
 10
741.7555236816406
 20
616.7077652812004
 10
741.6375122070312
 20
606.5616013407707
 10
741.5335083007812
 20
597.6184307932854
 10
742.7640075683593
 20
598.4407574534416
 10
733.7466735839844
 20
598.4366375803947
 10
691.275634765625
 20
598.4172284007073
 10
648.8045959472656
 20
598.42796677351
 10
606.3335571289062
 20
598.4279477000236
 10
604.2082214355469
 20
598.4279477000236
 10
602.0828857421875
 20
598.4279438853263
 10
599.2070922851562
 20
598.4279438853263
 10
599.2070922851562
 20
594.0470692515373
 10
599.2070617675781
 20
590.2637440562248
 10
599.2070770263672
 20
586.4804226756096
 10
599.2071075439453
 20
579.8183018565177
 10
599.2041168212891
 20
573.156181037426
 10
599.2079925537109
 20
566.4940564036369
 10
599.2123107910156
 20
559.0724484324455
 10
599.2150268554687
 20
559.0672070384025
 10
606.4023895263671
 20
559.0660626292228
 10
625.5559997558593
 20
559.0630261301994
 10
644.7095947265625
 20
559.0649411082267
 10
663.8632202148437
 20
559.064887702465
 10
665.8378601074218
 20
559.0648800730705
 10
667.8125
 20
559.0648800730705
 10
670.1618957519531
 20
559.0648800730705
 10
670.1618957519531
 20
546.1929699778557
 10
670.1618957519531
 20
533.8069073557853
 10
670.1618957519531
 20
520.9350430369377
 10
667.3133544921874
 20
520.9350430369377
 10
664.8386535644531
 20
520.9350659251213
 10
662.3639526367187
 20
520.9350354075431
 10
643.2103576660156
 20
520.9347760081291
 10
624.0556030273437
 20
520.8245388865471
 10
604.9039916992187
 20
521.0197750926018
 10
600.6762542724609
 20
521.0628735423088
 10
598.9560089111328
 20
520.0755154490471
 10
599.1116485595703
 20
515.5009762644767
 10
599.4342346191406
 20
506.0184170603752
 10
599.1934204101562
 20
496.5171963572502
 10
599.2237701416016
 20
487.0237576365471
 10
599.2289581298828
 20
485.397750556469
 10
599.4299163818359
 20
483.7723538279533
 10
599.5794982910156
 20
481.5720669627189
 10
602.0830841064452
 20
481.5720669627189
 10
604.2084503173827
 20
481.5720669627189
 10
606.3338317871093
 20
481.5720669627189
 10
648.8048706054687
 20
481.5720517039299
 10
691.2759094238281
 20
481.5827786326408
 10
733.7469482421875
 20
481.5633694529533
 10
742.7642211914062
 20
481.5592495799064
 10
741.5334777832031
 20
482.3813473582267
 10
741.6375122070312
 20
473.4381405711173
 10
741.7555541992187
 20
463.292052924633
 10
741.8789672851562
 20
453.1460415720939
 10
742.0
 20
442.9999997019767
 10
682.6666564941406
 20
442.9999997019767
 10
623.3333435058593
 20
442.9999997019767
 10
564.0
 20
442.9999997019767
 10
564.0820617675781
 20
444.4901120066642
 10
564.235610961914
 20
445.9802090525626
 10
564.2359008789062
 20
447.4703366160392
 10
564.2479248046875
 20
509.1567837595939
 10
564.2479248046875
 20
570.8432232737541
 10
564.2359008789062
 20
632.5296613574027
 10
564.235610961914
 20
634.0197891592979
 10
564.0820617675781
 20
635.5098873972893
 10
564.0
 20
636.9999994635581
 10
623.3333435058593
 20
636.9999997019768
 10
682.6666564941406
 20
636.9999997019768
 10
742.0
 20
636.9999997019768
 97
        0
 97
        1
330
85
 75
     2
 76
     1
 98
        1
 10
0.0
 20
0.0
450
        0
451
        0
460
0.0
461
0.0
452
        0
462
0.0
453
        0
470

  0
SPLINE
  5
87
330
7D
100
AcDbEntity
  8
Layer 1
100
AcDbSpline
210
0.0
220
0.0
230
1.0
 70
     9
 71
     3
 72
    68
 73
    64
 74
     0
 42
0.0000000001
 43
0.0000000001
 40
0.0
 40
0.0
 40
0.0
 40
0.0
 40
1.0
 40
1.0
 40
1.0
 40
2.0
 40
2.0
 40
2.0
 40
3.0
 40
3.0
 40
3.0
 40
4.0
 40
4.0
 40
4.0
 40
5.0
 40
5.0
 40
5.0
 40
6.0
 40
6.0
 40
6.0
 40
7.0
 40
7.0
 40
7.0
 40
8.0
 40
8.0
 40
8.0
 40
9.0
 40
9.0
 40
9.0
 40
10.0
 40
10.0
 40
10.0
 40
11.0
 40
11.0
 40
11.0
 40
12.0
 40
12.0
 40
12.0
 40
13.0
 40
13.0
 40
13.0
 40
14.0
 40
14.0
 40
14.0
 40
15.0
 40
15.0
 40
15.0
 40
16.0
 40
16.0
 40
16.0
 40
17.0
 40
17.0
 40
17.0
 40
18.0
 40
18.0
 40
18.0
 40
19.0
 40
19.0
 40
19.0
 40
20.0
 40
20.0
 40
20.0
 40
21.0
 40
21.0
 40
21.0
 40
21.0
 10
1179.0
 20
636.9999997019768
 30
0.0
 10
1238.333312988281
 20
636.9999997019768
 30
0.0
 10
1297.666687011719
 20
636.9999997019768
 30
0.0
 10
1357.0
 20
636.999999821186
 30
0.0
 10
1356.86669921875
 20
626.6911522746085
 30
0.0
 10
1356.718566894531
 20
616.3824688792228
 30
0.0
 10
1356.604858398437
 20
606.0734059214592
 30
0.0
 10
1356.511596679687
 20
597.6155011057853
 30
0.0
 10
1357.536254882812
 20
598.439471900463
 30
0.0
 10
1348.724731445312
 20
598.4358708262443
 30
0.0
 10
1305.756164550781
 20
598.418330848217
 30
0.0
 10
1262.787292480469
 20
598.3603474497795
 30
0.0
 10
1219.8193359375
 20
598.5253826975822
 30
0.0
 10
1215.211975097656
 20
598.5430790781975
 30
0.0
 10
1213.776977539062
 20
597.2412030100822
 30
0.0
 10
1213.941345214843
 20
592.6348225474357
 30
0.0
 10
1214.273620605468
 20
583.3201596140861
 30
0.0
 10
1214.248229980469
 20
573.9786526560783
 30
0.0
 10
1213.948974609375
 20
564.6617504954337
 30
0.0
 10
1213.808654785156
 20
560.2939831614494
 30
0.0
 10
1215.121765136719
 20
558.9225766062736
 30
0.0
 10
1219.566711425781
 20
558.9705731272697
 30
0.0
 10
1239.716247558594
 20
559.1881482005119
 30
0.0
 10
1259.870727539062
 20
558.9512936472893
 30
0.0
 10
1280.020568847656
 20
559.154861152172
 30
0.0
 10
1284.263122558594
 20
559.1977307200432
 30
0.0
 10
1285.423095703125
 20
557.8034436106682
 30
0.0
 10
1285.308532714844
 20
553.7377468943596
 30
0.0
 10
1285.05078125
 20
544.5850369334221
 30
0.0
 10
1285.05078125
 20
535.415099799633
 30
0.0
 10
1285.308532714844
 20
526.2623898386955
 30
0.0
 10
1285.422973632812
 20
522.1968609690666
 30
0.0
 10
1284.263366699218
 20
520.8028790354728
 30
0.0
 10
1280.020690917968
 20
520.8451382517814
 30
0.0
 10
1259.704223632812
 20
521.0475003123283
 30
0.0
 10
1239.383850097656
 20
520.8416973948478
 30
0.0
 10
1219.066833496094
 20
521.0116192698478
 30
0.0
 10
1215.077697753906
 20
521.044982612133
 30
0.0
 10
1213.869934082031
 20
519.7400128245353
 30
0.0
 10
1213.966796875
 20
515.8390957713127
 30
0.0
 10
1214.198120117187
 20
506.5183407664298
 30
0.0
 10
1214.334228515625
 20
497.1749417185783
 30
0.0
 10
1213.923156738281
 20
487.8665615916252
 30
0.0
 10
1213.698303222656
 20
482.7748257517814
 30
0.0
 10
1215.2314453125
 20
481.4301602244377
 30
0.0
 10
1220.319030761719
 20
481.4546963572502
 30
0.0
 10
1263.120056152344
 20
481.6609646677971
 30
0.0
 10
1305.922546386719
 20
481.5816494822501
 30
0.0
 10
1348.724548339844
 20
481.5641171336173
 30
0.0
 10
1357.536010742187
 20
481.5605008006095
 30
0.0
 10
1356.511535644531
 20
482.3847958445549
 30
0.0
 10
1356.604919433594
 20
473.9266964793205
 30
0.0
 10
1356.718627929687
 20
463.6175991892814
 30
0.0
 10
1356.866760253906
 20
453.3088833689689
 30
0.0
 10
1357.0
 20
442.9999997019767
 30
0.0
 10
1297.666687011719
 20
442.9999997019767
 30
0.0
 10
1238.333312988281
 20
442.9999997019767
 30
0.0
 10
1179.0
 20
442.9999997019767
 30
0.0
 10
1179.035522460937
 20
448.9836422801017
 30
0.0
 10
1179.104187011718
 20
454.9673001170158
 30
0.0
 10
1179.101440429687
 20
460.9509274363517
 30
0.0
 10
1179.074462890625
 20
519.6339489817619
 30
0.0
 10
1179.035583496093
 20
578.3169743418693
 30
0.0
 10
1179.0
 20
636.9999997019768
 30
0.0
  0
HATCH
  5
88
330
7D
100
AcDbEntity
  8
Layer 1
 62
     7
440
 33554687
100
AcDbHatch
 10
0.0
 20
0.0
 30
0.0
210
0.0
220
0.0
230
1.0
  2
SOLID
 70
     1
 71
     1
 91
        1
 92
        1
 93
        1
 72
     4
 94
        3
 73
     0
 74
     0
 95
       68
 96
       64
 40
0.0
 40
0.0
 40
0.0
 40
0.0
 40
1.0
 40
1.0
 40
1.0
 40
2.0
 40
2.0
 40
2.0
 40
3.0
 40
3.0
 40
3.0
 40
4.0
 40
4.0
 40
4.0
 40
5.0
 40
5.0
 40
5.0
 40
6.0
 40
6.0
 40
6.0
 40
7.0
 40
7.0
 40
7.0
 40
8.0
 40
8.0
 40
8.0
 40
9.0
 40
9.0
 40
9.0
 40
10.0
 40
10.0
 40
10.0
 40
11.0
 40
11.0
 40
11.0
 40
12.0
 40
12.0
 40
12.0
 40
13.0
 40
13.0
 40
13.0
 40
14.0
 40
14.0
 40
14.0
 40
15.0
 40
15.0
 40
15.0
 40
16.0
 40
16.0
 40
16.0
 40
17.0
 40
17.0
 40
17.0
 40
18.0
 40
18.0
 40
18.0
 40
19.0
 40
19.0
 40
19.0
 40
20.0
 40
20.0
 40
20.0
 40
21.0
 40
21.0
 40
21.0
 40
21.0
 10
1179.0
 20
636.9999997019768
 10
1238.333312988281
 20
636.9999997019768
 10
1297.666687011719
 20
636.9999997019768
 10
1357.0
 20
636.999999821186
 10
1356.86669921875
 20
626.6911522746085
 10
1356.718566894531
 20
616.3824688792228
 10
1356.604858398437
 20
606.0734059214592
 10
1356.511596679687
 20
597.6155011057853
 10
1357.536254882812
 20
598.439471900463
 10
1348.724731445312
 20
598.4358708262443
 10
1305.756164550781
 20
598.418330848217
 10
1262.787292480469
 20
598.3603474497795
 10
1219.8193359375
 20
598.5253826975822
 10
1215.211975097656
 20
598.5430790781975
 10
1213.776977539062
 20
597.2412030100822
 10
1213.941345214843
 20
592.6348225474357
 10
1214.273620605468
 20
583.3201596140861
 10
1214.248229980469
 20
573.9786526560783
 10
1213.948974609375
 20
564.6617504954337
 10
1213.808654785156
 20
560.2939831614494
 10
1215.121765136719
 20
558.9225766062736
 10
1219.566711425781
 20
558.9705731272697
 10
1239.716247558594
 20
559.1881482005119
 10
1259.870727539062
 20
558.9512936472893
 10
1280.020568847656
 20
559.154861152172
 10
1284.263122558594
 20
559.1977307200432
 10
1285.423095703125
 20
557.8034436106682
 10
1285.308532714844
 20
553.7377468943596
 10
1285.05078125
 20
544.5850369334221
 10
1285.05078125
 20
535.415099799633
 10
1285.308532714844
 20
526.2623898386955
 10
1285.422973632812
 20
522.1968609690666
 10
1284.263366699218
 20
520.8028790354728
 10
1280.020690917968
 20
520.8451382517814
 10
1259.704223632812
 20
521.0475003123283
 10
1239.383850097656
 20
520.8416973948478
 10
1219.066833496094
 20
521.0116192698478
 10
1215.077697753906
 20
521.044982612133
 10
1213.869934082031
 20
519.7400128245353
 10
1213.966796875
 20
515.8390957713127
 10
1214.198120117187
 20
506.5183407664298
 10
1214.334228515625
 20
497.1749417185783
 10
1213.923156738281
 20
487.8665615916252
 10
1213.698303222656
 20
482.7748257517814
 10
1215.2314453125
 20
481.4301602244377
 10
1220.319030761719
 20
481.4546963572502
 10
1263.120056152344
 20
481.6609646677971
 10
1305.922546386719
 20
481.5816494822501
 10
1348.724548339844
 20
481.5641171336173
 10
1357.536010742187
 20
481.5605008006095
 10
1356.511535644531
 20
482.3847958445549
 10
1356.604919433594
 20
473.9266964793205
 10
1356.718627929687
 20
463.6175991892814
 10
1356.866760253906
 20
453.3088833689689
 10
1357.0
 20
442.9999997019767
 10
1297.666687011719
 20
442.9999997019767
 10
1238.333312988281
 20
442.9999997019767
 10
1179.0
 20
442.9999997019767
 10
1179.035522460937
 20
448.9836422801017
 10
1179.104187011718
 20
454.9673001170158
 10
1179.101440429687
 20
460.9509274363517
 10
1179.074462890625
 20
519.6339489817619
 10
1179.035583496093
 20
578.3169743418693
 10
1179.0
 20
636.9999997019768
 97
        0
 97
        1
330
87
 75
     2
 76
     1
 98
        1
 10
0.0
 20
0.0
450
        0
451
        0
460
0.0
461
0.0
452
        0
462
0.0
453
        0
470

  0
SPLINE
  5
89
330
7D
100
AcDbEntity
  8
Layer 1
100
AcDbSpline
210
0.0
220
0.0
230
1.0
 70
     9
 71
     3
 72
    71
 73
    67
 74
     0
 42
0.0000000001
 43
0.0000000001
 40
0.0
 40
0.0
 40
0.0
 40
0.0
 40
1.0
 40
1.0
 40
1.0
 40
2.0
 40
2.0
 40
2.0
 40
3.0
 40
3.0
 40
3.0
 40
4.0
 40
4.0
 40
4.0
 40
5.0
 40
5.0
 40
5.0
 40
6.0
 40
6.0
 40
6.0
 40
7.0
 40
7.0
 40
7.0
 40
8.0
 40
8.0
 40
8.0
 40
9.0
 40
9.0
 40
9.0
 40
10.0
 40
10.0
 40
10.0
 40
11.0
 40
11.0
 40
11.0
 40
12.0
 40
12.0
 40
12.0
 40
13.0
 40
13.0
 40
13.0
 40
14.0
 40
14.0
 40
14.0
 40
15.0
 40
15.0
 40
15.0
 40
16.0
 40
16.0
 40
16.0
 40
17.0
 40
17.0
 40
17.0
 40
18.0
 40
18.0
 40
18.0
 40
19.0
 40
19.0
 40
19.0
 40
20.0
 40
20.0
 40
20.0
 40
21.0
 40
21.0
 40
21.0
 40
22.0
 40
22.0
 40
22.0
 40
22.0
 10
1357.0
 20
442.9999997019767
 30
0.0
 10
1356.866760253906
 20
453.3088833689689
 30
0.0
 10
1356.718627929687
 20
463.6175991892814
 30
0.0
 10
1356.604919433594
 20
473.9266964793205
 30
0.0
 10
1356.511535644531
 20
482.3847958445549
 30
0.0
 10
1357.536010742187
 20
481.5605008006095
 30
0.0
 10
1348.724548339844
 20
481.5641171336173
 30
0.0
 10
1305.922546386719
 20
481.5816494822501
 30
0.0
 10
1263.120056152344
 20
481.6609646677971
 30
0.0
 10
1220.319030761719
 20
481.4546963572502
 30
0.0
 10
1215.2314453125
 20
481.4301602244377
 30
0.0
 10
1213.698303222656
 20
482.7748257517814
 30
0.0
 10
1213.923156738281
 20
487.8665615916252
 30
0.0
 10
1214.334228515625
 20
497.1749417185783
 30
0.0
 10
1214.198120117187
 20
506.5183407664298
 30
0.0
 10
1213.966796875
 20
515.8390957713127
 30
0.0
 10
1213.869934082031
 20
519.7400128245353
 30
0.0
 10
1215.077697753906
 20
521.044982612133
 30
0.0
 10
1219.066833496094
 20
521.0116192698478
 30
0.0
 10
1239.383850097656
 20
520.8416973948478
 30
0.0
 10
1259.704223632812
 20
521.0475003123283
 30
0.0
 10
1280.020690917968
 20
520.8451382517814
 30
0.0
 10
1284.263366699218
 20
520.8028790354728
 30
0.0
 10
1285.422973632812
 20
522.1968609690666
 30
0.0
 10
1285.308532714844
 20
526.2623898386955
 30
0.0
 10
1285.05078125
 20
535.415099799633
 30
0.0
 10
1285.05078125
 20
544.5850369334221
 30
0.0
 10
1285.308532714844
 20
553.7377468943596
 30
0.0
 10
1285.423095703125
 20
557.8034436106682
 30
0.0
 10
1284.263122558594
 20
559.1977307200432
 30
0.0
 10
1280.020568847656
 20
559.154861152172
 30
0.0
 10
1259.870727539062
 20
558.9512936472893
 30
0.0
 10
1239.716247558594
 20
559.1881482005119
 30
0.0
 10
1219.566711425781
 20
558.9705731272697
 30
0.0
 10
1215.121765136719
 20
558.9225766062736
 30
0.0
 10
1213.808654785156
 20
560.2939831614494
 30
0.0
 10
1213.948974609375
 20
564.6617504954337
 30
0.0
 10
1214.248229980469
 20
573.9786526560783
 30
0.0
 10
1214.273620605468
 20
583.3201596140861
 30
0.0
 10
1213.941345214843
 20
592.6348225474357
 30
0.0
 10
1213.776977539062
 20
597.2412030100822
 30
0.0
 10
1215.211975097656
 20
598.5430790781975
 30
0.0
 10
1219.8193359375
 20
598.5253826975822
 30
0.0
 10
1262.787292480469
 20
598.3603474497795
 30
0.0
 10
1305.756164550781
 20
598.418330848217
 30
0.0
 10
1348.724731445312
 20
598.4358708262443
 30
0.0
 10
1357.536254882812
 20
598.439471900463
 30
0.0
 10
1356.511596679687
 20
597.6155011057853
 30
0.0
 10
1356.604858398437
 20
606.0734059214592
 30
0.0
 10
1356.718566894531
 20
616.3824688792228
 30
0.0
 10
1356.86669921875
 20
626.6911522746085
 30
0.0
 10
1357.0
 20
636.999999821186
 30
0.0
 10
1366.0
 20
636.9999997019768
 30
0.0
 10
1375.0
 20
636.9999997019768
 30
0.0
 10
1384.0
 20
637.0000002980232
 30
0.0
 10
1384.05419921875
 20
634.8415176272392
 30
0.0
 10
1384.155151367187
 20
632.6830422282219
 30
0.0
 10
1384.155517578125
 20
630.5245491862296
 30
0.0
 10
1384.164306640625
 20
577.9887310862541
 30
0.0
 10
1384.170776367187
 20
525.4529187083244
 30
0.0
 10
1384.155151367187
 20
472.9170987010002
 30
0.0
 10
1384.152099609375
 20
462.9447171092033
 30
0.0
 10
1384.054077148437
 20
452.9723660349845
 30
0.0
 10
1384.0
 20
442.9999997019767
 30
0.0
 10
1375.0
 20
442.9999997019767
 30
0.0
 10
1366.0
 20
442.9999997019767
 30
0.0
 10
1357.0
 20
442.9999997019767
 30
0.0
  0
SPLINE
  5
8A
330
7D
100
AcDbEntity
  8
Layer 1
100
AcDbSpline
210
0.0
220
0.0
230
1.0
 70
     9
 71
     3
 72
    38
 73
    34
 74
     0
 42
0.0000000001
 43
0.0000000001
 40
0.0
 40
0.0
 40
0.0
 40
0.0
 40
1.0
 40
1.0
 40
1.0
 40
2.0
 40
2.0
 40
2.0
 40
3.0
 40
3.0
 40
3.0
 40
4.0
 40
4.0
 40
4.0
 40
5.0
 40
5.0
 40
5.0
 40
6.0
 40
6.0
 40
6.0
 40
7.0
 40
7.0
 40
7.0
 40
8.0
 40
8.0
 40
8.0
 40
9.0
 40
9.0
 40
9.0
 40
10.0
 40
10.0
 40
10.0
 40
11.0
 40
11.0
 40
11.0
 40
11.0
 10
1179.0
 20
636.9999997019768
 30
0.0
 10
1179.035583496093
 20
578.3169743418693
 30
0.0
 10
1179.074462890625
 20
519.6339489817619
 30
0.0
 10
1179.101440429687
 20
460.9509274363517
 30
0.0
 10
1179.104187011718
 20
454.9673001170158
 30
0.0
 10
1179.035522460937
 20
448.9836422801017
 30
0.0
 10
1179.0
 20
442.9999997019767
 30
0.0
 10
1146.0
 20
442.9999997019767
 30
0.0
 10
1113.0
 20
442.9999997019767
 30
0.0
 10
1080.0
 20
442.9999997019767
 30
0.0
 10
1080.103942871094
 20
445.3227993845939
 30
0.0
 10
1080.297607421875
 20
447.645568549633
 30
0.0
 10
1080.298522949219
 20
449.9683987498283
 30
0.0
 10
1080.316223144531
 20
497.0918118357658
 30
0.0
 10
1080.305725097656
 20
544.2152325510979
 30
0.0
 10
1080.331237792969
 20
591.3386418223381
 30
0.0
 10
1080.332458496094
 20
593.5750462412833
 30
0.0
 10
1080.613647460937
 20
595.8112942576408
 30
0.0
 10
1080.790100097656
 20
598.4279057383537
 30
0.0
 10
1083.326599121094
 20
598.4279057383537
 30
0.0
 10
1085.304138183594
 20
598.4278981089592
 30
0.0
 10
1087.281677246094
 20
598.4279019236565
 30
0.0
 10
1106.597290039062
 20
598.4279324412345
 30
0.0
 10
1125.914978027344
 20
598.5839611887931
 30
0.0
 10
1145.226989746094
 20
598.3192555308342
 30
0.0
 10
1150.106750488281
 20
598.2523686289787
 30
0.0
 10
1151.914306640625
 20
599.2700764536857
 30
0.0
 10
1151.742553710937
 20
604.5848271250725
 30
0.0
 10
1151.393676757812
 20
615.3758351206779
 30
0.0
 10
1151.866088867187
 20
626.1933886408805
 30
0.0
 10
1152.0
 20
636.999999821186
 30
0.0
 10
1161.0
 20
636.9999997019768
 30
0.0
 10
1170.0
 20
636.9999997019768
 30
0.0
 10
1179.0
 20
636.9999997019768
 30
0.0
  0
SPLINE
  5
8B
330
7D
100
AcDbEntity
  8
Layer 1
100
AcDbSpline
210
0.0
220
0.0
230
1.0
 70
     9
 71
     3
 72
    35
 73
    31
 74
     0
 42
0.0000000001
 43
0.0000000001
 40
0.0
 40
0.0
 40
0.0
 40
0.0
 40
1.0
 40
1.0
 40
1.0
 40
2.0
 40
2.0
 40
2.0
 40
3.0
 40
3.0
 40
3.0
 40
4.0
 40
4.0
 40
4.0
 40
5.0
 40
5.0
 40
5.0
 40
6.0
 40
6.0
 40
6.0
 40
7.0
 40
7.0
 40
7.0
 40
8.0
 40
8.0
 40
8.0
 40
9.0
 40
9.0
 40
9.0
 40
10.0
 40
10.0
 40
10.0
 40
10.0
 10
564.0
 20
636.9999994635581
 30
0.0
 10
564.0820617675781
 20
635.5098873972893
 30
0.0
 10
564.235610961914
 20
634.0197891592979
 30
0.0
 10
564.2359008789062
 20
632.5296613574027
 30
0.0
 10
564.2479248046875
 20
570.8432232737541
 30
0.0
 10
564.2479248046875
 20
509.1567837595939
 30
0.0
 10
564.2359008789062
 20
447.4703366160392
 30
0.0
 10
564.235610961914
 20
445.9802090525626
 30
0.0
 10
564.0820617675781
 20
444.4901120066642
 30
0.0
 10
564.0
 20
442.9999997019767
 30
0.0
 10
531.3333282470702
 20
442.9999997019767
 30
0.0
 10
498.6666717529296
 20
442.9999997019767
 30
0.0
 10
466.0
 20
442.9999997019767
 30
0.0
 10
465.8537216186523
 20
444.3121640086173
 30
0.0
 10
465.5801315307617
 20
445.6242825388908
 30
0.0
 10
465.5795440673828
 20
446.9365231394768
 30
0.0
 10
465.5577545166015
 20
495.7457882761955
 30
0.0
 10
465.5579986572266
 20
544.5550763010978
 30
0.0
 10
465.5754547119141
 20
593.3643528819084
 30
0.0
 10
465.5760192871094
 20
594.948230445385
 30
0.0
 10
465.787239074707
 20
596.5320355296134
 30
0.0
 10
465.9359970092773
 20
598.6167370676994
 30
0.0
 10
489.7570648193359
 20
598.6167370676994
 30
0.0
 10
513.0105590820313
 20
598.6167370676994
 30
0.0
 10
537.0
 20
598.6167370676994
 30
0.0
 10
537.0
 20
611.7720734477043
 30
0.0
 10
537.0
 20
624.3860365748405
 30
0.0
 10
537.0
 20
636.9999997019768
 30
0.0
 10
546.0
 20
636.9999997019768
 30
0.0
 10
555.0
 20
636.9999997019768
 30
0.0
 10
564.0
 20
636.9999994635581
 30
0.0
  0
SPLINE
  5
8C
330
7D
100
AcDbEntity
  8
Layer 1
100
AcDbSpline
210
0.0
220
0.0
230
1.0
 70
     9
 71
     3
 72
    53
 73
    49
 74
     0
 42
0.0000000001
 43
0.0000000001
 40
0.0
 40
0.0
 40
0.0
 40
0.0
 40
1.0
 40
1.0
 40
1.0
 40
2.0
 40
2.0
 40
2.0
 40
3.0
 40
3.0
 40
3.0
 40
4.0
 40
4.0
 40
4.0
 40
5.0
 40
5.0
 40
5.0
 40
6.0
 40
6.0
 40
6.0
 40
7.0
 40
7.0
 40
7.0
 40
8.0
 40
8.0
 40
8.0
 40
9.0
 40
9.0
 40
9.0
 40
10.0
 40
10.0
 40
10.0
 40
11.0
 40
11.0
 40
11.0
 40
12.0
 40
12.0
 40
12.0
 40
13.0
 40
13.0
 40
13.0
 40
14.0
 40
14.0
 40
14.0
 40
15.0
 40
15.0
 40
15.0
 40
16.0
 40
16.0
 40
16.0
 40
16.0
 10
1384.0
 20
442.9999997019767
 30
0.0
 10
1384.054077148437
 20
452.9723660349845
 30
0.0
 10
1384.152099609375
 20
462.9447171092033
 30
0.0
 10
1384.155151367187
 20
472.9170987010002
 30
0.0
 10
1384.170776367187
 20
525.4529187083244
 30
0.0
 10
1384.164306640625
 20
577.9887310862541
 30
0.0
 10
1384.155517578125
 20
630.5245491862296
 30
0.0
 10
1384.155151367187
 20
632.6830422282219
 30
0.0
 10
1384.05419921875
 20
634.8415176272392
 30
0.0
 10
1384.0
 20
637.0000002980232
 30
0.0
 10
1431.333374023437
 20
636.9999997019768
 30
0.0
 10
1478.666625976562
 20
636.9999997019768
 30
0.0
 10
1526.0
 20
636.999999821186
 30
0.0
 10
1525.975708007812
 20
623.975589454174
 30
0.0
 10
1525.951538085937
 20
610.9511792063713
 30
0.0
 10
1525.92724609375
 20
597.9267689585685
 30
0.0
 10
1525.927368164062
 20
597.9267689585685
 30
0.0
 10
1526.063232421875
 20
598.0628125071525
 30
0.0
 10
1526.063232421875
 20
598.0628163218498
 30
0.0
 10
1525.41064453125
 20
598.1763569712638
 30
0.0
 10
1524.758178710937
 20
598.3888012766838
 30
0.0
 10
1524.10546875
 20
598.3892399668693
 30
0.0
 10
1490.452514648437
 20
598.4117466807365
 30
0.0
 10
1456.799438476562
 20
598.3545185923576
 30
0.0
 10
1423.147094726562
 20
598.4961621165275
 30
0.0
 10
1418.640991210937
 20
598.5151249766349
 30
0.0
 10
1419.017700195312
 20
595.88983887434
 30
0.0
 10
1419.01904296875
 20
592.9783703684806
 30
0.0
 10
1419.034545898437
 20
557.6594006419181
 30
0.0
 10
1419.107543945312
 20
522.34003418684
 30
0.0
 10
1418.931762695312
 20
487.0219418406486
 30
0.0
 10
1418.909301757812
 20
482.5150296092033
 30
0.0
 10
1420.357666015625
 20
481.4602352976798
 30
0.0
 10
1424.646850585937
 20
481.4829556345939
 30
0.0
 10
1455.966552734375
 20
481.6488644480705
 30
0.0
 10
1487.28759765625
 20
481.5638882517815
 30
0.0
 10
1518.608154296875
 20
481.5878140330315
 30
0.0
 10
1521.093383789062
 20
481.5897213816643
 30
0.0
 10
1523.578247070312
 20
481.815490424633
 30
0.0
 10
1526.063354492187
 20
481.9372250437736
 30
0.0
 10
1526.063354492187
 20
481.9372250437736
 30
0.0
 10
1525.927368164062
 20
482.0732266306877
 30
0.0
 10
1525.927368164062
 20
482.0732266306877
 30
0.0
 10
1525.951538085937
 20
469.0488125681877
 30
0.0
 10
1525.975830078125
 20
456.0244137644767
 30
0.0
 10
1526.0
 20
442.9999997019767
 30
0.0
 10
1478.666625976562
 20
442.9999997019767
 30
0.0
 10
1431.333374023437
 20
442.9999997019767
 30
0.0
 10
1384.0
 20
442.9999997019767
 30
0.0
  0
HATCH
  5
8D
330
7D
100
AcDbEntity
  8
Layer 1
 62
     7
440
 33554687
100
AcDbHatch
 10
0.0
 20
0.0
 30
0.0
210
0.0
220
0.0
230
1.0
  2
SOLID
 70
     1
 71
     1
 91
        1
 92
        1
 93
        1
 72
     4
 94
        3
 73
     0
 74
     0
 95
       53
 96
       49
 40
0.0
 40
0.0
 40
0.0
 40
0.0
 40
1.0
 40
1.0
 40
1.0
 40
2.0
 40
2.0
 40
2.0
 40
3.0
 40
3.0
 40
3.0
 40
4.0
 40
4.0
 40
4.0
 40
5.0
 40
5.0
 40
5.0
 40
6.0
 40
6.0
 40
6.0
 40
7.0
 40
7.0
 40
7.0
 40
8.0
 40
8.0
 40
8.0
 40
9.0
 40
9.0
 40
9.0
 40
10.0
 40
10.0
 40
10.0
 40
11.0
 40
11.0
 40
11.0
 40
12.0
 40
12.0
 40
12.0
 40
13.0
 40
13.0
 40
13.0
 40
14.0
 40
14.0
 40
14.0
 40
15.0
 40
15.0
 40
15.0
 40
16.0
 40
16.0
 40
16.0
 40
16.0
 10
1384.0
 20
442.9999997019767
 10
1384.054077148437
 20
452.9723660349845
 10
1384.152099609375
 20
462.9447171092033
 10
1384.155151367187
 20
472.9170987010002
 10
1384.170776367187
 20
525.4529187083244
 10
1384.164306640625
 20
577.9887310862541
 10
1384.155517578125
 20
630.5245491862296
 10
1384.155151367187
 20
632.6830422282219
 10
1384.05419921875
 20
634.8415176272392
 10
1384.0
 20
637.0000002980232
 10
1431.333374023437
 20
636.9999997019768
 10
1478.666625976562
 20
636.9999997019768
 10
1526.0
 20
636.999999821186
 10
1525.975708007812
 20
623.975589454174
 10
1525.951538085937
 20
610.9511792063713
 10
1525.92724609375
 20
597.9267689585685
 10
1525.927368164062
 20
597.9267689585685
 10
1526.063232421875
 20
598.0628125071525
 10
1526.063232421875
 20
598.0628163218498
 10
1525.41064453125
 20
598.1763569712638
 10
1524.758178710937
 20
598.3888012766838
 10
1524.10546875
 20
598.3892399668693
 10
1490.452514648437
 20
598.4117466807365
 10
1456.799438476562
 20
598.3545185923576
 10
1423.147094726562
 20
598.4961621165275
 10
1418.640991210937
 20
598.5151249766349
 10
1419.017700195312
 20
595.88983887434
 10
1419.01904296875
 20
592.9783703684806
 10
1419.034545898437
 20
557.6594006419181
 10
1419.107543945312
 20
522.34003418684
 10
1418.931762695312
 20
487.0219418406486
 10
1418.909301757812
 20
482.5150296092033
 10
1420.357666015625
 20
481.4602352976798
 10
1424.646850585937
 20
481.4829556345939
 10
1455.966552734375
 20
481.6488644480705
 10
1487.28759765625
 20
481.5638882517815
 10
1518.608154296875
 20
481.5878140330315
 10
1521.093383789062
 20
481.5897213816643
 10
1523.578247070312
 20
481.815490424633
 10
1526.063354492187
 20
481.9372250437736
 10
1526.063354492187
 20
481.9372250437736
 10
1525.927368164062
 20
482.0732266306877
 10
1525.927368164062
 20
482.0732266306877
 10
1525.951538085937
 20
469.0488125681877
 10
1525.975830078125
 20
456.0244137644767
 10
1526.0
 20
442.9999997019767
 10
1478.666625976562
 20
442.9999997019767
 10
1431.333374023437
 20
442.9999997019767
 10
1384.0
 20
442.9999997019767
 97
        0
 97
        1
330
8C
 75
     2
 76
     1
 98
        1
 10
0.0
 20
0.0
450
        0
451
        0
460
0.0
461
0.0
452
        0
462
0.0
453
        0
470

  0
SPLINE
  5
8E
330
7D
100
AcDbEntity
  8
Layer 1
100
AcDbSpline
210
0.0
220
0.0
230
1.0
 70
     9
 71
     3
 72
    47
 73
    43
 74
     0
 42
0.0000000001
 43
0.0000000001
 40
0.0
 40
0.0
 40
0.0
 40
0.0
 40
1.0
 40
1.0
 40
1.0
 40
2.0
 40
2.0
 40
2.0
 40
3.0
 40
3.0
 40
3.0
 40
4.0
 40
4.0
 40
4.0
 40
5.0
 40
5.0
 40
5.0
 40
6.0
 40
6.0
 40
6.0
 40
7.0
 40
7.0
 40
7.0
 40
8.0
 40
8.0
 40
8.0
 40
9.0
 40
9.0
 40
9.0
 40
10.0
 40
10.0
 40
10.0
 40
11.0
 40
11.0
 40
11.0
 40
12.0
 40
12.0
 40
12.0
 40
13.0
 40
13.0
 40
13.0
 40
14.0
 40
14.0
 40
14.0
 40
14.0
 10
537.0
 20
636.9999997019768
 30
0.0
 10
537.0
 20
624.3860365748405
 30
0.0
 10
537.0
 20
611.7720734477043
 30
0.0
 10
537.0
 20
598.6167370676994
 30
0.0
 10
513.0105590820313
 20
598.6167370676994
 30
0.0
 10
489.7570648193359
 20
598.6167370676994
 30
0.0
 10
465.9359970092773
 20
598.6167370676994
 30
0.0
 10
465.787239074707
 20
596.5320355296134
 30
0.0
 10
465.5760192871094
 20
594.948230445385
 30
0.0
 10
465.5754547119141
 20
593.3643528819084
 30
0.0
 10
465.5579986572266
 20
544.5550763010978
 30
0.0
 10
465.5577545166015
 20
495.7457882761955
 30
0.0
 10
465.5795440673828
 20
446.9365231394768
 30
0.0
 10
465.5801315307617
 20
445.6242825388908
 30
0.0
 10
465.8537216186523
 20
444.3121640086173
 30
0.0
 10
466.0
 20
442.9999997019767
 30
0.0
 10
454.0
 20
442.9999997019767
 30
0.0
 10
442.0
 20
442.9999997019767
 30
0.0
 10
430.0
 20
442.9999997019767
 30
0.0
 10
430.1459350585937
 20
444.4764859080314
 30
0.0
 10
430.4187545776366
 20
445.9528958201408
 30
0.0
 10
430.4194335937499
 20
447.4294583201408
 30
0.0
 10
430.4416275024414
 20
495.9887844920158
 30
0.0
 10
430.4407730102538
 20
544.5481259226799
 30
0.0
 10
430.424201965332
 20
593.1074635386466
 30
0.0
 10
430.4236526489257
 20
594.7091366648674
 30
0.0
 10
430.224136352539
 20
596.3107487559319
 30
0.0
 10
430.083023071289
 20
598.4275776743888
 30
0.0
 10
427.8793411254882
 20
598.4275776743888
 30
0.0
 10
426.0902023315429
 20
598.4275624155998
 30
0.0
 10
424.3010711669922
 20
598.4275776743888
 30
0.0
 10
409.5004501342773
 20
598.4277150034905
 30
0.0
 10
394.699649810791
 20
598.4706303477287
 30
0.0
 10
379.8992881774903
 20
598.4085690379142
 30
0.0
 10
373.265736579895
 20
598.3807560801506
 30
0.0
 10
366.633068561554
 20
598.1426655650139
 30
0.0
 10
360.0
 20
597.9999997019767
 30
0.0
 10
360.0
 20
610.9999997019768
 30
0.0
 10
360.0
 20
623.9999977946281
 30
0.0
 10
360.0
 20
636.9999985098838
 30
0.0
 10
419.0
 20
636.9999997019768
 30
0.0
 10
478.0
 20
636.9999997019768
 30
0.0
 10
537.0
 20
636.9999997019768
 30
0.0
  0
HATCH
  5
8F
330
7D
100
AcDbEntity
  8
Layer 1
 62
     7
440
 33554687
100
AcDbHatch
 10
0.0
 20
0.0
 30
0.0
210
0.0
220
0.0
230
1.0
  2
SOLID
 70
     1
 71
     1
 91
        1
 92
        1
 93
        1
 72
     4
 94
        3
 73
     0
 74
     0
 95
       47
 96
       43
 40
0.0
 40
0.0
 40
0.0
 40
0.0
 40
1.0
 40
1.0
 40
1.0
 40
2.0
 40
2.0
 40
2.0
 40
3.0
 40
3.0
 40
3.0
 40
4.0
 40
4.0
 40
4.0
 40
5.0
 40
5.0
 40
5.0
 40
6.0
 40
6.0
 40
6.0
 40
7.0
 40
7.0
 40
7.0
 40
8.0
 40
8.0
 40
8.0
 40
9.0
 40
9.0
 40
9.0
 40
10.0
 40
10.0
 40
10.0
 40
11.0
 40
11.0
 40
11.0
 40
12.0
 40
12.0
 40
12.0
 40
13.0
 40
13.0
 40
13.0
 40
14.0
 40
14.0
 40
14.0
 40
14.0
 10
537.0
 20
636.9999997019768
 10
537.0
 20
624.3860365748405
 10
537.0
 20
611.7720734477043
 10
537.0
 20
598.6167370676994
 10
513.0105590820313
 20
598.6167370676994
 10
489.7570648193359
 20
598.6167370676994
 10
465.9359970092773
 20
598.6167370676994
 10
465.787239074707
 20
596.5320355296134
 10
465.5760192871094
 20
594.948230445385
 10
465.5754547119141
 20
593.3643528819084
 10
465.5579986572266
 20
544.5550763010978
 10
465.5577545166015
 20
495.7457882761955
 10
465.5795440673828
 20
446.9365231394768
 10
465.5801315307617
 20
445.6242825388908
 10
465.8537216186523
 20
444.3121640086173
 10
466.0
 20
442.9999997019767
 10
454.0
 20
442.9999997019767
 10
442.0
 20
442.9999997019767
 10
430.0
 20
442.9999997019767
 10
430.1459350585937
 20
444.4764859080314
 10
430.4187545776366
 20
445.9528958201408
 10
430.4194335937499
 20
447.4294583201408
 10
430.4416275024414
 20
495.9887844920158
 10
430.4407730102538
 20
544.5481259226799
 10
430.424201965332
 20
593.1074635386466
 10
430.4236526489257
 20
594.7091366648674
 10
430.224136352539
 20
596.3107487559319
 10
430.083023071289
 20
598.4275776743888
 10
427.8793411254882
 20
598.4275776743888
 10
426.0902023315429
 20
598.4275624155998
 10
424.3010711669922
 20
598.4275776743888
 10
409.5004501342773
 20
598.4277150034905
 10
394.699649810791
 20
598.4706303477287
 10
379.8992881774903
 20
598.4085690379142
 10
373.265736579895
 20
598.3807560801506
 10
366.633068561554
 20
598.1426655650139
 10
360.0
 20
597.9999997019767
 10
360.0
 20
610.9999997019768
 10
360.0
 20
623.9999977946281
 10
360.0
 20
636.9999985098838
 10
419.0
 20
636.9999997019768
 10
478.0
 20
636.9999997019768
 10
537.0
 20
636.9999997019768
 97
        0
 97
        1
330
8E
 75
     2
 76
     1
 98
        1
 10
0.0
 20
0.0
450
        0
451
        0
460
0.0
461
0.0
452
        0
462
0.0
453
        0
470

  0
SPLINE
  5
90
330
7D
100
AcDbEntity
  8
Layer 1
100
AcDbSpline
210
0.0
220
0.0
230
1.0
 70
     9
 71
     3
 72
    50
 73
    46
 74
     0
 42
0.0000000001
 43
0.0000000001
 40
0.0
 40
0.0
 40
0.0
 40
0.0
 40
1.0
 40
1.0
 40
1.0
 40
2.0
 40
2.0
 40
2.0
 40
3.0
 40
3.0
 40
3.0
 40
4.0
 40
4.0
 40
4.0
 40
5.0
 40
5.0
 40
5.0
 40
6.0
 40
6.0
 40
6.0
 40
7.0
 40
7.0
 40
7.0
 40
8.0
 40
8.0
 40
8.0
 40
9.0
 40
9.0
 40
9.0
 40
10.0
 40
10.0
 40
10.0
 40
11.0
 40
11.0
 40
11.0
 40
12.0
 40
12.0
 40
12.0
 40
13.0
 40
13.0
 40
13.0
 40
14.0
 40
14.0
 40
14.0
 40
15.0
 40
15.0
 40
15.0
 40
15.0
 10
1152.0
 20
636.999999821186
 30
0.0
 10
1151.866088867187
 20
626.1933886408805
 30
0.0
 10
1151.393676757812
 20
615.3758351206779
 30
0.0
 10
1151.742553710937
 20
604.5848271250725
 30
0.0
 10
1151.914306640625
 20
599.2700764536857
 30
0.0
 10
1150.106750488281
 20
598.2523686289787
 30
0.0
 10
1145.226989746094
 20
598.3192555308342
 30
0.0
 10
1125.914978027344
 20
598.5839611887931
 30
0.0
 10
1106.597290039062
 20
598.4279324412345
 30
0.0
 10
1087.281677246094
 20
598.4279019236565
 30
0.0
 10
1085.304138183594
 20
598.4278981089592
 30
0.0
 10
1083.326599121094
 20
598.4279057383537
 30
0.0
 10
1080.790100097656
 20
598.4279057383537
 30
0.0
 10
1080.613647460937
 20
595.8112942576408
 30
0.0
 10
1080.332458496094
 20
593.5750462412833
 30
0.0
 10
1080.331237792969
 20
591.3386418223381
 30
0.0
 10
1080.305725097656
 20
544.2152325510979
 30
0.0
 10
1080.316223144531
 20
497.0918118357658
 30
0.0
 10
1080.298522949219
 20
449.9683987498283
 30
0.0
 10
1080.297607421875
 20
447.645568549633
 30
0.0
 10
1080.103942871094
 20
445.3227993845939
 30
0.0
 10
1080.0
 20
442.9999997019767
 30
0.0
 10
1068.333312988281
 20
442.9999997019767
 30
0.0
 10
1056.666687011718
 20
442.9999997019767
 30
0.0
 10
1045.0
 20
442.9999997019767
 30
0.0
 10
1045.091186523437
 20
444.8230130076408
 30
0.0
 10
1045.261413574219
 20
446.6460110545158
 30
0.0
 10
1045.262023925781
 20
448.469054877758
 30
0.0
 10
1045.276611328125
 20
496.2394863963127
 30
0.0
 10
1045.274780273437
 20
544.0099255442619
 30
0.0
 10
1045.272216796875
 20
591.7803646922111
 30
0.0
 10
1045.271911621094
 20
598.4190098643303
 30
0.0
 10
1045.263366699219
 20
598.4254147410393
 30
0.0
 10
1038.444580078125
 20
598.4266697764397
 30
0.0
 10
1019.136657714843
 20
598.4302136301994
 30
0.0
 10
999.8287963867188
 20
598.4202420115471
 30
0.0
 10
980.5208740234375
 20
598.4399906992912
 30
0.0
 10
978.5714721679687
 20
598.4419857859611
 30
0.0
 10
976.6221313476561
 20
598.6098400950432
 30
0.0
 10
974.0
 20
598.7320896983146
 30
0.0
 10
974.0
 20
611.7836300730705
 30
0.0
 10
974.0
 20
624.3918148875236
 30
0.0
 10
974.0
 20
636.9999997019768
 30
0.0
 10
1033.333312988281
 20
636.9999997019768
 30
0.0
 10
1092.666687011718
 20
636.9999997019768
 30
0.0
 10
1152.0
 20
636.999999821186
 30
0.0
  0
HATCH
  5
91
330
7D
100
AcDbEntity
  8
Layer 1
 62
     7
440
 33554687
100
AcDbHatch
 10
0.0
 20
0.0
 30
0.0
210
0.0
220
0.0
230
1.0
  2
SOLID
 70
     1
 71
     1
 91
        1
 92
        1
 93
        1
 72
     4
 94
        3
 73
     0
 74
     0
 95
       50
 96
       46
 40
0.0
 40
0.0
 40
0.0
 40
0.0
 40
1.0
 40
1.0
 40
1.0
 40
2.0
 40
2.0
 40
2.0
 40
3.0
 40
3.0
 40
3.0
 40
4.0
 40
4.0
 40
4.0
 40
5.0
 40
5.0
 40
5.0
 40
6.0
 40
6.0
 40
6.0
 40
7.0
 40
7.0
 40
7.0
 40
8.0
 40
8.0
 40
8.0
 40
9.0
 40
9.0
 40
9.0
 40
10.0
 40
10.0
 40
10.0
 40
11.0
 40
11.0
 40
11.0
 40
12.0
 40
12.0
 40
12.0
 40
13.0
 40
13.0
 40
13.0
 40
14.0
 40
14.0
 40
14.0
 40
15.0
 40
15.0
 40
15.0
 40
15.0
 10
1152.0
 20
636.999999821186
 10
1151.866088867187
 20
626.1933886408805
 10
1151.393676757812
 20
615.3758351206779
 10
1151.742553710937
 20
604.5848271250725
 10
1151.914306640625
 20
599.2700764536857
 10
1150.106750488281
 20
598.2523686289787
 10
1145.226989746094
 20
598.3192555308342
 10
1125.914978027344
 20
598.5839611887931
 10
1106.597290039062
 20
598.4279324412345
 10
1087.281677246094
 20
598.4279019236565
 10
1085.304138183594
 20
598.4278981089592
 10
1083.326599121094
 20
598.4279057383537
 10
1080.790100097656
 20
598.4279057383537
 10
1080.613647460937
 20
595.8112942576408
 10
1080.332458496094
 20
593.5750462412833
 10
1080.331237792969
 20
591.3386418223381
 10
1080.305725097656
 20
544.2152325510979
 10
1080.316223144531
 20
497.0918118357658
 10
1080.298522949219
 20
449.9683987498283
 10
1080.297607421875
 20
447.645568549633
 10
1080.103942871094
 20
445.3227993845939
 10
1080.0
 20
442.9999997019767
 10
1068.333312988281
 20
442.9999997019767
 10
1056.666687011718
 20
442.9999997019767
 10
1045.0
 20
442.9999997019767
 10
1045.091186523437
 20
444.8230130076408
 10
1045.261413574219
 20
446.6460110545158
 10
1045.262023925781
 20
448.469054877758
 10
1045.276611328125
 20
496.2394863963127
 10
1045.274780273437
 20
544.0099255442619
 10
1045.272216796875
 20
591.7803646922111
 10
1045.271911621094
 20
598.4190098643303
 10
1045.263366699219
 20
598.4254147410393
 10
1038.444580078125
 20
598.4266697764397
 10
1019.136657714843
 20
598.4302136301994
 10
999.8287963867188
 20
598.4202420115471
 10
980.5208740234375
 20
598.4399906992912
 10
978.5714721679687
 20
598.4419857859611
 10
976.6221313476561
 20
598.6098400950432
 10
974.0
 20
598.7320896983146
 10
974.0
 20
611.7836300730705
 10
974.0
 20
624.3918148875236
 10
974.0
 20
636.9999997019768
 10
1033.333312988281
 20
636.9999997019768
 10
1092.666687011718
 20
636.9999997019768
 10
1152.0
 20
636.999999821186
 97
        0
 97
        1
330
90
 75
     2
 76
     1
 98
        1
 10
0.0
 20
0.0
450
        0
451
        0
460
0.0
461
0.0
452
        0
462
0.0
453
        0
470

  0
SPLINE
  5
92
330
7D
100
AcDbEntity
  8
Layer 1
100
AcDbSpline
210
0.0
220
0.0
230
1.0
 70
     9
 71
     3
 72
    29
 73
    25
 74
     0
 42
0.0000000001
 43
0.0000000001
 40
0.0
 40
0.0
 40
0.0
 40
0.0
 40
1.0
 40
1.0
 40
1.0
 40
2.0
 40
2.0
 40
2.0
 40
3.0
 40
3.0
 40
3.0
 40
4.0
 40
4.0
 40
4.0
 40
5.0
 40
5.0
 40
5.0
 40
6.0
 40
6.0
 40
6.0
 40
7.0
 40
7.0
 40
7.0
 40
8.0
 40
8.0
 40
8.0
 40
8.0
 10
360.0
 20
597.9999997019767
 30
0.0
 10
366.633068561554
 20
598.1426655650139
 30
0.0
 10
373.265736579895
 20
598.3807560801506
 30
0.0
 10
379.8992881774903
 20
598.4085690379142
 30
0.0
 10
394.699649810791
 20
598.4706303477287
 30
0.0
 10
409.5004501342773
 20
598.4277150034905
 30
0.0
 10
424.3010711669922
 20
598.4275776743888
 30
0.0
 10
426.0902023315429
 20
598.4275624155998
 30
0.0
 10
427.8793411254882
 20
598.4275776743888
 30
0.0
 10
430.083023071289
 20
598.4275776743888
 30
0.0
 10
430.224136352539
 20
596.3107487559319
 30
0.0
 10
430.4236526489257
 20
594.7091366648674
 30
0.0
 10
430.424201965332
 20
593.1074635386466
 30
0.0
 10
430.4407730102538
 20
544.5481259226799
 30
0.0
 10
430.4416275024414
 20
495.9887844920158
 30
0.0
 10
430.4194335937499
 20
447.4294583201408
 30
0.0
 10
430.4187545776366
 20
445.9528958201408
 30
0.0
 10
430.1459350585937
 20
444.4764859080314
 30
0.0
 10
430.0
 20
442.9999997019767
 30
0.0
 10
406.7183952331543
 20
442.9999997019767
 30
0.0
 10
383.4367923736572
 20
442.9999997019767
 30
0.0
 10
360.0
 20
442.9999997019767
 30
0.0
 10
360.0
 20
494.666564643383
 30
0.0
 10
360.0
 20
546.3332821726798
 30
0.0
 10
360.0
 20
597.9999997019767
 30
0.0
  0
SPLINE
  5
93
330
7D
100
AcDbEntity
  8
Layer 1
100
AcDbSpline
210
0.0
220
0.0
230
1.0
 70
     9
 71
     3
 72
    29
 73
    25
 74
     0
 42
0.0000000001
 43
0.0000000001
 40
0.0
 40
0.0
 40
0.0
 40
0.0
 40
1.0
 40
1.0
 40
1.0
 40
2.0
 40
2.0
 40
2.0
 40
3.0
 40
3.0
 40
3.0
 40
4.0
 40
4.0
 40
4.0
 40
5.0
 40
5.0
 40
5.0
 40
6.0
 40
6.0
 40
6.0
 40
7.0
 40
7.0
 40
7.0
 40
8.0
 40
8.0
 40
8.0
 40
8.0
 10
1560.0
 20
597.9999997019767
 30
0.0
 10
1560.0
 20
559.3333355784416
 30
0.0
 10
1560.0
 20
520.6666638255119
 30
0.0
 10
1560.0
 20
481.9999997019768
 30
0.0
 10
1548.642456054687
 20
482.0244137644768
 30
0.0
 10
1537.284912109375
 20
482.0488278269768
 30
0.0
 10
1525.927368164062
 20
482.0732266306877
 30
0.0
 10
1525.927368164062
 20
482.0732266306877
 30
0.0
 10
1526.063354492187
 20
481.9372250437736
 30
0.0
 10
1526.063354492187
 20
481.9372250437736
 30
0.0
 10
1526.151977539062
 20
482.2573239207267
 30
0.0
 10
1526.317993164062
 20
482.5774075388908
 30
0.0
 10
1526.318115234375
 20
482.8975674510002
 30
0.0
 10
1526.329711914062
 20
520.9658886790276
 30
0.0
 10
1526.329711914062
 20
559.0342175364494
 30
0.0
 10
1526.318237304687
 20
597.1025235056877
 30
0.0
 10
1526.318115234375
 20
597.4226414561272
 30
0.0
 10
1526.15185546875
 20
597.7427098155021
 30
0.0
 10
1526.063232421875
 20
598.062804877758
 30
0.0
 10
1526.063232421875
 20
598.0628125071525
 30
0.0
 10
1525.927368164062
 20
597.9267689585685
 30
0.0
 10
1525.927368164062
 20
597.9267727732658
 30
0.0
 10
1537.284912109375
 20
597.9511830210685
 30
0.0
 10
1548.642456054687
 20
597.9755932688712
 30
0.0
 10
1560.0
 20
597.9999997019767
 30
0.0
  0
HATCH
  5
94
330
7D
100
AcDbEntity
  8
Layer 1
 62
     7
440
 33554687
100
AcDbHatch
 10
0.0
 20
0.0
 30
0.0
210
0.0
220
0.0
230
1.0
  2
SOLID
 70
     1
 71
     1
 91
        1
 92
        1
 93
        1
 72
     4
 94
        3
 73
     0
 74
     0
 95
       29
 96
       25
 40
0.0
 40
0.0
 40
0.0
 40
0.0
 40
1.0
 40
1.0
 40
1.0
 40
2.0
 40
2.0
 40
2.0
 40
3.0
 40
3.0
 40
3.0
 40
4.0
 40
4.0
 40
4.0
 40
5.0
 40
5.0
 40
5.0
 40
6.0
 40
6.0
 40
6.0
 40
7.0
 40
7.0
 40
7.0
 40
8.0
 40
8.0
 40
8.0
 40
8.0
 10
1560.0
 20
597.9999997019767
 10
1560.0
 20
559.3333355784416
 10
1560.0
 20
520.6666638255119
 10
1560.0
 20
481.9999997019768
 10
1548.642456054687
 20
482.0244137644768
 10
1537.284912109375
 20
482.0488278269768
 10
1525.927368164062
 20
482.0732266306877
 10
1525.927368164062
 20
482.0732266306877
 10
1526.063354492187
 20
481.9372250437736
 10
1526.063354492187
 20
481.9372250437736
 10
1526.151977539062
 20
482.2573239207267
 10
1526.317993164062
 20
482.5774075388908
 10
1526.318115234375
 20
482.8975674510002
 10
1526.329711914062
 20
520.9658886790276
 10
1526.329711914062
 20
559.0342175364494
 10
1526.318237304687
 20
597.1025235056877
 10
1526.318115234375
 20
597.4226414561272
 10
1526.15185546875
 20
597.7427098155021
 10
1526.063232421875
 20
598.062804877758
 10
1526.063232421875
 20
598.0628125071525
 10
1525.927368164062
 20
597.9267689585685
 10
1525.927368164062
 20
597.9267727732658
 10
1537.284912109375
 20
597.9511830210685
 10
1548.642456054687
 20
597.9755932688712
 10
1560.0
 20
597.9999997019767
 97
        0
 97
        1
330
93
 75
     2
 76
     1
 98
        1
 10
0.0
 20
0.0
450
        0
451
        0
460
0.0
461
0.0
452
        0
462
0.0
453
        0
470

  0
SPLINE
  5
95
330
7D
100
AcDbEntity
  8
Layer 1
100
AcDbSpline
210
0.0
220
0.0
230
1.0
 70
     9
 71
     3
 72
    17
 73
    13
 74
     0
 42
0.0000000001
 43
0.0000000001
 40
0.0
 40
0.0
 40
0.0
 40
0.0
 40
1.0
 40
1.0
 40
1.0
 40
2.0
 40
2.0
 40
2.0
 40
3.0
 40
3.0
 40
3.0
 40
4.0
 40
4.0
 40
4.0
 40
4.0
 10
1560.0
 20
597.9999997019767
 30
0.0
 10
1548.642456054687
 20
597.9755932688712
 30
0.0
 10
1537.284912109375
 20
597.9511830210685
 30
0.0
 10
1525.92724609375
 20
597.9267727732658
 30
0.0
 10
1525.951538085937
 20
610.9511792063713
 30
0.0
 10
1525.975708007812
 20
623.975589454174
 30
0.0
 10
1526.0
 20
636.999999821186
 30
0.0
 10
1537.333374023437
 20
636.9999997019768
 30
0.0
 10
1548.666625976562
 20
636.9999997019768
 30
0.0
 10
1560.0
 20
636.9999997019768
 30
0.0
 10
1560.0
 20
623.9999997019768
 30
0.0
 10
1560.0
 20
610.9999997019768
 30
0.0
 10
1560.0
 20
597.9999997019767
 30
0.0
  0
SPLINE
  5
96
330
7D
100
AcDbEntity
  8
Layer 1
100
AcDbSpline
210
0.0
220
0.0
230
1.0
 70
     9
 71
     3
 72
    17
 73
    13
 74
     0
 42
0.0000000001
 43
0.0000000001
 40
0.0
 40
0.0
 40
0.0
 40
0.0
 40
1.0
 40
1.0
 40
1.0
 40
2.0
 40
2.0
 40
2.0
 40
3.0
 40
3.0
 40
3.0
 40
4.0
 40
4.0
 40
4.0
 40
4.0
 10
1525.927368164062
 20
482.0732266306877
 30
0.0
 10
1537.284912109375
 20
482.0488278269768
 30
0.0
 10
1548.642456054687
 20
482.0244137644768
 30
0.0
 10
1560.0
 20
481.9999997019768
 30
0.0
 10
1560.0
 20
468.9999997019767
 30
0.0
 10
1560.0
 20
455.9999997019767
 30
0.0
 10
1560.0
 20
442.9999997019767
 30
0.0
 10
1548.666625976562
 20
442.9999997019767
 30
0.0
 10
1537.333374023437
 20
442.9999997019767
 30
0.0
 10
1526.0
 20
442.9999997019767
 30
0.0
 10
1525.975830078125
 20
456.0244137644767
 30
0.0
 10
1525.951538085937
 20
469.0488125681877
 30
0.0
 10
1525.927368164062
 20
482.0732266306877
 30
0.0
  0
SPLINE
  5
97
330
7D
100
AcDbEntity
  8
Layer 1
100
AcDbSpline
210
0.0
220
0.0
230
1.0
 70
     9
 71
     3
 72
    35
 73
    31
 74
     0
 42
0.0000000001
 43
0.0000000001
 40
0.0
 40
0.0
 40
0.0
 40
0.0
 40
1.0
 40
1.0
 40
1.0
 40
2.0
 40
2.0
 40
2.0
 40
3.0
 40
3.0
 40
3.0
 40
4.0
 40
4.0
 40
4.0
 40
5.0
 40
5.0
 40
5.0
 40
6.0
 40
6.0
 40
6.0
 40
7.0
 40
7.0
 40
7.0
 40
8.0
 40
8.0
 40
8.0
 40
9.0
 40
9.0
 40
9.0
 40
10.0
 40
10.0
 40
10.0
 40
10.0
 10
1526.063232421875
 20
598.0628125071525
 30
0.0
 10
1526.15185546875
 20
597.7427098155021
 30
0.0
 10
1526.318115234375
 20
597.4226414561272
 30
0.0
 10
1526.318237304687
 20
597.1025235056877
 30
0.0
 10
1526.329711914062
 20
559.0342175364494
 30
0.0
 10
1526.329711914062
 20
520.9658886790276
 30
0.0
 10
1526.318115234375
 20
482.8975674510002
 30
0.0
 10
1526.317993164062
 20
482.5774075388908
 30
0.0
 10
1526.151977539062
 20
482.2573239207267
 30
0.0
 10
1526.063354492187
 20
481.9372250437736
 30
0.0
 10
1523.578247070312
 20
481.815490424633
 30
0.0
 10
1521.093383789062
 20
481.5897213816643
 30
0.0
 10
1518.608154296875
 20
481.5878140330315
 30
0.0
 10
1487.28759765625
 20
481.5638882517815
 30
0.0
 10
1455.966552734375
 20
481.6488644480705
 30
0.0
 10
1424.646850585937
 20
481.4829556345939
 30
0.0
 10
1420.357666015625
 20
481.4602352976798
 30
0.0
 10
1418.909301757812
 20
482.5150296092033
 30
0.0
 10
1418.931762695312
 20
487.0219418406486
 30
0.0
 10
1419.107543945312
 20
522.34003418684
 30
0.0
 10
1419.034545898437
 20
557.6594006419181
 30
0.0
 10
1419.01904296875
 20
592.9783703684806
 30
0.0
 10
1419.017700195312
 20
595.88983887434
 30
0.0
 10
1418.640991210937
 20
598.5151249766349
 30
0.0
 10
1423.147094726562
 20
598.4961621165275
 30
0.0
 10
1456.799438476562
 20
598.3545185923576
 30
0.0
 10
1490.452514648437
 20
598.4117466807365
 30
0.0
 10
1524.10546875
 20
598.3892399668693
 30
0.0
 10
1524.758178710937
 20
598.3888012766838
 30
0.0
 10
1525.41064453125
 20
598.1763569712638
 30
0.0
 10
1526.063232421875
 20
598.0628125071525
 30
0.0
  0
ENDBLK
  5
80
330
7D
100
AcDbEntity
  8
0
100
AcDbBlockEnd
  0
ENDSEC
  0
SECTION
  2
ENTITIES
  0
INSERT
  5
7A
330
70
100
AcDbEntity
  8
Layer 1
100
AcDbBlockReference
  2
Block_0
 10
0.0
 20
0.0
 30
0.0
  0
ENDSEC
  0
SECTION
  2
OBJECTS
  0
DICTIONARY
  5
C
330
0
100
AcDbDictionary
281
     1
  3
ACAD_COLOR
350
63
  3
ACAD_DETAILVIEWSTYLE
350
6A
  3
ACAD_GROUP
350
D
  3
ACAD_LAYOUT
350
62
  3
ACAD_MATERIAL
350
10
  3
ACAD_MLEADERSTYLE
350
66
  3
ACAD_MLINESTYLE
350
5F
  3
ACAD_PLOTSETTINGS
350
61
  3
ACAD_PLOTSTYLENAME
350
E
  3
ACAD_SCALELIST
350
42
  3
ACAD_SECTIONVIEWSTYLE
350
68
  3
ACAD_TABLESTYLE
350
64
  3
ACAD_VISUALSTYLE
350
29
  3
ACDB_RECOMPOSE_DATA
350
A0
  3
AcDbVariableDictionary
350
98
  0
DICTIONARY
  5
63
102
{ACAD_REACTORS
330
C
102
}
330
C
100
AcDbDictionary
281
     1
  0
DICTIONARY
  5
6A
102
{ACAD_REACTORS
330
C
102
}
330
C
100
AcDbDictionary
281
     1
  3
Imperial24
350
6B
  0
DICTIONARY
  5
D
102
{ACAD_REACTORS
330
C
102
}
330
C
100
AcDbDictionary
281
     1
  0
DICTIONARY
  5
62
102
{ACAD_REACTORS
330
C
102
}
330
C
100
AcDbDictionary
281
     1
  3
Layout1
350
6F
  3
Layout2
350
77
  3
Model
350
73
  0
DICTIONARY
  5
10
102
{ACAD_REACTORS
330
C
102
}
330
C
100
AcDbDictionary
281
     1
  3
ByBlock
350
19
  3
ByLayer
350
11
  3
Global
350
21
  0
DICTIONARY
  5
66
102
{ACAD_REACTORS
330
C
102
}
330
C
100
AcDbDictionary
281
     1
  3
Standard
350
67
  0
DICTIONARY
  5
5F
102
{ACAD_REACTORS
330
C
102
}
330
C
100
AcDbDictionary
281
     1
  3
Standard
350
60
  0
DICTIONARY
  5
61
102
{ACAD_REACTORS
330
C
102
}
330
C
100
AcDbDictionary
281
     1
  0
ACDBDICTIONARYWDFLT
  5
E
102
{ACAD_REACTORS
330
C
102
}
330
C
100
AcDbDictionary
281
     1
  3
Normal
350
F
100
AcDbDictionaryWithDefault
340
F
  0
DICTIONARY
  5
42
102
{ACAD_REACTORS
330
C
102
}
330
C
100
AcDbDictionary
281
     1
  3
A0
350
43
  3
A1
350
44
  3
A2
350
45
  3
A3
350
46
  3
A4
350
47
  3
A5
350
48
  3
A6
350
49
  3
A7
350
4A
  3
A8
350
4B
  3
A9
350
4C
  3
B0
350
4D
  3
B1
350
4E
  3
B2
350
4F
  3
B3
350
50
  3
B4
350
51
  3
B5
350
52
  3
B6
350
53
  0
DICTIONARY
  5
68
102
{ACAD_REACTORS
330
C
102
}
330
C
100
AcDbDictionary
281
     1
  3
Imperial24
350
69
  0
DICTIONARY
  5
64
102
{ACAD_REACTORS
330
C
102
}
330
C
100
AcDbDictionary
281
     1
  3
Standard
350
65
  0
DICTIONARY
  5
29
102
{ACAD_REACTORS
330
C
102
}
330
C
100
AcDbDictionary
281
     1
  3
2dWireframe
350
2F
  3
Basic
350
2E
  3
Brighten
350
35
  3
ColorChange
350
39
  3
Conceptual
350
32
  3
Dim
350
34
  3
EdgeColorOff
350
41
  3
Facepattern
350
38
  3
Flat
350
2A
  3
FlatWithEdges
350
2B
  3
Gouraud
350
2C
  3
GouraudWithEdges
350
2D
  3
Hidden
350
31
  3
JitterOff
350
3F
  3
Linepattern
350
37
  3
OverhangOff
350
40
  3
Realistic
350
33
  3
Shaded
350
3E
  3
Shaded with edges
350
3D
  3
Shades of Gray
350
3A
  3
Sketchy
350
3B
  3
Thicken
350
36
  3
Wireframe
350
30
  3
X-Ray
350
3C
  0
XRECORD
  5
A0
102
{ACAD_REACTORS
330
C
102
}
330
C
100
AcDbXrecord
280
     1
 90
        1
330
65
  0
DICTIONARY
  5
98
102
{ACAD_REACTORS
330
C
102
}
330
C
100
AcDbDictionary
281
     1
  3
CANNOSCALE
350
9D
  3
CMLEADERSTYLE
350
9A
  3
CTABLESTYLE
350
99
  3
CVIEWDETAILSTYLE
350
9B
  3
CVIEWSECTIONSTYLE
350
9C
  0
ACDBDETAILVIEWSTYLE
  5
6B
102
{ACAD_REACTORS
330
6A
102
}
330
6A
100
AcDbModelDocViewStyle
 70
     0
  3
Imperial24
290
     1
300
Imperial24
 90
        0
100
AcDbDetailViewStyle
 70
     0
 71
     0
 90
        3
 71
     1
340
55
 62
   256
 40
0.24
340
0
 62
   256
 40
0.24
300

 40
0.36
280
     3
 71
     2
340
5D
 90
       25
 62
   256
 71
     3
340
55
 62
   256
 40
0.24
 90
        1
 40
0.75
 90
        1
300
%<\AcVar ViewType \f "%tc1">% %<\AcVar ViewDetailId>%\PSCALE %<\AcVar ViewScale \f "%sn">%
 71
     4
340
5D
 90
       25
 62
   256
340
5D
 90
       25
 62
   256
280
     0
  0
LAYOUT
  5
6F
102
{ACAD_REACTORS
330
62
102
}
330
62
100
AcDbPlotSettings
  1

  2

  4

  6

 40
0.0
 41
0.0
 42
0.0
 43
0.0
 44
0.0
 45
0.0
 46
0.0
 47
0.0
 48
0.0
 49
0.0
140
0.0
141
0.0
142
1.0
143
1.0
 70
   688
 72
     0
 73
     0
 74
     5
  7

 75
    16
147
1.0
 76
     0
 77
     2
 78
   300
148
0.0
149
0.0
100
AcDbLayout
  1
Layout1
 70
     1
 71
     1
 10
0.0
 20
0.0
 11
12.0
 21
9.0
 12
0.0
 22
0.0
 32
0.0
 14
0.0
 24
0.0
 34
0.0
 15
0.0
 25
0.0
 35
0.0
146
0.0
 13
0.0
 23
0.0
 33
0.0
 16
1.0
 26
0.0
 36
0.0
 17
0.0
 27
1.0
 37
0.0
 76
     0
330
6C
  0
LAYOUT
  5
77
102
{ACAD_REACTORS
330
62
102
}
330
62
100
AcDbPlotSettings
  1

  2

  4

  6

 40
0.0
 41
0.0
 42
0.0
 43
0.0
 44
0.0
 45
0.0
 46
0.0
 47
0.0
 48
0.0
 49
0.0
140
0.0
141
0.0
142
1.0
143
1.0
 70
   688
 72
     0
 73
     0
 74
     5
  7

 75
    16
147
1.0
 76
     0
 77
     2
 78
   300
148
0.0
149
0.0
100
AcDbLayout
  1
Layout2
 70
     1
 71
     2
 10
0.0
 20
0.0
 11
12.0
 21
9.0
 12
0.0
 22
0.0
 32
0.0
 14
0.0
 24
0.0
 34
0.0
 15
0.0
 25
0.0
 35
0.0
146
0.0
 13
0.0
 23
0.0
 33
0.0
 16
1.0
 26
0.0
 36
0.0
 17
0.0
 27
1.0
 37
0.0
 76
     0
330
74
  0
LAYOUT
  5
73
102
{ACAD_REACTORS
330
62
102
}
330
62
100
AcDbPlotSettings
  1

  2

  4

  6

 40
0.0
 41
0.0
 42
0.0
 43
0.0
 44
0.0
 45
0.0
 46
0.0
 47
0.0
 48
0.0
 49
0.0
140
0.0
141
0.0
142
1.0
143
1.0
 70
  1712
 72
     0
 73
     0
 74
     0
  7

 75
     0
147
1.0
 76
     0
 77
     2
 78
   300
148
0.0
149
0.0
100
AcDbLayout
  1
Model
 70
     1
 71
     0
 10
0.0
 20
0.0
 11
12.0
 21
9.0
 12
0.0
 22
0.0
 32
0.0
 14
0.0
 24
0.0
 34
0.0
 15
0.0
 25
0.0
 35
0.0
146
0.0
 13
0.0
 23
0.0
 33
0.0
 16
1.0
 26
0.0
 36
0.0
 17
0.0
 27
1.0
 37
0.0
 76
     0
330
70
  0
MATERIAL
  5
19
102
{ACAD_XDICTIONARY
360
1A
102
}
102
{ACAD_REACTORS
330
10
102
}
330
10
100
AcDbMaterial
  1
ByBlock
 72
     0
 43
0.0208333333333333
 43
0.0
 43
0.0
 43
0.0
 43
0.0
 43
0.0208333333333333
 43
0.0
 43
0.0
 43
0.0
 43
0.0
 43
1.0
 43
0.0
 43
0.0
 43
0.0
 43
0.0
 43
1.0
 77
     0
 47
0.0208333333333333
 47
0.0
 47
0.0
 47
0.0
 47
0.0
 47
0.0208333333333333
 47
0.0
 47
0.0
 47
0.0
 47
0.0
 47
1.0
 47
0.0
 47
0.0
 47
0.0
 47
0.0
 47
1.0
171
     0
 49
0.0208333333333333
 49
0.0
 49
0.0
 49
0.0
 49
0.0
 49
0.0208333333333333
 49
0.0
 49
0.0
 49
0.0
 49
0.0
 49
1.0
 49
0.0
 49
0.0
 49
0.0
 49
0.0
 49
1.0
175
     0
142
0.0208333333333333
142
0.0
142
0.0
142
0.0
142
0.0
142
0.0208333333333333
142
0.0
142
0.0
142
0.0
142
0.0
142
1.0
142
0.0
142
0.0
142
0.0
142
0.0
142
1.0
179
     0
144
0.0208333333333333
144
0.0
144
0.0
144
0.0
144
0.0
144
0.0208333333333333
144
0.0
144
0.0
144
0.0
144
0.0
144
1.0
144
0.0
144
0.0
144
0.0
144
0.0
144
1.0
147
0.0208333333333333
147
0.0
147
0.0
147
0.0
147
0.0
147
0.0208333333333333
147
0.0
147
0.0
147
0.0
147
0.0
147
1.0
147
0.0
147
0.0
147
0.0
147
0.0
147
1.0
  0
MATERIAL
  5
11
102
{ACAD_XDICTIONARY
360
12
102
}
102
{ACAD_REACTORS
330
10
102
}
330
10
100
AcDbMaterial
  1
ByLayer
 72
     0
 43
0.0208333333333333
 43
0.0
 43
0.0
 43
0.0
 43
0.0
 43
0.0208333333333333
 43
0.0
 43
0.0
 43
0.0
 43
0.0
 43
1.0
 43
0.0
 43
0.0
 43
0.0
 43
0.0
 43
1.0
 77
     0
 47
0.0208333333333333
 47
0.0
 47
0.0
 47
0.0
 47
0.0
 47
0.0208333333333333
 47
0.0
 47
0.0
 47
0.0
 47
0.0
 47
1.0
 47
0.0
 47
0.0
 47
0.0
 47
0.0
 47
1.0
171
     0
 49
0.0208333333333333
 49
0.0
 49
0.0
 49
0.0
 49
0.0
 49
0.0208333333333333
 49
0.0
 49
0.0
 49
0.0
 49
0.0
 49
1.0
 49
0.0
 49
0.0
 49
0.0
 49
0.0
 49
1.0
175
     0
142
0.0208333333333333
142
0.0
142
0.0
142
0.0
142
0.0
142
0.0208333333333333
142
0.0
142
0.0
142
0.0
142
0.0
142
1.0
142
0.0
142
0.0
142
0.0
142
0.0
142
1.0
179
     0
144
0.0208333333333333
144
0.0
144
0.0
144
0.0
144
0.0
144
0.0208333333333333
144
0.0
144
0.0
144
0.0
144
0.0
144
1.0
144
0.0
144
0.0
144
0.0
144
0.0
144
1.0
147
0.0208333333333333
147
0.0
147
0.0
147
0.0
147
0.0
147
0.0208333333333333
147
0.0
147
0.0
147
0.0
147
0.0
147
1.0
147
0.0
147
0.0
147
0.0
147
0.0
147
1.0
  0
MATERIAL
  5
21
102
{ACAD_XDICTIONARY
360
22
102
}
102
{ACAD_REACTORS
330
10
102
}
330
10
100
AcDbMaterial
  1
Global
 72
     0
 43
0.0208333333333333
 43
0.0
 43
0.0
 43
0.0
 43
0.0
 43
0.0208333333333333
 43
0.0
 43
0.0
 43
0.0
 43
0.0
 43
1.0
 43
0.0
 43
0.0
 43
0.0
 43
0.0
 43
1.0
 77
     0
 47
0.0208333333333333
 47
0.0
 47
0.0
 47
0.0
 47
0.0
 47
0.0208333333333333
 47
0.0
 47
0.0
 47
0.0
 47
0.0
 47
1.0
 47
0.0
 47
0.0
 47
0.0
 47
0.0
 47
1.0
171
     0
 49
0.0208333333333333
 49
0.0
 49
0.0
 49
0.0
 49
0.0
 49
0.0208333333333333
 49
0.0
 49
0.0
 49
0.0
 49
0.0
 49
1.0
 49
0.0
 49
0.0
 49
0.0
 49
0.0
 49
1.0
175
     0
142
0.0208333333333333
142
0.0
142
0.0
142
0.0
142
0.0
142
0.0208333333333333
142
0.0
142
0.0
142
0.0
142
0.0
142
1.0
142
0.0
142
0.0
142
0.0
142
0.0
142
1.0
179
     0
144
0.0208333333333333
144
0.0
144
0.0
144
0.0
144
0.0
144
0.0208333333333333
144
0.0
144
0.0
144
0.0
144
0.0
144
1.0
144
0.0
144
0.0
144
0.0
144
0.0
144
1.0
147
0.0208333333333333
147
0.0
147
0.0
147
0.0
147
0.0
147
0.0208333333333333
147
0.0
147
0.0
147
0.0
147
0.0
147
1.0
147
0.0
147
0.0
147
0.0
147
0.0
147
1.0
  0
MLEADERSTYLE
  5
67
102
{ACAD_REACTORS
330
66
102
}
330
66
100
AcDbMLeaderStyle
179
     2
170
     2
171
     1
172
     0
 90
        2
 40
0.0
 41
0.0
173
     1
 91
-1056964608
340
5B
 92
       -2
290
     1
 42
0.09
291
     1
 43
0.36
  3
Standard
 44
0.18
300

342
55
174
     1
178
     6
175
     1
176
     0
 93
-1056964608
 45
0.18
292
     0
297
     0
 46
0.18
 94
-1056964608
 47
1.0
 49
1.0
140
1.0
293
     1
141
0.0
294
     1
177
     0
142
1.0
295
     1
296
     0
143
0.125
271
     0
272
     9
273
     9
298
     1
  0
MLINESTYLE
  5
60
102
{ACAD_REACTORS
330
5F
102
}
330
5F
100
AcDbMlineStyle
  2
STANDARD
 70
     0
  3

 62
   256
 51
90.0
 52
90.0
 71
     2
 49
0.5
 62
   256
  6
BYLAYER
 49
-0.5
 62
   256
  6
BYLAYER
  0
ACDBPLACEHOLDER
  5
F
102
{ACAD_REACTORS
330
E
102
}
330
E
  0
SCALE
  5
43
102
{ACAD_REACTORS
330
42
102
}
330
42
100
AcDbScale
 70
     0
300
1:1
140
1.0
141
1.0
290
     1
  0
SCALE
  5
44
102
{ACAD_REACTORS
330
42
102
}
330
42
100
AcDbScale
 70
     0
300
1/128" = 1'-0"
140
0.0078125
141
12.0
290
     0
  0
SCALE
  5
45
102
{ACAD_REACTORS
330
42
102
}
330
42
100
AcDbScale
 70
     0
300
1/64" = 1'-0"
140
0.015625
141
12.0
290
     0
  0
SCALE
  5
46
102
{ACAD_REACTORS
330
42
102
}
330
42
100
AcDbScale
 70
     0
300
1/32" = 1'-0"
140
0.03125
141
12.0
290
     0
  0
SCALE
  5
47
102
{ACAD_REACTORS
330
42
102
}
330
42
100
AcDbScale
 70
     0
300
1/16" = 1'-0"
140
0.0625
141
12.0
290
     0
  0
SCALE
  5
48
102
{ACAD_REACTORS
330
42
102
}
330
42
100
AcDbScale
 70
     0
300
3/32" = 1'-0"
140
0.09375
141
12.0
290
     0
  0
SCALE
  5
49
102
{ACAD_REACTORS
330
42
102
}
330
42
100
AcDbScale
 70
     0
300
1/8" = 1'-0"
140
0.125
141
12.0
290
     0
  0
SCALE
  5
4A
102
{ACAD_REACTORS
330
42
102
}
330
42
100
AcDbScale
 70
     0
300
3/16" = 1'-0"
140
0.1875
141
12.0
290
     0
  0
SCALE
  5
4B
102
{ACAD_REACTORS
330
42
102
}
330
42
100
AcDbScale
 70
     0
300
1/4" = 1'-0"
140
0.25
141
12.0
290
     0
  0
SCALE
  5
4C
102
{ACAD_REACTORS
330
42
102
}
330
42
100
AcDbScale
 70
     0
300
3/8" = 1'-0"
140
0.375
141
12.0
290
     0
  0
SCALE
  5
4D
102
{ACAD_REACTORS
330
42
102
}
330
42
100
AcDbScale
 70
     0
300
1/2" = 1'-0"
140
0.5
141
12.0
290
     0
  0
SCALE
  5
4E
102
{ACAD_REACTORS
330
42
102
}
330
42
100
AcDbScale
 70
     0
300
3/4" = 1'-0"
140
0.75
141
12.0
290
     0
  0
SCALE
  5
4F
102
{ACAD_REACTORS
330
42
102
}
330
42
100
AcDbScale
 70
     0
300
1" = 1'-0"
140
1.0
141
12.0
290
     0
  0
SCALE
  5
50
102
{ACAD_REACTORS
330
42
102
}
330
42
100
AcDbScale
 70
     0
300
1-1/2" = 1'-0"
140
1.5
141
12.0
290
     0
  0
SCALE
  5
51
102
{ACAD_REACTORS
330
42
102
}
330
42
100
AcDbScale
 70
     0
300
3" = 1'-0"
140
3.0
141
12.0
290
     0
  0
SCALE
  5
52
102
{ACAD_REACTORS
330
42
102
}
330
42
100
AcDbScale
 70
     0
300
6" = 1'-0"
140
6.0
141
12.0
290
     0
  0
SCALE
  5
53
102
{ACAD_REACTORS
330
42
102
}
330
42
100
AcDbScale
 70
     0
300
1'-0" = 1'-0"
140
12.0
141
12.0
290
     0
  0
ACDBSECTIONVIEWSTYLE
  5
69
102
{ACAD_REACTORS
330
68
102
}
330
68
100
AcDbModelDocViewStyle
 70
     0
  3
Imperial24
290
     1
300
Imperial24
 90
        0
100
AcDbSectionViewStyle
 70
     0
 71
     0
 90
       78
 71
     1
340
55
 62
   256
 40
0.24
340
0
340
0
 62
   256
 40
0.24
300
I, O, Q, S, X, Z
 40
0.48
 90
        3
 40
0.18
 90
        1
 71
     2
340
5D
 90
       25
 62
   256
340
5D
 90
       50
 62
   256
 40
0.24
 40
0.0
 40
0.24
 71
     3
340
55
 62
   256
 40
0.24
 90
        1
 40
0.75
 90
        1
300
%<\AcVar ViewType \f "%tc1">% %<\AcVar ViewSectionStartId>%-%<\AcVar ViewSectionEndId>%\PSCALE %<\AcVar ViewScale \f "%sn">%
 71
     4
 62
   256
 62
   257
300
ANSI31
 40
1.0
 90
        0
290
     0
290
     0
 90
        6
 40
0.0
 40
1.570796326794896
 40
0.2617993877991494
 40
1.308996938995747
 40
-0.2617993877991494
 40
1.832595714594046
  0
TABLESTYLE
  5
65
102
{ACAD_XDICTIONARY
360
9E
102
}
102
{ACAD_REACTORS
330
64
102
}
330
64
100
AcDbTableStyle
280
     0
  3
Standard
 70
     0
 71
     0
 40
0.06
 41
0.06
280
     0
281
     0
  7
Standard
140
0.18
170
     2
 62
     0
 63
     7
283
     0
 90
      512
 91
        0
  1

274
    -2
284
     1
 64
     0
275
    -2
285
     1
 65
     0
276
    -2
286
     1
 66
     0
277
    -2
287
     1
 67
     0
278
    -2
288
     1
 68
     0
279
    -2
289
     1
 69
     0
  7
Standard
140
0.25
170
     5
 62
     0
 63
     7
283
     0
 90
      512
 91
        0
  1

274
    -2
284
     1
 64
     0
275
    -2
285
     1
 65
     0
276
    -2
286
     1
 66
     0
277
    -2
287
     1
 67
     0
278
    -2
288
     1
 68
     0
279
    -2
289
     1
 69
     0
  7
Standard
140
0.18
170
     5
 62
     0
 63
     7
283
     0
 90
      512
 91
        0
  1

274
    -2
284
     1
 64
     0
275
    -2
285
     1
 65
     0
276
    -2
286
     1
 66
     0
277
    -2
287
     1
 67
     0
278
    -2
288
     1
 68
     0
279
    -2
289
     1
 69
     0
  0
VISUALSTYLE
  5
2F
102
{ACAD_REACTORS
330
29
102
}
330
29
100
AcDbVisualStyle
  2
2dWireframe
 70
     4
177
     3
291
     0
 70
    58
 90
        0
176
     1
 90
        2
176
     1
 90
        0
176
     1
 90
        0
176
     1
 40
0.6
176
     1
 40
30.0
176
     1
 62
     7
420
 16777215
176
     1
 90
        1
176
     1
 90
        4
176
     1
 62
     7
176
     1
 62
   257
176
     1
 90
        1
176
     1
 90
        1
176
     1
 40
1.0
176
     1
 90
        0
176
     1
 62
   257
176
     1
 40
1.0
176
     1
 90
        1
176
     1
 90
        6
176
     1
 90
        2
176
     1
 62
     7
176
     1
 90
        5
176
     1
 90
        0
176
     1
 90
        0
176
     1
290
     0
176
     1
 90
        1
176
     1
 40
0.0
176
     1
 90
        0
176
     1
290
     1
176
     1
290
     1
176
     1
290
     0
176
     1
290
     0
176
     1
290
     0
176
     1
290
     0
176
     1
290
     0
176
     1
290
     0
176
     1
290
     0
176
     1
 90
       50
176
     1
 40
0.0
176
     1
 40
1.0
176
     1
 90
        0
176
     1
 62
    18
420
        0
176
     1
 90
       50
176
     1
 90
        3
176
     1
 62
     5
420
      255
176
     1
290
     0
176
     1
 90
       50
176
     1
 90
       50
176
     1
 90
       50
176
     1
290
     0
176
     1
 90
       50
176
     1
 62
   256
176
     0
 40
1.0
176
     0
 90
        2
176
     1
  1
strokes_ogs.tif
176
     1
290
     0
176
     1
 40
1.0
176
     1
 40
1.0
176
     1
  0
VISUALSTYLE
  5
2E
102
{ACAD_REACTORS
330
29
102
}
330
29
100
AcDbVisualStyle
  2
Basic
 70
     7
177
     3
291
     1
 70
    58
 90
        1
176
     1
 90
        0
176
     1
 90
        1
176
     1
 90
        0
176
     1
 40
0.6
176
     1
 40
30.0
176
     1
 62
     7
420
 16777215
176
     1
 90
        0
176
     1
 90
        4
176
     1
 62
     7
176
     1
 62
   257
176
     1
 90
        1
176
     1
 90
        1
176
     1
 40
1.0
176
     1
 90
        8
176
     1
 62
     7
176
     1
 40
1.0
176
     1
 90
        1
176
     1
 90
        6
176
     1
 90
        2
176
     1
 62
     7
176
     1
 90
        5
176
     1
 90
        0
176
     1
 90
        0
176
     1
290
     0
176
     1
 90
        1
176
     1
 40
0.0
176
     1
 90
        0
176
     1
290
     0
176
     1
290
     1
176
     1
290
     1
176
     1
290
     0
176
     1
290
     0
176
     1
290
     0
176
     1
290
     0
176
     1
290
     0
176
     1
290
     0
176
     1
 90
       50
176
     1
 40
0.0
176
     1
 40
1.0
176
     1
 90
        0
176
     1
 62
    18
420
        0
176
     1
 90
       50
176
     1
 90
        3
176
     1
 62
     5
420
      255
176
     1
290
     0
176
     1
 90
       50
176
     1
 90
       50
176
     1
 90
       50
176
     1
290
     0
176
     1
 90
       50
176
     1
 62
   256
176
     0
 40
1.0
176
     0
 90
        2
176
     1
  1
strokes_ogs.tif
176
     1
290
     0
176
     1
 40
1.0
176
     1
 40
1.0
176
     1
  0
VISUALSTYLE
  5
35
102
{ACAD_REACTORS
330
29
102
}
330
29
100
AcDbVisualStyle
  2
Brighten
 70
    12
177
     3
291
     1
 70
    58
 90
        2
176
     1
 90
        2
176
     1
 90
        0
176
     1
 90
        0
176
     1
 40
0.6
176
     1
 40
30.0
176
     1
 62
     7
420
 16777215
176
     1
 90
        1
176
     1
 90
        4
176
     1
 62
     7
176
     1
 62
   257
176
     1
 90
        1
176
     1
 90
        1
176
     1
 40
1.0
176
     1
 90
        8
176
     1
 62
     7
176
     1
 40
1.0
176
     1
 90
        1
176
     1
 90
        6
176
     1
 90
        2
176
     1
 62
     7
176
     1
 90
        5
176
     1
 90
        0
176
     1
 90
        0
176
     1
290
     0
176
     1
 90
        1
176
     1
 40
50.0
176
     1
 90
        0
176
     1
290
     0
176
     1
290
     1
176
     1
290
     1
176
     1
290
     0
176
     1
290
     0
176
     1
290
     0
176
     1
290
     0
176
     1
290
     0
176
     1
290
     0
176
     1
 90
       50
176
     1
 40
0.0
176
     1
 40
1.0
176
     1
 90
        0
176
     1
 62
    18
420
        0
176
     1
 90
       50
176
     1
 90
        3
176
     1
 62
     5
420
      255
176
     1
290
     0
176
     1
 90
       50
176
     1
 90
       50
176
     1
 90
       50
176
     1
290
     0
176
     1
 90
       50
176
     1
 62
   256
176
     0
 40
1.0
176
     0
 90
        2
176
     1
  1
strokes_ogs.tif
176
     1
290
     0
176
     1
 40
1.0
176
     1
 40
1.0
176
     1
  0
VISUALSTYLE
  5
39
102
{ACAD_REACTORS
330
29
102
}
330
29
100
AcDbVisualStyle
  2
ColorChange
 70
    16
177
     3
291
     1
 70
    58
 90
        2
176
     1
 90
        2
176
     1
 90
        3
176
     1
 90
        0
176
     1
 40
0.6
176
     1
 40
30.0
176
     1
 62
     8
420
  8421504
176
     1
 90
        1
176
     1
 90
        4
176
     1
 62
     7
176
     1
 62
   257
176
     1
 90
        1
176
     1
 90
        1
176
     1
 40
1.0
176
     1
 90
        8
176
     1
 62
     8
420
  8421504
176
     1
 40
1.0
176
     1
 90
        1
176
     1
 90
        6
176
     1
 90
        2
176
     1
 62
     7
176
     1
 90
        5
176
     1
 90
        0
176
     1
 90
        0
176
     1
290
     0
176
     1
 90
        1
176
     1
 40
0.0
176
     1
 90
        0
176
     1
290
     0
176
     1
290
     1
176
     1
290
     1
176
     1
290
     0
176
     1
290
     0
176
     1
290
     0
176
     1
290
     0
176
     1
290
     0
176
     1
290
     0
176
     1
 90
       50
176
     1
 40
0.0
176
     1
 40
1.0
176
     1
 90
        0
176
     1
 62
    18
420
        0
176
     1
 90
       50
176
     1
 90
        3
176
     1
 62
     5
420
      255
176
     1
290
     0
176
     1
 90
       50
176
     1
 90
       50
176
     1
 90
       50
176
     1
290
     0
176
     1
 90
       50
176
     1
 62
   256
176
     0
 40
1.0
176
     0
 90
        2
176
     1
  1
strokes_ogs.tif
176
     1
290
     0
176
     1
 40
1.0
176
     1
 40
1.0
176
     1
  0
VISUALSTYLE
  5
32
102
{ACAD_REACTORS
330
29
102
}
330
29
100
AcDbVisualStyle
  2
Conceptual
 70
     9
177
     3
291
     0
 70
    58
 90
        3
176
     1
 90
        2
176
     1
 90
        0
176
     1
 90
        0
176
     1
 40
0.6
176
     1
 40
30.0
176
     1
 62
     7
420
 16777215
176
     1
 90
        2
176
     1
 90
        2
176
     1
 62
     7
176
     1
 62
   257
176
     1
 90
        1
176
     1
 90
        1
176
     1
 40
179.0
176
     1
 90
        8
176
     1
 62
     7
176
     1
 40
1.0
176
     1
 90
        1
176
     1
 90
        6
176
     1
 90
        2
176
     1
 62
     7
176
     1
 90
        3
176
     1
 90
        0
176
     1
 90
        0
176
     1
290
     0
176
     1
 90
        1
176
     1
 40
0.0
176
     1
 90
        0
176
     1
290
     0
176
     1
290
     1
176
     1
290
     1
176
     1
290
     0
176
     1
290
     0
176
     1
290
     0
176
     1
290
     0
176
     1
290
     0
176
     1
290
     0
176
     1
 90
       50
176
     1
 40
0.0
176
     1
 40
1.0
176
     1
 90
        0
176
     1
 62
    18
420
        0
176
     1
 90
       50
176
     1
 90
        3
176
     1
 62
     5
420
      255
176
     1
290
     0
176
     1
 90
       50
176
     1
 90
       50
176
     1
 90
       50
176
     1
290
     0
176
     1
 90
       50
176
     1
 62
   256
176
     0
 40
1.0
176
     0
 90
        2
176
     1
  1
strokes_ogs.tif
176
     1
290
     0
176
     1
 40
1.0
176
     1
 40
1.0
176
     1
  0
VISUALSTYLE
  5
34
102
{ACAD_REACTORS
330
29
102
}
330
29
100
AcDbVisualStyle
  2
Dim
 70
    11
177
     3
291
     1
 70
    58
 90
        2
176
     1
 90
        2
176
     1
 90
        0
176
     1
 90
        0
176
     1
 40
0.6
176
     1
 40
30.0
176
     1
 62
     7
420
 16777215
176
     1
 90
        1
176
     1
 90
        4
176
     1
 62
     7
176
     1
 62
   257
176
     1
 90
        1
176
     1
 90
        1
176
     1
 40
1.0
176
     1
 90
        8
176
     1
 62
     7
176
     1
 40
1.0
176
     1
 90
        1
176
     1
 90
        6
176
     1
 90
        2
176
     1
 62
     7
176
     1
 90
        5
176
     1
 90
        0
176
     1
 90
        0
176
     1
290
     0
176
     1
 90
        1
176
     1
 40
-50.0
176
     1
 90
        0
176
     1
290
     0
176
     1
290
     1
176
     1
290
     1
176
     1
290
     0
176
     1
290
     0
176
     1
290
     0
176
     1
290
     0
176
     1
290
     0
176
     1
290
     0
176
     1
 90
       50
176
     1
 40
0.0
176
     1
 40
1.0
176
     1
 90
        0
176
     1
 62
    18
420
        0
176
     1
 90
       50
176
     1
 90
        3
176
     1
 62
     5
420
      255
176
     1
290
     0
176
     1
 90
       50
176
     1
 90
       50
176
     1
 90
       50
176
     1
290
     0
176
     1
 90
       50
176
     1
 62
   256
176
     0
 40
1.0
176
     0
 90
        2
176
     1
  1
strokes_ogs.tif
176
     1
290
     0
176
     1
 40
1.0
176
     1
 40
1.0
176
     1
  0
VISUALSTYLE
  5
41
102
{ACAD_REACTORS
330
29
102
}
330
29
100
AcDbVisualStyle
  2
EdgeColorOff
 70
    22
177
     3
291
     1
 70
    58
 90
        2
176
     0
 90
        2
176
     0
 90
        0
176
     0
 90
        0
176
     0
 40
0.6
176
     0
 40
30.0
176
     0
 62
     7
420
 16777215
176
     0
 90
        1
176
     0
 90
        4
176
     0
 62
     7
176
     0
 62
   257
176
     0
 90
        1
176
     0
 90
        1
176
     0
 40
1.0
176
     0
 90
        8
176
     2
 62
     7
176
     0
 40
1.0
176
     0
 90
        1
176
     0
 90
        6
176
     0
 90
        2
176
     0
 62
     7
176
     0
 90
        5
176
     0
 90
        0
176
     0
 90
        0
176
     0
290
     0
176
     0
 90
        1
176
     0
 40
0.0
176
     0
 90
        0
176
     0
290
     0
176
     0
290
     1
176
     0
290
     1
176
     0
290
     0
176
     0
290
     0
176
     0
290
     0
176
     0
290
     0
176
     0
290
     0
176
     0
290
     0
176
     0
 90
       50
176
     0
 40
0.0
176
     0
 40
1.0
176
     0
 90
        0
176
     0
 62
    18
420
        0
176
     0
 90
       50
176
     0
 90
        3
176
     0
 62
     5
420
      255
176
     0
290
     0
176
     0
 90
       50
176
     0
 90
       50
176
     0
 90
       50
176
     0
290
     0
176
     0
 90
       50
176
     0
 62
   256
176
     0
 40
1.0
176
     0
 90
        2
176
     0
  1
strokes_ogs.tif
176
     0
290
     0
176
     0
 40
1.0
176
     0
 40
1.0
176
     0
  0
VISUALSTYLE
  5
38
102
{ACAD_REACTORS
330
29
102
}
330
29
100
AcDbVisualStyle
  2
Facepattern
 70
    15
177
     3
291
     1
 70
    58
 90
        2
176
     1
 90
        2
176
     1
 90
        0
176
     1
 90
        0
176
     1
 40
0.6
176
     1
 40
30.0
176
     1
 62
     7
420
 16777215
176
     1
 90
        1
176
     1
 90
        4
176
     1
 62
     7
176
     1
 62
   257
176
     1
 90
        1
176
     1
 90
        1
176
     1
 40
1.0
176
     1
 90
        8
176
     1
 62
     7
176
     1
 40
1.0
176
     1
 90
        1
176
     1
 90
        6
176
     1
 90
        2
176
     1
 62
     7
176
     1
 90
        5
176
     1
 90
        0
176
     1
 90
        0
176
     1
290
     0
176
     1
 90
        1
176
     1
 40
0.0
176
     1
 90
        0
176
     1
290
     0
176
     1
290
     1
176
     1
290
     1
176
     1
290
     0
176
     1
290
     0
176
     1
290
     0
176
     1
290
     0
176
     1
290
     0
176
     1
290
     0
176
     1
 90
       50
176
     1
 40
0.0
176
     1
 40
1.0
176
     1
 90
        0
176
     1
 62
    18
420
        0
176
     1
 90
       50
176
     1
 90
        3
176
     1
 62
     5
420
      255
176
     1
290
     0
176
     1
 90
       50
176
     1
 90
       50
176
     1
 90
       50
176
     1
290
     0
176
     1
 90
       50
176
     1
 62
   256
176
     0
 40
1.0
176
     0
 90
        2
176
     1
  1
strokes_ogs.tif
176
     1
290
     0
176
     1
 40
1.0
176
     1
 40
1.0
176
     1
  0
VISUALSTYLE
  5
2A
102
{ACAD_REACTORS
330
29
102
}
330
29
100
AcDbVisualStyle
  2
Flat
 70
     0
177
     3
291
     1
 70
    58
 90
        2
176
     1
 90
        1
176
     1
 90
        1
176
     1
 90
        2
176
     1
 40
0.6
176
     1
 40
30.0
176
     1
 62
     7
420
 16777215
176
     1
 90
        0
176
     1
 90
        0
176
     1
 62
     7
176
     1
 62
   257
176
     1
 90
        1
176
     1
 90
        1
176
     1
 40
1.0
176
     1
 90
        8
176
     1
 62
     7
176
     1
 40
1.0
176
     1
 90
        1
176
     1
 90
        6
176
     1
 90
        2
176
     1
 62
     7
176
     1
 90
        5
176
     1
 90
        0
176
     1
 90
        0
176
     1
290
     0
176
     1
 90
       13
176
     1
 40
0.0
176
     1
 90
        0
176
     1
290
     0
176
     1
290
     1
176
     1
290
     1
176
     1
290
     0
176
     1
290
     0
176
     1
290
     0
176
     1
290
     0
176
     1
290
     0
176
     1
290
     0
176
     1
 90
       50
176
     1
 40
0.0
176
     1
 40
1.0
176
     1
 90
        0
176
     1
 62
    18
420
        0
176
     1
 90
       50
176
     1
 90
        3
176
     1
 62
     5
420
      255
176
     1
290
     0
176
     1
 90
       50
176
     1
 90
       50
176
     1
 90
       50
176
     1
290
     0
176
     1
 90
       50
176
     1
 62
   256
176
     0
 40
1.0
176
     0
 90
        2
176
     1
  1
strokes_ogs.tif
176
     1
290
     0
176
     1
 40
1.0
176
     1
 40
1.0
176
     1
  0
VISUALSTYLE
  5
2B
102
{ACAD_REACTORS
330
29
102
}
330
29
100
AcDbVisualStyle
  2
FlatWithEdges
 70
     1
177
     3
291
     1
 70
    58
 90
        2
176
     1
 90
        1
176
     1
 90
        1
176
     1
 90
        2
176
     1
 40
0.6
176
     1
 40
30.0
176
     1
 62
     7
420
 16777215
176
     1
 90
        1
176
     1
 90
        0
176
     1
 62
     7
176
     1
 62
   257
176
     1
 90
        1
176
     1
 90
        1
176
     1
 40
1.0
176
     1
 90
        0
176
     1
 62
   257
176
     1
 40
1.0
176
     1
 90
        1
176
     1
 90
        6
176
     1
 90
        2
176
     1
 62
     7
176
     1
 90
        5
176
     1
 90
        0
176
     1
 90
        0
176
     1
290
     0
176
     1
 90
       13
176
     1
 40
0.0
176
     1
 90
        0
176
     1
290
     0
176
     1
290
     1
176
     1
290
     1
176
     1
290
     0
176
     1
290
     0
176
     1
290
     0
176
     1
290
     0
176
     1
290
     0
176
     1
290
     0
176
     1
 90
       50
176
     1
 40
0.0
176
     1
 40
1.0
176
     1
 90
        0
176
     1
 62
    18
420
        0
176
     1
 90
       50
176
     1
 90
        3
176
     1
 62
     5
420
      255
176
     1
290
     0
176
     1
 90
       50
176
     1
 90
       50
176
     1
 90
       50
176
     1
290
     0
176
     1
 90
       50
176
     1
 62
   256
176
     0
 40
1.0
176
     0
 90
        2
176
     1
  1
strokes_ogs.tif
176
     1
290
     0
176
     1
 40
1.0
176
     1
 40
1.0
176
     1
  0
VISUALSTYLE
  5
2C
102
{ACAD_REACTORS
330
29
102
}
330
29
100
AcDbVisualStyle
  2
Gouraud
 70
     2
177
     3
291
     1
 70
    58
 90
        2
176
     1
 90
        2
176
     1
 90
        1
176
     1
 90
        2
176
     1
 40
0.6
176
     1
 40
30.0
176
     1
 62
     7
420
 16777215
176
     1
 90
        0
176
     1
 90
        0
176
     1
 62
     7
176
     1
 62
   257
176
     1
 90
        1
176
     1
 90
        1
176
     1
 40
1.0
176
     1
 90
        0
176
     1
 62
     7
176
     1
 40
1.0
176
     1
 90
        1
176
     1
 90
        6
176
     1
 90
        2
176
     1
 62
     7
176
     1
 90
        5
176
     1
 90
        0
176
     1
 90
        0
176
     1
290
     0
176
     1
 90
       13
176
     1
 40
0.0
176
     1
 90
        0
176
     1
290
     0
176
     1
290
     1
176
     1
290
     1
176
     1
290
     0
176
     1
290
     0
176
     1
290
     0
176
     1
290
     0
176
     1
290
     0
176
     1
290
     0
176
     1
 90
       50
176
     1
 40
0.0
176
     1
 40
1.0
176
     1
 90
        0
176
     1
 62
    18
420
        0
176
     1
 90
       50
176
     1
 90
        3
176
     1
 62
     5
420
      255
176
     1
290
     0
176
     1
 90
       50
176
     1
 90
       50
176
     1
 90
       50
176
     1
290
     0
176
     1
 90
       50
176
     1
 62
   256
176
     0
 40
1.0
176
     0
 90
        2
176
     1
  1
strokes_ogs.tif
176
     1
290
     0
176
     1
 40
1.0
176
     1
 40
1.0
176
     1
  0
VISUALSTYLE
  5
2D
102
{ACAD_REACTORS
330
29
102
}
330
29
100
AcDbVisualStyle
  2
GouraudWithEdges
 70
     3
177
     3
291
     1
 70
    58
 90
        2
176
     1
 90
        2
176
     1
 90
        1
176
     1
 90
        2
176
     1
 40
0.6
176
     1
 40
30.0
176
     1
 62
     7
420
 16777215
176
     1
 90
        1
176
     1
 90
        0
176
     1
 62
     7
176
     1
 62
   257
176
     1
 90
        1
176
     1
 90
        1
176
     1
 40
1.0
176
     1
 90
        0
176
     1
 62
   257
176
     1
 40
1.0
176
     1
 90
        1
176
     1
 90
        6
176
     1
 90
        2
176
     1
 62
     7
176
     1
 90
        5
176
     1
 90
        0
176
     1
 90
        0
176
     1
290
     0
176
     1
 90
       13
176
     1
 40
0.0
176
     1
 90
        0
176
     1
290
     0
176
     1
290
     1
176
     1
290
     1
176
     1
290
     0
176
     1
290
     0
176
     1
290
     0
176
     1
290
     0
176
     1
290
     0
176
     1
290
     0
176
     1
 90
       50
176
     1
 40
0.0
176
     1
 40
1.0
176
     1
 90
        0
176
     1
 62
    18
420
        0
176
     1
 90
       50
176
     1
 90
        3
176
     1
 62
     5
420
      255
176
     1
290
     0
176
     1
 90
       50
176
     1
 90
       50
176
     1
 90
       50
176
     1
290
     0
176
     1
 90
       50
176
     1
 62
   256
176
     0
 40
1.0
176
     0
 90
        2
176
     1
  1
strokes_ogs.tif
176
     1
290
     0
176
     1
 40
1.0
176
     1
 40
1.0
176
     1
  0
VISUALSTYLE
  5
31
102
{ACAD_REACTORS
330
29
102
}
330
29
100
AcDbVisualStyle
  2
Hidden
 70
     6
177
     3
291
     0
 70
    58
 90
        1
176
     1
 90
        2
176
     1
 90
        2
176
     1
 90
        0
176
     1
 40
0.6
176
     1
 40
30.0
176
     1
 62
     7
420
 16777215
176
     1
 90
        2
176
     1
 90
        2
176
     1
 62
     7
176
     1
 62
   257
176
     1
 90
        2
176
     1
 90
        1
176
     1
 40
40.0
176
     1
 90
        0
176
     1
 62
   257
176
     1
 40
1.0
176
     1
 90
        1
176
     1
 90
        6
176
     1
 90
        2
176
     1
 62
     7
176
     1
 90
        3
176
     1
 90
        0
176
     1
 90
        0
176
     1
290
     0
176
     1
 90
        1
176
     1
 40
0.0
176
     1
 90
        0
176
     1
290
     0
176
     1
290
     1
176
     1
290
     1
176
     1
290
     0
176
     1
290
     0
176
     1
290
     0
176
     1
290
     0
176
     1
290
     0
176
     1
290
     0
176
     1
 90
       50
176
     1
 40
0.0
176
     1
 40
1.0
176
     1
 90
        0
176
     1
 62
    18
420
        0
176
     1
 90
       50
176
     1
 90
        3
176
     1
 62
     5
420
      255
176
     1
290
     0
176
     1
 90
       50
176
     1
 90
       50
176
     1
 90
       50
176
     1
290
     0
176
     1
 90
       50
176
     1
 62
   256
176
     0
 40
1.0
176
     0
 90
        2
176
     1
  1
strokes_ogs.tif
176
     1
290
     0
176
     1
 40
1.0
176
     1
 40
1.0
176
     1
  0
VISUALSTYLE
  5
3F
102
{ACAD_REACTORS
330
29
102
}
330
29
100
AcDbVisualStyle
  2
JitterOff
 70
    20
177
     3
291
     1
 70
    58
 90
        2
176
     0
 90
        2
176
     0
 90
        0
176
     0
 90
        0
176
     0
 40
0.6
176
     0
 40
30.0
176
     0
 62
     7
420
 16777215
176
     0
 90
        1
176
     0
 90
        4
176
     0
 62
     7
176
     0
 62
   257
176
     0
 90
        1
176
     0
 90
        1
176
     0
 40
1.0
176
     0
 90
       10
176
     2
 62
     7
176
     0
 40
1.0
176
     0
 90
        1
176
     0
 90
        6
176
     0
 90
        2
176
     0
 62
     7
176
     0
 90
        5
176
     0
 90
        0
176
     0
 90
        0
176
     0
290
     0
176
     0
 90
        1
176
     0
 40
0.0
176
     0
 90
        0
176
     0
290
     0
176
     0
290
     1
176
     0
290
     1
176
     0
290
     0
176
     0
290
     0
176
     0
290
     0
176
     0
290
     0
176
     0
290
     0
176
     0
290
     0
176
     0
 90
       50
176
     0
 40
0.0
176
     0
 40
1.0
176
     0
 90
        0
176
     0
 62
    18
420
        0
176
     0
 90
       50
176
     0
 90
        3
176
     0
 62
     5
420
      255
176
     0
290
     0
176
     0
 90
       50
176
     0
 90
       50
176
     0
 90
       50
176
     0
290
     0
176
     0
 90
       50
176
     0
 62
   256
176
     0
 40
1.0
176
     0
 90
        2
176
     0
  1
strokes_ogs.tif
176
     0
290
     0
176
     0
 40
1.0
176
     0
 40
1.0
176
     0
  0
VISUALSTYLE
  5
37
102
{ACAD_REACTORS
330
29
102
}
330
29
100
AcDbVisualStyle
  2
Linepattern
 70
    14
177
     3
291
     1
 70
    58
 90
        2
176
     1
 90
        2
176
     1
 90
        0
176
     1
 90
        0
176
     1
 40
0.6
176
     1
 40
30.0
176
     1
 62
     7
420
 16777215
176
     1
 90
        1
176
     1
 90
        4
176
     1
 62
     7
176
     1
 62
   257
176
     1
 90
        7
176
     1
 90
        7
176
     1
 40
1.0
176
     1
 90
        8
176
     1
 62
     7
176
     1
 40
1.0
176
     1
 90
        1
176
     1
 90
        6
176
     1
 90
        2
176
     1
 62
     7
176
     1
 90
        5
176
     1
 90
        0
176
     1
 90
        0
176
     1
290
     0
176
     1
 90
        1
176
     1
 40
0.0
176
     1
 90
        0
176
     1
290
     0
176
     1
290
     1
176
     1
290
     1
176
     1
290
     0
176
     1
290
     0
176
     1
290
     0
176
     1
290
     0
176
     1
290
     0
176
     1
290
     0
176
     1
 90
       50
176
     1
 40
0.0
176
     1
 40
1.0
176
     1
 90
        0
176
     1
 62
    18
420
        0
176
     1
 90
       50
176
     1
 90
        3
176
     1
 62
     5
420
      255
176
     1
290
     0
176
     1
 90
       50
176
     1
 90
       50
176
     1
 90
       50
176
     1
290
     0
176
     1
 90
       50
176
     1
 62
   256
176
     0
 40
1.0
176
     0
 90
        2
176
     1
  1
strokes_ogs.tif
176
     1
290
     0
176
     1
 40
1.0
176
     1
 40
1.0
176
     1
  0
VISUALSTYLE
  5
40
102
{ACAD_REACTORS
330
29
102
}
330
29
100
AcDbVisualStyle
  2
OverhangOff
 70
    21
177
     3
291
     1
 70
    58
 90
        2
176
     0
 90
        2
176
     0
 90
        0
176
     0
 90
        0
176
     0
 40
0.6
176
     0
 40
30.0
176
     0
 62
     7
420
 16777215
176
     0
 90
        1
176
     0
 90
        4
176
     0
 62
     7
176
     0
 62
   257
176
     0
 90
        1
176
     0
 90
        1
176
     0
 40
1.0
176
     0
 90
        9
176
     2
 62
     7
176
     0
 40
1.0
176
     0
 90
        1
176
     0
 90
        6
176
     0
 90
        2
176
     0
 62
     7
176
     0
 90
        5
176
     0
 90
        0
176
     0
 90
        0
176
     0
290
     0
176
     0
 90
        1
176
     0
 40
0.0
176
     0
 90
        0
176
     0
290
     0
176
     0
290
     1
176
     0
290
     1
176
     0
290
     0
176
     0
290
     0
176
     0
290
     0
176
     0
290
     0
176
     0
290
     0
176
     0
290
     0
176
     0
 90
       50
176
     0
 40
0.0
176
     0
 40
1.0
176
     0
 90
        0
176
     0
 62
    18
420
        0
176
     0
 90
       50
176
     0
 90
        3
176
     0
 62
     5
420
      255
176
     0
290
     0
176
     0
 90
       50
176
     0
 90
       50
176
     0
 90
       50
176
     0
290
     0
176
     0
 90
       50
176
     0
 62
   256
176
     0
 40
1.0
176
     0
 90
        2
176
     0
  1
strokes_ogs.tif
176
     0
290
     0
176
     0
 40
1.0
176
     0
 40
1.0
176
     0
  0
VISUALSTYLE
  5
33
102
{ACAD_REACTORS
330
29
102
}
330
29
100
AcDbVisualStyle
  2
Realistic
 70
     8
177
     3
291
     0
 70
    58
 90
        2
176
     1
 90
        3
176
     1
 90
        0
176
     1
 90
        2
176
     1
 40
0.6
176
     1
 40
30.0
176
     1
 62
     7
420
 16777215
176
     1
 90
        0
176
     1
 90
        0
176
     1
 62
     7
176
     1
 62
   257
176
     1
 90
        1
176
     1
 90
        1
176
     1
 40
1.0
176
     1
 90
        8
176
     1
 62
   257
176
     1
 40
1.0
176
     1
 90
        1
176
     1
 90
        6
176
     1
 90
        2
176
     1
 62
     7
176
     1
 90
        3
176
     1
 90
        0
176
     1
 90
        0
176
     1
290
     0
176
     1
 90
       13
176
     1
 40
0.0
176
     1
 90
        0
176
     1
290
     0
176
     1
290
     1
176
     1
290
     1
176
     1
290
     0
176
     1
290
     0
176
     1
290
     0
176
     1
290
     0
176
     1
290
     0
176
     1
290
     0
176
     1
 90
       50
176
     1
 40
0.0
176
     1
 40
1.0
176
     1
 90
        0
176
     1
 62
    18
420
        0
176
     1
 90
       50
176
     1
 90
        3
176
     1
 62
     5
420
      255
176
     1
290
     0
176
     1
 90
       50
176
     1
 90
       50
176
     1
 90
       50
176
     1
290
     0
176
     1
 90
       50
176
     1
 62
   256
176
     0
 40
1.0
176
     0
 90
        2
176
     1
  1
strokes_ogs.tif
176
     1
290
     0
176
     1
 40
1.0
176
     1
 40
1.0
176
     1
  0
VISUALSTYLE
  5
3E
102
{ACAD_REACTORS
330
29
102
}
330
29
100
AcDbVisualStyle
  2
Shaded
 70
    27
177
     3
291
     0
 70
    58
 90
        2
176
     1
 90
        2
176
     1
 90
        1
176
     1
 90
        2
176
     1
 40
0.6
176
     1
 40
30.0
176
     1
 62
     7
420
 16777215
176
     1
 90
        0
176
     1
 90
        4
176
     1
 62
     7
176
     1
 62
   257
176
     1
 90
        1
176
     1
 90
        1
176
     1
 40
1.0
176
     1
 90
        8
176
     1
 62
   257
176
     1
 40
1.0
176
     1
 90
        1
176
     1
 90
        6
176
     1
 90
        2
176
     1
 62
     8
420
  7895160
176
     1
 90
        3
176
     1
 90
        0
176
     1
 90
        0
176
     1
290
     0
176
     1
 90
        5
176
     1
 40
0.0
176
     1
 90
        0
176
     1
290
     0
176
     1
290
     1
176
     1
290
     1
176
     1
290
     0
176
     1
290
     0
176
     1
290
     0
176
     1
290
     0
176
     1
290
     0
176
     1
290
     0
176
     1
 90
       50
176
     1
 40
0.0
176
     1
 40
1.0
176
     1
 90
        0
176
     1
 62
    18
420
        0
176
     1
 90
       50
176
     1
 90
        3
176
     1
 62
     5
420
      255
176
     1
290
     0
176
     1
 90
       50
176
     1
 90
       50
176
     1
 90
       50
176
     1
290
     0
176
     1
 90
       50
176
     1
 62
   256
176
     0
 40
1.0
176
     0
 90
        2
176
     1
  1
strokes_ogs.tif
176
     1
290
     0
176
     1
 40
1.0
176
     1
 40
1.0
176
     1
  0
VISUALSTYLE
  5
3D
102
{ACAD_REACTORS
330
29
102
}
330
29
100
AcDbVisualStyle
  2
Shaded with edges
 70
    26
177
     3
291
     0
 70
    58
 90
        2
176
     1
 90
        2
176
     1
 90
        1
176
     1
 90
        2
176
     1
 40
0.6
176
     1
 40
30.0
176
     1
 62
     7
420
 16777215
176
     1
 90
        1
176
     1
 90
        2
176
     1
 62
     7
176
     1
 62
   257
176
     1
 90
        2
176
     1
 90
        1
176
     1
 40
1.0
176
     1
 90
        8
176
     1
 62
   257
176
     1
 40
1.0
176
     1
 90
        1
176
     1
 90
        6
176
     1
 90
        2
176
     1
 62
     7
176
     1
 90
        3
176
     1
 90
        0
176
     1
 90
        0
176
     1
290
     0
176
     1
 90
        5
176
     1
 40
0.0
176
     1
 90
        0
176
     1
290
     0
176
     1
290
     1
176
     1
290
     1
176
     1
290
     0
176
     1
290
     0
176
     1
290
     0
176
     1
290
     0
176
     1
290
     0
176
     1
290
     0
176
     1
 90
       50
176
     1
 40
0.0
176
     1
 40
1.0
176
     1
 90
        0
176
     1
 62
    18
420
        0
176
     1
 90
       50
176
     1
 90
        3
176
     1
 62
     5
420
      255
176
     1
290
     0
176
     1
 90
       50
176
     1
 90
       50
176
     1
 90
       50
176
     1
290
     0
176
     1
 90
       50
176
     1
 62
   256
176
     0
 40
1.0
176
     0
 90
        2
176
     1
  1
strokes_ogs.tif
176
     1
290
     0
176
     1
 40
1.0
176
     1
 40
1.0
176
     1
  0
VISUALSTYLE
  5
3A
102
{ACAD_REACTORS
330
29
102
}
330
29
100
AcDbVisualStyle
  2
Shades of Gray
 70
    23
177
     3
291
     0
 70
    58
 90
        2
176
     1
 90
        2
176
     1
 90
        3
176
     1
 90
        0
176
     1
 40
0.6
176
     1
 40
30.0
176
     1
 62
     7
420
 16777215
176
     1
 90
        2
176
     1
 90
        2
176
     1
 62
     7
176
     1
 62
     7
176
     1
 90
        1
176
     1
 90
        1
176
     1
 40
40.0
176
     1
 90
        8
176
     1
 62
     7
176
     1
 40
1.0
176
     1
 90
        1
176
     1
 90
        6
176
     1
 90
        2
176
     1
 62
     7
176
     1
 90
        3
176
     1
 90
        0
176
     1
 90
        0
176
     1
290
     0
176
     1
 90
        1
176
     1
 40
0.0
176
     1
 90
        0
176
     1
290
     0
176
     1
290
     1
176
     1
290
     1
176
     1
290
     0
176
     1
290
     0
176
     1
290
     0
176
     1
290
     0
176
     1
290
     0
176
     1
290
     0
176
     1
 90
       50
176
     1
 40
0.0
176
     1
 40
1.0
176
     1
 90
        0
176
     1
 62
    18
420
        0
176
     1
 90
       50
176
     1
 90
        3
176
     1
 62
     5
420
      255
176
     1
290
     0
176
     1
 90
       50
176
     1
 90
       50
176
     1
 90
       50
176
     1
290
     0
176
     1
 90
       50
176
     1
 62
   256
176
     0
 40
1.0
176
     0
 90
        2
176
     1
  1
strokes_ogs.tif
176
     1
290
     0
176
     1
 40
1.0
176
     1
 40
1.0
176
     1
  0
VISUALSTYLE
  5
3B
102
{ACAD_REACTORS
330
29
102
}
330
29
100
AcDbVisualStyle
  2
Sketchy
 70
    24
177
     3
291
     0
 70
    58
 90
        1
176
     1
 90
        2
176
     1
 90
        2
176
     1
 90
        0
176
     1
 40
0.6
176
     1
 40
30.0
176
     1
 62
     7
420
 16777215
176
     1
 90
        2
176
     1
 90
        2
176
     1
 62
     7
176
     1
 62
     7
176
     1
 90
        1
176
     1
 90
        1
176
     1
 40
40.0
176
     1
 90
       11
176
     1
 62
     7
176
     1
 40
1.0
176
     1
 90
        1
176
     1
 90
        6
176
     1
 90
        2
176
     1
 62
     7
176
     1
 90
        6
176
     1
 90
        0
176
     1
 90
        0
176
     1
290
     0
176
     1
 90
        1
176
     1
 40
0.0
176
     1
 90
        0
176
     1
290
     0
176
     1
290
     1
176
     1
290
     1
176
     1
290
     0
176
     1
290
     0
176
     1
290
     0
176
     1
290
     0
176
     1
290
     0
176
     1
290
     0
176
     1
 90
       50
176
     1
 40
0.0
176
     1
 40
1.0
176
     1
 90
        0
176
     1
 62
    18
420
        0
176
     1
 90
       50
176
     1
 90
        3
176
     1
 62
     5
420
      255
176
     1
290
     0
176
     1
 90
       50
176
     1
 90
       50
176
     1
 90
       50
176
     1
290
     0
176
     1
 90
       50
176
     1
 62
   256
176
     0
 40
1.0
176
     0
 90
        2
176
     1
  1
strokes_ogs.tif
176
     1
290
     0
176
     1
 40
1.0
176
     1
 40
1.0
176
     1
  0
VISUALSTYLE
  5
36
102
{ACAD_REACTORS
330
29
102
}
330
29
100
AcDbVisualStyle
  2
Thicken
 70
    13
177
     3
291
     1
 70
    58
 90
        2
176
     1
 90
        2
176
     1
 90
        0
176
     1
 90
        0
176
     1
 40
0.6
176
     1
 40
30.0
176
     1
 62
     7
420
 16777215
176
     1
 90
        1
176
     1
 90
        4
176
     1
 62
     7
176
     1
 62
   257
176
     1
 90
        1
176
     1
 90
        1
176
     1
 40
1.0
176
     1
 90
       12
176
     1
 62
     7
176
     1
 40
1.0
176
     1
 90
        1
176
     1
 90
        6
176
     1
 90
        2
176
     1
 62
     7
176
     1
 90
        5
176
     1
 90
        0
176
     1
 90
        0
176
     1
290
     0
176
     1
 90
        1
176
     1
 40
0.0
176
     1
 90
        0
176
     1
290
     0
176
     1
290
     1
176
     1
290
     1
176
     1
290
     0
176
     1
290
     0
176
     1
290
     0
176
     1
290
     0
176
     1
290
     0
176
     1
290
     0
176
     1
 90
       50
176
     1
 40
0.0
176
     1
 40
1.0
176
     1
 90
        0
176
     1
 62
    18
420
        0
176
     1
 90
       50
176
     1
 90
        3
176
     1
 62
     5
420
      255
176
     1
290
     0
176
     1
 90
       50
176
     1
 90
       50
176
     1
 90
       50
176
     1
290
     0
176
     1
 90
       50
176
     1
 62
   256
176
     0
 40
1.0
176
     0
 90
        2
176
     1
  1
strokes_ogs.tif
176
     1
290
     0
176
     1
 40
1.0
176
     1
 40
1.0
176
     1
  0
VISUALSTYLE
  5
30
102
{ACAD_REACTORS
330
29
102
}
330
29
100
AcDbVisualStyle
  2
Wireframe
 70
     5
177
     3
291
     0
 70
    58
 90
        0
176
     1
 90
        2
176
     1
 90
        0
176
     1
 90
        0
176
     1
 40
0.6
176
     1
 40
30.0
176
     1
 62
     7
420
 16777215
176
     1
 90
        1
176
     1
 90
        4
176
     1
 62
     7
176
     1
 62
   257
176
     1
 90
        1
176
     1
 90
        1
176
     1
 40
1.0
176
     1
 90
        0
176
     1
 62
   257
176
     1
 40
1.0
176
     1
 90
        1
176
     1
 90
        6
176
     1
 90
        2
176
     1
 62
     7
176
     1
 90
        3
176
     1
 90
        0
176
     1
 90
        0
176
     1
290
     0
176
     1
 90
        1
176
     1
 40
0.0
176
     1
 90
        0
176
     1
290
     0
176
     1
290
     1
176
     1
290
     1
176
     1
290
     0
176
     1
290
     0
176
     1
290
     0
176
     1
290
     0
176
     1
290
     0
176
     1
290
     0
176
     1
 90
       50
176
     1
 40
0.0
176
     1
 40
1.0
176
     1
 90
        0
176
     1
 62
    18
420
        0
176
     1
 90
       50
176
     1
 90
        3
176
     1
 62
     5
420
      255
176
     1
290
     0
176
     1
 90
       50
176
     1
 90
       50
176
     1
 90
       50
176
     1
290
     0
176
     1
 90
       50
176
     1
 62
   256
176
     0
 40
1.0
176
     0
 90
        2
176
     1
  1
strokes_ogs.tif
176
     1
290
     0
176
     1
 40
1.0
176
     1
 40
1.0
176
     1
  0
VISUALSTYLE
  5
3C
102
{ACAD_REACTORS
330
29
102
}
330
29
100
AcDbVisualStyle
  2
X-Ray
 70
    25
177
     3
291
     0
 70
    58
 90
        2
176
     1
 90
        2
176
     1
 90
        1
176
     1
 90
        1
176
     1
 40
0.5
176
     1
 40
30.0
176
     1
 62
     7
420
 16777215
176
     1
 90
        1
176
     1
 90
        0
176
     1
 62
     7
176
     1
 62
   257
176
     1
 90
        1
176
     1
 90
        1
176
     1
 40
1.0
176
     1
 90
        8
176
     1
 62
     7
176
     1
 40
1.0
176
     1
 90
        1
176
     1
 90
        6
176
     1
 90
        2
176
     1
 62
     7
176
     1
 90
        3
176
     1
 90
        0
176
     1
 90
        0
176
     1
290
     0
176
     1
 90
       13
176
     1
 40
0.0
176
     1
 90
        0
176
     1
290
     0
176
     1
290
     1
176
     1
290
     1
176
     1
290
     0
176
     1
290
     0
176
     1
290
     0
176
     1
290
     0
176
     1
290
     0
176
     1
290
     0
176
     1
 90
       50
176
     1
 40
0.0
176
     1
 40
1.0
176
     1
 90
        0
176
     1
 62
    18
420
        0
176
     1
 90
       50
176
     1
 90
        3
176
     1
 62
     5
420
      255
176
     1
290
     0
176
     1
 90
       50
176
     1
 90
       50
176
     1
 90
       50
176
     1
290
     0
176
     1
 90
       50
176
     1
 62
   256
176
     0
 40
1.0
176
     0
 90
        2
176
     1
  1
strokes_ogs.tif
176
     1
290
     0
176
     1
 40
1.0
176
     1
 40
1.0
176
     1
  0
DICTIONARYVAR
  5
9D
102
{ACAD_REACTORS
330
98
102
}
330
98
100
DictionaryVariables
280
     0
  1
1:1
  0
DICTIONARYVAR
  5
9A
102
{ACAD_REACTORS
330
98
102
}
330
98
100
DictionaryVariables
280
     0
  1
STANDARD
  0
DICTIONARYVAR
  5
99
102
{ACAD_REACTORS
330
98
102
}
330
98
100
DictionaryVariables
280
     0
  1
STANDARD
  0
DICTIONARYVAR
  5
9B
102
{ACAD_REACTORS
330
98
102
}
330
98
100
DictionaryVariables
280
     0
  1
Imperial24
  0
DICTIONARYVAR
  5
9C
102
{ACAD_REACTORS
330
98
102
}
330
98
100
DictionaryVariables
280
     0
  1
Imperial24
  0
DICTIONARY
  5
1A
330
19
100
AcDbDictionary
280
     1
281
     1
  3
BUMPTILE
360
1C
  3
DIFFUSETILE
360
1B
  3
OPACITYTILE
360
1F
  3
REFLECTIONTILE
360
1E
  3
REFRACTIONTILE
360
20
  3
SPECULARTILE
360
1D
  0
DICTIONARY
  5
12
330
11
100
AcDbDictionary
280
     1
281
     1
  3
BUMPTILE
360
14
  3
DIFFUSETILE
360
13
  3
OPACITYTILE
360
17
  3
REFLECTIONTILE
360
16
  3
REFRACTIONTILE
360
18
  3
SPECULARTILE
360
15
  0
DICTIONARY
  5
22
330
21
100
AcDbDictionary
280
     1
281
     1
  3
BUMPTILE
360
24
  3
DIFFUSETILE
360
23
  3
OPACITYTILE
360
27
  3
REFLECTIONTILE
360
26
  3
REFRACTIONTILE
360
28
  3
SPECULARTILE
360
25
  0
DICTIONARY
  5
9E
330
65
100
AcDbDictionary
280
     1
281
     1
  3
ACAD_ROUNDTRIP_2008_TABLESTYLE_CELLSTYLEMAP
360
9F
  0
XRECORD
  5
1C
102
{ACAD_REACTORS
330
1A
102
}
330
1A
100
AcDbXrecord
280
     1
270
     1
271
     1
  0
XRECORD
  5
1B
102
{ACAD_REACTORS
330
1A
102
}
330
1A
100
AcDbXrecord
280
     1
270
     1
271
     1
  0
XRECORD
  5
1F
102
{ACAD_REACTORS
330
1A
102
}
330
1A
100
AcDbXrecord
280
     1
270
     1
271
     1
  0
XRECORD
  5
1E
102
{ACAD_REACTORS
330
1A
102
}
330
1A
100
AcDbXrecord
280
     1
270
     1
271
     1
  0
XRECORD
  5
20
102
{ACAD_REACTORS
330
1A
102
}
330
1A
100
AcDbXrecord
280
     1
270
     1
271
     1
  0
XRECORD
  5
1D
102
{ACAD_REACTORS
330
1A
102
}
330
1A
100
AcDbXrecord
280
     1
270
     1
271
     1
  0
XRECORD
  5
14
102
{ACAD_REACTORS
330
12
102
}
330
12
100
AcDbXrecord
280
     1
270
     1
271
     1
  0
XRECORD
  5
13
102
{ACAD_REACTORS
330
12
102
}
330
12
100
AcDbXrecord
280
     1
270
     1
271
     1
  0
XRECORD
  5
17
102
{ACAD_REACTORS
330
12
102
}
330
12
100
AcDbXrecord
280
     1
270
     1
271
     1
  0
XRECORD
  5
16
102
{ACAD_REACTORS
330
12
102
}
330
12
100
AcDbXrecord
280
     1
270
     1
271
     1
  0
XRECORD
  5
18
102
{ACAD_REACTORS
330
12
102
}
330
12
100
AcDbXrecord
280
     1
270
     1
271
     1
  0
XRECORD
  5
15
102
{ACAD_REACTORS
330
12
102
}
330
12
100
AcDbXrecord
280
     1
270
     1
271
     1
  0
XRECORD
  5
24
102
{ACAD_REACTORS
330
22
102
}
330
22
100
AcDbXrecord
280
     1
270
     1
271
     1
  0
XRECORD
  5
23
102
{ACAD_REACTORS
330
22
102
}
330
22
100
AcDbXrecord
280
     1
270
     1
271
     1
  0
XRECORD
  5
27
102
{ACAD_REACTORS
330
22
102
}
330
22
100
AcDbXrecord
280
     1
270
     1
271
     1
  0
XRECORD
  5
26
102
{ACAD_REACTORS
330
22
102
}
330
22
100
AcDbXrecord
280
     1
270
     1
271
     1
  0
XRECORD
  5
28
102
{ACAD_REACTORS
330
22
102
}
330
22
100
AcDbXrecord
280
     1
270
     1
271
     1
  0
XRECORD
  5
25
102
{ACAD_REACTORS
330
22
102
}
330
22
100
AcDbXrecord
280
     1
270
     1
271
     1
  0
CELLSTYLEMAP
  5
9F
102
{ACAD_REACTORS
330
9E
102
}
330
9E
100
AcDbCellStyleMap
 90
        3
300
CELLSTYLE
  1
TABLEFORMAT_BEGIN
 90
        5
170
     1
 91
        0
 92
    32768
 62
   257
 93
        1
300
CONTENTFORMAT
  1
CONTENTFORMAT_BEGIN
 90
        0
 91
        0
 92
      512
 93
        0
300

 40
0.0
140
1.0
 94
        5
 62
     0
340
55
144
0.25
309
CONTENTFORMAT_END
171
     0
 94
        0
309
TABLEFORMAT_END
  1
CELLSTYLE_BEGIN
 90
        1
 91
        1
300
_TITLE
309
CELLSTYLE_END
300
CELLSTYLE
  1
TABLEFORMAT_BEGIN
 90
        5
170
     1
 91
        0
 92
        0
 62
   257
 93
        1
300
CONTENTFORMAT
  1
CONTENTFORMAT_BEGIN
 90
        0
 91
        0
 92
      512
 93
        0
300

 40
0.0
140
1.0
 94
        5
 62
     0
340
55
144
0.18
309
CONTENTFORMAT_END
171
     0
 94
        0
309
TABLEFORMAT_END
  1
CELLSTYLE_BEGIN
 90
        2
 91
        1
300
_HEADER
309
CELLSTYLE_END
300
CELLSTYLE
  1
TABLEFORMAT_BEGIN
 90
        5
170
     1
 91
        0
 92
        0
 62
   257
 93
        1
300
CONTENTFORMAT
  1
CONTENTFORMAT_BEGIN
 90
        0
 91
        0
 92
      512
 93
        0
300

 40
0.0
140
1.0
 94
        2
 62
     0
340
55
144
0.18
309
CONTENTFORMAT_END
171
     0
 94
        0
309
TABLEFORMAT_END
  1
CELLSTYLE_BEGIN
 90
        3
 91
        2
300
_DATA
309
CELLSTYLE_END
  0
ENDSEC
  0
EOF
