  0
SECTION
  2
HEADER
  9
$ACADVER
  1
AC1032
  9
$ACADMAINTVER
 90
      327
  9
$DWGCODEPAGE
  3
ANSI_1252
  9
$REQUIREDVERSIONS
160
                 0
  9
$INSBASE
 10
0.0
 20
0.0
 30
0.0
  9
$EXTMIN
 10
1.000000000000000E+20
 20
1.000000000000000E+20
 30
1.000000000000000E+20
  9
$EXTMAX
 10
-1.000000000000000E+20
 20
-1.000000000000000E+20
 30
-1.000000000000000E+20
  9
$LIMMIN
 10
0.0
 20
0.0
  9
$LIMMAX
 10
12.0
 20
9.0
  9
$ORTHOMODE
 70
     0
  9
$REGENMODE
 70
     1
  9
$FILLMODE
 70
     1
  9
$QTEXTMODE
 70
     0
  9
$MIRRTEXT
 70
     0
  9
$LTSCALE
 40
1.0
  9
$ATTMODE
 70
     1
  9
$TEXTSIZE
 40
0.2
  9
$TRACEWID
 40
0.05
  9
$TEXTSTYLE
  7
Standard
  9
$CLAYER
  8
0
  9
$CELTYPE
  6
ByLayer
  9
$CECOLOR
 62
   256
  9
$CELTSCALE
 40
1.0
  9
$DISPSILH
 70
     0
  9
$DIMSCALE
 40
1.0
  9
$DIMASZ
 40
0.18
  9
$DIMEXO
 40
0.0625
  9
$DIMDLI
 40
0.38
  9
$DIMRND
 40
0.0
  9
$DIMDLE
 40
0.0
  9
$DIMEXE
 40
0.18
  9
$DIMTP
 40
0.0
  9
$DIMTM
 40
0.0
  9
$DIMTXT
 40
0.18
  9
$DIMCEN
 40
0.09
  9
$DIMTSZ
 40
0.0
  9
$DIMTOL
 70
     0
  9
$DIMLIM
 70
     0
  9
$DIMTIH
 70
     1
  9
$DIMTOH
 70
     1
  9
$DIMSE1
 70
     0
  9
$DIMSE2
 70
     0
  9
$DIMTAD
 70
     0
  9
$DIMZIN
 70
     0
  9
$DIMBLK
  1

  9
$DIMASO
 70
     1
  9
$DIMSHO
 70
     1
  9
$DIMPOST
  1

  9
$DIMAPOST
  1

  9
$DIMALT
 70
     0
  9
$DIMALTD
 70
     2
  9
$DIMALTF
 40
25.4
  9
$DIMLFAC
 40
1.0
  9
$DIMTOFL
 70
     0
  9
$DIMTVP
 40
0.0
  9
$DIMTIX
 70
     0
  9
$DIMSOXD
 70
     0
  9
$DIMSAH
 70
     0
  9
$DIMBLK1
  1

  9
$DIMBLK2
  1

  9
$DIMSTYLE
  2
Standard
  9
$DIMCLRD
 70
     0
  9
$DIMCLRE
 70
     0
  9
$DIMCLRT
 70
     0
  9
$DIMTFAC
 40
1.0
  9
$DIMGAP
 40
0.09
  9
$DIMJUST
 70
     0
  9
$DIMSD1
 70
     0
  9
$DIMSD2
 70
     0
  9
$DIMTOLJ
 70
     1
  9
$DIMTZIN
 70
     0
  9
$DIMALTZ
 70
     0
  9
$DIMALTTZ
 70
     0
  9
$DIMUPT
 70
     0
  9
$DIMDEC
 70
     4
  9
$DIMTDEC
 70
     4
  9
$DIMALTU
 70
     2
  9
$DIMALTTD
 70
     2
  9
$DIMTXSTY
  7
Standard
  9
$DIMAUNIT
 70
     0
  9
$DIMADEC
 70
     0
  9
$DIMALTRND
 40
0.0
  9
$DIMAZIN
 70
     0
  9
$DIMDSEP
 70
    46
  9
$DIMATFIT
 70
     3
  9
$DIMFRAC
 70
     0
  9
$DIMLDRBLK
  1

  9
$DIMLUNIT
 70
     2
  9
$DIMLWD
 70
    -2
  9
$DIMLWE
 70
    -2
  9
$DIMTMOVE
 70
     0
  9
$DIMFXL
 40
1.0
  9
$DIMFXLON
 70
     0
  9
$DIMJOGANG
 40
0.7853981633974483
  9
$DIMTFILL
 70
     0
  9
$DIMTFILLCLR
 70
     0
  9
$DIMARCSYM
 70
     0
  9
$DIMLTYPE
  6

  9
$DIMLTEX1
  6

  9
$DIMLTEX2
  6

  9
$DIMTXTDIRECTION
 70
     0
  9
$LUNITS
 70
     2
  9
$LUPREC
 70
     4
  9
$SKETCHINC
 40
0.1
  9
$FILLETRAD
 40
0.0
  9
$AUNITS
 70
     0
  9
$AUPREC
 70
     0
  9
$MENU
  1
.
  9
$ELEVATION
 40
0.0
  9
$PELEVATION
 40
0.0
  9
$THICKNESS
 40
0.0
  9
$LIMCHECK
 70
     0
  9
$CHAMFERA
 40
0.0
  9
$CHAMFERB
 40
0.0
  9
$CHAMFERC
 40
0.0
  9
$CHAMFERD
 40
0.0
  9
$SKPOLY
 70
     0
  9
$TDCREATE
 40
2460649.485081018
  9
$TDUCREATE
 40
2460649.735081018
  9
$TDUPDATE
 40
2460649.485081018
  9
$TDUUPDATE
 40
2460649.735081018
  9
$TDINDWG
 40
0.0000000000
  9
$TDUSRTIMER
 40
0.0000000000
  9
$USRTIMER
 70
     1
  9
$ANGBASE
 50
0.0
  9
$ANGDIR
 70
     0
  9
$PDMODE
 70
     0
  9
$PDSIZE
 40
0.0
  9
$PLINEWID
 40
0.0
  9
$SPLFRAME
 70
     0
  9
$SPLINETYPE
 70
     6
  9
$SPLINESEGS
 70
     8
  9
$HANDSEED
  5
99
  9
$SURFTAB1
 70
     6
  9
$SURFTAB2
 70
     6
  9
$SURFTYPE
 70
     6
  9
$SURFU
 70
     6
  9
$SURFV
 70
     6
  9
$UCSBASE
  2

  9
$UCSNAME
  2

  9
$UCSORG
 10
0.0
 20
0.0
 30
0.0
  9
$UCSXDIR
 10
1.0
 20
0.0
 30
0.0
  9
$UCSYDIR
 10
0.0
 20
1.0
 30
0.0
  9
$UCSORTHOREF
  2

  9
$UCSORTHOVIEW
 70
     0
  9
$UCSORGTOP
 10
0.0
 20
0.0
 30
0.0
  9
$UCSORGBOTTOM
 10
0.0
 20
0.0
 30
0.0
  9
$UCSORGLEFT
 10
0.0
 20
0.0
 30
0.0
  9
$UCSORGRIGHT
 10
0.0
 20
0.0
 30
0.0
  9
$UCSORGFRONT
 10
0.0
 20
0.0
 30
0.0
  9
$UCSORGBACK
 10
0.0
 20
0.0
 30
0.0
  9
$PUCSBASE
  2

  9
$PUCSNAME
  2

  9
$PUCSORG
 10
0.0
 20
0.0
 30
0.0
  9
$PUCSXDIR
 10
1.0
 20
0.0
 30
0.0
  9
$PUCSYDIR
 10
0.0
 20
1.0
 30
0.0
  9
$PUCSORTHOREF
  2

  9
$PUCSORTHOVIEW
 70
     0
  9
$PUCSORGTOP
 10
0.0
 20
0.0
 30
0.0
  9
$PUCSORGBOTTOM
 10
0.0
 20
0.0
 30
0.0
  9
$PUCSORGLEFT
 10
0.0
 20
0.0
 30
0.0
  9
$PUCSORGRIGHT
 10
0.0
 20
0.0
 30
0.0
  9
$PUCSORGFRONT
 10
0.0
 20
0.0
 30
0.0
  9
$PUCSORGBACK
 10
0.0
 20
0.0
 30
0.0
  9
$USERI1
 70
     0
  9
$USERI2
 70
     0
  9
$USERI3
 70
     0
  9
$USERI4
 70
     0
  9
$USERI5
 70
     0
  9
$USERR1
 40
0.0
  9
$USERR2
 40
0.0
  9
$USERR3
 40
0.0
  9
$USERR4
 40
0.0
  9
$USERR5
 40
0.0
  9
$WORLDVIEW
 70
     1
  9
$SHADEDGE
 70
     3
  9
$SHADEDIF
 70
    70
  9
$TILEMODE
 70
     1
  9
$MAXACTVP
 70
    64
  9
$PINSBASE
 10
0.0
 20
0.0
 30
0.0
  9
$PLIMCHECK
 70
     0
  9
$PEXTMIN
 10
1.000000000000000E+20
 20
1.000000000000000E+20
 30
1.000000000000000E+20
  9
$PEXTMAX
 10
-1.000000000000000E+20
 20
-1.000000000000000E+20
 30
-1.000000000000000E+20
  9
$PLIMMIN
 10
0.0
 20
0.0
  9
$PLIMMAX
 10
12.0
 20
9.0
  9
$UNITMODE
 70
     0
  9
$VISRETAIN
 70
     1
  9
$PLINEGEN
 70
     0
  9
$PSLTSCALE
 70
     1
  9
$TREEDEPTH
 70
  3020
  9
$CMLSTYLE
  2
Standard
  9
$CMLJUST
 70
     0
  9
$CMLSCALE
 40
1.0
  9
$PROXYGRAPHICS
 70
     1
  9
$MEASUREMENT
 70
     0
  9
$CELWEIGHT
370
    -1
  9
$ENDCAPS
280
     0
  9
$JOINSTYLE
280
     0
  9
$LWDISPLAY
290
     1
  9
$INSUNITS
 70
     0
  9
$HYPERLINKBASE
  1

  9
$STYLESHEET
  1

  9
$XEDIT
290
     1
  9
$CEPSNTYPE
380
     0
  9
$PSTYLEMODE
290
     1
  9
$FINGERPRINTGUID
  2
{8487A634-05CF-7F4F-B350-0156021CD54E}
  9
$VERSIONGUID
  2
{7279F7E5-F8D0-754E-BA2E-3E726D6F4F5A}
  9
$EXTNAMES
290
     1
  9
$PSVPSCALE
 40
0.0
  9
$OLESTARTUP
290
     0
  9
$SORTENTS
280
   127
  9
$INDEXCTL
280
     0
  9
$HIDETEXT
280
     1
  9
$XCLIPFRAME
280
     2
  9
$HALOGAP
280
     0
  9
$OBSCOLOR
 70
   257
  9
$OBSLTYPE
280
     0
  9
$INTERSECTIONDISPLAY
280
     0
  9
$INTERSECTIONCOLOR
 70
   257
  9
$DIMASSOC
280
     2
  9
$PROJECTNAME
  1

  9
$CAMERADISPLAY
290
     0
  9
$LENSLENGTH
 40
50.0
  9
$CAMERAHEIGHT
 40
0.0
  9
$STEPSPERSEC
 40
2.0
  9
$STEPSIZE
 40
6.0
  9
$3DDWFPREC
 40
2.0
  9
$PSOLWIDTH
 40
0.25
  9
$PSOLHEIGHT
 40
4.0
  9
$LOFTANG1
 40
1.570796326794896
  9
$LOFTANG2
 40
1.570796326794896
  9
$LOFTMAG1
 40
0.0
  9
$LOFTMAG2
 40
0.0
  9
$LOFTPARAM
 70
     7
  9
$LOFTNORMALS
280
     1
  9
$LATITUDE
 40
37.795
  9
$LONGITUDE
 40
-122.394
  9
$NORTHDIRECTION
 40
0.0
  9
$TIMEZONE
 70
 -8000
  9
$LIGHTGLYPHDISPLAY
280
     1
  9
$TILEMODELIGHTSYNCH
280
     1
  9
$CMATERIAL
347
11
  9
$SOLIDHIST
280
     0
  9
$SHOWHIST
280
     1
  9
$DWFFRAME
280
     2
  9
$DGNFRAME
280
     0
  9
$REALWORLDSCALE
290
     1
  9
$INTERFERECOLOR
 62
     1
  9
$INTERFEREOBJVS
345
33
  9
$INTERFEREVPVS
346
30
  9
$CSHADOW
280
     0
  9
$SHADOWPLANELOCATION
 40
0.0
  0
ENDSEC
  0
SECTION
  2
CLASSES
  0
CLASS
  1
ACDBDICTIONARYWDFLT
  2
AcDbDictionaryWithDefault
  3
ObjectDBX Classes
 90
        0
 91
        1
280
     0
281
     0
  0
CLASS
  1
MATERIAL
  2
AcDbMaterial
  3
ObjectDBX Classes
 90
     1153
 91
        3
280
     0
281
     0
  0
CLASS
  1
VISUALSTYLE
  2
AcDbVisualStyle
  3
ObjectDBX Classes
 90
     4095
 91
       24
280
     0
281
     0
  0
CLASS
  1
SCALE
  2
AcDbScale
  3
ObjectDBX Classes
 90
     1153
 91
       17
280
     0
281
     0
  0
CLASS
  1
TABLESTYLE
  2
AcDbTableStyle
  3
ObjectDBX Classes
 90
     4095
 91
        1
280
     0
281
     0
  0
CLASS
  1
MLEADERSTYLE
  2
AcDbMLeaderStyle
  3
ACDB_MLEADERSTYLE_CLASS
 90
     4095
 91
        1
280
     0
281
     0
  0
CLASS
  1
ACDBSECTIONVIEWSTYLE
  2
AcDbSectionViewStyle
  3
ObjectDBX Classes
 90
     1025
 91
        1
280
     0
281
     0
  0
CLASS
  1
ACDBDETAILVIEWSTYLE
  2
AcDbDetailViewStyle
  3
ObjectDBX Classes
 90
     1025
 91
        1
280
     0
281
     0
  0
CLASS
  1
DICTIONARYVAR
  2
AcDbDictionaryVar
  3
ObjectDBX Classes
 90
        0
 91
        5
280
     0
281
     0
  0
CLASS
  1
CELLSTYLEMAP
  2
AcDbCellStyleMap
  3
ObjectDBX Classes
 90
     1152
 91
        1
280
     0
281
     0
  0
ENDSEC
  0
SECTION
  2
TABLES
  0
TABLE
  2
VPORT
  5
8
330
0
100
AcDbSymbolTable
 70
     1
  0
VPORT
  5
57
330
8
100
AcDbSymbolTableRecord
100
AcDbViewportTableRecord
  2
*Active
 70
     0
 10
0.0
 20
0.0
 11
1.0
 21
1.0
 12
0.0
 22
0.0
 13
0.0
 23
0.0
 14
1.0
 24
1.0
 15
0.0
 25
0.0
 16
0.0
 26
0.0
 36
1.0
 17
960.0
 27
540.0
 37
0.0
 40
1101.6
 41
1.777777777777777
 42
50.0
 43
0.0
 44
0.0
 50
0.0
 51
0.0
 71
     0
 72
   100
 73
     1
 74
     1
 75
     0
 76
     0
 77
     0
 78
     0
281
     0
 65
     1
110
0.0
120
0.0
130
0.0
111
1.0
121
0.0
131
0.0
112
0.0
122
1.0
132
0.0
 79
     0
146
0.0
 60
     3
 61
     5
292
     1
282
     1
141
0.0
142
0.0
 63
   250
421
  3355443
  0
ENDTAB
  0
TABLE
  2
LTYPE
  5
5
330
0
100
AcDbSymbolTable
 70
     1
  0
LTYPE
  5
5B
330
5
100
AcDbSymbolTableRecord
100
AcDbLinetypeTableRecord
  2
ByBlock
 70
     0
  3

 72
    65
 73
     0
 40
0.0
  0
LTYPE
  5
5C
330
5
100
AcDbSymbolTableRecord
100
AcDbLinetypeTableRecord
  2
ByLayer
 70
     0
  3

 72
    65
 73
     0
 40
0.0
  0
LTYPE
  5
5D
330
5
100
AcDbSymbolTableRecord
100
AcDbLinetypeTableRecord
  2
Continuous
 70
     0
  3
Solid line
 72
    65
 73
     0
 40
0.0
  0
ENDTAB
  0
TABLE
  2
LAYER
  5
2
330
0
100
AcDbSymbolTable
 70
     2
  0
LAYER
  5
54
330
2
100
AcDbSymbolTableRecord
100
AcDbLayerTableRecord
  2
0
 70
     0
 62
     7
  6
Continuous
370
    -3
390
F
347
21
348
0
  0
LAYER
  5
78
330
2
100
AcDbSymbolTableRecord
100
AcDbLayerTableRecord
  2
Layer 1
 70
     0
 62
     7
  6
Continuous
370
     0
390
F
347
21
348
0
  0
ENDTAB
  0
TABLE
  2
STYLE
  5
3
330
0
100
AcDbSymbolTable
 70
     2
  0
STYLE
  5
55
330
3
100
AcDbSymbolTableRecord
100
AcDbTextStyleTableRecord
  2
Standard
 70
     0
 40
0.0
 41
1.0
 50
0.0
 71
     0
 42
0.2
  3
txt
  4

  0
STYLE
  5
5A
330
3
100
AcDbSymbolTableRecord
100
AcDbTextStyleTableRecord
  2
Annotative
 70
     0
 40
0.0
 41
1.0
 50
0.0
 71
     0
 42
0.2
  3
txt
  4

1001
AcadAnnotative
1000
AnnotativeData
1002
{
1070
     1
1070
     1
1002
}
  0
ENDTAB
  0
TABLE
  2
VIEW
  5
6
330
0
100
AcDbSymbolTable
 70
     0
  0
ENDTAB
  0
TABLE
  2
UCS
  5
7
330
0
100
AcDbSymbolTable
 70
     0
  0
ENDTAB
  0
TABLE
  2
APPID
  5
9
330
0
100
AcDbSymbolTable
 70
     2
  0
APPID
  5
56
330
9
100
AcDbSymbolTableRecord
100
AcDbRegAppTableRecord
  2
ACAD
 70
     0
  0
APPID
  5
5E
330
9
100
AcDbSymbolTableRecord
100
AcDbRegAppTableRecord
  2
AcadAnnotative
 70
     0
  0
ENDTAB
  0
TABLE
  2
DIMSTYLE
  5
A
330
0
100
AcDbSymbolTable
 70
     2
100
AcDbDimStyleTable
 71
     0
  0
DIMSTYLE
105
58
330
A
100
AcDbSymbolTableRecord
100
AcDbDimStyleTableRecord
  2
Standard
 70
     0
340
55
  0
DIMSTYLE
105
59
330
A
100
AcDbSymbolTableRecord
100
AcDbDimStyleTableRecord
  2
Annotative
 70
     0
340
55
1001
AcadAnnotative
1000
AnnotativeData
1002
{
1070
     1
1070
     1
1002
}
  0
ENDTAB
  0
TABLE
  2
BLOCK_RECORD
  5
1
330
0
100
AcDbSymbolTable
 70
     3
  0
BLOCK_RECORD
  5
70
330
1
100
AcDbSymbolTableRecord
100
AcDbBlockTableRecord
  2
*Model_Space
340
73
 70
     0
280
     1
281
     0
  0
BLOCK_RECORD
  5
6C
330
1
100
AcDbSymbolTableRecord
100
AcDbBlockTableRecord
  2
*Paper_Space
340
6F
 70
     0
280
     1
281
     0
  0
BLOCK_RECORD
  5
74
330
1
100
AcDbSymbolTableRecord
100
AcDbBlockTableRecord
  2
*Paper_Space0
340
77
 70
     0
280
     1
281
     0
  0
BLOCK_RECORD
  5
79
330
1
100
AcDbSymbolTableRecord
100
AcDbBlockTableRecord
  2
Block_0
340
0
102
{BLKREFS
331
7A
102
}
 70
     0
280
     1
281
     0
  0
BLOCK_RECORD
  5
7D
330
1
100
AcDbSymbolTableRecord
100
AcDbBlockTableRecord
  2
Block_1
340
0
102
{BLKREFS
331
7E
102
}
 70
     0
280
     1
281
     0
  0
ENDTAB
  0
ENDSEC
  0
SECTION
  2
BLOCKS
  0
BLOCK
  5
71
330
70
100
AcDbEntity
  8
0
100
AcDbBlockBegin
  2
*Model_Space
 70
     0
 10
0.0
 20
0.0
 30
0.0
  3
*Model_Space
  1

  0
ENDBLK
  5
72
330
70
100
AcDbEntity
  8
0
100
AcDbBlockEnd
  0
BLOCK
  5
6D
330
6C
100
AcDbEntity
 67
     1
  8
0
100
AcDbBlockBegin
  2
*Paper_Space
 70
     0
 10
0.0
 20
0.0
 30
0.0
  3
*Paper_Space
  1

  0
ENDBLK
  5
6E
330
6C
100
AcDbEntity
 67
     1
  8
0
100
AcDbBlockEnd
  0
BLOCK
  5
75
330
74
100
AcDbEntity
 67
     1
  8
0
100
AcDbBlockBegin
  2
*Paper_Space0
 70
     0
 10
0.0
 20
0.0
 30
0.0
  3
*Paper_Space0
  1

  0
ENDBLK
  5
76
330
74
100
AcDbEntity
 67
     1
  8
0
100
AcDbBlockEnd
  0
BLOCK
  5
7B
330
79
100
AcDbEntity
  8
0
100
AcDbBlockBegin
  2
Block_0
 70
     0
 10
0.0
 20
0.0
 30
0.0
  3
Block_0
  1

  0
INSERT
  5
7E
330
79
100
AcDbEntity
  8
Layer 1
100
AcDbBlockReference
  2
Block_1
 10
0.0
 20
0.0
 30
0.0
  0
ENDBLK
  5
7C
330
79
100
AcDbEntity
  8
0
100
AcDbBlockEnd
  0
BLOCK
  5
7F
330
7D
100
AcDbEntity
  8
0
100
AcDbBlockBegin
  2
Block_1
 70
     0
 10
0.0
 20
0.0
 30
0.0
  3
Block_1
  1

  0
SPLINE
  5
81
330
7D
100
AcDbEntity
  8
Layer 1
100
AcDbSpline
210
0.0
220
0.0
230
1.0
 70
     9
 71
     3
 72
   314
 73
   310
 74
     0
 42
0.0000000001
 43
0.0000000001
 40
0.0
 40
0.0
 40
0.0
 40
0.0
 40
1.0
 40
1.0
 40
1.0
 40
2.0
 40
2.0
 40
2.0
 40
3.0
 40
3.0
 40
3.0
 40
4.0
 40
4.0
 40
4.0
 40
5.0
 40
5.0
 40
5.0
 40
6.0
 40
6.0
 40
6.0
 40
7.0
 40
7.0
 40
7.0
 40
8.0
 40
8.0
 40
8.0
 40
9.0
 40
9.0
 40
9.0
 40
10.0
 40
10.0
 40
10.0
 40
11.0
 40
11.0
 40
11.0
 40
12.0
 40
12.0
 40
12.0
 40
13.0
 40
13.0
 40
13.0
 40
14.0
 40
14.0
 40
14.0
 40
15.0
 40
15.0
 40
15.0
 40
16.0
 40
16.0
 40
16.0
 40
17.0
 40
17.0
 40
17.0
 40
18.0
 40
18.0
 40
18.0
 40
19.0
 40
19.0
 40
19.0
 40
20.0
 40
20.0
 40
20.0
 40
21.0
 40
21.0
 40
21.0
 40
22.0
 40
22.0
 40
22.0
 40
23.0
 40
23.0
 40
23.0
 40
24.0
 40
24.0
 40
24.0
 40
25.0
 40
25.0
 40
25.0
 40
26.0
 40
26.0
 40
26.0
 40
27.0
 40
27.0
 40
27.0
 40
28.0
 40
28.0
 40
28.0
 40
29.0
 40
29.0
 40
29.0
 40
30.0
 40
30.0
 40
30.0
 40
31.0
 40
31.0
 40
31.0
 40
32.0
 40
32.0
 40
32.0
 40
33.0
 40
33.0
 40
33.0
 40
34.0
 40
34.0
 40
34.0
 40
35.0
 40
35.0
 40
35.0
 40
36.0
 40
36.0
 40
36.0
 40
37.0
 40
37.0
 40
37.0
 40
38.0
 40
38.0
 40
38.0
 40
39.0
 40
39.0
 40
39.0
 40
40.0
 40
40.0
 40
40.0
 40
41.0
 40
41.0
 40
41.0
 40
42.0
 40
42.0
 40
42.0
 40
43.0
 40
43.0
 40
43.0
 40
44.0
 40
44.0
 40
44.0
 40
45.0
 40
45.0
 40
45.0
 40
46.0
 40
46.0
 40
46.0
 40
47.0
 40
47.0
 40
47.0
 40
48.0
 40
48.0
 40
48.0
 40
49.0
 40
49.0
 40
49.0
 40
50.0
 40
50.0
 40
50.0
 40
51.0
 40
51.0
 40
51.0
 40
52.0
 40
52.0
 40
52.0
 40
53.0
 40
53.0
 40
53.0
 40
54.0
 40
54.0
 40
54.0
 40
55.0
 40
55.0
 40
55.0
 40
56.0
 40
56.0
 40
56.0
 40
57.0
 40
57.0
 40
57.0
 40
58.0
 40
58.0
 40
58.0
 40
59.0
 40
59.0
 40
59.0
 40
60.0
 40
60.0
 40
60.0
 40
61.0
 40
61.0
 40
61.0
 40
62.0
 40
62.0
 40
62.0
 40
63.0
 40
63.0
 40
63.0
 40
64.0
 40
64.0
 40
64.0
 40
65.0
 40
65.0
 40
65.0
 40
66.0
 40
66.0
 40
66.0
 40
67.0
 40
67.0
 40
67.0
 40
68.0
 40
68.0
 40
68.0
 40
69.0
 40
69.0
 40
69.0
 40
70.0
 40
70.0
 40
70.0
 40
71.0
 40
71.0
 40
71.0
 40
72.0
 40
72.0
 40
72.0
 40
73.0
 40
73.0
 40
73.0
 40
74.0
 40
74.0
 40
74.0
 40
75.0
 40
75.0
 40
75.0
 40
76.0
 40
76.0
 40
76.0
 40
77.0
 40
77.0
 40
77.0
 40
78.0
 40
78.0
 40
78.0
 40
79.0
 40
79.0
 40
79.0
 40
80.0
 40
80.0
 40
80.0
 40
81.0
 40
81.0
 40
81.0
 40
82.0
 40
82.0
 40
82.0
 40
83.0
 40
83.0
 40
83.0
 40
84.0
 40
84.0
 40
84.0
 40
85.0
 40
85.0
 40
85.0
 40
86.0
 40
86.0
 40
86.0
 40
87.0
 40
87.0
 40
87.0
 40
88.0
 40
88.0
 40
88.0
 40
89.0
 40
89.0
 40
89.0
 40
90.0
 40
90.0
 40
90.0
 40
91.0
 40
91.0
 40
91.0
 40
92.0
 40
92.0
 40
92.0
 40
93.0
 40
93.0
 40
93.0
 40
94.0
 40
94.0
 40
94.0
 40
95.0
 40
95.0
 40
95.0
 40
96.0
 40
96.0
 40
96.0
 40
97.0
 40
97.0
 40
97.0
 40
98.0
 40
98.0
 40
98.0
 40
99.0
 40
99.0
 40
99.0
 40
100.0
 40
100.0
 40
100.0
 40
101.0
 40
101.0
 40
101.0
 40
102.0
 40
102.0
 40
102.0
 40
103.0
 40
103.0
 40
103.0
 40
103.0
 10
1860.428229638865
 20
697.9999974036827
 30
0.0
 10
1879.731069608217
 20
697.999997290799
 30
0.0
 10
1899.033793694012
 20
697.999997290799
 30
0.0
 10
1918.336633663366
 20
697.999997290799
 30
0.0
 10
1918.336633663366
 20
677.7987287947426
 30
0.0
 10
1918.336633663366
 20
657.5974602986861
 30
0.0
 10
1918.336633663366
 20
637.3961936087635
 30
0.0
 10
1917.255208309651
 20
637.5823554622293
 30
0.0
 10
1916.174014723048
 20
637.9286563891164
 30
0.0
 10
1915.092241718659
 20
637.9307009329131
 30
0.0
 10
1898.165130550907
 20
637.9626984045435
 30
0.0
 10
1881.237903499601
 20
637.9592667497627
 30
0.0
 10
1864.310792331849
 20
637.9224288387567
 30
0.0
 10
1863.432163202844
 20
637.9205215611518
 30
0.0
 10
1862.554345258737
 20
637.5462183312511
 30
0.0
 10
1861.721258367624
 20
637.3556278369842
 30
0.0
 10
1861.721258367624
 20
577.8490072705972
 30
0.0
 10
1861.721258367624
 20
518.5943713086417
 30
0.0
 10
1861.721258367624
 20
458.8095121726127
 30
0.0
 10
1863.75061121742
 20
458.8095121726127
 30
0.0
 10
1865.454447155664
 20
458.8095121726127
 30
0.0
 10
1867.15828309391
 20
458.8095121726127
 30
0.0
 10
1882.34528677008
 20
458.8095121726127
 30
0.0
 10
1897.532290446252
 20
458.7900926188194
 30
0.0
 10
1912.719178238865
 20
458.8343356796176
 30
0.0
 10
1914.5922041703
 20
458.8397974291219
 30
0.0
 10
1916.464187149719
 20
459.1848268376052
 30
0.0
 10
1918.336633663366
 20
459.3725202927853
 30
0.0
 10
1918.336633663366
 20
438.8556172206445
 30
0.0
 10
1918.336633663366
 20
418.3386852503572
 30
0.0
 10
1918.336633663366
 20
397.8217821782164
 30
0.0
 10
1279.445669079876
 20
397.8217821782164
 30
0.0
 10
640.5546465546067
 20
397.8217821782164
 30
0.0
 10
1.663510295964442
 20
397.8217821782164
 30
0.0
 10
1.663392262224078
 20
496.460689239795
 30
0.0
 10
1.659407520110107
 20
595.0996107504452
 30
0.0
 10
1.70281937913478
 20
693.738504266018
 30
0.0
 10
1.703444629772093
 20
695.1591343907785
 30
0.0
 10
2.296270957009255
 20
696.5795053352967
 30
0.0
 10
2.612710360986056
 20
697.999997290799
 30
0.0
 10
2.612710360986056
 20
678.3268749146081
 30
0.0
 10
2.612710360986056
 20
658.6537525384174
 30
0.0
 10
2.612710360986056
 20
638.3223936218819
 30
0.0
 10
40.64612108172423
 20
638.3223936218819
 30
0.0
 10
78.01013043557941
 20
638.3223936218819
 30
0.0
 10
115.8723376863272
 20
638.3223936218819
 30
0.0
 10
115.8723376863272
 20
558.232151389875
 30
0.0
 10
115.8723376863272
 20
478.8025930099101
 30
0.0
 10
115.8723376863272
 20
399.3470551971222
 30
0.0
 10
134.9254703185606
 20
399.3470551971222
 30
0.0
 10
153.4688239409252
 20
399.3470551971222
 30
0.0
 10
172.5186031927287
 20
399.3470551971222
 30
0.0
 10
172.5186031927287
 20
479.1578812600564
 30
0.0
 10
172.5186031927287
 20
558.5820501358803
 30
0.0
 10
172.5186031927287
 20
638.4988529229886
 30
0.0
 10
210.5898281666523
 20
638.4988529229886
 30
0.0
 10
248.1534831610133
 20
638.4988529229886
 30
0.0
 10
286.2170018783991
 20
638.4988529229886
 30
0.0
 10
286.2170018783991
 20
640.8374534108625
 30
0.0
 10
286.209904010534
 20
642.6877402602076
 30
0.0
 10
286.2180738013012
 20
644.5379620887251
 30
0.0
 10
286.2968456491572
 20
662.3586465098632
 30
0.0
 10
286.3781959061553
 20
680.1793200941965
 30
0.0
 10
286.458821890923
 20
697.999997290799
 30
0.0
 10
300.6985933723581
 20
697.999997290799
 30
0.0
 10
314.9383648537924
 20
697.999997290799
 30
0.0
 10
329.1781363352275
 20
697.999997290799
 30
0.0
 10
329.2078025258143
 20
695.7918768968347
 30
0.0
 10
329.2633107496058
 20
693.5837583090042
 30
0.0
 10
329.2634266331634
 20
691.3756365604394
 30
0.0
 10
329.2677722665494
 20
596.0600550660092
 30
0.0
 10
329.2671638778756
 20
500.7444780869154
 30
0.0
 10
329.2671928487653
 20
405.4289011078217
 30
0.0
 10
329.2671928487653
 20
403.4268375859137
 30
0.0
 10
329.2671928487653
 20
401.4247451658629
 30
0.0
 10
329.2671928487653
 20
399.3464194379194
 30
0.0
 10
423.8383151539037
 20
399.3464194379194
 30
0.0
 10
517.8438098174346
 20
399.3464194379194
 30
0.0
 10
611.8855760343003
 20
399.3464194379194
 30
0.0
 10
611.8855760343003
 20
419.0806740348326
 30
0.0
 10
611.8855760343003
 20
438.426219676301
 30
0.0
 10
611.8855760343003
 20
458.3313345586266
 30
0.0
 10
536.5213421133358
 20
458.3313345586266
 30
0.0
 10
461.4678209795183
 20
458.3313345586266
 30
0.0
 10
386.1118437619898
 20
458.3313345586266
 30
0.0
 10
386.1118437619898
 20
478.6460951028256
 30
0.0
 10
386.1118437619898
 20
498.3978041796344
 30
0.0
 10
386.1118437619898
 20
518.6542338170948
 30
0.0
 10
388.4986394432826
 20
518.6542338170948
 30
0.0
 10
390.5290642159807
 20
518.6542338170948
 30
0.0
 10
392.5594600177883
 20
518.6542482661661
 30
0.0
 10
425.9406167028173
 20
518.6544361041123
 30
0.0
 10
459.3224397182985
 20
518.7562731689395
 30
0.0
 10
492.7022347715328
 20
518.5432504892087
 30
0.0
 10
497.6067745535056
 20
518.5119537976061
 30
0.0
 10
498.8329384698872
 20
519.9911776216195
 30
0.0
 10
498.7492705417489
 20
524.707528360017
 30
0.0
 10
498.4692958680907
 20
540.4833149830465
 30
0.0
 10
498.4720770734583
 20
556.2700684523015
 30
0.0
 10
498.7478799390656
 20
572.0459995660585
 30
0.0
 10
498.8299254974062
 20
576.7391739917457
 30
0.0
 10
497.6451899526437
 20
578.2583856246264
 30
0.0
 10
492.7174155174971
 20
578.2265687664049
 30
0.0
 10
459.337678406041
 20
578.0110608461582
 30
0.0
 10
425.9558843614495
 20
578.1084548211111
 30
0.0
 10
392.5747276764205
 20
578.1280405392408
 30
0.0
 10
390.4300996583215
 20
578.1292976085706
 30
0.0
 10
388.2856164946679
 20
578.325422097706
 30
0.0
 10
386.0787300355823
 20
578.4339490832216
 30
0.0
 10
386.0787300355823
 20
598.5819095314564
 30
0.0
 10
386.0787300355823
 20
618.2248243149042
 30
0.0
 10
386.0787300355823
 20
638.4274275440566
 30
0.0
 10
461.4561746820418
 20
638.4274275440566
 30
0.0
 10
536.5098116994158
 20
638.4274275440566
 30
0.0
 10
612.0749297664024
 20
638.4274275440566
 30
0.0
 10
612.0749297664024
 20
658.6562161053225
 30
0.0
 10
612.0749297664024
 20
678.3281066980617
 30
0.0
 10
612.0749297664024
 20
697.999997290799
 30
0.0
 10
626.6311213001645
 20
697.999997290799
 30
0.0
 10
641.1873707757059
 20
697.999997290799
 30
0.0
 10
655.7435623094688
 20
697.9999968392657
 30
0.0
 10
655.6837084522895
 20
696.1094160413222
 30
0.0
 10
655.5717069944703
 20
694.2188438225157
 30
0.0
 10
655.5714172855787
 20
692.3282544454359
 30
0.0
 10
655.5620307174631
 20
636.9363446435754
 30
0.0
 10
655.5633633783681
 20
581.5444370993827
 30
0.0
 10
655.5644642721599
 20
526.1525223306543
 30
0.0
 10
655.5645801557166
 20
518.6621952561872
 30
0.0
 10
655.5683463713185
 20
518.6556787243699
 30
0.0
 10
662.9010522644257
 20
518.6555053354968
 30
0.0
 10
733.7786804516581
 20
518.6537425486204
 30
0.0
 10
804.6562506971113
 20
518.6571091825735
 30
0.0
 10
875.5338788843436
 20
518.6410129155174
 30
0.0
 10
877.673379055046
 20
518.6405216470448
 30
0.0
 10
879.812821283971
 20
518.4437541741718
 30
0.0
 10
881.9243935174426
 20
518.3398797900845
 30
0.0
 10
881.9243935174426
 20
498.0919751055552
 30
0.0
 10
881.9243935174426
 20
478.4322054787298
 30
0.0
 10
881.9243935174426
 20
458.1466609596555
 30
0.0
 10
806.3450797147279
 20
458.1466609596555
 30
0.0
 10
731.1422715886338
 20
458.1466609596555
 30
0.0
 10
655.8803049067027
 20
458.1466609596555
 30
0.0
 10
655.8803049067027
 20
438.1703843939776
 30
0.0
 10
655.8803049067027
 20
418.8257056968741
 30
0.0
 10
655.8803049067027
 20
399.3028699326151
 30
0.0
 10
750.2140397453731
 20
399.3028699326151
 30
0.0
 10
844.2309489392664
 20
399.3028699326151
 30
0.0
 10
938.6049533139857
 20
399.3028699326151
 30
0.0
 10
938.6049533139857
 20
401.5186063425244
 30
0.0
 10
938.605011255764
 20
403.3925932834681
 30
0.0
 10
938.605011255764
 20
405.2665802244119
 30
0.0
 10
938.605011255764
 20
460.6585022176768
 30
0.0
 10
938.6054747899924
 20
516.0504097618704
 30
0.0
 10
938.6041421290874
 20
571.4423317551345
 30
0.0
 10
938.6039683037525
 20
578.1007245671835
 30
0.0
 10
938.5991591361371
 20
578.112074313838
 30
0.0
 10
931.9527736092313
 20
578.1123488462198
 30
0.0
 10
861.0751454219998
 20
578.1152458853102
 30
0.0
 10
790.1975751765458
 20
578.114270572898
 30
0.0
 10
719.3199469893125
 20
578.1143572673345
 30
0.0
 10
716.9988572848251
 20
578.1143572673345
 30
0.0
 10
714.6777675803386
 20
578.1143644918702
 30
0.0
 10
711.795222042294
 20
578.1143644918702
 30
0.0
 10
711.795222042294
 20
580.5275908282928
 30
0.0
 10
711.7952799840723
 20
582.2253279796841
 30
0.0
 10
711.7952799840723
 20
583.9230723556129
 30
0.0
 10
711.7952799840723
 20
600.0198668036591
 30
0.0
 10
711.791455826692
 20
616.1166684762438
 30
0.0
 10
711.7970182374265
 20
632.21346292429
 30
0.0
 10
711.7991620832308
 20
638.4271566239422
 30
0.0
 10
711.8088963020163
 20
638.4360897631777
 30
0.0
 10
717.9451044693287
 20
638.4362776011239
 30
0.0
 10
789.2973337641624
 20
638.4384485743066
 30
0.0
 10
860.6496210007762
 20
638.437711671595
 30
0.0
 10
932.0018502956118
 20
638.4377477942771
 30
0.0
 10
934.0136467865249
 20
638.4377477942771
 30
0.0
 10
936.0254432774391
 20
638.4377514065454
 30
0.0
 10
938.6403557406429
 20
638.4377514065454
 30
0.0
 10
938.6403557406429
 20
658.6458236097387
 30
0.0
 10
938.6403557406429
 20
678.3229104502688
 30
0.0
 10
938.6403557406429
 20
697.999997290799
 30
0.0
 10
952.8801272220771
 20
697.999997290799
 30
0.0
 10
967.1198987035131
 20
697.999997290799
 30
0.0
 10
981.3596701849474
 20
698.0
 30
0.0
 10
981.506726418751
 20
696.285939008655
 30
0.0
 10
981.7777780585238
 20
694.5721232000132
 30
0.0
 10
981.7811386816757
 20
692.8577678088113
 30
0.0
 10
981.8138178447442
 20
676.6058079291078
 30
0.0
 10
981.7892505306645
 20
660.3537365206229
 30
0.0
 10
981.8174102350095
 20
644.101769867917
 30
0.0
 10
981.8205390910479
 20
642.2936056779417
 30
0.0
 10
982.0490614654099
 20
640.4858352251985
 30
0.0
 10
982.2009848086072
 20
638.2698062215649
 30
0.0
 10
1019.837530560306
 20
638.2698062215649
 30
0.0
 10
1056.947501429102
 20
638.2698062215649
 30
0.0
 10
1094.74709534547
 20
638.2698062215649
 30
0.0
 10
1094.74709534547
 20
558.2730567148637
 30
0.0
 10
1094.74709534547
 20
478.725362715997
 30
0.0
 10
1094.74709534547
 20
399.2613143993512
 30
0.0
 10
1113.883758294116
 20
399.2613143993512
 30
0.0
 10
1132.324192832439
 20
399.2613143993512
 30
0.0
 10
1151.171031005085
 20
399.2613143993512
 30
0.0
 10
1151.171031005085
 20
401.5752178096081
 30
0.0
 10
1151.170915121529
 20
403.5984925703287
 30
0.0
 10
1151.170915121529
 20
405.6217673310475
 30
0.0
 10
1151.170915121529
 20
481.2015725605887
 30
0.0
 10
1151.1704515873
 20
556.7813633410587
 30
0.0
 10
1151.17230572421
 20
632.3611685706009
 30
0.0
 10
1151.172421607767
 20
638.4287713078237
 30
0.0
 10
1151.180417573199
 20
638.4359741705966
 30
0.0
 10
1157.395368617477
 20
638.4364473777286
 30
0.0
 10
1191.246693864055
 20
638.4390120881435
 30
0.0
 10
1225.098019110632
 20
638.4377405697405
 30
0.0
 10
1258.949344357208
 20
638.4377875292275
 30
0.0
 10
1260.801163597713
 20
638.4377875292275
 30
0.0
 10
1262.652866954664
 20
638.4377839169592
 30
0.0
 10
1265.205781714885
 20
638.4377839169592
 30
0.0
 10
1265.205781714885
 20
658.6525063058916
 30
0.0
 10
1265.205781714885
 20
678.3262517983448
 30
0.0
 10
1265.205781714885
 20
697.999997290799
 30
0.0
 10
1279.445553196319
 20
697.999997290799
 30
0.0
 10
1293.685324677755
 20
697.999997290799
 30
0.0
 10
1307.92509615919
 20
697.9999979116573
 30
0.0
 10
1307.983965006133
 20
695.9524316068654
 30
0.0
 10
1308.094054385263
 20
693.9048695351994
 30
0.0
 10
1308.09417026882
 20
691.8572964009618
 30
0.0
 10
1308.10262976848
 20
596.3887425732009
 30
0.0
 10
1308.10147093291
 20
500.9201932607738
 30
0.0
 10
1308.10147093291
 20
405.4516439483486
 30
0.0
 10
1308.10147093291
 20
403.445621380506
 30
0.0
 10
1308.10147093291
 20
401.4395699145188
 30
0.0
 10
1308.10147093291
 20
399.2857622304655
 30
0.0
 10
1402.782624675399
 20
399.2857622304655
 30
0.0
 10
1496.953659000073
 20
399.2857622304655
 30
0.0
 10
1591.128981016354
 20
399.2857622304655
 30
0.0
 10
1591.128981016354
 20
419.0812519977444
 30
0.0
 10
1591.128981016354
 20
438.548083155978
 30
0.0
 10
1591.128981016354
 20
458.5481139972744
 30
0.0
 10
1515.547871018507
 20
458.5481139972744
 30
0.0
 10
1440.330403622454
 20
458.5481139972744
 30
0.0
 10
1364.940269726507
 20
458.5481139972744
 30
0.0
 10
1364.940269726507
 20
478.7396672980321
 30
0.0
 10
1364.940269726507
 20
498.3929637402598
 30
0.0
 10
1364.940269726507
 20
518.6541471226592
 30
0.0
 10
1367.385528662295
 20
518.6541471226592
 30
0.0
 10
1369.565530136162
 20
518.6541182245128
 30
0.0
 10
1371.745415726471
 20
518.6541471226592
 30
0.0
 10
1405.283044184309
 20
518.6547539837138
 30
0.0
 10
1438.821020292818
 20
518.719312440815
 30
0.0
 10
1472.358069332873
 20
518.5742581993563
 30
0.0
 10
1476.508438926034
 20
518.5563269000595
 30
0.0
 10
1477.732401054832
 20
519.738463339012
 30
0.0
 10
1477.668549214937
 20
523.9257757273008
 30
0.0
 10
1477.423571375486
 20
540.0175780207073
 30
0.0
 10
1477.345118207413
 20
556.1202749149779
 30
0.0
 10
1477.702850747802
 20
572.2078869772849
 30
0.0
 10
1477.813751311831
 20
577.195533505861
 30
0.0
 10
1476.215717061106
 20
578.2322761501454
 30
0.0
 10
1471.56936584408
 20
578.2078644417133
 30
0.0
 10
1438.190845509973
 20
578.0325032701376
 30
0.0
 10
1404.810934573182
 20
578.1081297169739
 30
0.0
 10
1371.431487170619
 20
578.1293770784705
 30
0.0
 10
1369.288916085656
 20
578.1307425158465
 30
0.0
 10
1367.146576767807
 20
578.3430138437934
 30
0.0
 10
1365.009336326466
 20
578.4568942107671
 30
0.0
 10
1365.009336326466
 20
598.6124765448839
 30
0.0
 10
1365.009336326466
 20
618.2553046338953
 30
0.0
 10
1365.009336326466
 20
638.442985583154
 30
0.0
 10
1440.555681257219
 20
638.442985583154
 30
0.0
 10
1515.765847989182
 20
638.442985583154
 30
0.0
 10
1591.494245987949
 20
638.442985583154
 30
0.0
 10
1591.494245987949
 20
640.8334510177065
 30
0.0
 10
1591.486134138961
 20
642.6831454550684
 30
0.0
 10
1591.495520707076
 20
644.5327531979947
 30
0.0
 10
1591.585793997961
 20
662.3551751201321
 30
0.0
 10
1591.678848494215
 20
680.177584399331
 30
0.0
 10
1591.771207689126
 20
697.999997290799
 30
0.0
 10
1606.01097917056
 20
697.999997290799
 30
0.0
 10
1620.250750651996
 20
697.999997290799
 30
0.0
 10
1634.49052213343
 20
697.9999966134982
 30
0.0
 10
1634.543828569642
 20
695.9521146303313
 30
0.0
 10
1634.644067846426
 20
693.9042373882657
 30
0.0
 10
1634.644183729983
 20
691.8563535989642
 30
0.0
 10
1634.651832044743
 20
596.2475968059243
 30
0.0
 10
1634.651020859845
 20
500.6388409159517
 30
0.0
 10
1634.651020859845
 20
405.0300778014425
 30
0.0
 10
1634.651020859845
 20
403.0648305169343
 30
0.0
 10
1634.650904976286
 20
401.099583232426
 30
0.0
 10
1634.650904976286
 20
399.2747231388748
 30
0.0
 10
1710.37489939989
 20
399.2747231388748
 30
0.0
 10
1785.285159486393
 20
399.2747231388748
 30
0.0
 10
1860.299367123505
 20
399.2747231388748
 30
0.0
 10
1860.299367123505
 20
419.0354773352337
 30
0.0
 10
1860.299367123505
 20
438.477513884607
 30
0.0
 10
1860.299367123505
 20
458.4411619606908
 30
0.0
 10
1803.787823494815
 20
458.4411619606908
 30
0.0
 10
1747.721272724917
 20
458.4411619606908
 30
0.0
 10
1691.480780735997
 20
458.4411619606908
 30
0.0
 10
1691.480780735997
 20
518.6382675916938
 30
0.0
 10
1691.480780735997
 20
578.3090512982662
 30
0.0
 10
1691.480780735997
 20
638.5024218439602
 30
0.0
 10
1747.933803168416
 20
638.5024218439602
 30
0.0
 10
1804.001628657439
 20
638.5024218439602
 30
0.0
 10
1859.945111089824
 20
638.5024218439602
 30
0.0
 10
1860.291834692301
 20
639.4310095663532
 30
0.0
 10
1860.593016056886
 20
639.860605785444
 30
0.0
 10
1860.592204871987
 20
640.2895915312119
 30
0.0
 10
1860.5541950653
 20
659.5264259614887
 30
0.0
 10
1860.48976380762
 20
678.7632080138755
 30
0.0
 10
1860.428229638865
 20
697.9999974036827
 30
0.0
  0
SPLINE
  5
82
330
7D
100
AcDbEntity
  8
Layer 1
100
AcDbSpline
210
0.0
220
0.0
230
1.0
 70
     9
 71
     3
 72
    68
 73
    64
 74
     0
 42
0.0000000001
 43
0.0000000001
 40
0.0
 40
0.0
 40
0.0
 40
0.0
 40
1.0
 40
1.0
 40
1.0
 40
2.0
 40
2.0
 40
2.0
 40
3.0
 40
3.0
 40
3.0
 40
4.0
 40
4.0
 40
4.0
 40
5.0
 40
5.0
 40
5.0
 40
6.0
 40
6.0
 40
6.0
 40
7.0
 40
7.0
 40
7.0
 40
8.0
 40
8.0
 40
8.0
 40
9.0
 40
9.0
 40
9.0
 40
10.0
 40
10.0
 40
10.0
 40
11.0
 40
11.0
 40
11.0
 40
12.0
 40
12.0
 40
12.0
 40
13.0
 40
13.0
 40
13.0
 40
14.0
 40
14.0
 40
14.0
 40
15.0
 40
15.0
 40
15.0
 40
16.0
 40
16.0
 40
16.0
 40
17.0
 40
17.0
 40
17.0
 40
18.0
 40
18.0
 40
18.0
 40
19.0
 40
19.0
 40
19.0
 40
20.0
 40
20.0
 40
20.0
 40
21.0
 40
21.0
 40
21.0
 40
21.0
 10
938.6403557406429
 20
697.999997290799
 30
0.0
 10
938.6403557406429
 20
678.3229104502688
 30
0.0
 10
938.6403557406429
 20
658.6458236097387
 30
0.0
 10
938.6403557406429
 20
638.4377514065454
 30
0.0
 10
936.0254432774391
 20
638.4377514065454
 30
0.0
 10
934.0136467865249
 20
638.4377477942771
 30
0.0
 10
932.0018502956118
 20
638.4377477942771
 30
0.0
 10
860.6496210007762
 20
638.437711671595
 30
0.0
 10
789.2973337641624
 20
638.4384485743066
 30
0.0
 10
717.9451044693287
 20
638.4362776011239
 30
0.0
 10
711.8088963020163
 20
638.4360897631777
 30
0.0
 10
711.7991620832308
 20
638.4271566239422
 30
0.0
 10
711.7970182374265
 20
632.21346292429
 30
0.0
 10
711.791455826692
 20
616.1166684762438
 30
0.0
 10
711.7952799840723
 20
600.0198668036591
 30
0.0
 10
711.7952799840723
 20
583.9230723556129
 30
0.0
 10
711.7952799840723
 20
582.2253279796841
 30
0.0
 10
711.795222042294
 20
580.5275908282928
 30
0.0
 10
711.795222042294
 20
578.1143644918702
 30
0.0
 10
714.6777675803386
 20
578.1143644918702
 30
0.0
 10
716.9988572848251
 20
578.1143572673345
 30
0.0
 10
719.3199469893125
 20
578.1143572673345
 30
0.0
 10
790.1975751765458
 20
578.114270572898
 30
0.0
 10
861.0751454219998
 20
578.1152458853102
 30
0.0
 10
931.9527736092313
 20
578.1123488462198
 30
0.0
 10
938.5991591361371
 20
578.112074313838
 30
0.0
 10
938.6039683037525
 20
578.1007245671835
 30
0.0
 10
938.6041421290874
 20
571.4423317551345
 30
0.0
 10
938.6054747899924
 20
516.0504097618704
 30
0.0
 10
938.605011255764
 20
460.6585022176768
 30
0.0
 10
938.605011255764
 20
405.2665802244119
 30
0.0
 10
938.605011255764
 20
403.3925932834681
 30
0.0
 10
938.6049533139857
 20
401.5186063425244
 30
0.0
 10
938.6049533139857
 20
399.3028699326151
 30
0.0
 10
844.2309489392664
 20
399.3028699326151
 30
0.0
 10
750.2140397453731
 20
399.3028699326151
 30
0.0
 10
655.8803049067027
 20
399.3028699326151
 30
0.0
 10
655.8803049067027
 20
418.8257056968741
 30
0.0
 10
655.8803049067027
 20
438.1703843939776
 30
0.0
 10
655.8803049067027
 20
458.1466609596555
 30
0.0
 10
731.1422715886338
 20
458.1466609596555
 30
0.0
 10
806.3450797147279
 20
458.1466609596555
 30
0.0
 10
881.9243935174426
 20
458.1466609596555
 30
0.0
 10
881.9243935174426
 20
478.4322054787298
 30
0.0
 10
881.9243935174426
 20
498.0919751055552
 30
0.0
 10
881.9243935174426
 20
518.3398797900845
 30
0.0
 10
879.812821283971
 20
518.4437541741718
 30
0.0
 10
877.673379055046
 20
518.6405216470448
 30
0.0
 10
875.5338788843436
 20
518.6410129155174
 30
0.0
 10
804.6562506971113
 20
518.6571091825735
 30
0.0
 10
733.7786804516581
 20
518.6537425486204
 30
0.0
 10
662.9010522644257
 20
518.6555053354968
 30
0.0
 10
655.5683463713185
 20
518.6556787243699
 30
0.0
 10
655.5645801557166
 20
518.6621952561872
 30
0.0
 10
655.5644642721599
 20
526.1525223306543
 30
0.0
 10
655.5633633783681
 20
581.5444370993827
 30
0.0
 10
655.5620307174631
 20
636.9363446435754
 30
0.0
 10
655.5714172855787
 20
692.3282544454359
 30
0.0
 10
655.5717069944703
 20
694.2188438225157
 30
0.0
 10
655.6837084522895
 20
696.1094160413222
 30
0.0
 10
655.7435623094688
 20
697.9999968392657
 30
0.0
 10
750.0424741392671
 20
697.999997290799
 30
0.0
 10
844.3414439108446
 20
697.999997290799
 30
0.0
 10
938.6403557406429
 20
697.999997290799
 30
0.0
  0
HATCH
  5
83
330
7D
100
AcDbEntity
  8
Layer 1
 62
     7
440
 33554687
100
AcDbHatch
 10
0.0
 20
0.0
 30
0.0
210
0.0
220
0.0
230
1.0
  2
SOLID
 70
     1
 71
     1
 91
        1
 92
        1
 93
        1
 72
     4
 94
        3
 73
     0
 74
     0
 95
       68
 96
       64
 40
0.0
 40
0.0
 40
0.0
 40
0.0
 40
1.0
 40
1.0
 40
1.0
 40
2.0
 40
2.0
 40
2.0
 40
3.0
 40
3.0
 40
3.0
 40
4.0
 40
4.0
 40
4.0
 40
5.0
 40
5.0
 40
5.0
 40
6.0
 40
6.0
 40
6.0
 40
7.0
 40
7.0
 40
7.0
 40
8.0
 40
8.0
 40
8.0
 40
9.0
 40
9.0
 40
9.0
 40
10.0
 40
10.0
 40
10.0
 40
11.0
 40
11.0
 40
11.0
 40
12.0
 40
12.0
 40
12.0
 40
13.0
 40
13.0
 40
13.0
 40
14.0
 40
14.0
 40
14.0
 40
15.0
 40
15.0
 40
15.0
 40
16.0
 40
16.0
 40
16.0
 40
17.0
 40
17.0
 40
17.0
 40
18.0
 40
18.0
 40
18.0
 40
19.0
 40
19.0
 40
19.0
 40
20.0
 40
20.0
 40
20.0
 40
21.0
 40
21.0
 40
21.0
 40
21.0
 10
938.6403557406429
 20
697.999997290799
 10
938.6403557406429
 20
678.3229104502688
 10
938.6403557406429
 20
658.6458236097387
 10
938.6403557406429
 20
638.4377514065454
 10
936.0254432774391
 20
638.4377514065454
 10
934.0136467865249
 20
638.4377477942771
 10
932.0018502956118
 20
638.4377477942771
 10
860.6496210007762
 20
638.437711671595
 10
789.2973337641624
 20
638.4384485743066
 10
717.9451044693287
 20
638.4362776011239
 10
711.8088963020163
 20
638.4360897631777
 10
711.7991620832308
 20
638.4271566239422
 10
711.7970182374265
 20
632.21346292429
 10
711.791455826692
 20
616.1166684762438
 10
711.7952799840723
 20
600.0198668036591
 10
711.7952799840723
 20
583.9230723556129
 10
711.7952799840723
 20
582.2253279796841
 10
711.795222042294
 20
580.5275908282928
 10
711.795222042294
 20
578.1143644918702
 10
714.6777675803386
 20
578.1143644918702
 10
716.9988572848251
 20
578.1143572673345
 10
719.3199469893125
 20
578.1143572673345
 10
790.1975751765458
 20
578.114270572898
 10
861.0751454219998
 20
578.1152458853102
 10
931.9527736092313
 20
578.1123488462198
 10
938.5991591361371
 20
578.112074313838
 10
938.6039683037525
 20
578.1007245671835
 10
938.6041421290874
 20
571.4423317551345
 10
938.6054747899924
 20
516.0504097618704
 10
938.605011255764
 20
460.6585022176768
 10
938.605011255764
 20
405.2665802244119
 10
938.605011255764
 20
403.3925932834681
 10
938.6049533139857
 20
401.5186063425244
 10
938.6049533139857
 20
399.3028699326151
 10
844.2309489392664
 20
399.3028699326151
 10
750.2140397453731
 20
399.3028699326151
 10
655.8803049067027
 20
399.3028699326151
 10
655.8803049067027
 20
418.8257056968741
 10
655.8803049067027
 20
438.1703843939776
 10
655.8803049067027
 20
458.1466609596555
 10
731.1422715886338
 20
458.1466609596555
 10
806.3450797147279
 20
458.1466609596555
 10
881.9243935174426
 20
458.1466609596555
 10
881.9243935174426
 20
478.4322054787298
 10
881.9243935174426
 20
498.0919751055552
 10
881.9243935174426
 20
518.3398797900845
 10
879.812821283971
 20
518.4437541741718
 10
877.673379055046
 20
518.6405216470448
 10
875.5338788843436
 20
518.6410129155174
 10
804.6562506971113
 20
518.6571091825735
 10
733.7786804516581
 20
518.6537425486204
 10
662.9010522644257
 20
518.6555053354968
 10
655.5683463713185
 20
518.6556787243699
 10
655.5645801557166
 20
518.6621952561872
 10
655.5644642721599
 20
526.1525223306543
 10
655.5633633783681
 20
581.5444370993827
 10
655.5620307174631
 20
636.9363446435754
 10
655.5714172855787
 20
692.3282544454359
 10
655.5717069944703
 20
694.2188438225157
 10
655.6837084522895
 20
696.1094160413222
 10
655.7435623094688
 20
697.9999968392657
 10
750.0424741392671
 20
697.999997290799
 10
844.3414439108446
 20
697.999997290799
 10
938.6403557406429
 20
697.999997290799
 97
        0
 97
        1
330
82
 75
     2
 76
     1
 98
        1
 10
0.0
 20
0.0
450
        0
451
        0
460
0.0
461
0.0
452
        0
462
0.0
453
        0
470

  0
SPLINE
  5
84
330
7D
100
AcDbEntity
  8
Layer 1
100
AcDbSpline
210
0.0
220
0.0
230
1.0
 70
     9
 71
     3
 72
    62
 73
    58
 74
     0
 42
0.0000000001
 43
0.0000000001
 40
0.0
 40
0.0
 40
0.0
 40
0.0
 40
1.0
 40
1.0
 40
1.0
 40
2.0
 40
2.0
 40
2.0
 40
3.0
 40
3.0
 40
3.0
 40
4.0
 40
4.0
 40
4.0
 40
5.0
 40
5.0
 40
5.0
 40
6.0
 40
6.0
 40
6.0
 40
7.0
 40
7.0
 40
7.0
 40
8.0
 40
8.0
 40
8.0
 40
9.0
 40
9.0
 40
9.0
 40
10.0
 40
10.0
 40
10.0
 40
11.0
 40
11.0
 40
11.0
 40
12.0
 40
12.0
 40
12.0
 40
13.0
 40
13.0
 40
13.0
 40
14.0
 40
14.0
 40
14.0
 40
15.0
 40
15.0
 40
15.0
 40
16.0
 40
16.0
 40
16.0
 40
17.0
 40
17.0
 40
17.0
 40
18.0
 40
18.0
 40
18.0
 40
19.0
 40
19.0
 40
19.0
 40
19.0
 10
1591.771207689126
 20
697.999997290799
 30
0.0
 10
1591.678848494215
 20
680.177584399331
 30
0.0
 10
1591.585793997961
 20
662.3551751201321
 30
0.0
 10
1591.495520707076
 20
644.5327531979947
 30
0.0
 10
1591.486134138961
 20
642.6831454550684
 30
0.0
 10
1591.494245987949
 20
640.8334510177065
 30
0.0
 10
1591.494245987949
 20
638.442985583154
 30
0.0
 10
1515.765847989182
 20
638.442985583154
 30
0.0
 10
1440.555681257219
 20
638.442985583154
 30
0.0
 10
1365.009336326466
 20
638.442985583154
 30
0.0
 10
1365.009336326466
 20
618.2553046338953
 30
0.0
 10
1365.009336326466
 20
598.6124765448839
 30
0.0
 10
1365.009336326466
 20
578.4568942107671
 30
0.0
 10
1367.146576767807
 20
578.3430138437934
 30
0.0
 10
1369.288916085656
 20
578.1307425158465
 30
0.0
 10
1371.431487170619
 20
578.1293770784705
 30
0.0
 10
1404.810934573182
 20
578.1081297169739
 30
0.0
 10
1438.190845509973
 20
578.0325032701376
 30
0.0
 10
1471.56936584408
 20
578.2078644417133
 30
0.0
 10
1476.215717061106
 20
578.2322761501454
 30
0.0
 10
1477.813751311831
 20
577.195533505861
 30
0.0
 10
1477.702850747802
 20
572.2078869772849
 30
0.0
 10
1477.345118207413
 20
556.1202749149779
 30
0.0
 10
1477.423571375486
 20
540.0175780207073
 30
0.0
 10
1477.668549214937
 20
523.9257757273008
 30
0.0
 10
1477.732401054832
 20
519.738463339012
 30
0.0
 10
1476.508438926034
 20
518.5563269000595
 30
0.0
 10
1472.358069332873
 20
518.5742581993563
 30
0.0
 10
1438.821020292818
 20
518.719312440815
 30
0.0
 10
1405.283044184309
 20
518.6547539837138
 30
0.0
 10
1371.745415726471
 20
518.6541471226592
 30
0.0
 10
1369.565530136162
 20
518.6541182245128
 30
0.0
 10
1367.385528662295
 20
518.6541471226592
 30
0.0
 10
1364.940269726507
 20
518.6541471226592
 30
0.0
 10
1364.940269726507
 20
498.3929637402598
 30
0.0
 10
1364.940269726507
 20
478.7396672980321
 30
0.0
 10
1364.940269726507
 20
458.5481139972744
 30
0.0
 10
1440.330403622454
 20
458.5481139972744
 30
0.0
 10
1515.547871018507
 20
458.5481139972744
 30
0.0
 10
1591.128981016354
 20
458.5481139972744
 30
0.0
 10
1591.128981016354
 20
438.548083155978
 30
0.0
 10
1591.128981016354
 20
419.0812519977444
 30
0.0
 10
1591.128981016354
 20
399.2857622304655
 30
0.0
 10
1496.953659000073
 20
399.2857622304655
 30
0.0
 10
1402.782624675399
 20
399.2857622304655
 30
0.0
 10
1308.10147093291
 20
399.2857622304655
 30
0.0
 10
1308.10147093291
 20
401.4395699145188
 30
0.0
 10
1308.10147093291
 20
403.445621380506
 30
0.0
 10
1308.10147093291
 20
405.4516439483486
 30
0.0
 10
1308.10147093291
 20
500.9201932607738
 30
0.0
 10
1308.10262976848
 20
596.3887425732009
 30
0.0
 10
1308.09417026882
 20
691.8572964009618
 30
0.0
 10
1308.094054385263
 20
693.9048695351994
 30
0.0
 10
1307.983965006133
 20
695.9524316068654
 30
0.0
 10
1307.92509615919
 20
697.9999979116573
 30
0.0
 10
1402.540428041317
 20
697.999997290799
 30
0.0
 10
1497.155875806998
 20
697.999997290799
 30
0.0
 10
1591.771207689126
 20
697.999997290799
 30
0.0
  0
HATCH
  5
85
330
7D
100
AcDbEntity
  8
Layer 1
 62
     7
440
 33554687
100
AcDbHatch
 10
0.0
 20
0.0
 30
0.0
210
0.0
220
0.0
230
1.0
  2
SOLID
 70
     1
 71
     1
 91
        1
 92
        1
 93
        1
 72
     4
 94
        3
 73
     0
 74
     0
 95
       62
 96
       58
 40
0.0
 40
0.0
 40
0.0
 40
0.0
 40
1.0
 40
1.0
 40
1.0
 40
2.0
 40
2.0
 40
2.0
 40
3.0
 40
3.0
 40
3.0
 40
4.0
 40
4.0
 40
4.0
 40
5.0
 40
5.0
 40
5.0
 40
6.0
 40
6.0
 40
6.0
 40
7.0
 40
7.0
 40
7.0
 40
8.0
 40
8.0
 40
8.0
 40
9.0
 40
9.0
 40
9.0
 40
10.0
 40
10.0
 40
10.0
 40
11.0
 40
11.0
 40
11.0
 40
12.0
 40
12.0
 40
12.0
 40
13.0
 40
13.0
 40
13.0
 40
14.0
 40
14.0
 40
14.0
 40
15.0
 40
15.0
 40
15.0
 40
16.0
 40
16.0
 40
16.0
 40
17.0
 40
17.0
 40
17.0
 40
18.0
 40
18.0
 40
18.0
 40
19.0
 40
19.0
 40
19.0
 40
19.0
 10
1591.771207689126
 20
697.999997290799
 10
1591.678848494215
 20
680.177584399331
 10
1591.585793997961
 20
662.3551751201321
 10
1591.495520707076
 20
644.5327531979947
 10
1591.486134138961
 20
642.6831454550684
 10
1591.494245987949
 20
640.8334510177065
 10
1591.494245987949
 20
638.442985583154
 10
1515.765847989182
 20
638.442985583154
 10
1440.555681257219
 20
638.442985583154
 10
1365.009336326466
 20
638.442985583154
 10
1365.009336326466
 20
618.2553046338953
 10
1365.009336326466
 20
598.6124765448839
 10
1365.009336326466
 20
578.4568942107671
 10
1367.146576767807
 20
578.3430138437934
 10
1369.288916085656
 20
578.1307425158465
 10
1371.431487170619
 20
578.1293770784705
 10
1404.810934573182
 20
578.1081297169739
 10
1438.190845509973
 20
578.0325032701376
 10
1471.56936584408
 20
578.2078644417133
 10
1476.215717061106
 20
578.2322761501454
 10
1477.813751311831
 20
577.195533505861
 10
1477.702850747802
 20
572.2078869772849
 10
1477.345118207413
 20
556.1202749149779
 10
1477.423571375486
 20
540.0175780207073
 10
1477.668549214937
 20
523.9257757273008
 10
1477.732401054832
 20
519.738463339012
 10
1476.508438926034
 20
518.5563269000595
 10
1472.358069332873
 20
518.5742581993563
 10
1438.821020292818
 20
518.719312440815
 10
1405.283044184309
 20
518.6547539837138
 10
1371.745415726471
 20
518.6541471226592
 10
1369.565530136162
 20
518.6541182245128
 10
1367.385528662295
 20
518.6541471226592
 10
1364.940269726507
 20
518.6541471226592
 10
1364.940269726507
 20
498.3929637402598
 10
1364.940269726507
 20
478.7396672980321
 10
1364.940269726507
 20
458.5481139972744
 10
1440.330403622454
 20
458.5481139972744
 10
1515.547871018507
 20
458.5481139972744
 10
1591.128981016354
 20
458.5481139972744
 10
1591.128981016354
 20
438.548083155978
 10
1591.128981016354
 20
419.0812519977444
 10
1591.128981016354
 20
399.2857622304655
 10
1496.953659000073
 20
399.2857622304655
 10
1402.782624675399
 20
399.2857622304655
 10
1308.10147093291
 20
399.2857622304655
 10
1308.10147093291
 20
401.4395699145188
 10
1308.10147093291
 20
403.445621380506
 10
1308.10147093291
 20
405.4516439483486
 10
1308.10147093291
 20
500.9201932607738
 10
1308.10262976848
 20
596.3887425732009
 10
1308.09417026882
 20
691.8572964009618
 10
1308.094054385263
 20
693.9048695351994
 10
1307.983965006133
 20
695.9524316068654
 10
1307.92509615919
 20
697.9999979116573
 10
1402.540428041317
 20
697.999997290799
 10
1497.155875806998
 20
697.999997290799
 10
1591.771207689126
 20
697.999997290799
 97
        0
 97
        1
330
84
 75
     2
 76
     1
 98
        1
 10
0.0
 20
0.0
450
        0
451
        0
460
0.0
461
0.0
452
        0
462
0.0
453
        0
470

  0
SPLINE
  5
86
330
7D
100
AcDbEntity
  8
Layer 1
100
AcDbSpline
210
0.0
220
0.0
230
1.0
 70
     9
 71
     3
 72
    59
 73
    55
 74
     0
 42
0.0000000001
 43
0.0000000001
 40
0.0
 40
0.0
 40
0.0
 40
0.0
 40
1.0
 40
1.0
 40
1.0
 40
2.0
 40
2.0
 40
2.0
 40
3.0
 40
3.0
 40
3.0
 40
4.0
 40
4.0
 40
4.0
 40
5.0
 40
5.0
 40
5.0
 40
6.0
 40
6.0
 40
6.0
 40
7.0
 40
7.0
 40
7.0
 40
8.0
 40
8.0
 40
8.0
 40
9.0
 40
9.0
 40
9.0
 40
10.0
 40
10.0
 40
10.0
 40
11.0
 40
11.0
 40
11.0
 40
12.0
 40
12.0
 40
12.0
 40
13.0
 40
13.0
 40
13.0
 40
14.0
 40
14.0
 40
14.0
 40
15.0
 40
15.0
 40
15.0
 40
16.0
 40
16.0
 40
16.0
 40
17.0
 40
17.0
 40
17.0
 40
18.0
 40
18.0
 40
18.0
 40
18.0
 10
612.0749297664024
 20
697.999997290799
 30
0.0
 10
612.0749297664024
 20
678.3281066980617
 30
0.0
 10
612.0749297664024
 20
658.6562161053225
 30
0.0
 10
612.0749297664024
 20
638.4274275440566
 30
0.0
 10
536.5098116994158
 20
638.4274275440566
 30
0.0
 10
461.4561746820418
 20
638.4274275440566
 30
0.0
 10
386.0787300355823
 20
638.4274275440566
 30
0.0
 10
386.0787300355823
 20
618.2248243149042
 30
0.0
 10
386.0787300355823
 20
598.5819095314564
 30
0.0
 10
386.0787300355823
 20
578.4339490832216
 30
0.0
 10
388.2856164946679
 20
578.325422097706
 30
0.0
 10
390.4300996583215
 20
578.1292976085706
 30
0.0
 10
392.5747276764205
 20
578.1280405392408
 30
0.0
 10
425.9558843614495
 20
578.1084548211111
 30
0.0
 10
459.337678406041
 20
578.0110608461582
 30
0.0
 10
492.7174155174971
 20
578.2265687664049
 30
0.0
 10
497.6451899526437
 20
578.2583856246264
 30
0.0
 10
498.8299254974062
 20
576.7391739917457
 30
0.0
 10
498.7478799390656
 20
572.0459995660585
 30
0.0
 10
498.4720770734583
 20
556.2700684523015
 30
0.0
 10
498.4692958680907
 20
540.4833149830465
 30
0.0
 10
498.7492705417489
 20
524.707528360017
 30
0.0
 10
498.8329384698872
 20
519.9911776216195
 30
0.0
 10
497.6067745535056
 20
518.5119537976061
 30
0.0
 10
492.7022347715328
 20
518.5432504892087
 30
0.0
 10
459.3224397182985
 20
518.7562731689395
 30
0.0
 10
425.9406167028173
 20
518.6544361041123
 30
0.0
 10
392.5594600177883
 20
518.6542482661661
 30
0.0
 10
390.5290642159807
 20
518.6542338170948
 30
0.0
 10
388.4986394432826
 20
518.6542338170948
 30
0.0
 10
386.1118437619898
 20
518.6542338170948
 30
0.0
 10
386.1118437619898
 20
498.3978041796344
 30
0.0
 10
386.1118437619898
 20
478.6460951028256
 30
0.0
 10
386.1118437619898
 20
458.3313345586266
 30
0.0
 10
461.4678209795183
 20
458.3313345586266
 30
0.0
 10
536.5213421133358
 20
458.3313345586266
 30
0.0
 10
611.8855760343003
 20
458.3313345586266
 30
0.0
 10
611.8855760343003
 20
438.426219676301
 30
0.0
 10
611.8855760343003
 20
419.0806740348326
 30
0.0
 10
611.8855760343003
 20
399.3464194379194
 30
0.0
 10
517.8438098174346
 20
399.3464194379194
 30
0.0
 10
423.8383151539037
 20
399.3464194379194
 30
0.0
 10
329.2671928487653
 20
399.3464194379194
 30
0.0
 10
329.2671928487653
 20
401.4247451658629
 30
0.0
 10
329.2671928487653
 20
403.4268375859137
 30
0.0
 10
329.2671928487653
 20
405.4289011078217
 30
0.0
 10
329.2671638778756
 20
500.7444780869154
 30
0.0
 10
329.2677722665494
 20
596.0600550660092
 30
0.0
 10
329.2634266331634
 20
691.3756365604394
 30
0.0
 10
329.2633107496058
 20
693.5837583090042
 30
0.0
 10
329.2078025258143
 20
695.7918768968347
 30
0.0
 10
329.1781363352275
 20
697.999997290799
 30
0.0
 10
423.4770771359153
 20
697.999997290799
 30
0.0
 10
517.7760179366032
 20
697.999997290799
 30
0.0
 10
612.0749297664024
 20
697.999997290799
 30
0.0
  0
HATCH
  5
87
330
7D
100
AcDbEntity
  8
Layer 1
 62
     7
440
 33554687
100
AcDbHatch
 10
0.0
 20
0.0
 30
0.0
210
0.0
220
0.0
230
1.0
  2
SOLID
 70
     1
 71
     1
 91
        1
 92
        1
 93
        1
 72
     4
 94
        3
 73
     0
 74
     0
 95
       59
 96
       55
 40
0.0
 40
0.0
 40
0.0
 40
0.0
 40
1.0
 40
1.0
 40
1.0
 40
2.0
 40
2.0
 40
2.0
 40
3.0
 40
3.0
 40
3.0
 40
4.0
 40
4.0
 40
4.0
 40
5.0
 40
5.0
 40
5.0
 40
6.0
 40
6.0
 40
6.0
 40
7.0
 40
7.0
 40
7.0
 40
8.0
 40
8.0
 40
8.0
 40
9.0
 40
9.0
 40
9.0
 40
10.0
 40
10.0
 40
10.0
 40
11.0
 40
11.0
 40
11.0
 40
12.0
 40
12.0
 40
12.0
 40
13.0
 40
13.0
 40
13.0
 40
14.0
 40
14.0
 40
14.0
 40
15.0
 40
15.0
 40
15.0
 40
16.0
 40
16.0
 40
16.0
 40
17.0
 40
17.0
 40
17.0
 40
18.0
 40
18.0
 40
18.0
 40
18.0
 10
612.0749297664024
 20
697.999997290799
 10
612.0749297664024
 20
678.3281066980617
 10
612.0749297664024
 20
658.6562161053225
 10
612.0749297664024
 20
638.4274275440566
 10
536.5098116994158
 20
638.4274275440566
 10
461.4561746820418
 20
638.4274275440566
 10
386.0787300355823
 20
638.4274275440566
 10
386.0787300355823
 20
618.2248243149042
 10
386.0787300355823
 20
598.5819095314564
 10
386.0787300355823
 20
578.4339490832216
 10
388.2856164946679
 20
578.325422097706
 10
390.4300996583215
 20
578.1292976085706
 10
392.5747276764205
 20
578.1280405392408
 10
425.9558843614495
 20
578.1084548211111
 10
459.337678406041
 20
578.0110608461582
 10
492.7174155174971
 20
578.2265687664049
 10
497.6451899526437
 20
578.2583856246264
 10
498.8299254974062
 20
576.7391739917457
 10
498.7478799390656
 20
572.0459995660585
 10
498.4720770734583
 20
556.2700684523015
 10
498.4692958680907
 20
540.4833149830465
 10
498.7492705417489
 20
524.707528360017
 10
498.8329384698872
 20
519.9911776216195
 10
497.6067745535056
 20
518.5119537976061
 10
492.7022347715328
 20
518.5432504892087
 10
459.3224397182985
 20
518.7562731689395
 10
425.9406167028173
 20
518.6544361041123
 10
392.5594600177883
 20
518.6542482661661
 10
390.5290642159807
 20
518.6542338170948
 10
388.4986394432826
 20
518.6542338170948
 10
386.1118437619898
 20
518.6542338170948
 10
386.1118437619898
 20
498.3978041796344
 10
386.1118437619898
 20
478.6460951028256
 10
386.1118437619898
 20
458.3313345586266
 10
461.4678209795183
 20
458.3313345586266
 10
536.5213421133358
 20
458.3313345586266
 10
611.8855760343003
 20
458.3313345586266
 10
611.8855760343003
 20
438.426219676301
 10
611.8855760343003
 20
419.0806740348326
 10
611.8855760343003
 20
399.3464194379194
 10
517.8438098174346
 20
399.3464194379194
 10
423.8383151539037
 20
399.3464194379194
 10
329.2671928487653
 20
399.3464194379194
 10
329.2671928487653
 20
401.4247451658629
 10
329.2671928487653
 20
403.4268375859137
 10
329.2671928487653
 20
405.4289011078217
 10
329.2671638778756
 20
500.7444780869154
 10
329.2677722665494
 20
596.0600550660092
 10
329.2634266331634
 20
691.3756365604394
 10
329.2633107496058
 20
693.5837583090042
 10
329.2078025258143
 20
695.7918768968347
 10
329.1781363352275
 20
697.999997290799
 10
423.4770771359153
 20
697.999997290799
 10
517.7760179366032
 20
697.999997290799
 10
612.0749297664024
 20
697.999997290799
 97
        0
 97
        1
330
86
 75
     2
 76
     1
 98
        1
 10
0.0
 20
0.0
450
        0
451
        0
460
0.0
461
0.0
452
        0
462
0.0
453
        0
470

  0
SPLINE
  5
88
330
7D
100
AcDbEntity
  8
Layer 1
100
AcDbSpline
210
0.0
220
0.0
230
1.0
 70
     9
 71
     3
 72
    38
 73
    34
 74
     0
 42
0.0000000001
 43
0.0000000001
 40
0.0
 40
0.0
 40
0.0
 40
0.0
 40
1.0
 40
1.0
 40
1.0
 40
2.0
 40
2.0
 40
2.0
 40
3.0
 40
3.0
 40
3.0
 40
4.0
 40
4.0
 40
4.0
 40
5.0
 40
5.0
 40
5.0
 40
6.0
 40
6.0
 40
6.0
 40
7.0
 40
7.0
 40
7.0
 40
8.0
 40
8.0
 40
8.0
 40
9.0
 40
9.0
 40
9.0
 40
10.0
 40
10.0
 40
10.0
 40
11.0
 40
11.0
 40
11.0
 40
11.0
 10
1860.428229638865
 20
697.9999974036827
 30
0.0
 10
1860.48976380762
 20
678.7632080138755
 30
0.0
 10
1860.5541950653
 20
659.5264259614887
 30
0.0
 10
1860.592204871987
 20
640.2895915312119
 30
0.0
 10
1860.593016056886
 20
639.860605785444
 30
0.0
 10
1860.291834692301
 20
639.4310095663532
 30
0.0
 10
1859.945111089824
 20
638.5024218439602
 30
0.0
 10
1804.001628657439
 20
638.5024218439602
 30
0.0
 10
1747.933803168416
 20
638.5024218439602
 30
0.0
 10
1691.480780735997
 20
638.5024218439602
 30
0.0
 10
1691.480780735997
 20
578.3090512982662
 30
0.0
 10
1691.480780735997
 20
518.6382675916938
 30
0.0
 10
1691.480780735997
 20
458.4411619606908
 30
0.0
 10
1747.721272724917
 20
458.4411619606908
 30
0.0
 10
1803.787823494815
 20
458.4411619606908
 30
0.0
 10
1860.299367123505
 20
458.4411619606908
 30
0.0
 10
1860.299367123505
 20
438.477513884607
 30
0.0
 10
1860.299367123505
 20
419.0354773352337
 30
0.0
 10
1860.299367123505
 20
399.2747231388748
 30
0.0
 10
1785.285159486393
 20
399.2747231388748
 30
0.0
 10
1710.37489939989
 20
399.2747231388748
 30
0.0
 10
1634.650904976286
 20
399.2747231388748
 30
0.0
 10
1634.650904976286
 20
401.099583232426
 30
0.0
 10
1634.651020859845
 20
403.0648305169343
 30
0.0
 10
1634.651020859845
 20
405.0300778014425
 30
0.0
 10
1634.651020859845
 20
500.6388409159517
 30
0.0
 10
1634.651832044743
 20
596.2475968059243
 30
0.0
 10
1634.644183729983
 20
691.8563535989642
 30
0.0
 10
1634.644067846426
 20
693.9042373882657
 30
0.0
 10
1634.543828569642
 20
695.9521146303313
 30
0.0
 10
1634.49052213343
 20
697.9999966134982
 30
0.0
 10
1709.80312992976
 20
697.999997290799
 30
0.0
 10
1785.115621842535
 20
697.999997290799
 30
0.0
 10
1860.428229638865
 20
697.9999974036827
 30
0.0
  0
HATCH
  5
89
330
7D
100
AcDbEntity
  8
Layer 1
 62
     7
440
 33554687
100
AcDbHatch
 10
0.0
 20
0.0
 30
0.0
210
0.0
220
0.0
230
1.0
  2
SOLID
 70
     1
 71
     1
 91
        1
 92
        1
 93
        1
 72
     4
 94
        3
 73
     0
 74
     0
 95
       38
 96
       34
 40
0.0
 40
0.0
 40
0.0
 40
0.0
 40
1.0
 40
1.0
 40
1.0
 40
2.0
 40
2.0
 40
2.0
 40
3.0
 40
3.0
 40
3.0
 40
4.0
 40
4.0
 40
4.0
 40
5.0
 40
5.0
 40
5.0
 40
6.0
 40
6.0
 40
6.0
 40
7.0
 40
7.0
 40
7.0
 40
8.0
 40
8.0
 40
8.0
 40
9.0
 40
9.0
 40
9.0
 40
10.0
 40
10.0
 40
10.0
 40
11.0
 40
11.0
 40
11.0
 40
11.0
 10
1860.428229638865
 20
697.9999974036827
 10
1860.48976380762
 20
678.7632080138755
 10
1860.5541950653
 20
659.5264259614887
 10
1860.592204871987
 20
640.2895915312119
 10
1860.593016056886
 20
639.860605785444
 10
1860.291834692301
 20
639.4310095663532
 10
1859.945111089824
 20
638.5024218439602
 10
1804.001628657439
 20
638.5024218439602
 10
1747.933803168416
 20
638.5024218439602
 10
1691.480780735997
 20
638.5024218439602
 10
1691.480780735997
 20
578.3090512982662
 10
1691.480780735997
 20
518.6382675916938
 10
1691.480780735997
 20
458.4411619606908
 10
1747.721272724917
 20
458.4411619606908
 10
1803.787823494815
 20
458.4411619606908
 10
1860.299367123505
 20
458.4411619606908
 10
1860.299367123505
 20
438.477513884607
 10
1860.299367123505
 20
419.0354773352337
 10
1860.299367123505
 20
399.2747231388748
 10
1785.285159486393
 20
399.2747231388748
 10
1710.37489939989
 20
399.2747231388748
 10
1634.650904976286
 20
399.2747231388748
 10
1634.650904976286
 20
401.099583232426
 10
1634.651020859845
 20
403.0648305169343
 10
1634.651020859845
 20
405.0300778014425
 10
1634.651020859845
 20
500.6388409159517
 10
1634.651832044743
 20
596.2475968059243
 10
1634.644183729983
 20
691.8563535989642
 10
1634.644067846426
 20
693.9042373882657
 10
1634.543828569642
 20
695.9521146303313
 10
1634.49052213343
 20
697.9999966134982
 10
1709.80312992976
 20
697.999997290799
 10
1785.115621842535
 20
697.999997290799
 10
1860.428229638865
 20
697.9999974036827
 97
        0
 97
        1
330
88
 75
     2
 76
     1
 98
        1
 10
0.0
 20
0.0
450
        0
451
        0
460
0.0
461
0.0
452
        0
462
0.0
453
        0
470

  0
SPLINE
  5
8A
330
7D
100
AcDbEntity
  8
Layer 1
100
AcDbSpline
210
0.0
220
0.0
230
1.0
 70
     9
 71
     3
 72
    32
 73
    28
 74
     0
 42
0.0000000001
 43
0.0000000001
 40
0.0
 40
0.0
 40
0.0
 40
0.0
 40
1.0
 40
1.0
 40
1.0
 40
2.0
 40
2.0
 40
2.0
 40
3.0
 40
3.0
 40
3.0
 40
4.0
 40
4.0
 40
4.0
 40
5.0
 40
5.0
 40
5.0
 40
6.0
 40
6.0
 40
6.0
 40
7.0
 40
7.0
 40
7.0
 40
8.0
 40
8.0
 40
8.0
 40
9.0
 40
9.0
 40
9.0
 40
9.0
 10
286.458821890923
 20
697.999997290799
 30
0.0
 10
286.3781959061553
 20
680.1793200941965
 30
0.0
 10
286.2968456491572
 20
662.3586465098632
 30
0.0
 10
286.2180738013012
 20
644.5379620887251
 30
0.0
 10
286.209904010534
 20
642.6877402602076
 30
0.0
 10
286.2170018783991
 20
640.8374534108625
 30
0.0
 10
286.2170018783991
 20
638.4988529229886
 30
0.0
 10
248.1534831610133
 20
638.4988529229886
 30
0.0
 10
210.5898281666523
 20
638.4988529229886
 30
0.0
 10
172.5186031927287
 20
638.4988529229886
 30
0.0
 10
172.5186031927287
 20
558.5820501358803
 30
0.0
 10
172.5186031927287
 20
479.1578812600564
 30
0.0
 10
172.5186031927287
 20
399.3470551971222
 30
0.0
 10
153.4688239409252
 20
399.3470551971222
 30
0.0
 10
134.9254703185606
 20
399.3470551971222
 30
0.0
 10
115.8723376863272
 20
399.3470551971222
 30
0.0
 10
115.8723376863272
 20
478.8025930099101
 30
0.0
 10
115.8723376863272
 20
558.232151389875
 30
0.0
 10
115.8723376863272
 20
638.3223936218819
 30
0.0
 10
78.01013043557941
 20
638.3223936218819
 30
0.0
 10
40.64612108172423
 20
638.3223936218819
 30
0.0
 10
2.612710360986056
 20
638.3223936218819
 30
0.0
 10
2.612710360986056
 20
658.6537525384174
 30
0.0
 10
2.612710360986056
 20
678.3268749146081
 30
0.0
 10
2.612710360986056
 20
697.999997290799
 30
0.0
 10
97.2280784567247
 20
697.999997290799
 30
0.0
 10
191.8434465524624
 20
697.999997290799
 30
0.0
 10
286.458821890923
 20
697.999997290799
 30
0.0
  0
HATCH
  5
8B
330
7D
100
AcDbEntity
  8
Layer 1
 62
     7
440
 33554687
100
AcDbHatch
 10
0.0
 20
0.0
 30
0.0
210
0.0
220
0.0
230
1.0
  2
SOLID
 70
     1
 71
     1
 91
        1
 92
        1
 93
        1
 72
     4
 94
        3
 73
     0
 74
     0
 95
       32
 96
       28
 40
0.0
 40
0.0
 40
0.0
 40
0.0
 40
1.0
 40
1.0
 40
1.0
 40
2.0
 40
2.0
 40
2.0
 40
3.0
 40
3.0
 40
3.0
 40
4.0
 40
4.0
 40
4.0
 40
5.0
 40
5.0
 40
5.0
 40
6.0
 40
6.0
 40
6.0
 40
7.0
 40
7.0
 40
7.0
 40
8.0
 40
8.0
 40
8.0
 40
9.0
 40
9.0
 40
9.0
 40
9.0
 10
286.458821890923
 20
697.999997290799
 10
286.3781959061553
 20
680.1793200941965
 10
286.2968456491572
 20
662.3586465098632
 10
286.2180738013012
 20
644.5379620887251
 10
286.209904010534
 20
642.6877402602076
 10
286.2170018783991
 20
640.8374534108625
 10
286.2170018783991
 20
638.4988529229886
 10
248.1534831610133
 20
638.4988529229886
 10
210.5898281666523
 20
638.4988529229886
 10
172.5186031927287
 20
638.4988529229886
 10
172.5186031927287
 20
558.5820501358803
 10
172.5186031927287
 20
479.1578812600564
 10
172.5186031927287
 20
399.3470551971222
 10
153.4688239409252
 20
399.3470551971222
 10
134.9254703185606
 20
399.3470551971222
 10
115.8723376863272
 20
399.3470551971222
 10
115.8723376863272
 20
478.8025930099101
 10
115.8723376863272
 20
558.232151389875
 10
115.8723376863272
 20
638.3223936218819
 10
78.01013043557941
 20
638.3223936218819
 10
40.64612108172423
 20
638.3223936218819
 10
2.612710360986056
 20
638.3223936218819
 10
2.612710360986056
 20
658.6537525384174
 10
2.612710360986056
 20
678.3268749146081
 10
2.612710360986056
 20
697.999997290799
 10
97.2280784567247
 20
697.999997290799
 10
191.8434465524624
 20
697.999997290799
 10
286.458821890923
 20
697.999997290799
 97
        0
 97
        1
330
8A
 75
     2
 76
     1
 98
        1
 10
0.0
 20
0.0
450
        0
451
        0
460
0.0
461
0.0
452
        0
462
0.0
453
        0
470

  0
SPLINE
  5
8C
330
7D
100
AcDbEntity
  8
Layer 1
100
AcDbSpline
210
0.0
220
0.0
230
1.0
 70
     9
 71
     3
 72
    44
 73
    40
 74
     0
 42
0.0000000001
 43
0.0000000001
 40
0.0
 40
0.0
 40
0.0
 40
0.0
 40
1.0
 40
1.0
 40
1.0
 40
2.0
 40
2.0
 40
2.0
 40
3.0
 40
3.0
 40
3.0
 40
4.0
 40
4.0
 40
4.0
 40
5.0
 40
5.0
 40
5.0
 40
6.0
 40
6.0
 40
6.0
 40
7.0
 40
7.0
 40
7.0
 40
8.0
 40
8.0
 40
8.0
 40
9.0
 40
9.0
 40
9.0
 40
10.0
 40
10.0
 40
10.0
 40
11.0
 40
11.0
 40
11.0
 40
12.0
 40
12.0
 40
12.0
 40
13.0
 40
13.0
 40
13.0
 40
13.0
 10
1265.205781714885
 20
697.999997290799
 30
0.0
 10
1265.205781714885
 20
678.3262517983448
 30
0.0
 10
1265.205781714885
 20
658.6525063058916
 30
0.0
 10
1265.205781714885
 20
638.4377839169592
 30
0.0
 10
1262.652866954664
 20
638.4377839169592
 30
0.0
 10
1260.801163597713
 20
638.4377875292275
 30
0.0
 10
1258.949344357208
 20
638.4377875292275
 30
0.0
 10
1225.098019110632
 20
638.4377405697405
 30
0.0
 10
1191.246693864055
 20
638.4390120881435
 30
0.0
 10
1157.395368617477
 20
638.4364473777286
 30
0.0
 10
1151.180417573199
 20
638.4359741705966
 30
0.0
 10
1151.172421607767
 20
638.4287713078237
 30
0.0
 10
1151.17230572421
 20
632.3611685706009
 30
0.0
 10
1151.1704515873
 20
556.7813633410587
 30
0.0
 10
1151.170915121529
 20
481.2015725605887
 30
0.0
 10
1151.170915121529
 20
405.6217673310475
 30
0.0
 10
1151.170915121529
 20
403.5984925703287
 30
0.0
 10
1151.171031005085
 20
401.5752178096081
 30
0.0
 10
1151.171031005085
 20
399.2613143993512
 30
0.0
 10
1132.324192832439
 20
399.2613143993512
 30
0.0
 10
1113.883758294116
 20
399.2613143993512
 30
0.0
 10
1094.74709534547
 20
399.2613143993512
 30
0.0
 10
1094.74709534547
 20
478.725362715997
 30
0.0
 10
1094.74709534547
 20
558.2730567148637
 30
0.0
 10
1094.74709534547
 20
638.2698062215649
 30
0.0
 10
1056.947501429102
 20
638.2698062215649
 30
0.0
 10
1019.837530560306
 20
638.2698062215649
 30
0.0
 10
982.2009848086072
 20
638.2698062215649
 30
0.0
 10
982.0490614654099
 20
640.4858352251985
 30
0.0
 10
981.8205390910479
 20
642.2936056779417
 30
0.0
 10
981.8174102350095
 20
644.101769867917
 30
0.0
 10
981.7892505306645
 20
660.3537365206229
 30
0.0
 10
981.8138178447442
 20
676.6058079291078
 30
0.0
 10
981.7811386816757
 20
692.8577678088113
 30
0.0
 10
981.7777780585238
 20
694.5721232000132
 30
0.0
 10
981.506726418751
 20
696.285939008655
 30
0.0
 10
981.3596701849474
 20
698.0
 30
0.0
 10
1075.975002067074
 20
697.999997290799
 30
0.0
 10
1170.590449832756
 20
697.999997290799
 30
0.0
 10
1265.205781714885
 20
697.999997290799
 30
0.0
  0
HATCH
  5
8D
330
7D
100
AcDbEntity
  8
Layer 1
 62
     7
440
 33554687
100
AcDbHatch
 10
0.0
 20
0.0
 30
0.0
210
0.0
220
0.0
230
1.0
  2
SOLID
 70
     1
 71
     1
 91
        1
 92
        1
 93
        1
 72
     4
 94
        3
 73
     0
 74
     0
 95
       44
 96
       40
 40
0.0
 40
0.0
 40
0.0
 40
0.0
 40
1.0
 40
1.0
 40
1.0
 40
2.0
 40
2.0
 40
2.0
 40
3.0
 40
3.0
 40
3.0
 40
4.0
 40
4.0
 40
4.0
 40
5.0
 40
5.0
 40
5.0
 40
6.0
 40
6.0
 40
6.0
 40
7.0
 40
7.0
 40
7.0
 40
8.0
 40
8.0
 40
8.0
 40
9.0
 40
9.0
 40
9.0
 40
10.0
 40
10.0
 40
10.0
 40
11.0
 40
11.0
 40
11.0
 40
12.0
 40
12.0
 40
12.0
 40
13.0
 40
13.0
 40
13.0
 40
13.0
 10
1265.205781714885
 20
697.999997290799
 10
1265.205781714885
 20
678.3262517983448
 10
1265.205781714885
 20
658.6525063058916
 10
1265.205781714885
 20
638.4377839169592
 10
1262.652866954664
 20
638.4377839169592
 10
1260.801163597713
 20
638.4377875292275
 10
1258.949344357208
 20
638.4377875292275
 10
1225.098019110632
 20
638.4377405697405
 10
1191.246693864055
 20
638.4390120881435
 10
1157.395368617477
 20
638.4364473777286
 10
1151.180417573199
 20
638.4359741705966
 10
1151.172421607767
 20
638.4287713078237
 10
1151.17230572421
 20
632.3611685706009
 10
1151.1704515873
 20
556.7813633410587
 10
1151.170915121529
 20
481.2015725605887
 10
1151.170915121529
 20
405.6217673310475
 10
1151.170915121529
 20
403.5984925703287
 10
1151.171031005085
 20
401.5752178096081
 10
1151.171031005085
 20
399.2613143993512
 10
1132.324192832439
 20
399.2613143993512
 10
1113.883758294116
 20
399.2613143993512
 10
1094.74709534547
 20
399.2613143993512
 10
1094.74709534547
 20
478.725362715997
 10
1094.74709534547
 20
558.2730567148637
 10
1094.74709534547
 20
638.2698062215649
 10
1056.947501429102
 20
638.2698062215649
 10
1019.837530560306
 20
638.2698062215649
 10
982.2009848086072
 20
638.2698062215649
 10
982.0490614654099
 20
640.4858352251985
 10
981.8205390910479
 20
642.2936056779417
 10
981.8174102350095
 20
644.101769867917
 10
981.7892505306645
 20
660.3537365206229
 10
981.8138178447442
 20
676.6058079291078
 10
981.7811386816757
 20
692.8577678088113
 10
981.7777780585238
 20
694.5721232000132
 10
981.506726418751
 20
696.285939008655
 10
981.3596701849474
 20
698.0
 10
1075.975002067074
 20
697.999997290799
 10
1170.590449832756
 20
697.999997290799
 10
1265.205781714885
 20
697.999997290799
 97
        0
 97
        1
330
8C
 75
     2
 76
     1
 98
        1
 10
0.0
 20
0.0
450
        0
451
        0
460
0.0
461
0.0
452
        0
462
0.0
453
        0
470

  0
SPLINE
  5
8E
330
7D
100
AcDbEntity
  8
Layer 1
100
AcDbSpline
210
0.0
220
0.0
230
1.0
 70
     9
 71
     3
 72
    29
 73
    25
 74
     0
 42
0.0000000001
 43
0.0000000001
 40
0.0
 40
0.0
 40
0.0
 40
0.0
 40
1.0
 40
1.0
 40
1.0
 40
2.0
 40
2.0
 40
2.0
 40
3.0
 40
3.0
 40
3.0
 40
4.0
 40
4.0
 40
4.0
 40
5.0
 40
5.0
 40
5.0
 40
6.0
 40
6.0
 40
6.0
 40
7.0
 40
7.0
 40
7.0
 40
8.0
 40
8.0
 40
8.0
 40
8.0
 10
1918.336633663366
 20
459.3725202927853
 30
0.0
 10
1916.464187149719
 20
459.1848268376052
 30
0.0
 10
1914.5922041703
 20
458.8397974291219
 30
0.0
 10
1912.719178238865
 20
458.8343356796176
 30
0.0
 10
1897.532290446252
 20
458.7900926188194
 30
0.0
 10
1882.34528677008
 20
458.8095121726127
 30
0.0
 10
1867.15828309391
 20
458.8095121726127
 30
0.0
 10
1865.454447155664
 20
458.8095121726127
 30
0.0
 10
1863.75061121742
 20
458.8095121726127
 30
0.0
 10
1861.721258367624
 20
458.8095121726127
 30
0.0
 10
1861.721258367624
 20
518.5943713086417
 30
0.0
 10
1861.721258367624
 20
577.8490072705972
 30
0.0
 10
1861.721258367624
 20
637.3556278369842
 30
0.0
 10
1862.554345258737
 20
637.5462183312511
 30
0.0
 10
1863.432163202844
 20
637.9205215611518
 30
0.0
 10
1864.310792331849
 20
637.9224288387567
 30
0.0
 10
1881.237903499601
 20
637.9592667497627
 30
0.0
 10
1898.165130550907
 20
637.9626984045435
 30
0.0
 10
1915.092241718659
 20
637.9307009329131
 30
0.0
 10
1916.174014723048
 20
637.9286563891164
 30
0.0
 10
1917.255208309651
 20
637.5823554622293
 30
0.0
 10
1918.336633663366
 20
637.3961936087635
 30
0.0
 10
1918.336633663366
 20
578.0549715782826
 30
0.0
 10
1918.336633663366
 20
518.7137495478018
 30
0.0
 10
1918.336633663366
 20
459.3725202927853
 30
0.0
  0
HATCH
  5
8F
330
7D
100
AcDbEntity
  8
Layer 1
 62
     7
440
 33554687
100
AcDbHatch
 10
0.0
 20
0.0
 30
0.0
210
0.0
220
0.0
230
1.0
  2
SOLID
 70
     1
 71
     1
 91
        1
 92
        1
 93
        1
 72
     4
 94
        3
 73
     0
 74
     0
 95
       29
 96
       25
 40
0.0
 40
0.0
 40
0.0
 40
0.0
 40
1.0
 40
1.0
 40
1.0
 40
2.0
 40
2.0
 40
2.0
 40
3.0
 40
3.0
 40
3.0
 40
4.0
 40
4.0
 40
4.0
 40
5.0
 40
5.0
 40
5.0
 40
6.0
 40
6.0
 40
6.0
 40
7.0
 40
7.0
 40
7.0
 40
8.0
 40
8.0
 40
8.0
 40
8.0
 10
1918.336633663366
 20
459.3725202927853
 10
1916.464187149719
 20
459.1848268376052
 10
1914.5922041703
 20
458.8397974291219
 10
1912.719178238865
 20
458.8343356796176
 10
1897.532290446252
 20
458.7900926188194
 10
1882.34528677008
 20
458.8095121726127
 10
1867.15828309391
 20
458.8095121726127
 10
1865.454447155664
 20
458.8095121726127
 10
1863.75061121742
 20
458.8095121726127
 10
1861.721258367624
 20
458.8095121726127
 10
1861.721258367624
 20
518.5943713086417
 10
1861.721258367624
 20
577.8490072705972
 10
1861.721258367624
 20
637.3556278369842
 10
1862.554345258737
 20
637.5462183312511
 10
1863.432163202844
 20
637.9205215611518
 10
1864.310792331849
 20
637.9224288387567
 10
1881.237903499601
 20
637.9592667497627
 10
1898.165130550907
 20
637.9626984045435
 10
1915.092241718659
 20
637.9307009329131
 10
1916.174014723048
 20
637.9286563891164
 10
1917.255208309651
 20
637.5823554622293
 10
1918.336633663366
 20
637.3961936087635
 10
1918.336633663366
 20
578.0549715782826
 10
1918.336633663366
 20
518.7137495478018
 10
1918.336633663366
 20
459.3725202927853
 97
        0
 97
        1
330
8E
 75
     2
 76
     1
 98
        1
 10
0.0
 20
0.0
450
        0
451
        0
460
0.0
461
0.0
452
        0
462
0.0
453
        0
470

  0
ENDBLK
  5
80
330
7D
100
AcDbEntity
  8
0
100
AcDbBlockEnd
  0
ENDSEC
  0
SECTION
  2
ENTITIES
  0
INSERT
  5
7A
330
70
100
AcDbEntity
  8
Layer 1
100
AcDbBlockReference
  2
Block_0
 10
0.0
 20
0.0
 30
0.0
  0
ENDSEC
  0
SECTION
  2
OBJECTS
  0
DICTIONARY
  5
C
330
0
100
AcDbDictionary
281
     1
  3
ACAD_COLOR
350
63
  3
ACAD_DETAILVIEWSTYLE
350
6A
  3
ACAD_GROUP
350
D
  3
ACAD_LAYOUT
350
62
  3
ACAD_MATERIAL
350
10
  3
ACAD_MLEADERSTYLE
350
66
  3
ACAD_MLINESTYLE
350
5F
  3
ACAD_PLOTSETTINGS
350
61
  3
ACAD_PLOTSTYLENAME
350
E
  3
ACAD_SCALELIST
350
42
  3
ACAD_SECTIONVIEWSTYLE
350
68
  3
ACAD_TABLESTYLE
350
64
  3
ACAD_VISUALSTYLE
350
29
  3
ACDB_RECOMPOSE_DATA
350
98
  3
AcDbVariableDictionary
350
90
  0
DICTIONARY
  5
63
102
{ACAD_REACTORS
330
C
102
}
330
C
100
AcDbDictionary
281
     1
  0
DICTIONARY
  5
6A
102
{ACAD_REACTORS
330
C
102
}
330
C
100
AcDbDictionary
281
     1
  3
Imperial24
350
6B
  0
DICTIONARY
  5
D
102
{ACAD_REACTORS
330
C
102
}
330
C
100
AcDbDictionary
281
     1
  0
DICTIONARY
  5
62
102
{ACAD_REACTORS
330
C
102
}
330
C
100
AcDbDictionary
281
     1
  3
Layout1
350
6F
  3
Layout2
350
77
  3
Model
350
73
  0
DICTIONARY
  5
10
102
{ACAD_REACTORS
330
C
102
}
330
C
100
AcDbDictionary
281
     1
  3
ByBlock
350
19
  3
ByLayer
350
11
  3
Global
350
21
  0
DICTIONARY
  5
66
102
{ACAD_REACTORS
330
C
102
}
330
C
100
AcDbDictionary
281
     1
  3
Standard
350
67
  0
DICTIONARY
  5
5F
102
{ACAD_REACTORS
330
C
102
}
330
C
100
AcDbDictionary
281
     1
  3
Standard
350
60
  0
DICTIONARY
  5
61
102
{ACAD_REACTORS
330
C
102
}
330
C
100
AcDbDictionary
281
     1
  0
ACDBDICTIONARYWDFLT
  5
E
102
{ACAD_REACTORS
330
C
102
}
330
C
100
AcDbDictionary
281
     1
  3
Normal
350
F
100
AcDbDictionaryWithDefault
340
F
  0
DICTIONARY
  5
42
102
{ACAD_REACTORS
330
C
102
}
330
C
100
AcDbDictionary
281
     1
  3
A0
350
43
  3
A1
350
44
  3
A2
350
45
  3
A3
350
46
  3
A4
350
47
  3
A5
350
48
  3
A6
350
49
  3
A7
350
4A
  3
A8
350
4B
  3
A9
350
4C
  3
B0
350
4D
  3
B1
350
4E
  3
B2
350
4F
  3
B3
350
50
  3
B4
350
51
  3
B5
350
52
  3
B6
350
53
  0
DICTIONARY
  5
68
102
{ACAD_REACTORS
330
C
102
}
330
C
100
AcDbDictionary
281
     1
  3
Imperial24
350
69
  0
DICTIONARY
  5
64
102
{ACAD_REACTORS
330
C
102
}
330
C
100
AcDbDictionary
281
     1
  3
Standard
350
65
  0
DICTIONARY
  5
29
102
{ACAD_REACTORS
330
C
102
}
330
C
100
AcDbDictionary
281
     1
  3
2dWireframe
350
2F
  3
Basic
350
2E
  3
Brighten
350
35
  3
ColorChange
350
39
  3
Conceptual
350
32
  3
Dim
350
34
  3
EdgeColorOff
350
41
  3
Facepattern
350
38
  3
Flat
350
2A
  3
FlatWithEdges
350
2B
  3
Gouraud
350
2C
  3
GouraudWithEdges
350
2D
  3
Hidden
350
31
  3
JitterOff
350
3F
  3
Linepattern
350
37
  3
OverhangOff
350
40
  3
Realistic
350
33
  3
Shaded
350
3E
  3
Shaded with edges
350
3D
  3
Shades of Gray
350
3A
  3
Sketchy
350
3B
  3
Thicken
350
36
  3
Wireframe
350
30
  3
X-Ray
350
3C
  0
XRECORD
  5
98
102
{ACAD_REACTORS
330
C
102
}
330
C
100
AcDbXrecord
280
     1
 90
        1
330
65
  0
DICTIONARY
  5
90
102
{ACAD_REACTORS
330
C
102
}
330
C
100
AcDbDictionary
281
     1
  3
CANNOSCALE
350
95
  3
CMLEADERSTYLE
350
92
  3
CTABLESTYLE
350
91
  3
CVIEWDETAILSTYLE
350
93
  3
CVIEWSECTIONSTYLE
350
94
  0
ACDBDETAILVIEWSTYLE
  5
6B
102
{ACAD_REACTORS
330
6A
102
}
330
6A
100
AcDbModelDocViewStyle
 70
     0
  3
Imperial24
290
     1
300
Imperial24
 90
        0
100
AcDbDetailViewStyle
 70
     0
 71
     0
 90
        3
 71
     1
340
55
 62
   256
 40
0.24
340
0
 62
   256
 40
0.24
300

 40
0.36
280
     3
 71
     2
340
5D
 90
       25
 62
   256
 71
     3
340
55
 62
   256
 40
0.24
 90
        1
 40
0.75
 90
        1
300
%<\AcVar ViewType \f "%tc1">% %<\AcVar ViewDetailId>%\PSCALE %<\AcVar ViewScale \f "%sn">%
 71
     4
340
5D
 90
       25
 62
   256
340
5D
 90
       25
 62
   256
280
     0
  0
LAYOUT
  5
6F
102
{ACAD_REACTORS
330
62
102
}
330
62
100
AcDbPlotSettings
  1

  2

  4

  6

 40
0.0
 41
0.0
 42
0.0
 43
0.0
 44
0.0
 45
0.0
 46
0.0
 47
0.0
 48
0.0
 49
0.0
140
0.0
141
0.0
142
1.0
143
1.0
 70
   688
 72
     0
 73
     0
 74
     5
  7

 75
    16
147
1.0
 76
     0
 77
     2
 78
   300
148
0.0
149
0.0
100
AcDbLayout
  1
Layout1
 70
     1
 71
     1
 10
0.0
 20
0.0
 11
12.0
 21
9.0
 12
0.0
 22
0.0
 32
0.0
 14
0.0
 24
0.0
 34
0.0
 15
0.0
 25
0.0
 35
0.0
146
0.0
 13
0.0
 23
0.0
 33
0.0
 16
1.0
 26
0.0
 36
0.0
 17
0.0
 27
1.0
 37
0.0
 76
     0
330
6C
  0
LAYOUT
  5
77
102
{ACAD_REACTORS
330
62
102
}
330
62
100
AcDbPlotSettings
  1

  2

  4

  6

 40
0.0
 41
0.0
 42
0.0
 43
0.0
 44
0.0
 45
0.0
 46
0.0
 47
0.0
 48
0.0
 49
0.0
140
0.0
141
0.0
142
1.0
143
1.0
 70
   688
 72
     0
 73
     0
 74
     5
  7

 75
    16
147
1.0
 76
     0
 77
     2
 78
   300
148
0.0
149
0.0
100
AcDbLayout
  1
Layout2
 70
     1
 71
     2
 10
0.0
 20
0.0
 11
12.0
 21
9.0
 12
0.0
 22
0.0
 32
0.0
 14
0.0
 24
0.0
 34
0.0
 15
0.0
 25
0.0
 35
0.0
146
0.0
 13
0.0
 23
0.0
 33
0.0
 16
1.0
 26
0.0
 36
0.0
 17
0.0
 27
1.0
 37
0.0
 76
     0
330
74
  0
LAYOUT
  5
73
102
{ACAD_REACTORS
330
62
102
}
330
62
100
AcDbPlotSettings
  1

  2

  4

  6

 40
0.0
 41
0.0
 42
0.0
 43
0.0
 44
0.0
 45
0.0
 46
0.0
 47
0.0
 48
0.0
 49
0.0
140
0.0
141
0.0
142
1.0
143
1.0
 70
  1712
 72
     0
 73
     0
 74
     0
  7

 75
     0
147
1.0
 76
     0
 77
     2
 78
   300
148
0.0
149
0.0
100
AcDbLayout
  1
Model
 70
     1
 71
     0
 10
0.0
 20
0.0
 11
12.0
 21
9.0
 12
0.0
 22
0.0
 32
0.0
 14
0.0
 24
0.0
 34
0.0
 15
0.0
 25
0.0
 35
0.0
146
0.0
 13
0.0
 23
0.0
 33
0.0
 16
1.0
 26
0.0
 36
0.0
 17
0.0
 27
1.0
 37
0.0
 76
     0
330
70
  0
MATERIAL
  5
19
102
{ACAD_XDICTIONARY
360
1A
102
}
102
{ACAD_REACTORS
330
10
102
}
330
10
100
AcDbMaterial
  1
ByBlock
 72
     0
 43
0.0208333333333333
 43
0.0
 43
0.0
 43
0.0
 43
0.0
 43
0.0208333333333333
 43
0.0
 43
0.0
 43
0.0
 43
0.0
 43
1.0
 43
0.0
 43
0.0
 43
0.0
 43
0.0
 43
1.0
 77
     0
 47
0.0208333333333333
 47
0.0
 47
0.0
 47
0.0
 47
0.0
 47
0.0208333333333333
 47
0.0
 47
0.0
 47
0.0
 47
0.0
 47
1.0
 47
0.0
 47
0.0
 47
0.0
 47
0.0
 47
1.0
171
     0
 49
0.0208333333333333
 49
0.0
 49
0.0
 49
0.0
 49
0.0
 49
0.0208333333333333
 49
0.0
 49
0.0
 49
0.0
 49
0.0
 49
1.0
 49
0.0
 49
0.0
 49
0.0
 49
0.0
 49
1.0
175
     0
142
0.0208333333333333
142
0.0
142
0.0
142
0.0
142
0.0
142
0.0208333333333333
142
0.0
142
0.0
142
0.0
142
0.0
142
1.0
142
0.0
142
0.0
142
0.0
142
0.0
142
1.0
179
     0
144
0.0208333333333333
144
0.0
144
0.0
144
0.0
144
0.0
144
0.0208333333333333
144
0.0
144
0.0
144
0.0
144
0.0
144
1.0
144
0.0
144
0.0
144
0.0
144
0.0
144
1.0
147
0.0208333333333333
147
0.0
147
0.0
147
0.0
147
0.0
147
0.0208333333333333
147
0.0
147
0.0
147
0.0
147
0.0
147
1.0
147
0.0
147
0.0
147
0.0
147
0.0
147
1.0
  0
MATERIAL
  5
11
102
{ACAD_XDICTIONARY
360
12
102
}
102
{ACAD_REACTORS
330
10
102
}
330
10
100
AcDbMaterial
  1
ByLayer
 72
     0
 43
0.0208333333333333
 43
0.0
 43
0.0
 43
0.0
 43
0.0
 43
0.0208333333333333
 43
0.0
 43
0.0
 43
0.0
 43
0.0
 43
1.0
 43
0.0
 43
0.0
 43
0.0
 43
0.0
 43
1.0
 77
     0
 47
0.0208333333333333
 47
0.0
 47
0.0
 47
0.0
 47
0.0
 47
0.0208333333333333
 47
0.0
 47
0.0
 47
0.0
 47
0.0
 47
1.0
 47
0.0
 47
0.0
 47
0.0
 47
0.0
 47
1.0
171
     0
 49
0.0208333333333333
 49
0.0
 49
0.0
 49
0.0
 49
0.0
 49
0.0208333333333333
 49
0.0
 49
0.0
 49
0.0
 49
0.0
 49
1.0
 49
0.0
 49
0.0
 49
0.0
 49
0.0
 49
1.0
175
     0
142
0.0208333333333333
142
0.0
142
0.0
142
0.0
142
0.0
142
0.0208333333333333
142
0.0
142
0.0
142
0.0
142
0.0
142
1.0
142
0.0
142
0.0
142
0.0
142
0.0
142
1.0
179
     0
144
0.0208333333333333
144
0.0
144
0.0
144
0.0
144
0.0
144
0.0208333333333333
144
0.0
144
0.0
144
0.0
144
0.0
144
1.0
144
0.0
144
0.0
144
0.0
144
0.0
144
1.0
147
0.0208333333333333
147
0.0
147
0.0
147
0.0
147
0.0
147
0.0208333333333333
147
0.0
147
0.0
147
0.0
147
0.0
147
1.0
147
0.0
147
0.0
147
0.0
147
0.0
147
1.0
  0
MATERIAL
  5
21
102
{ACAD_XDICTIONARY
360
22
102
}
102
{ACAD_REACTORS
330
10
102
}
330
10
100
AcDbMaterial
  1
Global
 72
     0
 43
0.0208333333333333
 43
0.0
 43
0.0
 43
0.0
 43
0.0
 43
0.0208333333333333
 43
0.0
 43
0.0
 43
0.0
 43
0.0
 43
1.0
 43
0.0
 43
0.0
 43
0.0
 43
0.0
 43
1.0
 77
     0
 47
0.0208333333333333
 47
0.0
 47
0.0
 47
0.0
 47
0.0
 47
0.0208333333333333
 47
0.0
 47
0.0
 47
0.0
 47
0.0
 47
1.0
 47
0.0
 47
0.0
 47
0.0
 47
0.0
 47
1.0
171
     0
 49
0.0208333333333333
 49
0.0
 49
0.0
 49
0.0
 49
0.0
 49
0.0208333333333333
 49
0.0
 49
0.0
 49
0.0
 49
0.0
 49
1.0
 49
0.0
 49
0.0
 49
0.0
 49
0.0
 49
1.0
175
     0
142
0.0208333333333333
142
0.0
142
0.0
142
0.0
142
0.0
142
0.0208333333333333
142
0.0
142
0.0
142
0.0
142
0.0
142
1.0
142
0.0
142
0.0
142
0.0
142
0.0
142
1.0
179
     0
144
0.0208333333333333
144
0.0
144
0.0
144
0.0
144
0.0
144
0.0208333333333333
144
0.0
144
0.0
144
0.0
144
0.0
144
1.0
144
0.0
144
0.0
144
0.0
144
0.0
144
1.0
147
0.0208333333333333
147
0.0
147
0.0
147
0.0
147
0.0
147
0.0208333333333333
147
0.0
147
0.0
147
0.0
147
0.0
147
1.0
147
0.0
147
0.0
147
0.0
147
0.0
147
1.0
  0
MLEADERSTYLE
  5
67
102
{ACAD_REACTORS
330
66
102
}
330
66
100
AcDbMLeaderStyle
179
     2
170
     2
171
     1
172
     0
 90
        2
 40
0.0
 41
0.0
173
     1
 91
-1056964608
340
5B
 92
       -2
290
     1
 42
0.09
291
     1
 43
0.36
  3
Standard
 44
0.18
300

342
55
174
     1
178
     6
175
     1
176
     0
 93
-1056964608
 45
0.18
292
     0
297
     0
 46
0.18
 94
-1056964608
 47
1.0
 49
1.0
140
1.0
293
     1
141
0.0
294
     1
177
     0
142
1.0
295
     1
296
     0
143
0.125
271
     0
272
     9
273
     9
298
     1
  0
MLINESTYLE
  5
60
102
{ACAD_REACTORS
330
5F
102
}
330
5F
100
AcDbMlineStyle
  2
STANDARD
 70
     0
  3

 62
   256
 51
90.0
 52
90.0
 71
     2
 49
0.5
 62
   256
  6
BYLAYER
 49
-0.5
 62
   256
  6
BYLAYER
  0
ACDBPLACEHOLDER
  5
F
102
{ACAD_REACTORS
330
E
102
}
330
E
  0
SCALE
  5
43
102
{ACAD_REACTORS
330
42
102
}
330
42
100
AcDbScale
 70
     0
300
1:1
140
1.0
141
1.0
290
     1
  0
SCALE
  5
44
102
{ACAD_REACTORS
330
42
102
}
330
42
100
AcDbScale
 70
     0
300
1/128" = 1'-0"
140
0.0078125
141
12.0
290
     0
  0
SCALE
  5
45
102
{ACAD_REACTORS
330
42
102
}
330
42
100
AcDbScale
 70
     0
300
1/64" = 1'-0"
140
0.015625
141
12.0
290
     0
  0
SCALE
  5
46
102
{ACAD_REACTORS
330
42
102
}
330
42
100
AcDbScale
 70
     0
300
1/32" = 1'-0"
140
0.03125
141
12.0
290
     0
  0
SCALE
  5
47
102
{ACAD_REACTORS
330
42
102
}
330
42
100
AcDbScale
 70
     0
300
1/16" = 1'-0"
140
0.0625
141
12.0
290
     0
  0
SCALE
  5
48
102
{ACAD_REACTORS
330
42
102
}
330
42
100
AcDbScale
 70
     0
300
3/32" = 1'-0"
140
0.09375
141
12.0
290
     0
  0
SCALE
  5
49
102
{ACAD_REACTORS
330
42
102
}
330
42
100
AcDbScale
 70
     0
300
1/8" = 1'-0"
140
0.125
141
12.0
290
     0
  0
SCALE
  5
4A
102
{ACAD_REACTORS
330
42
102
}
330
42
100
AcDbScale
 70
     0
300
3/16" = 1'-0"
140
0.1875
141
12.0
290
     0
  0
SCALE
  5
4B
102
{ACAD_REACTORS
330
42
102
}
330
42
100
AcDbScale
 70
     0
300
1/4" = 1'-0"
140
0.25
141
12.0
290
     0
  0
SCALE
  5
4C
102
{ACAD_REACTORS
330
42
102
}
330
42
100
AcDbScale
 70
     0
300
3/8" = 1'-0"
140
0.375
141
12.0
290
     0
  0
SCALE
  5
4D
102
{ACAD_REACTORS
330
42
102
}
330
42
100
AcDbScale
 70
     0
300
1/2" = 1'-0"
140
0.5
141
12.0
290
     0
  0
SCALE
  5
4E
102
{ACAD_REACTORS
330
42
102
}
330
42
100
AcDbScale
 70
     0
300
3/4" = 1'-0"
140
0.75
141
12.0
290
     0
  0
SCALE
  5
4F
102
{ACAD_REACTORS
330
42
102
}
330
42
100
AcDbScale
 70
     0
300
1" = 1'-0"
140
1.0
141
12.0
290
     0
  0
SCALE
  5
50
102
{ACAD_REACTORS
330
42
102
}
330
42
100
AcDbScale
 70
     0
300
1-1/2" = 1'-0"
140
1.5
141
12.0
290
     0
  0
SCALE
  5
51
102
{ACAD_REACTORS
330
42
102
}
330
42
100
AcDbScale
 70
     0
300
3" = 1'-0"
140
3.0
141
12.0
290
     0
  0
SCALE
  5
52
102
{ACAD_REACTORS
330
42
102
}
330
42
100
AcDbScale
 70
     0
300
6" = 1'-0"
140
6.0
141
12.0
290
     0
  0
SCALE
  5
53
102
{ACAD_REACTORS
330
42
102
}
330
42
100
AcDbScale
 70
     0
300
1'-0" = 1'-0"
140
12.0
141
12.0
290
     0
  0
ACDBSECTIONVIEWSTYLE
  5
69
102
{ACAD_REACTORS
330
68
102
}
330
68
100
AcDbModelDocViewStyle
 70
     0
  3
Imperial24
290
     1
300
Imperial24
 90
        0
100
AcDbSectionViewStyle
 70
     0
 71
     0
 90
       78
 71
     1
340
55
 62
   256
 40
0.24
340
0
340
0
 62
   256
 40
0.24
300
I, O, Q, S, X, Z
 40
0.48
 90
        3
 40
0.18
 90
        1
 71
     2
340
5D
 90
       25
 62
   256
340
5D
 90
       50
 62
   256
 40
0.24
 40
0.0
 40
0.24
 71
     3
340
55
 62
   256
 40
0.24
 90
        1
 40
0.75
 90
        1
300
%<\AcVar ViewType \f "%tc1">% %<\AcVar ViewSectionStartId>%-%<\AcVar ViewSectionEndId>%\PSCALE %<\AcVar ViewScale \f "%sn">%
 71
     4
 62
   256
 62
   257
300
ANSI31
 40
1.0
 90
        0
290
     0
290
     0
 90
        6
 40
0.0
 40
1.570796326794896
 40
0.2617993877991494
 40
1.308996938995747
 40
-0.2617993877991494
 40
1.832595714594046
  0
TABLESTYLE
  5
65
102
{ACAD_XDICTIONARY
360
96
102
}
102
{ACAD_REACTORS
330
64
102
}
330
64
100
AcDbTableStyle
280
     0
  3
Standard
 70
     0
 71
     0
 40
0.06
 41
0.06
280
     0
281
     0
  7
Standard
140
0.18
170
     2
 62
     0
 63
     7
283
     0
 90
      512
 91
        0
  1

274
    -2
284
     1
 64
     0
275
    -2
285
     1
 65
     0
276
    -2
286
     1
 66
     0
277
    -2
287
     1
 67
     0
278
    -2
288
     1
 68
     0
279
    -2
289
     1
 69
     0
  7
Standard
140
0.25
170
     5
 62
     0
 63
     7
283
     0
 90
      512
 91
        0
  1

274
    -2
284
     1
 64
     0
275
    -2
285
     1
 65
     0
276
    -2
286
     1
 66
     0
277
    -2
287
     1
 67
     0
278
    -2
288
     1
 68
     0
279
    -2
289
     1
 69
     0
  7
Standard
140
0.18
170
     5
 62
     0
 63
     7
283
     0
 90
      512
 91
        0
  1

274
    -2
284
     1
 64
     0
275
    -2
285
     1
 65
     0
276
    -2
286
     1
 66
     0
277
    -2
287
     1
 67
     0
278
    -2
288
     1
 68
     0
279
    -2
289
     1
 69
     0
  0
VISUALSTYLE
  5
2F
102
{ACAD_REACTORS
330
29
102
}
330
29
100
AcDbVisualStyle
  2
2dWireframe
 70
     4
177
     3
291
     0
 70
    58
 90
        0
176
     1
 90
        2
176
     1
 90
        0
176
     1
 90
        0
176
     1
 40
0.6
176
     1
 40
30.0
176
     1
 62
     7
420
 16777215
176
     1
 90
        1
176
     1
 90
        4
176
     1
 62
     7
176
     1
 62
   257
176
     1
 90
        1
176
     1
 90
        1
176
     1
 40
1.0
176
     1
 90
        0
176
     1
 62
   257
176
     1
 40
1.0
176
     1
 90
        1
176
     1
 90
        6
176
     1
 90
        2
176
     1
 62
     7
176
     1
 90
        5
176
     1
 90
        0
176
     1
 90
        0
176
     1
290
     0
176
     1
 90
        1
176
     1
 40
0.0
176
     1
 90
        0
176
     1
290
     1
176
     1
290
     1
176
     1
290
     0
176
     1
290
     0
176
     1
290
     0
176
     1
290
     0
176
     1
290
     0
176
     1
290
     0
176
     1
290
     0
176
     1
 90
       50
176
     1
 40
0.0
176
     1
 40
1.0
176
     1
 90
        0
176
     1
 62
    18
420
        0
176
     1
 90
       50
176
     1
 90
        3
176
     1
 62
     5
420
      255
176
     1
290
     0
176
     1
 90
       50
176
     1
 90
       50
176
     1
 90
       50
176
     1
290
     0
176
     1
 90
       50
176
     1
 62
   256
176
     0
 40
1.0
176
     0
 90
        2
176
     1
  1
strokes_ogs.tif
176
     1
290
     0
176
     1
 40
1.0
176
     1
 40
1.0
176
     1
  0
VISUALSTYLE
  5
2E
102
{ACAD_REACTORS
330
29
102
}
330
29
100
AcDbVisualStyle
  2
Basic
 70
     7
177
     3
291
     1
 70
    58
 90
        1
176
     1
 90
        0
176
     1
 90
        1
176
     1
 90
        0
176
     1
 40
0.6
176
     1
 40
30.0
176
     1
 62
     7
420
 16777215
176
     1
 90
        0
176
     1
 90
        4
176
     1
 62
     7
176
     1
 62
   257
176
     1
 90
        1
176
     1
 90
        1
176
     1
 40
1.0
176
     1
 90
        8
176
     1
 62
     7
176
     1
 40
1.0
176
     1
 90
        1
176
     1
 90
        6
176
     1
 90
        2
176
     1
 62
     7
176
     1
 90
        5
176
     1
 90
        0
176
     1
 90
        0
176
     1
290
     0
176
     1
 90
        1
176
     1
 40
0.0
176
     1
 90
        0
176
     1
290
     0
176
     1
290
     1
176
     1
290
     1
176
     1
290
     0
176
     1
290
     0
176
     1
290
     0
176
     1
290
     0
176
     1
290
     0
176
     1
290
     0
176
     1
 90
       50
176
     1
 40
0.0
176
     1
 40
1.0
176
     1
 90
        0
176
     1
 62
    18
420
        0
176
     1
 90
       50
176
     1
 90
        3
176
     1
 62
     5
420
      255
176
     1
290
     0
176
     1
 90
       50
176
     1
 90
       50
176
     1
 90
       50
176
     1
290
     0
176
     1
 90
       50
176
     1
 62
   256
176
     0
 40
1.0
176
     0
 90
        2
176
     1
  1
strokes_ogs.tif
176
     1
290
     0
176
     1
 40
1.0
176
     1
 40
1.0
176
     1
  0
VISUALSTYLE
  5
35
102
{ACAD_REACTORS
330
29
102
}
330
29
100
AcDbVisualStyle
  2
Brighten
 70
    12
177
     3
291
     1
 70
    58
 90
        2
176
     1
 90
        2
176
     1
 90
        0
176
     1
 90
        0
176
     1
 40
0.6
176
     1
 40
30.0
176
     1
 62
     7
420
 16777215
176
     1
 90
        1
176
     1
 90
        4
176
     1
 62
     7
176
     1
 62
   257
176
     1
 90
        1
176
     1
 90
        1
176
     1
 40
1.0
176
     1
 90
        8
176
     1
 62
     7
176
     1
 40
1.0
176
     1
 90
        1
176
     1
 90
        6
176
     1
 90
        2
176
     1
 62
     7
176
     1
 90
        5
176
     1
 90
        0
176
     1
 90
        0
176
     1
290
     0
176
     1
 90
        1
176
     1
 40
50.0
176
     1
 90
        0
176
     1
290
     0
176
     1
290
     1
176
     1
290
     1
176
     1
290
     0
176
     1
290
     0
176
     1
290
     0
176
     1
290
     0
176
     1
290
     0
176
     1
290
     0
176
     1
 90
       50
176
     1
 40
0.0
176
     1
 40
1.0
176
     1
 90
        0
176
     1
 62
    18
420
        0
176
     1
 90
       50
176
     1
 90
        3
176
     1
 62
     5
420
      255
176
     1
290
     0
176
     1
 90
       50
176
     1
 90
       50
176
     1
 90
       50
176
     1
290
     0
176
     1
 90
       50
176
     1
 62
   256
176
     0
 40
1.0
176
     0
 90
        2
176
     1
  1
strokes_ogs.tif
176
     1
290
     0
176
     1
 40
1.0
176
     1
 40
1.0
176
     1
  0
VISUALSTYLE
  5
39
102
{ACAD_REACTORS
330
29
102
}
330
29
100
AcDbVisualStyle
  2
ColorChange
 70
    16
177
     3
291
     1
 70
    58
 90
        2
176
     1
 90
        2
176
     1
 90
        3
176
     1
 90
        0
176
     1
 40
0.6
176
     1
 40
30.0
176
     1
 62
     8
420
  8421504
176
     1
 90
        1
176
     1
 90
        4
176
     1
 62
     7
176
     1
 62
   257
176
     1
 90
        1
176
     1
 90
        1
176
     1
 40
1.0
176
     1
 90
        8
176
     1
 62
     8
420
  8421504
176
     1
 40
1.0
176
     1
 90
        1
176
     1
 90
        6
176
     1
 90
        2
176
     1
 62
     7
176
     1
 90
        5
176
     1
 90
        0
176
     1
 90
        0
176
     1
290
     0
176
     1
 90
        1
176
     1
 40
0.0
176
     1
 90
        0
176
     1
290
     0
176
     1
290
     1
176
     1
290
     1
176
     1
290
     0
176
     1
290
     0
176
     1
290
     0
176
     1
290
     0
176
     1
290
     0
176
     1
290
     0
176
     1
 90
       50
176
     1
 40
0.0
176
     1
 40
1.0
176
     1
 90
        0
176
     1
 62
    18
420
        0
176
     1
 90
       50
176
     1
 90
        3
176
     1
 62
     5
420
      255
176
     1
290
     0
176
     1
 90
       50
176
     1
 90
       50
176
     1
 90
       50
176
     1
290
     0
176
     1
 90
       50
176
     1
 62
   256
176
     0
 40
1.0
176
     0
 90
        2
176
     1
  1
strokes_ogs.tif
176
     1
290
     0
176
     1
 40
1.0
176
     1
 40
1.0
176
     1
  0
VISUALSTYLE
  5
32
102
{ACAD_REACTORS
330
29
102
}
330
29
100
AcDbVisualStyle
  2
Conceptual
 70
     9
177
     3
291
     0
 70
    58
 90
        3
176
     1
 90
        2
176
     1
 90
        0
176
     1
 90
        0
176
     1
 40
0.6
176
     1
 40
30.0
176
     1
 62
     7
420
 16777215
176
     1
 90
        2
176
     1
 90
        2
176
     1
 62
     7
176
     1
 62
   257
176
     1
 90
        1
176
     1
 90
        1
176
     1
 40
179.0
176
     1
 90
        8
176
     1
 62
     7
176
     1
 40
1.0
176
     1
 90
        1
176
     1
 90
        6
176
     1
 90
        2
176
     1
 62
     7
176
     1
 90
        3
176
     1
 90
        0
176
     1
 90
        0
176
     1
290
     0
176
     1
 90
        1
176
     1
 40
0.0
176
     1
 90
        0
176
     1
290
     0
176
     1
290
     1
176
     1
290
     1
176
     1
290
     0
176
     1
290
     0
176
     1
290
     0
176
     1
290
     0
176
     1
290
     0
176
     1
290
     0
176
     1
 90
       50
176
     1
 40
0.0
176
     1
 40
1.0
176
     1
 90
        0
176
     1
 62
    18
420
        0
176
     1
 90
       50
176
     1
 90
        3
176
     1
 62
     5
420
      255
176
     1
290
     0
176
     1
 90
       50
176
     1
 90
       50
176
     1
 90
       50
176
     1
290
     0
176
     1
 90
       50
176
     1
 62
   256
176
     0
 40
1.0
176
     0
 90
        2
176
     1
  1
strokes_ogs.tif
176
     1
290
     0
176
     1
 40
1.0
176
     1
 40
1.0
176
     1
  0
VISUALSTYLE
  5
34
102
{ACAD_REACTORS
330
29
102
}
330
29
100
AcDbVisualStyle
  2
Dim
 70
    11
177
     3
291
     1
 70
    58
 90
        2
176
     1
 90
        2
176
     1
 90
        0
176
     1
 90
        0
176
     1
 40
0.6
176
     1
 40
30.0
176
     1
 62
     7
420
 16777215
176
     1
 90
        1
176
     1
 90
        4
176
     1
 62
     7
176
     1
 62
   257
176
     1
 90
        1
176
     1
 90
        1
176
     1
 40
1.0
176
     1
 90
        8
176
     1
 62
     7
176
     1
 40
1.0
176
     1
 90
        1
176
     1
 90
        6
176
     1
 90
        2
176
     1
 62
     7
176
     1
 90
        5
176
     1
 90
        0
176
     1
 90
        0
176
     1
290
     0
176
     1
 90
        1
176
     1
 40
-50.0
176
     1
 90
        0
176
     1
290
     0
176
     1
290
     1
176
     1
290
     1
176
     1
290
     0
176
     1
290
     0
176
     1
290
     0
176
     1
290
     0
176
     1
290
     0
176
     1
290
     0
176
     1
 90
       50
176
     1
 40
0.0
176
     1
 40
1.0
176
     1
 90
        0
176
     1
 62
    18
420
        0
176
     1
 90
       50
176
     1
 90
        3
176
     1
 62
     5
420
      255
176
     1
290
     0
176
     1
 90
       50
176
     1
 90
       50
176
     1
 90
       50
176
     1
290
     0
176
     1
 90
       50
176
     1
 62
   256
176
     0
 40
1.0
176
     0
 90
        2
176
     1
  1
strokes_ogs.tif
176
     1
290
     0
176
     1
 40
1.0
176
     1
 40
1.0
176
     1
  0
VISUALSTYLE
  5
41
102
{ACAD_REACTORS
330
29
102
}
330
29
100
AcDbVisualStyle
  2
EdgeColorOff
 70
    22
177
     3
291
     1
 70
    58
 90
        2
176
     0
 90
        2
176
     0
 90
        0
176
     0
 90
        0
176
     0
 40
0.6
176
     0
 40
30.0
176
     0
 62
     7
420
 16777215
176
     0
 90
        1
176
     0
 90
        4
176
     0
 62
     7
176
     0
 62
   257
176
     0
 90
        1
176
     0
 90
        1
176
     0
 40
1.0
176
     0
 90
        8
176
     2
 62
     7
176
     0
 40
1.0
176
     0
 90
        1
176
     0
 90
        6
176
     0
 90
        2
176
     0
 62
     7
176
     0
 90
        5
176
     0
 90
        0
176
     0
 90
        0
176
     0
290
     0
176
     0
 90
        1
176
     0
 40
0.0
176
     0
 90
        0
176
     0
290
     0
176
     0
290
     1
176
     0
290
     1
176
     0
290
     0
176
     0
290
     0
176
     0
290
     0
176
     0
290
     0
176
     0
290
     0
176
     0
290
     0
176
     0
 90
       50
176
     0
 40
0.0
176
     0
 40
1.0
176
     0
 90
        0
176
     0
 62
    18
420
        0
176
     0
 90
       50
176
     0
 90
        3
176
     0
 62
     5
420
      255
176
     0
290
     0
176
     0
 90
       50
176
     0
 90
       50
176
     0
 90
       50
176
     0
290
     0
176
     0
 90
       50
176
     0
 62
   256
176
     0
 40
1.0
176
     0
 90
        2
176
     0
  1
strokes_ogs.tif
176
     0
290
     0
176
     0
 40
1.0
176
     0
 40
1.0
176
     0
  0
VISUALSTYLE
  5
38
102
{ACAD_REACTORS
330
29
102
}
330
29
100
AcDbVisualStyle
  2
Facepattern
 70
    15
177
     3
291
     1
 70
    58
 90
        2
176
     1
 90
        2
176
     1
 90
        0
176
     1
 90
        0
176
     1
 40
0.6
176
     1
 40
30.0
176
     1
 62
     7
420
 16777215
176
     1
 90
        1
176
     1
 90
        4
176
     1
 62
     7
176
     1
 62
   257
176
     1
 90
        1
176
     1
 90
        1
176
     1
 40
1.0
176
     1
 90
        8
176
     1
 62
     7
176
     1
 40
1.0
176
     1
 90
        1
176
     1
 90
        6
176
     1
 90
        2
176
     1
 62
     7
176
     1
 90
        5
176
     1
 90
        0
176
     1
 90
        0
176
     1
290
     0
176
     1
 90
        1
176
     1
 40
0.0
176
     1
 90
        0
176
     1
290
     0
176
     1
290
     1
176
     1
290
     1
176
     1
290
     0
176
     1
290
     0
176
     1
290
     0
176
     1
290
     0
176
     1
290
     0
176
     1
290
     0
176
     1
 90
       50
176
     1
 40
0.0
176
     1
 40
1.0
176
     1
 90
        0
176
     1
 62
    18
420
        0
176
     1
 90
       50
176
     1
 90
        3
176
     1
 62
     5
420
      255
176
     1
290
     0
176
     1
 90
       50
176
     1
 90
       50
176
     1
 90
       50
176
     1
290
     0
176
     1
 90
       50
176
     1
 62
   256
176
     0
 40
1.0
176
     0
 90
        2
176
     1
  1
strokes_ogs.tif
176
     1
290
     0
176
     1
 40
1.0
176
     1
 40
1.0
176
     1
  0
VISUALSTYLE
  5
2A
102
{ACAD_REACTORS
330
29
102
}
330
29
100
AcDbVisualStyle
  2
Flat
 70
     0
177
     3
291
     1
 70
    58
 90
        2
176
     1
 90
        1
176
     1
 90
        1
176
     1
 90
        2
176
     1
 40
0.6
176
     1
 40
30.0
176
     1
 62
     7
420
 16777215
176
     1
 90
        0
176
     1
 90
        0
176
     1
 62
     7
176
     1
 62
   257
176
     1
 90
        1
176
     1
 90
        1
176
     1
 40
1.0
176
     1
 90
        8
176
     1
 62
     7
176
     1
 40
1.0
176
     1
 90
        1
176
     1
 90
        6
176
     1
 90
        2
176
     1
 62
     7
176
     1
 90
        5
176
     1
 90
        0
176
     1
 90
        0
176
     1
290
     0
176
     1
 90
       13
176
     1
 40
0.0
176
     1
 90
        0
176
     1
290
     0
176
     1
290
     1
176
     1
290
     1
176
     1
290
     0
176
     1
290
     0
176
     1
290
     0
176
     1
290
     0
176
     1
290
     0
176
     1
290
     0
176
     1
 90
       50
176
     1
 40
0.0
176
     1
 40
1.0
176
     1
 90
        0
176
     1
 62
    18
420
        0
176
     1
 90
       50
176
     1
 90
        3
176
     1
 62
     5
420
      255
176
     1
290
     0
176
     1
 90
       50
176
     1
 90
       50
176
     1
 90
       50
176
     1
290
     0
176
     1
 90
       50
176
     1
 62
   256
176
     0
 40
1.0
176
     0
 90
        2
176
     1
  1
strokes_ogs.tif
176
     1
290
     0
176
     1
 40
1.0
176
     1
 40
1.0
176
     1
  0
VISUALSTYLE
  5
2B
102
{ACAD_REACTORS
330
29
102
}
330
29
100
AcDbVisualStyle
  2
FlatWithEdges
 70
     1
177
     3
291
     1
 70
    58
 90
        2
176
     1
 90
        1
176
     1
 90
        1
176
     1
 90
        2
176
     1
 40
0.6
176
     1
 40
30.0
176
     1
 62
     7
420
 16777215
176
     1
 90
        1
176
     1
 90
        0
176
     1
 62
     7
176
     1
 62
   257
176
     1
 90
        1
176
     1
 90
        1
176
     1
 40
1.0
176
     1
 90
        0
176
     1
 62
   257
176
     1
 40
1.0
176
     1
 90
        1
176
     1
 90
        6
176
     1
 90
        2
176
     1
 62
     7
176
     1
 90
        5
176
     1
 90
        0
176
     1
 90
        0
176
     1
290
     0
176
     1
 90
       13
176
     1
 40
0.0
176
     1
 90
        0
176
     1
290
     0
176
     1
290
     1
176
     1
290
     1
176
     1
290
     0
176
     1
290
     0
176
     1
290
     0
176
     1
290
     0
176
     1
290
     0
176
     1
290
     0
176
     1
 90
       50
176
     1
 40
0.0
176
     1
 40
1.0
176
     1
 90
        0
176
     1
 62
    18
420
        0
176
     1
 90
       50
176
     1
 90
        3
176
     1
 62
     5
420
      255
176
     1
290
     0
176
     1
 90
       50
176
     1
 90
       50
176
     1
 90
       50
176
     1
290
     0
176
     1
 90
       50
176
     1
 62
   256
176
     0
 40
1.0
176
     0
 90
        2
176
     1
  1
strokes_ogs.tif
176
     1
290
     0
176
     1
 40
1.0
176
     1
 40
1.0
176
     1
  0
VISUALSTYLE
  5
2C
102
{ACAD_REACTORS
330
29
102
}
330
29
100
AcDbVisualStyle
  2
Gouraud
 70
     2
177
     3
291
     1
 70
    58
 90
        2
176
     1
 90
        2
176
     1
 90
        1
176
     1
 90
        2
176
     1
 40
0.6
176
     1
 40
30.0
176
     1
 62
     7
420
 16777215
176
     1
 90
        0
176
     1
 90
        0
176
     1
 62
     7
176
     1
 62
   257
176
     1
 90
        1
176
     1
 90
        1
176
     1
 40
1.0
176
     1
 90
        0
176
     1
 62
     7
176
     1
 40
1.0
176
     1
 90
        1
176
     1
 90
        6
176
     1
 90
        2
176
     1
 62
     7
176
     1
 90
        5
176
     1
 90
        0
176
     1
 90
        0
176
     1
290
     0
176
     1
 90
       13
176
     1
 40
0.0
176
     1
 90
        0
176
     1
290
     0
176
     1
290
     1
176
     1
290
     1
176
     1
290
     0
176
     1
290
     0
176
     1
290
     0
176
     1
290
     0
176
     1
290
     0
176
     1
290
     0
176
     1
 90
       50
176
     1
 40
0.0
176
     1
 40
1.0
176
     1
 90
        0
176
     1
 62
    18
420
        0
176
     1
 90
       50
176
     1
 90
        3
176
     1
 62
     5
420
      255
176
     1
290
     0
176
     1
 90
       50
176
     1
 90
       50
176
     1
 90
       50
176
     1
290
     0
176
     1
 90
       50
176
     1
 62
   256
176
     0
 40
1.0
176
     0
 90
        2
176
     1
  1
strokes_ogs.tif
176
     1
290
     0
176
     1
 40
1.0
176
     1
 40
1.0
176
     1
  0
VISUALSTYLE
  5
2D
102
{ACAD_REACTORS
330
29
102
}
330
29
100
AcDbVisualStyle
  2
GouraudWithEdges
 70
     3
177
     3
291
     1
 70
    58
 90
        2
176
     1
 90
        2
176
     1
 90
        1
176
     1
 90
        2
176
     1
 40
0.6
176
     1
 40
30.0
176
     1
 62
     7
420
 16777215
176
     1
 90
        1
176
     1
 90
        0
176
     1
 62
     7
176
     1
 62
   257
176
     1
 90
        1
176
     1
 90
        1
176
     1
 40
1.0
176
     1
 90
        0
176
     1
 62
   257
176
     1
 40
1.0
176
     1
 90
        1
176
     1
 90
        6
176
     1
 90
        2
176
     1
 62
     7
176
     1
 90
        5
176
     1
 90
        0
176
     1
 90
        0
176
     1
290
     0
176
     1
 90
       13
176
     1
 40
0.0
176
     1
 90
        0
176
     1
290
     0
176
     1
290
     1
176
     1
290
     1
176
     1
290
     0
176
     1
290
     0
176
     1
290
     0
176
     1
290
     0
176
     1
290
     0
176
     1
290
     0
176
     1
 90
       50
176
     1
 40
0.0
176
     1
 40
1.0
176
     1
 90
        0
176
     1
 62
    18
420
        0
176
     1
 90
       50
176
     1
 90
        3
176
     1
 62
     5
420
      255
176
     1
290
     0
176
     1
 90
       50
176
     1
 90
       50
176
     1
 90
       50
176
     1
290
     0
176
     1
 90
       50
176
     1
 62
   256
176
     0
 40
1.0
176
     0
 90
        2
176
     1
  1
strokes_ogs.tif
176
     1
290
     0
176
     1
 40
1.0
176
     1
 40
1.0
176
     1
  0
VISUALSTYLE
  5
31
102
{ACAD_REACTORS
330
29
102
}
330
29
100
AcDbVisualStyle
  2
Hidden
 70
     6
177
     3
291
     0
 70
    58
 90
        1
176
     1
 90
        2
176
     1
 90
        2
176
     1
 90
        0
176
     1
 40
0.6
176
     1
 40
30.0
176
     1
 62
     7
420
 16777215
176
     1
 90
        2
176
     1
 90
        2
176
     1
 62
     7
176
     1
 62
   257
176
     1
 90
        2
176
     1
 90
        1
176
     1
 40
40.0
176
     1
 90
        0
176
     1
 62
   257
176
     1
 40
1.0
176
     1
 90
        1
176
     1
 90
        6
176
     1
 90
        2
176
     1
 62
     7
176
     1
 90
        3
176
     1
 90
        0
176
     1
 90
        0
176
     1
290
     0
176
     1
 90
        1
176
     1
 40
0.0
176
     1
 90
        0
176
     1
290
     0
176
     1
290
     1
176
     1
290
     1
176
     1
290
     0
176
     1
290
     0
176
     1
290
     0
176
     1
290
     0
176
     1
290
     0
176
     1
290
     0
176
     1
 90
       50
176
     1
 40
0.0
176
     1
 40
1.0
176
     1
 90
        0
176
     1
 62
    18
420
        0
176
     1
 90
       50
176
     1
 90
        3
176
     1
 62
     5
420
      255
176
     1
290
     0
176
     1
 90
       50
176
     1
 90
       50
176
     1
 90
       50
176
     1
290
     0
176
     1
 90
       50
176
     1
 62
   256
176
     0
 40
1.0
176
     0
 90
        2
176
     1
  1
strokes_ogs.tif
176
     1
290
     0
176
     1
 40
1.0
176
     1
 40
1.0
176
     1
  0
VISUALSTYLE
  5
3F
102
{ACAD_REACTORS
330
29
102
}
330
29
100
AcDbVisualStyle
  2
JitterOff
 70
    20
177
     3
291
     1
 70
    58
 90
        2
176
     0
 90
        2
176
     0
 90
        0
176
     0
 90
        0
176
     0
 40
0.6
176
     0
 40
30.0
176
     0
 62
     7
420
 16777215
176
     0
 90
        1
176
     0
 90
        4
176
     0
 62
     7
176
     0
 62
   257
176
     0
 90
        1
176
     0
 90
        1
176
     0
 40
1.0
176
     0
 90
       10
176
     2
 62
     7
176
     0
 40
1.0
176
     0
 90
        1
176
     0
 90
        6
176
     0
 90
        2
176
     0
 62
     7
176
     0
 90
        5
176
     0
 90
        0
176
     0
 90
        0
176
     0
290
     0
176
     0
 90
        1
176
     0
 40
0.0
176
     0
 90
        0
176
     0
290
     0
176
     0
290
     1
176
     0
290
     1
176
     0
290
     0
176
     0
290
     0
176
     0
290
     0
176
     0
290
     0
176
     0
290
     0
176
     0
290
     0
176
     0
 90
       50
176
     0
 40
0.0
176
     0
 40
1.0
176
     0
 90
        0
176
     0
 62
    18
420
        0
176
     0
 90
       50
176
     0
 90
        3
176
     0
 62
     5
420
      255
176
     0
290
     0
176
     0
 90
       50
176
     0
 90
       50
176
     0
 90
       50
176
     0
290
     0
176
     0
 90
       50
176
     0
 62
   256
176
     0
 40
1.0
176
     0
 90
        2
176
     0
  1
strokes_ogs.tif
176
     0
290
     0
176
     0
 40
1.0
176
     0
 40
1.0
176
     0
  0
VISUALSTYLE
  5
37
102
{ACAD_REACTORS
330
29
102
}
330
29
100
AcDbVisualStyle
  2
Linepattern
 70
    14
177
     3
291
     1
 70
    58
 90
        2
176
     1
 90
        2
176
     1
 90
        0
176
     1
 90
        0
176
     1
 40
0.6
176
     1
 40
30.0
176
     1
 62
     7
420
 16777215
176
     1
 90
        1
176
     1
 90
        4
176
     1
 62
     7
176
     1
 62
   257
176
     1
 90
        7
176
     1
 90
        7
176
     1
 40
1.0
176
     1
 90
        8
176
     1
 62
     7
176
     1
 40
1.0
176
     1
 90
        1
176
     1
 90
        6
176
     1
 90
        2
176
     1
 62
     7
176
     1
 90
        5
176
     1
 90
        0
176
     1
 90
        0
176
     1
290
     0
176
     1
 90
        1
176
     1
 40
0.0
176
     1
 90
        0
176
     1
290
     0
176
     1
290
     1
176
     1
290
     1
176
     1
290
     0
176
     1
290
     0
176
     1
290
     0
176
     1
290
     0
176
     1
290
     0
176
     1
290
     0
176
     1
 90
       50
176
     1
 40
0.0
176
     1
 40
1.0
176
     1
 90
        0
176
     1
 62
    18
420
        0
176
     1
 90
       50
176
     1
 90
        3
176
     1
 62
     5
420
      255
176
     1
290
     0
176
     1
 90
       50
176
     1
 90
       50
176
     1
 90
       50
176
     1
290
     0
176
     1
 90
       50
176
     1
 62
   256
176
     0
 40
1.0
176
     0
 90
        2
176
     1
  1
strokes_ogs.tif
176
     1
290
     0
176
     1
 40
1.0
176
     1
 40
1.0
176
     1
  0
VISUALSTYLE
  5
40
102
{ACAD_REACTORS
330
29
102
}
330
29
100
AcDbVisualStyle
  2
OverhangOff
 70
    21
177
     3
291
     1
 70
    58
 90
        2
176
     0
 90
        2
176
     0
 90
        0
176
     0
 90
        0
176
     0
 40
0.6
176
     0
 40
30.0
176
     0
 62
     7
420
 16777215
176
     0
 90
        1
176
     0
 90
        4
176
     0
 62
     7
176
     0
 62
   257
176
     0
 90
        1
176
     0
 90
        1
176
     0
 40
1.0
176
     0
 90
        9
176
     2
 62
     7
176
     0
 40
1.0
176
     0
 90
        1
176
     0
 90
        6
176
     0
 90
        2
176
     0
 62
     7
176
     0
 90
        5
176
     0
 90
        0
176
     0
 90
        0
176
     0
290
     0
176
     0
 90
        1
176
     0
 40
0.0
176
     0
 90
        0
176
     0
290
     0
176
     0
290
     1
176
     0
290
     1
176
     0
290
     0
176
     0
290
     0
176
     0
290
     0
176
     0
290
     0
176
     0
290
     0
176
     0
290
     0
176
     0
 90
       50
176
     0
 40
0.0
176
     0
 40
1.0
176
     0
 90
        0
176
     0
 62
    18
420
        0
176
     0
 90
       50
176
     0
 90
        3
176
     0
 62
     5
420
      255
176
     0
290
     0
176
     0
 90
       50
176
     0
 90
       50
176
     0
 90
       50
176
     0
290
     0
176
     0
 90
       50
176
     0
 62
   256
176
     0
 40
1.0
176
     0
 90
        2
176
     0
  1
strokes_ogs.tif
176
     0
290
     0
176
     0
 40
1.0
176
     0
 40
1.0
176
     0
  0
VISUALSTYLE
  5
33
102
{ACAD_REACTORS
330
29
102
}
330
29
100
AcDbVisualStyle
  2
Realistic
 70
     8
177
     3
291
     0
 70
    58
 90
        2
176
     1
 90
        3
176
     1
 90
        0
176
     1
 90
        2
176
     1
 40
0.6
176
     1
 40
30.0
176
     1
 62
     7
420
 16777215
176
     1
 90
        0
176
     1
 90
        0
176
     1
 62
     7
176
     1
 62
   257
176
     1
 90
        1
176
     1
 90
        1
176
     1
 40
1.0
176
     1
 90
        8
176
     1
 62
   257
176
     1
 40
1.0
176
     1
 90
        1
176
     1
 90
        6
176
     1
 90
        2
176
     1
 62
     7
176
     1
 90
        3
176
     1
 90
        0
176
     1
 90
        0
176
     1
290
     0
176
     1
 90
       13
176
     1
 40
0.0
176
     1
 90
        0
176
     1
290
     0
176
     1
290
     1
176
     1
290
     1
176
     1
290
     0
176
     1
290
     0
176
     1
290
     0
176
     1
290
     0
176
     1
290
     0
176
     1
290
     0
176
     1
 90
       50
176
     1
 40
0.0
176
     1
 40
1.0
176
     1
 90
        0
176
     1
 62
    18
420
        0
176
     1
 90
       50
176
     1
 90
        3
176
     1
 62
     5
420
      255
176
     1
290
     0
176
     1
 90
       50
176
     1
 90
       50
176
     1
 90
       50
176
     1
290
     0
176
     1
 90
       50
176
     1
 62
   256
176
     0
 40
1.0
176
     0
 90
        2
176
     1
  1
strokes_ogs.tif
176
     1
290
     0
176
     1
 40
1.0
176
     1
 40
1.0
176
     1
  0
VISUALSTYLE
  5
3E
102
{ACAD_REACTORS
330
29
102
}
330
29
100
AcDbVisualStyle
  2
Shaded
 70
    27
177
     3
291
     0
 70
    58
 90
        2
176
     1
 90
        2
176
     1
 90
        1
176
     1
 90
        2
176
     1
 40
0.6
176
     1
 40
30.0
176
     1
 62
     7
420
 16777215
176
     1
 90
        0
176
     1
 90
        4
176
     1
 62
     7
176
     1
 62
   257
176
     1
 90
        1
176
     1
 90
        1
176
     1
 40
1.0
176
     1
 90
        8
176
     1
 62
   257
176
     1
 40
1.0
176
     1
 90
        1
176
     1
 90
        6
176
     1
 90
        2
176
     1
 62
     8
420
  7895160
176
     1
 90
        3
176
     1
 90
        0
176
     1
 90
        0
176
     1
290
     0
176
     1
 90
        5
176
     1
 40
0.0
176
     1
 90
        0
176
     1
290
     0
176
     1
290
     1
176
     1
290
     1
176
     1
290
     0
176
     1
290
     0
176
     1
290
     0
176
     1
290
     0
176
     1
290
     0
176
     1
290
     0
176
     1
 90
       50
176
     1
 40
0.0
176
     1
 40
1.0
176
     1
 90
        0
176
     1
 62
    18
420
        0
176
     1
 90
       50
176
     1
 90
        3
176
     1
 62
     5
420
      255
176
     1
290
     0
176
     1
 90
       50
176
     1
 90
       50
176
     1
 90
       50
176
     1
290
     0
176
     1
 90
       50
176
     1
 62
   256
176
     0
 40
1.0
176
     0
 90
        2
176
     1
  1
strokes_ogs.tif
176
     1
290
     0
176
     1
 40
1.0
176
     1
 40
1.0
176
     1
  0
VISUALSTYLE
  5
3D
102
{ACAD_REACTORS
330
29
102
}
330
29
100
AcDbVisualStyle
  2
Shaded with edges
 70
    26
177
     3
291
     0
 70
    58
 90
        2
176
     1
 90
        2
176
     1
 90
        1
176
     1
 90
        2
176
     1
 40
0.6
176
     1
 40
30.0
176
     1
 62
     7
420
 16777215
176
     1
 90
        1
176
     1
 90
        2
176
     1
 62
     7
176
     1
 62
   257
176
     1
 90
        2
176
     1
 90
        1
176
     1
 40
1.0
176
     1
 90
        8
176
     1
 62
   257
176
     1
 40
1.0
176
     1
 90
        1
176
     1
 90
        6
176
     1
 90
        2
176
     1
 62
     7
176
     1
 90
        3
176
     1
 90
        0
176
     1
 90
        0
176
     1
290
     0
176
     1
 90
        5
176
     1
 40
0.0
176
     1
 90
        0
176
     1
290
     0
176
     1
290
     1
176
     1
290
     1
176
     1
290
     0
176
     1
290
     0
176
     1
290
     0
176
     1
290
     0
176
     1
290
     0
176
     1
290
     0
176
     1
 90
       50
176
     1
 40
0.0
176
     1
 40
1.0
176
     1
 90
        0
176
     1
 62
    18
420
        0
176
     1
 90
       50
176
     1
 90
        3
176
     1
 62
     5
420
      255
176
     1
290
     0
176
     1
 90
       50
176
     1
 90
       50
176
     1
 90
       50
176
     1
290
     0
176
     1
 90
       50
176
     1
 62
   256
176
     0
 40
1.0
176
     0
 90
        2
176
     1
  1
strokes_ogs.tif
176
     1
290
     0
176
     1
 40
1.0
176
     1
 40
1.0
176
     1
  0
VISUALSTYLE
  5
3A
102
{ACAD_REACTORS
330
29
102
}
330
29
100
AcDbVisualStyle
  2
Shades of Gray
 70
    23
177
     3
291
     0
 70
    58
 90
        2
176
     1
 90
        2
176
     1
 90
        3
176
     1
 90
        0
176
     1
 40
0.6
176
     1
 40
30.0
176
     1
 62
     7
420
 16777215
176
     1
 90
        2
176
     1
 90
        2
176
     1
 62
     7
176
     1
 62
     7
176
     1
 90
        1
176
     1
 90
        1
176
     1
 40
40.0
176
     1
 90
        8
176
     1
 62
     7
176
     1
 40
1.0
176
     1
 90
        1
176
     1
 90
        6
176
     1
 90
        2
176
     1
 62
     7
176
     1
 90
        3
176
     1
 90
        0
176
     1
 90
        0
176
     1
290
     0
176
     1
 90
        1
176
     1
 40
0.0
176
     1
 90
        0
176
     1
290
     0
176
     1
290
     1
176
     1
290
     1
176
     1
290
     0
176
     1
290
     0
176
     1
290
     0
176
     1
290
     0
176
     1
290
     0
176
     1
290
     0
176
     1
 90
       50
176
     1
 40
0.0
176
     1
 40
1.0
176
     1
 90
        0
176
     1
 62
    18
420
        0
176
     1
 90
       50
176
     1
 90
        3
176
     1
 62
     5
420
      255
176
     1
290
     0
176
     1
 90
       50
176
     1
 90
       50
176
     1
 90
       50
176
     1
290
     0
176
     1
 90
       50
176
     1
 62
   256
176
     0
 40
1.0
176
     0
 90
        2
176
     1
  1
strokes_ogs.tif
176
     1
290
     0
176
     1
 40
1.0
176
     1
 40
1.0
176
     1
  0
VISUALSTYLE
  5
3B
102
{ACAD_REACTORS
330
29
102
}
330
29
100
AcDbVisualStyle
  2
Sketchy
 70
    24
177
     3
291
     0
 70
    58
 90
        1
176
     1
 90
        2
176
     1
 90
        2
176
     1
 90
        0
176
     1
 40
0.6
176
     1
 40
30.0
176
     1
 62
     7
420
 16777215
176
     1
 90
        2
176
     1
 90
        2
176
     1
 62
     7
176
     1
 62
     7
176
     1
 90
        1
176
     1
 90
        1
176
     1
 40
40.0
176
     1
 90
       11
176
     1
 62
     7
176
     1
 40
1.0
176
     1
 90
        1
176
     1
 90
        6
176
     1
 90
        2
176
     1
 62
     7
176
     1
 90
        6
176
     1
 90
        0
176
     1
 90
        0
176
     1
290
     0
176
     1
 90
        1
176
     1
 40
0.0
176
     1
 90
        0
176
     1
290
     0
176
     1
290
     1
176
     1
290
     1
176
     1
290
     0
176
     1
290
     0
176
     1
290
     0
176
     1
290
     0
176
     1
290
     0
176
     1
290
     0
176
     1
 90
       50
176
     1
 40
0.0
176
     1
 40
1.0
176
     1
 90
        0
176
     1
 62
    18
420
        0
176
     1
 90
       50
176
     1
 90
        3
176
     1
 62
     5
420
      255
176
     1
290
     0
176
     1
 90
       50
176
     1
 90
       50
176
     1
 90
       50
176
     1
290
     0
176
     1
 90
       50
176
     1
 62
   256
176
     0
 40
1.0
176
     0
 90
        2
176
     1
  1
strokes_ogs.tif
176
     1
290
     0
176
     1
 40
1.0
176
     1
 40
1.0
176
     1
  0
VISUALSTYLE
  5
36
102
{ACAD_REACTORS
330
29
102
}
330
29
100
AcDbVisualStyle
  2
Thicken
 70
    13
177
     3
291
     1
 70
    58
 90
        2
176
     1
 90
        2
176
     1
 90
        0
176
     1
 90
        0
176
     1
 40
0.6
176
     1
 40
30.0
176
     1
 62
     7
420
 16777215
176
     1
 90
        1
176
     1
 90
        4
176
     1
 62
     7
176
     1
 62
   257
176
     1
 90
        1
176
     1
 90
        1
176
     1
 40
1.0
176
     1
 90
       12
176
     1
 62
     7
176
     1
 40
1.0
176
     1
 90
        1
176
     1
 90
        6
176
     1
 90
        2
176
     1
 62
     7
176
     1
 90
        5
176
     1
 90
        0
176
     1
 90
        0
176
     1
290
     0
176
     1
 90
        1
176
     1
 40
0.0
176
     1
 90
        0
176
     1
290
     0
176
     1
290
     1
176
     1
290
     1
176
     1
290
     0
176
     1
290
     0
176
     1
290
     0
176
     1
290
     0
176
     1
290
     0
176
     1
290
     0
176
     1
 90
       50
176
     1
 40
0.0
176
     1
 40
1.0
176
     1
 90
        0
176
     1
 62
    18
420
        0
176
     1
 90
       50
176
     1
 90
        3
176
     1
 62
     5
420
      255
176
     1
290
     0
176
     1
 90
       50
176
     1
 90
       50
176
     1
 90
       50
176
     1
290
     0
176
     1
 90
       50
176
     1
 62
   256
176
     0
 40
1.0
176
     0
 90
        2
176
     1
  1
strokes_ogs.tif
176
     1
290
     0
176
     1
 40
1.0
176
     1
 40
1.0
176
     1
  0
VISUALSTYLE
  5
30
102
{ACAD_REACTORS
330
29
102
}
330
29
100
AcDbVisualStyle
  2
Wireframe
 70
     5
177
     3
291
     0
 70
    58
 90
        0
176
     1
 90
        2
176
     1
 90
        0
176
     1
 90
        0
176
     1
 40
0.6
176
     1
 40
30.0
176
     1
 62
     7
420
 16777215
176
     1
 90
        1
176
     1
 90
        4
176
     1
 62
     7
176
     1
 62
   257
176
     1
 90
        1
176
     1
 90
        1
176
     1
 40
1.0
176
     1
 90
        0
176
     1
 62
   257
176
     1
 40
1.0
176
     1
 90
        1
176
     1
 90
        6
176
     1
 90
        2
176
     1
 62
     7
176
     1
 90
        3
176
     1
 90
        0
176
     1
 90
        0
176
     1
290
     0
176
     1
 90
        1
176
     1
 40
0.0
176
     1
 90
        0
176
     1
290
     0
176
     1
290
     1
176
     1
290
     1
176
     1
290
     0
176
     1
290
     0
176
     1
290
     0
176
     1
290
     0
176
     1
290
     0
176
     1
290
     0
176
     1
 90
       50
176
     1
 40
0.0
176
     1
 40
1.0
176
     1
 90
        0
176
     1
 62
    18
420
        0
176
     1
 90
       50
176
     1
 90
        3
176
     1
 62
     5
420
      255
176
     1
290
     0
176
     1
 90
       50
176
     1
 90
       50
176
     1
 90
       50
176
     1
290
     0
176
     1
 90
       50
176
     1
 62
   256
176
     0
 40
1.0
176
     0
 90
        2
176
     1
  1
strokes_ogs.tif
176
     1
290
     0
176
     1
 40
1.0
176
     1
 40
1.0
176
     1
  0
VISUALSTYLE
  5
3C
102
{ACAD_REACTORS
330
29
102
}
330
29
100
AcDbVisualStyle
  2
X-Ray
 70
    25
177
     3
291
     0
 70
    58
 90
        2
176
     1
 90
        2
176
     1
 90
        1
176
     1
 90
        1
176
     1
 40
0.5
176
     1
 40
30.0
176
     1
 62
     7
420
 16777215
176
     1
 90
        1
176
     1
 90
        0
176
     1
 62
     7
176
     1
 62
   257
176
     1
 90
        1
176
     1
 90
        1
176
     1
 40
1.0
176
     1
 90
        8
176
     1
 62
     7
176
     1
 40
1.0
176
     1
 90
        1
176
     1
 90
        6
176
     1
 90
        2
176
     1
 62
     7
176
     1
 90
        3
176
     1
 90
        0
176
     1
 90
        0
176
     1
290
     0
176
     1
 90
       13
176
     1
 40
0.0
176
     1
 90
        0
176
     1
290
     0
176
     1
290
     1
176
     1
290
     1
176
     1
290
     0
176
     1
290
     0
176
     1
290
     0
176
     1
290
     0
176
     1
290
     0
176
     1
290
     0
176
     1
 90
       50
176
     1
 40
0.0
176
     1
 40
1.0
176
     1
 90
        0
176
     1
 62
    18
420
        0
176
     1
 90
       50
176
     1
 90
        3
176
     1
 62
     5
420
      255
176
     1
290
     0
176
     1
 90
       50
176
     1
 90
       50
176
     1
 90
       50
176
     1
290
     0
176
     1
 90
       50
176
     1
 62
   256
176
     0
 40
1.0
176
     0
 90
        2
176
     1
  1
strokes_ogs.tif
176
     1
290
     0
176
     1
 40
1.0
176
     1
 40
1.0
176
     1
  0
DICTIONARYVAR
  5
95
102
{ACAD_REACTORS
330
90
102
}
330
90
100
DictionaryVariables
280
     0
  1
1:1
  0
DICTIONARYVAR
  5
92
102
{ACAD_REACTORS
330
90
102
}
330
90
100
DictionaryVariables
280
     0
  1
STANDARD
  0
DICTIONARYVAR
  5
91
102
{ACAD_REACTORS
330
90
102
}
330
90
100
DictionaryVariables
280
     0
  1
STANDARD
  0
DICTIONARYVAR
  5
93
102
{ACAD_REACTORS
330
90
102
}
330
90
100
DictionaryVariables
280
     0
  1
Imperial24
  0
DICTIONARYVAR
  5
94
102
{ACAD_REACTORS
330
90
102
}
330
90
100
DictionaryVariables
280
     0
  1
Imperial24
  0
DICTIONARY
  5
1A
330
19
100
AcDbDictionary
280
     1
281
     1
  3
BUMPTILE
360
1C
  3
DIFFUSETILE
360
1B
  3
OPACITYTILE
360
1F
  3
REFLECTIONTILE
360
1E
  3
REFRACTIONTILE
360
20
  3
SPECULARTILE
360
1D
  0
DICTIONARY
  5
12
330
11
100
AcDbDictionary
280
     1
281
     1
  3
BUMPTILE
360
14
  3
DIFFUSETILE
360
13
  3
OPACITYTILE
360
17
  3
REFLECTIONTILE
360
16
  3
REFRACTIONTILE
360
18
  3
SPECULARTILE
360
15
  0
DICTIONARY
  5
22
330
21
100
AcDbDictionary
280
     1
281
     1
  3
BUMPTILE
360
24
  3
DIFFUSETILE
360
23
  3
OPACITYTILE
360
27
  3
REFLECTIONTILE
360
26
  3
REFRACTIONTILE
360
28
  3
SPECULARTILE
360
25
  0
DICTIONARY
  5
96
330
65
100
AcDbDictionary
280
     1
281
     1
  3
ACAD_ROUNDTRIP_2008_TABLESTYLE_CELLSTYLEMAP
360
97
  0
XRECORD
  5
1C
102
{ACAD_REACTORS
330
1A
102
}
330
1A
100
AcDbXrecord
280
     1
270
     1
271
     1
  0
XRECORD
  5
1B
102
{ACAD_REACTORS
330
1A
102
}
330
1A
100
AcDbXrecord
280
     1
270
     1
271
     1
  0
XRECORD
  5
1F
102
{ACAD_REACTORS
330
1A
102
}
330
1A
100
AcDbXrecord
280
     1
270
     1
271
     1
  0
XRECORD
  5
1E
102
{ACAD_REACTORS
330
1A
102
}
330
1A
100
AcDbXrecord
280
     1
270
     1
271
     1
  0
XRECORD
  5
20
102
{ACAD_REACTORS
330
1A
102
}
330
1A
100
AcDbXrecord
280
     1
270
     1
271
     1
  0
XRECORD
  5
1D
102
{ACAD_REACTORS
330
1A
102
}
330
1A
100
AcDbXrecord
280
     1
270
     1
271
     1
  0
XRECORD
  5
14
102
{ACAD_REACTORS
330
12
102
}
330
12
100
AcDbXrecord
280
     1
270
     1
271
     1
  0
XRECORD
  5
13
102
{ACAD_REACTORS
330
12
102
}
330
12
100
AcDbXrecord
280
     1
270
     1
271
     1
  0
XRECORD
  5
17
102
{ACAD_REACTORS
330
12
102
}
330
12
100
AcDbXrecord
280
     1
270
     1
271
     1
  0
XRECORD
  5
16
102
{ACAD_REACTORS
330
12
102
}
330
12
100
AcDbXrecord
280
     1
270
     1
271
     1
  0
XRECORD
  5
18
102
{ACAD_REACTORS
330
12
102
}
330
12
100
AcDbXrecord
280
     1
270
     1
271
     1
  0
XRECORD
  5
15
102
{ACAD_REACTORS
330
12
102
}
330
12
100
AcDbXrecord
280
     1
270
     1
271
     1
  0
XRECORD
  5
24
102
{ACAD_REACTORS
330
22
102
}
330
22
100
AcDbXrecord
280
     1
270
     1
271
     1
  0
XRECORD
  5
23
102
{ACAD_REACTORS
330
22
102
}
330
22
100
AcDbXrecord
280
     1
270
     1
271
     1
  0
XRECORD
  5
27
102
{ACAD_REACTORS
330
22
102
}
330
22
100
AcDbXrecord
280
     1
270
     1
271
     1
  0
XRECORD
  5
26
102
{ACAD_REACTORS
330
22
102
}
330
22
100
AcDbXrecord
280
     1
270
     1
271
     1
  0
XRECORD
  5
28
102
{ACAD_REACTORS
330
22
102
}
330
22
100
AcDbXrecord
280
     1
270
     1
271
     1
  0
XRECORD
  5
25
102
{ACAD_REACTORS
330
22
102
}
330
22
100
AcDbXrecord
280
     1
270
     1
271
     1
  0
CELLSTYLEMAP
  5
97
102
{ACAD_REACTORS
330
96
102
}
330
96
100
AcDbCellStyleMap
 90
        3
300
CELLSTYLE
  1
TABLEFORMAT_BEGIN
 90
        5
170
     1
 91
        0
 92
    32768
 62
   257
 93
        1
300
CONTENTFORMAT
  1
CONTENTFORMAT_BEGIN
 90
        0
 91
        0
 92
      512
 93
        0
300

 40
0.0
140
1.0
 94
        5
 62
     0
340
55
144
0.25
309
CONTENTFORMAT_END
171
     0
 94
        0
309
TABLEFORMAT_END
  1
CELLSTYLE_BEGIN
 90
        1
 91
        1
300
_TITLE
309
CELLSTYLE_END
300
CELLSTYLE
  1
TABLEFORMAT_BEGIN
 90
        5
170
     1
 91
        0
 92
        0
 62
   257
 93
        1
300
CONTENTFORMAT
  1
CONTENTFORMAT_BEGIN
 90
        0
 91
        0
 92
      512
 93
        0
300

 40
0.0
140
1.0
 94
        5
 62
     0
340
55
144
0.18
309
CONTENTFORMAT_END
171
     0
 94
        0
309
TABLEFORMAT_END
  1
CELLSTYLE_BEGIN
 90
        2
 91
        1
300
_HEADER
309
CELLSTYLE_END
300
CELLSTYLE
  1
TABLEFORMAT_BEGIN
 90
        5
170
     1
 91
        0
 92
        0
 62
   257
 93
        1
300
CONTENTFORMAT
  1
CONTENTFORMAT_BEGIN
 90
        0
 91
        0
 92
      512
 93
        0
300

 40
0.0
140
1.0
 94
        2
 62
     0
340
55
144
0.18
309
CONTENTFORMAT_END
171
     0
 94
        0
309
TABLEFORMAT_END
  1
CELLSTYLE_BEGIN
 90
        3
 91
        2
300
_DATA
309
CELLSTYLE_END
  0
ENDSEC
  0
EOF
